999
FreeCAD v1.0 39319 (Git)
  0
SECTION
  2
HEADER
  9
$ACADVER
  1
AC1014
  9
$ACADMAINTVER
 70
     9
  9
$DWGCODEPAGE
  3
ANSI_1252
  9
$TEXTSTYLE
  7
STANDARD
  9
$DIMSTYLE
  2
STANDARD
  9
$DIMTXSTY
  7
STANDARD
  9
$CMLSTYLE
  2
STANDARD
  9
$LUNITS
 70
2
  9
$INSUNITS
 70
4
  9
$PEXTMAX
 10
50
 20
50
 30
50
  9
$PEXTMIN
 10
0
 20
0
 30
0
  9
$HANDSEED
  5
FFFF
  0
ENDSEC
  0
SECTION
  2
CLASSES
  0
CLASS
  1
ACDBDICTIONARYWDFLT
  2
AcDbDictionaryWithDefault
  3
ObjectDBX Classes
 90
        0
280
     0
281
     0
  0
CLASS
  1
XRECORD
  2
AcDbXrecord
  3
ObjectDBX Classes
 90
        0
280
     0
281
     0
  0
CLASS
  1
LWPOLYLINE
  2
AcDbPolyline
  3
ObjectDBX Classes
 90
        0
280
     0
281
     1
  0
ENDSEC
  0
SECTION
  2
TABLES
  0
TABLE
  2
VPORT
  5
20
330
0
100
AcDbSymbolTable
 70
     1
  0
VPORT
  5
21
330
20
100
AcDbSymbolTableRecord
100
AcDbViewportTableRecord
  2
*ACTIVE
 70
     0
  0
ENDTAB
  0
TABLE
  2
LTYPE
  5
22
330
0
100
AcDbSymbolTable
 70
     1
  0
LTYPE
  5
23
330
21
100
AcDbSymbolTableRecord
100
AcDbLinetypeTableRecord
  2
BYBLOCK
 70
     0
  3

 72
    65
 73
     0
 40
0.0
  0
LTYPE
  5
24
330
21
100
AcDbSymbolTableRecord
100
AcDbLinetypeTableRecord
  2
BYLAYER
 70
     0
  3

 72
    65
 73
     0
 40
0.0
  0
LTYPE
  5
25
330
21
100
AcDbSymbolTableRecord
100
AcDbLinetypeTableRecord
  2
CONTINUOUS
 70
     0
  3
Solid line
 72
    65
 73
     0
 40
0.0
  0
ENDTAB
  0
TABLE
  2
LAYER
  5
BD0
330
0
100
AcDbSymbolTable
 70
3
  0
LAYER
  5
BD1
330
BD0
100
AcDbSymbolTableRecord
100
AcDbLayerTableRecord
  2
0
 70
   0
 62
   7
  6
CONTINUOUS
  0
LAYER
  5
BD2
330
BD0
100
AcDbSymbolTableRecord
100
AcDbLayerTableRecord
  2
none
 70
    0
 62
    7
  6
CONTINUOUS
  0
LAYER
  5
BD3
330
BD0
100
AcDbSymbolTableRecord
100
AcDbLayerTableRecord
  2
Sketch
 70
    0
 62
    7
  6
CONTINUOUS
  0
ENDTAB
  0
TABLE
  2
STYLE
  5
70
330
0
100
AcDbSymbolTable
 70
     2
  0
STYLE
  5
71
330
70
100
AcDbSymbolTableRecord
100
AcDbTextStyleTableRecord
  2
STANDARD
 70
     0
 40
0.0
 41
1.0
 50
0.0
 71
     0
 42
2.5
  3
arial.ttf
  4

  0
STYLE
  5
72
330
70
100
AcDbSymbolTableRecord
100
AcDbTextStyleTableRecord
  2
ANNOTATIVE
 70
     0
 40
0.0
 41
1.0
 50
0.0
 71
     0
 42
2.5
  3
arial.ttf
  4

  0
ENDTAB
  0
TABLE
  2
VIEW
  5
73
330
0
100
AcDbSymbolTable
 70
     0
  0
ENDTAB
  0
TABLE
  2
UCS
  5
74
330
0
100
AcDbSymbolTable
 70
     0
  0
ENDTAB
  0
TABLE
  2
APPID
  5
75
330
0
100
AcDbSymbolTable
 70
     2
  0
APPID
  5
76
330
75
100
AcDbSymbolTableRecord
100
AcDbRegAppTableRecord
  2
ACAD
 70
     0
  0
APPID
  5
77
330
75
100
AcDbSymbolTableRecord
100
AcDbRegAppTableRecord
  2
ACADANNOTATIVE
 70
     0
  0
ENDTAB
  0
TABLE
  2
DIMSTYLE
  5
78
330
0
100
AcDbSymbolTable
 70
     2
  0
DIMSTYLE
105
79
330
78
100
AcDbSymbolTableRecord
100
AcDbDimStyleTableRecord
  2
STANDARD
 70
     0
  3

  4

  5

  6

  7

 40
0.0
 41
2.5
 42
0.625
 43
3.75
 44
1.25
 45
0.0
 46
0.0
 47
0.0
 48
0.0
140
2.5
141
2.5
142
0.0
143
0.03937007874016
144
1.0
145
0.0
146
1.0
147
0.625
 71
     0
 72
     0
 73
     0
 74
     0
 75
     0
 76
     0
 77
     1
 78
     8
170
     0
171
     3
172
     1
173
     0
174
     0
175
     0
176
     0
177
     0
178
     0
270
     2
271
     2
272
     2
273
     2
274
     3
340
71
275
     0
280
     0
281
     0
282
     0
283
     0
284
     8
285
     0
286
     0
287
     3
288
     0
  0
ENDTAB
  0
TABLE
  2
BLOCK_RECORD
  5
A01
330
0
100
AcDbSymbolTable
  70
5
  0
BLOCK_RECORD
  5
A02
330
A01
100
AcDbSymbolTableRecord
100
AcDbBlockTableRecord
  2
*MODEL_SPACE
  0
BLOCK_RECORD
  5
A03
330
A01
100
AcDbSymbolTableRecord
100
AcDbBlockTableRecord
  2
*PAPER_SPACE
  0
ENDTAB
  0
ENDSEC
  0
SECTION
  2
BLOCKS
  0
BLOCK
  5
A04
330
A02
100
AcDbEntity
  8
0
100
AcDbBlockBegin
  2
*MODEL_SPACE
 70
   0
 10
0
 20
0
 30
0
  3
*MODEL_SPACE
  1
 
  0
ENDBLK
  5
A05
330
A02
100
AcDbEntity
  8
0
100
AcDbBlockEnd
  0
BLOCK
  5
A06
330
A03
100
AcDbEntity
 67
1
  8
0
100
AcDbBlockBegin
  2
*PAPER_SPACE
 70
   0
 10
0
 20
0
 30
0
  3
*PAPER_SPACE
  1
 
  0
ENDBLK
  5
A07
330
A03
100
AcDbEntity
 67
    1
  8
0
100
AcDbBlockEnd
  0
ENDSEC
  0
SECTION
  2
ENTITIES
  0
LINE
  5
A08
330
A02
100
AcDbEntity
  8
Sketch
100
AcDbLine
 10
10.500000000
 20
25.166606056
 30
0.000000000
 11
10.500000000
 21
24.926606056
 31
0.000000000
  0
LINE
  5
A09
330
A02
100
AcDbEntity
  8
Sketch
100
AcDbLine
 10
10.500000000
 20
24.926606056
 30
0.000000000
 11
10.500000000
 21
24.626606056
 31
0.000000000
  0
ARC
  5
A0A
330
A02
100
AcDbEntity
  8
Sketch
100
AcDbCircle
 10
10.500000000
 20
24.126606056
 30
0.000000000
 40
0.500000000
100
AcDbArc
 50
90.000000000
 51
-90.000000000
  0
LINE
  5
A0B
330
A02
100
AcDbEntity
  8
Sketch
100
AcDbLine
 10
10.500000000
 20
23.626606056
 30
0.000000000
 11
10.500000000
 21
23.326606056
 31
0.000000000
  0
LINE
  5
A0C
330
A02
100
AcDbEntity
  8
Sketch
100
AcDbLine
 10
10.500000000
 20
23.326606056
 30
0.000000000
 11
10.500000000
 21
22.386606056
 31
0.000000000
  0
LINE
  5
A0D
330
A02
100
AcDbEntity
  8
Sketch
100
AcDbLine
 10
10.500000000
 20
22.386606056
 30
0.000000000
 11
10.500000000
 21
22.086606056
 31
0.000000000
  0
ARC
  5
A0E
330
A02
100
AcDbEntity
  8
Sketch
100
AcDbCircle
 10
10.500000000
 20
21.586606056
 30
0.000000000
 40
0.500000000
100
AcDbArc
 50
90.000000000
 51
-90.000000000
  0
LINE
  5
A0F
330
A02
100
AcDbEntity
  8
Sketch
100
AcDbLine
 10
10.500000000
 20
21.086606056
 30
0.000000000
 11
10.500000000
 21
20.786606056
 31
0.000000000
  0
LINE
  5
A10
330
A02
100
AcDbEntity
  8
Sketch
100
AcDbLine
 10
10.500000000
 20
20.786606056
 30
0.000000000
 11
10.500000000
 21
19.846606056
 31
0.000000000
  0
LINE
  5
A11
330
A02
100
AcDbEntity
  8
Sketch
100
AcDbLine
 10
10.500000000
 20
19.846606056
 30
0.000000000
 11
10.500000000
 21
19.546606056
 31
0.000000000
  0
ARC
  5
A12
330
A02
100
AcDbEntity
  8
Sketch
100
AcDbCircle
 10
10.500000000
 20
19.046606056
 30
0.000000000
 40
0.500000000
100
AcDbArc
 50
90.000000000
 51
-90.000000000
  0
LINE
  5
A13
330
A02
100
AcDbEntity
  8
Sketch
100
AcDbLine
 10
10.500000000
 20
18.546606056
 30
0.000000000
 11
10.500000000
 21
18.246606056
 31
0.000000000
  0
LINE
  5
A14
330
A02
100
AcDbEntity
  8
Sketch
100
AcDbLine
 10
10.500000000
 20
18.246606056
 30
0.000000000
 11
10.500000000
 21
17.306606056
 31
0.000000000
  0
LINE
  5
A15
330
A02
100
AcDbEntity
  8
Sketch
100
AcDbLine
 10
10.500000000
 20
17.306606056
 30
0.000000000
 11
10.500000000
 21
17.006606056
 31
0.000000000
  0
ARC
  5
A16
330
A02
100
AcDbEntity
  8
Sketch
100
AcDbCircle
 10
10.500000000
 20
16.506606056
 30
0.000000000
 40
0.500000000
100
AcDbArc
 50
90.000000000
 51
-90.000000000
  0
LINE
  5
A17
330
A02
100
AcDbEntity
  8
Sketch
100
AcDbLine
 10
10.500000000
 20
16.006606056
 30
0.000000000
 11
10.500000000
 21
15.706606056
 31
0.000000000
  0
LINE
  5
A18
330
A02
100
AcDbEntity
  8
Sketch
100
AcDbLine
 10
10.500000000
 20
15.706606056
 30
0.000000000
 11
10.500000000
 21
14.766606056
 31
0.000000000
  0
LINE
  5
A19
330
A02
100
AcDbEntity
  8
Sketch
100
AcDbLine
 10
10.500000000
 20
14.766606056
 30
0.000000000
 11
10.500000000
 21
14.466606056
 31
0.000000000
  0
ARC
  5
A1A
330
A02
100
AcDbEntity
  8
Sketch
100
AcDbCircle
 10
10.500000000
 20
13.966606056
 30
0.000000000
 40
0.500000000
100
AcDbArc
 50
90.000000000
 51
-90.000000000
  0
LINE
  5
A1B
330
A02
100
AcDbEntity
  8
Sketch
100
AcDbLine
 10
10.500000000
 20
13.466606056
 30
0.000000000
 11
10.500000000
 21
13.166606056
 31
0.000000000
  0
LINE
  5
A1C
330
A02
100
AcDbEntity
  8
Sketch
100
AcDbLine
 10
10.500000000
 20
13.166606056
 30
0.000000000
 11
10.500000000
 21
12.226606056
 31
0.000000000
  0
LINE
  5
A1D
330
A02
100
AcDbEntity
  8
Sketch
100
AcDbLine
 10
10.500000000
 20
12.226606056
 30
0.000000000
 11
10.500000000
 21
11.926606056
 31
0.000000000
  0
ARC
  5
A1E
330
A02
100
AcDbEntity
  8
Sketch
100
AcDbCircle
 10
10.500000000
 20
11.426606056
 30
0.000000000
 40
0.500000000
100
AcDbArc
 50
90.000000000
 51
-90.000000000
  0
LINE
  5
A1F
330
A02
100
AcDbEntity
  8
Sketch
100
AcDbLine
 10
10.500000000
 20
10.926606056
 30
0.000000000
 11
10.500000000
 21
10.626606056
 31
0.000000000
  0
LINE
  5
A20
330
A02
100
AcDbEntity
  8
Sketch
100
AcDbLine
 10
10.500000000
 20
10.626606056
 30
0.000000000
 11
10.500000000
 21
9.686606056
 31
0.000000000
  0
LINE
  5
A21
330
A02
100
AcDbEntity
  8
Sketch
100
AcDbLine
 10
10.500000000
 20
9.686606056
 30
0.000000000
 11
10.500000000
 21
9.386606056
 31
0.000000000
  0
ARC
  5
A22
330
A02
100
AcDbEntity
  8
Sketch
100
AcDbCircle
 10
10.500000000
 20
8.886606056
 30
0.000000000
 40
0.500000000
100
AcDbArc
 50
90.000000000
 51
-90.000000000
  0
LINE
  5
A23
330
A02
100
AcDbEntity
  8
Sketch
100
AcDbLine
 10
10.500000000
 20
8.386606056
 30
0.000000000
 11
10.500000000
 21
8.086606056
 31
0.000000000
  0
LINE
  5
A24
330
A02
100
AcDbEntity
  8
Sketch
100
AcDbLine
 10
10.500000000
 20
8.086606056
 30
0.000000000
 11
8.890000000
 21
8.086606056
 31
0.000000000
  0
ARC
  5
A25
330
A02
100
AcDbEntity
  8
Sketch
100
AcDbCircle
 10
8.890000000
 20
8.886606056
 30
0.000000000
 40
0.800000000
100
AcDbArc
 50
90.000000000
 51
-90.000000000
  0
LINE
  5
A26
330
A02
100
AcDbEntity
  8
Sketch
100
AcDbLine
 10
8.890000000
 20
9.686606056
 30
0.000000000
 11
10.500000000
 21
9.686606056
 31
0.000000000
  0
LINE
  5
A27
330
A02
100
AcDbEntity
  8
Sketch
100
AcDbLine
 10
10.500000000
 20
10.626606056
 30
0.000000000
 11
8.890000000
 21
10.626606056
 31
0.000000000
  0
ARC
  5
A28
330
A02
100
AcDbEntity
  8
Sketch
100
AcDbCircle
 10
8.890000000
 20
11.426606056
 30
0.000000000
 40
0.800000000
100
AcDbArc
 50
90.000000000
 51
-90.000000000
  0
LINE
  5
A29
330
A02
100
AcDbEntity
  8
Sketch
100
AcDbLine
 10
8.890000000
 20
12.226606056
 30
0.000000000
 11
10.500000000
 21
12.226606056
 31
0.000000000
  0
LINE
  5
A2A
330
A02
100
AcDbEntity
  8
Sketch
100
AcDbLine
 10
10.500000000
 20
13.166606056
 30
0.000000000
 11
8.890000000
 21
13.166606056
 31
0.000000000
  0
ARC
  5
A2B
330
A02
100
AcDbEntity
  8
Sketch
100
AcDbCircle
 10
8.890000000
 20
13.966606056
 30
0.000000000
 40
0.800000000
100
AcDbArc
 50
90.000000000
 51
-90.000000000
  0
LINE
  5
A2C
330
A02
100
AcDbEntity
  8
Sketch
100
AcDbLine
 10
8.890000000
 20
14.766606056
 30
0.000000000
 11
10.500000000
 21
14.766606056
 31
0.000000000
  0
LINE
  5
A2D
330
A02
100
AcDbEntity
  8
Sketch
100
AcDbLine
 10
10.500000000
 20
15.706606056
 30
0.000000000
 11
8.890000000
 21
15.706606056
 31
0.000000000
  0
ARC
  5
A2E
330
A02
100
AcDbEntity
  8
Sketch
100
AcDbCircle
 10
8.890000000
 20
16.506606056
 30
0.000000000
 40
0.800000000
100
AcDbArc
 50
90.000000000
 51
-90.000000000
  0
LINE
  5
A2F
330
A02
100
AcDbEntity
  8
Sketch
100
AcDbLine
 10
8.890000000
 20
17.306606056
 30
0.000000000
 11
10.500000000
 21
17.306606056
 31
0.000000000
  0
LINE
  5
A30
330
A02
100
AcDbEntity
  8
Sketch
100
AcDbLine
 10
10.500000000
 20
18.246606056
 30
0.000000000
 11
8.431726908
 21
18.246606056
 31
0.000000000
  0
ARC
  5
A31
330
A02
100
AcDbEntity
  8
Sketch
100
AcDbCircle
 10
8.431726908
 20
18.506606056
 30
0.000000000
 40
0.260000000
100
AcDbArc
 50
180.000000000
 51
-90.000000000
  0
LINE
  5
A32
330
A02
100
AcDbEntity
  8
Sketch
100
AcDbLine
 10
8.171726908
 20
18.506606056
 30
0.000000000
 11
8.171726908
 21
19.586606056
 31
0.000000000
  0
ARC
  5
A33
330
A02
100
AcDbEntity
  8
Sketch
100
AcDbCircle
 10
8.431726908
 20
19.586606056
 30
0.000000000
 40
0.260000000
100
AcDbArc
 50
90.000000000
 51
180.000000000
  0
LINE
  5
A34
330
A02
100
AcDbEntity
  8
Sketch
100
AcDbLine
 10
8.431726908
 20
19.846606056
 30
0.000000000
 11
10.500000000
 21
19.846606056
 31
0.000000000
  0
LINE
  5
A35
330
A02
100
AcDbEntity
  8
Sketch
100
AcDbLine
 10
10.500000000
 20
20.786606056
 30
0.000000000
 11
8.890000000
 21
20.786606056
 31
0.000000000
  0
ARC
  5
A36
330
A02
100
AcDbEntity
  8
Sketch
100
AcDbCircle
 10
8.890000000
 20
21.586606056
 30
0.000000000
 40
0.800000000
100
AcDbArc
 50
90.000000000
 51
-90.000000000
  0
LINE
  5
A37
330
A02
100
AcDbEntity
  8
Sketch
100
AcDbLine
 10
8.890000000
 20
22.386606056
 30
0.000000000
 11
10.500000000
 21
22.386606056
 31
0.000000000
  0
LINE
  5
A38
330
A02
100
AcDbEntity
  8
Sketch
100
AcDbLine
 10
10.500000000
 20
23.326606056
 30
0.000000000
 11
8.890000000
 21
23.326606056
 31
0.000000000
  0
ARC
  5
A39
330
A02
100
AcDbEntity
  8
Sketch
100
AcDbCircle
 10
8.890000000
 20
24.126606056
 30
0.000000000
 40
0.800000000
100
AcDbArc
 50
90.000000000
 51
-90.000000000
  0
LINE
  5
A3A
330
A02
100
AcDbEntity
  8
Sketch
100
AcDbLine
 10
8.890000000
 20
24.926606056
 30
0.000000000
 11
10.500000000
 21
24.926606056
 31
0.000000000
  0
LINE
  5
A3B
330
A02
100
AcDbEntity
  8
Sketch
100
AcDbLine
 10
-8.890000000
 20
24.926606056
 30
0.000000000
 11
-10.500000000
 21
24.926606056
 31
0.000000000
  0
LINE
  5
A3C
330
A02
100
AcDbEntity
  8
Sketch
100
AcDbLine
 10
-10.500000000
 20
23.326606056
 30
0.000000000
 11
-8.890000000
 21
23.326606056
 31
0.000000000
  0
ARC
  5
A3D
330
A02
100
AcDbEntity
  8
Sketch
100
AcDbCircle
 10
-8.890000000
 20
24.126606056
 30
0.000000000
 40
0.800000000
100
AcDbArc
 50
-90.000000000
 51
90.000000000
  0
LINE
  5
A3E
330
A02
100
AcDbEntity
  8
Sketch
100
AcDbLine
 10
-8.890000000
 20
22.386606056
 30
0.000000000
 11
-10.500000000
 21
22.386606056
 31
0.000000000
  0
LINE
  5
A3F
330
A02
100
AcDbEntity
  8
Sketch
100
AcDbLine
 10
-10.500000000
 20
20.786606056
 30
0.000000000
 11
-8.890000000
 21
20.786606056
 31
0.000000000
  0
ARC
  5
A40
330
A02
100
AcDbEntity
  8
Sketch
100
AcDbCircle
 10
-8.890000000
 20
21.586606056
 30
0.000000000
 40
0.800000000
100
AcDbArc
 50
-90.000000000
 51
90.000000000
  0
LINE
  5
A41
330
A02
100
AcDbEntity
  8
Sketch
100
AcDbLine
 10
-8.890000000
 20
17.306606056
 30
0.000000000
 11
-10.500000000
 21
17.306606055
 31
0.000000000
  0
LINE
  5
A42
330
A02
100
AcDbEntity
  8
Sketch
100
AcDbLine
 10
-10.500000000
 20
15.706606056
 30
0.000000000
 11
-8.890000000
 21
15.706606056
 31
0.000000000
  0
ARC
  5
A43
330
A02
100
AcDbEntity
  8
Sketch
100
AcDbCircle
 10
-8.890000000
 20
16.506606056
 30
0.000000000
 40
0.800000000
100
AcDbArc
 50
-90.000000000
 51
90.000000000
  0
LINE
  5
A44
330
A02
100
AcDbEntity
  8
Sketch
100
AcDbLine
 10
-8.890000000
 20
14.766606056
 30
0.000000000
 11
-10.500000000
 21
14.766606056
 31
0.000000000
  0
LINE
  5
A45
330
A02
100
AcDbEntity
  8
Sketch
100
AcDbLine
 10
-10.500000000
 20
13.166606055
 30
0.000000000
 11
-8.890000000
 21
13.166606056
 31
0.000000000
  0
ARC
  5
A46
330
A02
100
AcDbEntity
  8
Sketch
100
AcDbCircle
 10
-8.890000000
 20
13.966606056
 30
0.000000000
 40
0.800000000
100
AcDbArc
 50
-90.000000000
 51
90.000000000
  0
LINE
  5
A47
330
A02
100
AcDbEntity
  8
Sketch
100
AcDbLine
 10
-8.890000000
 20
12.226606056
 30
0.000000000
 11
-10.500000000
 21
12.226606056
 31
0.000000000
  0
LINE
  5
A48
330
A02
100
AcDbEntity
  8
Sketch
100
AcDbLine
 10
-10.500000000
 20
10.626606056
 30
0.000000000
 11
-8.890000000
 21
10.626606056
 31
0.000000000
  0
ARC
  5
A49
330
A02
100
AcDbEntity
  8
Sketch
100
AcDbCircle
 10
-8.890000000
 20
11.426606056
 30
0.000000000
 40
0.800000000
100
AcDbArc
 50
-90.000000000
 51
90.000000000
  0
LINE
  5
A4A
330
A02
100
AcDbEntity
  8
Sketch
100
AcDbLine
 10
-8.890000000
 20
9.686606056
 30
0.000000000
 11
-10.500000000
 21
9.686606056
 31
0.000000000
  0
LINE
  5
A4B
330
A02
100
AcDbEntity
  8
Sketch
100
AcDbLine
 10
-10.500000000
 20
8.086606056
 30
0.000000000
 11
-8.890000000
 21
8.086606056
 31
0.000000000
  0
ARC
  5
A4C
330
A02
100
AcDbEntity
  8
Sketch
100
AcDbCircle
 10
-8.890000000
 20
8.886606056
 30
0.000000000
 40
0.800000000
100
AcDbArc
 50
-90.000000000
 51
90.000000000
  0
LINE
  5
A4D
330
A02
100
AcDbEntity
  8
Sketch
100
AcDbLine
 10
-8.431726908
 20
7.146606056
 30
0.000000000
 11
-10.500000000
 21
7.146606056
 31
0.000000000
  0
LINE
  5
A4E
330
A02
100
AcDbEntity
  8
Sketch
100
AcDbLine
 10
-10.500000000
 20
5.546606056
 30
0.000000000
 11
-8.431726908
 21
5.546606056
 31
0.000000000
  0
ARC
  5
A4F
330
A02
100
AcDbEntity
  8
Sketch
100
AcDbCircle
 10
-8.431726908
 20
5.806606056
 30
0.000000000
 40
0.260000000
100
AcDbArc
 50
-90.000000000
 51
0.000000000
  0
LINE
  5
A50
330
A02
100
AcDbEntity
  8
Sketch
100
AcDbLine
 10
-8.171726908
 20
5.806606056
 30
0.000000000
 11
-8.171726908
 21
6.886606056
 31
0.000000000
  0
ARC
  5
A51
330
A02
100
AcDbEntity
  8
Sketch
100
AcDbCircle
 10
-8.431726908
 20
6.886606056
 30
0.000000000
 40
0.260000000
100
AcDbArc
 50
0.000000000
 51
90.000000000
  0
LINE
  5
A52
330
A02
100
AcDbEntity
  8
Sketch
100
AcDbLine
 10
-8.890000000
 20
4.606606056
 30
0.000000000
 11
-10.500000000
 21
4.606606056
 31
0.000000000
  0
LINE
  5
A53
330
A02
100
AcDbEntity
  8
Sketch
100
AcDbLine
 10
-10.500000000
 20
3.006606056
 30
0.000000000
 11
-8.890000000
 21
3.006606056
 31
0.000000000
  0
ARC
  5
A54
330
A02
100
AcDbEntity
  8
Sketch
100
AcDbCircle
 10
-8.890000000
 20
3.806606056
 30
0.000000000
 40
0.800000000
100
AcDbArc
 50
-90.000000000
 51
90.000000000
  0
LINE
  5
A55
330
A02
100
AcDbEntity
  8
Sketch
100
AcDbLine
 10
-8.890000000
 20
2.066606056
 30
0.000000000
 11
-10.500000000
 21
2.066606056
 31
0.000000000
  0
LINE
  5
A56
330
A02
100
AcDbEntity
  8
Sketch
100
AcDbLine
 10
-10.500000000
 20
0.466606056
 30
0.000000000
 11
-8.890000000
 21
0.466606056
 31
0.000000000
  0
ARC
  5
A57
330
A02
100
AcDbEntity
  8
Sketch
100
AcDbCircle
 10
-8.890000000
 20
1.266606056
 30
0.000000000
 40
0.800000000
100
AcDbArc
 50
-90.000000000
 51
90.000000000
  0
LINE
  5
A58
330
A02
100
AcDbEntity
  8
Sketch
100
AcDbLine
 10
-8.890000000
 20
-0.473393944
 30
0.000000000
 11
-10.500000000
 21
-0.473393944
 31
0.000000000
  0
LINE
  5
A59
330
A02
100
AcDbEntity
  8
Sketch
100
AcDbLine
 10
-10.500000000
 20
-2.073393944
 30
0.000000000
 11
-8.890000000
 21
-2.073393944
 31
0.000000000
  0
ARC
  5
A5A
330
A02
100
AcDbEntity
  8
Sketch
100
AcDbCircle
 10
-8.890000000
 20
-1.273393944
 30
0.000000000
 40
0.800000000
100
AcDbArc
 50
-90.000000000
 51
90.000000000
  0
LINE
  5
A5B
330
A02
100
AcDbEntity
  8
Sketch
100
AcDbLine
 10
-8.890000000
 20
-3.013393944
 30
0.000000000
 11
-10.500000000
 21
-3.013393944
 31
0.000000000
  0
LINE
  5
A5C
330
A02
100
AcDbEntity
  8
Sketch
100
AcDbLine
 10
-10.500000000
 20
-4.613393944
 30
0.000000000
 11
-8.890000000
 21
-4.613393944
 31
0.000000000
  0
ARC
  5
A5D
330
A02
100
AcDbEntity
  8
Sketch
100
AcDbCircle
 10
-8.890000000
 20
-3.813393944
 30
0.000000000
 40
0.800000000
100
AcDbArc
 50
-90.000000000
 51
90.000000000
  0
LINE
  5
A5E
330
A02
100
AcDbEntity
  8
Sketch
100
AcDbLine
 10
-8.431726908
 20
-5.553393944
 30
0.000000000
 11
-10.500000000
 21
-5.553393944
 31
0.000000000
  0
LINE
  5
A5F
330
A02
100
AcDbEntity
  8
Sketch
100
AcDbLine
 10
-10.500000000
 20
-7.153393944
 30
0.000000000
 11
-8.431726908
 21
-7.153393944
 31
0.000000000
  0
ARC
  5
A60
330
A02
100
AcDbEntity
  8
Sketch
100
AcDbCircle
 10
-8.431726908
 20
-6.893393944
 30
0.000000000
 40
0.260000000
100
AcDbArc
 50
-90.000000000
 51
0.000000000
  0
LINE
  5
A61
330
A02
100
AcDbEntity
  8
Sketch
100
AcDbLine
 10
-8.171726908
 20
-6.893393944
 30
0.000000000
 11
-8.171726908
 21
-5.813393944
 31
0.000000000
  0
ARC
  5
A62
330
A02
100
AcDbEntity
  8
Sketch
100
AcDbCircle
 10
-8.431726908
 20
-5.813393944
 30
0.000000000
 40
0.260000000
100
AcDbArc
 50
0.000000000
 51
90.000000000
  0
LINE
  5
A63
330
A02
100
AcDbEntity
  8
Sketch
100
AcDbLine
 10
-8.890000000
 20
-8.093393944
 30
0.000000000
 11
-10.500000000
 21
-8.093393944
 31
0.000000000
  0
LINE
  5
A64
330
A02
100
AcDbEntity
  8
Sketch
100
AcDbLine
 10
-10.500000000
 20
-9.693393944
 30
0.000000000
 11
-8.890000000
 21
-9.693393944
 31
0.000000000
  0
ARC
  5
A65
330
A02
100
AcDbEntity
  8
Sketch
100
AcDbCircle
 10
-8.890000000
 20
-8.893393944
 30
0.000000000
 40
0.800000000
100
AcDbArc
 50
-90.000000000
 51
90.000000000
  0
LINE
  5
A66
330
A02
100
AcDbEntity
  8
Sketch
100
AcDbLine
 10
-8.890000000
 20
-10.633393944
 30
0.000000000
 11
-10.500000000
 21
-10.633393944
 31
0.000000000
  0
LINE
  5
A67
330
A02
100
AcDbEntity
  8
Sketch
100
AcDbLine
 10
-10.500000000
 20
-12.233393944
 30
0.000000000
 11
-8.890000000
 21
-12.233393944
 31
0.000000000
  0
ARC
  5
A68
330
A02
100
AcDbEntity
  8
Sketch
100
AcDbCircle
 10
-8.890000000
 20
-11.433393944
 30
0.000000000
 40
0.800000000
100
AcDbArc
 50
-90.000000000
 51
90.000000000
  0
LINE
  5
A69
330
A02
100
AcDbEntity
  8
Sketch
100
AcDbLine
 10
-8.890000000
 20
-13.173393944
 30
0.000000000
 11
-10.500000000
 21
-13.173393944
 31
0.000000000
  0
LINE
  5
A6A
330
A02
100
AcDbEntity
  8
Sketch
100
AcDbLine
 10
-10.500000000
 20
-14.773393944
 30
0.000000000
 11
-8.890000000
 21
-14.773393944
 31
0.000000000
  0
ARC
  5
A6B
330
A02
100
AcDbEntity
  8
Sketch
100
AcDbCircle
 10
-8.890000000
 20
-13.973393944
 30
0.000000000
 40
0.800000000
100
AcDbArc
 50
-90.000000000
 51
90.000000000
  0
LINE
  5
A6C
330
A02
100
AcDbEntity
  8
Sketch
100
AcDbLine
 10
-8.890000000
 20
-15.713393944
 30
0.000000000
 11
-10.500000000
 21
-15.713393944
 31
0.000000000
  0
LINE
  5
A6D
330
A02
100
AcDbEntity
  8
Sketch
100
AcDbLine
 10
-10.500000000
 20
-17.313393944
 30
0.000000000
 11
-8.890000000
 21
-17.313393944
 31
0.000000000
  0
ARC
  5
A6E
330
A02
100
AcDbEntity
  8
Sketch
100
AcDbCircle
 10
-8.890000000
 20
-16.513393944
 30
0.000000000
 40
0.800000000
100
AcDbArc
 50
-90.000000000
 51
90.000000000
  0
LINE
  5
A6F
330
A02
100
AcDbEntity
  8
Sketch
100
AcDbLine
 10
-8.431726908
 20
-18.253393944
 30
0.000000000
 11
-10.500000000
 21
-18.253393944
 31
0.000000000
  0
LINE
  5
A70
330
A02
100
AcDbEntity
  8
Sketch
100
AcDbLine
 10
-10.500000000
 20
-19.853393944
 30
0.000000000
 11
-8.431726908
 21
-19.853393944
 31
0.000000000
  0
ARC
  5
A71
330
A02
100
AcDbEntity
  8
Sketch
100
AcDbCircle
 10
-8.431726908
 20
-19.593393944
 30
0.000000000
 40
0.260000000
100
AcDbArc
 50
-90.000000000
 51
0.000000000
  0
LINE
  5
A72
330
A02
100
AcDbEntity
  8
Sketch
100
AcDbLine
 10
-8.171726908
 20
-19.593393944
 30
0.000000000
 11
-8.171726908
 21
-18.513393944
 31
0.000000000
  0
ARC
  5
A73
330
A02
100
AcDbEntity
  8
Sketch
100
AcDbCircle
 10
-8.431726908
 20
-18.513393944
 30
0.000000000
 40
0.260000000
100
AcDbArc
 50
0.000000000
 51
90.000000000
  0
LINE
  5
A74
330
A02
100
AcDbEntity
  8
Sketch
100
AcDbLine
 10
-8.890000000
 20
-20.793393944
 30
0.000000000
 11
-10.500000000
 21
-20.793393944
 31
0.000000000
  0
LINE
  5
A75
330
A02
100
AcDbEntity
  8
Sketch
100
AcDbLine
 10
-10.500000000
 20
-22.393393944
 30
0.000000000
 11
-8.890000000
 21
-22.393393944
 31
0.000000000
  0
ARC
  5
A76
330
A02
100
AcDbEntity
  8
Sketch
100
AcDbCircle
 10
-8.890000000
 20
-21.593393944
 30
0.000000000
 40
0.800000000
100
AcDbArc
 50
-90.000000000
 51
90.000000000
  0
LINE
  5
A77
330
A02
100
AcDbEntity
  8
Sketch
100
AcDbLine
 10
-8.890000000
 20
-23.333393944
 30
0.000000000
 11
-10.500000000
 21
-23.333393944
 31
0.000000000
  0
LINE
  5
A78
330
A02
100
AcDbEntity
  8
Sketch
100
AcDbLine
 10
-10.500000000
 20
-24.933394000
 30
0.000000000
 11
-8.890000000
 21
-24.933393944
 31
0.000000000
  0
ARC
  5
A79
330
A02
100
AcDbEntity
  8
Sketch
100
AcDbCircle
 10
-8.890000000
 20
-24.133393944
 30
0.000000000
 40
0.800000000
100
AcDbArc
 50
-90.000000000
 51
90.000000000
  0
LINE
  5
A7A
330
A02
100
AcDbEntity
  8
Sketch
100
AcDbLine
 10
10.500000000
 20
-24.933393944
 30
0.000000000
 11
8.890000000
 21
-24.933393944
 31
0.000000000
  0
ARC
  5
A7B
330
A02
100
AcDbEntity
  8
Sketch
100
AcDbCircle
 10
8.890000000
 20
-24.133393944
 30
0.000000000
 40
0.800000000
100
AcDbArc
 50
90.000000000
 51
-90.000000000
  0
LINE
  5
A7C
330
A02
100
AcDbEntity
  8
Sketch
100
AcDbLine
 10
8.890000000
 20
-23.333393944
 30
0.000000000
 11
10.500000000
 21
-23.333393944
 31
0.000000000
  0
LINE
  5
A7D
330
A02
100
AcDbEntity
  8
Sketch
100
AcDbLine
 10
10.500000000
 20
-22.393393944
 30
0.000000000
 11
8.890000000
 21
-22.393393944
 31
0.000000000
  0
ARC
  5
A7E
330
A02
100
AcDbEntity
  8
Sketch
100
AcDbCircle
 10
8.890000000
 20
-21.593393944
 30
0.000000000
 40
0.800000000
100
AcDbArc
 50
90.000000000
 51
-90.000000000
  0
LINE
  5
A7F
330
A02
100
AcDbEntity
  8
Sketch
100
AcDbLine
 10
8.890000000
 20
-20.793393944
 30
0.000000000
 11
10.500000000
 21
-20.793393944
 31
0.000000000
  0
LINE
  5
A80
330
A02
100
AcDbEntity
  8
Sketch
100
AcDbLine
 10
10.500000000
 20
-19.853393944
 30
0.000000000
 11
8.431726908
 21
-19.853393944
 31
0.000000000
  0
ARC
  5
A81
330
A02
100
AcDbEntity
  8
Sketch
100
AcDbCircle
 10
8.431726908
 20
-19.593393944
 30
0.000000000
 40
0.260000000
100
AcDbArc
 50
180.000000000
 51
-90.000000000
  0
LINE
  5
A82
330
A02
100
AcDbEntity
  8
Sketch
100
AcDbLine
 10
8.171726908
 20
-19.593393944
 30
0.000000000
 11
8.171726908
 21
-18.513393944
 31
0.000000000
  0
ARC
  5
A83
330
A02
100
AcDbEntity
  8
Sketch
100
AcDbCircle
 10
8.431726908
 20
-18.513393944
 30
0.000000000
 40
0.260000000
100
AcDbArc
 50
90.000000000
 51
180.000000000
  0
LINE
  5
A84
330
A02
100
AcDbEntity
  8
Sketch
100
AcDbLine
 10
8.431726908
 20
-18.253393944
 30
0.000000000
 11
10.500000000
 21
-18.253393944
 31
0.000000000
  0
LINE
  5
A85
330
A02
100
AcDbEntity
  8
Sketch
100
AcDbLine
 10
10.500000000
 20
-17.313393944
 30
0.000000000
 11
8.890000000
 21
-17.313393944
 31
0.000000000
  0
ARC
  5
A86
330
A02
100
AcDbEntity
  8
Sketch
100
AcDbCircle
 10
8.890000000
 20
-16.513393944
 30
0.000000000
 40
0.800000000
100
AcDbArc
 50
90.000000000
 51
-90.000000000
  0
LINE
  5
A87
330
A02
100
AcDbEntity
  8
Sketch
100
AcDbLine
 10
8.890000000
 20
-15.713393944
 30
0.000000000
 11
10.500000000
 21
-15.713393944
 31
0.000000000
  0
LINE
  5
A88
330
A02
100
AcDbEntity
  8
Sketch
100
AcDbLine
 10
10.500000000
 20
-14.773393944
 30
0.000000000
 11
8.890000000
 21
-14.773393944
 31
0.000000000
  0
ARC
  5
A89
330
A02
100
AcDbEntity
  8
Sketch
100
AcDbCircle
 10
8.890000000
 20
-13.973393944
 30
0.000000000
 40
0.800000000
100
AcDbArc
 50
90.000000000
 51
-90.000000000
  0
LINE
  5
A8A
330
A02
100
AcDbEntity
  8
Sketch
100
AcDbLine
 10
8.890000000
 20
-13.173393944
 30
0.000000000
 11
10.500000000
 21
-13.173393944
 31
0.000000000
  0
LINE
  5
A8B
330
A02
100
AcDbEntity
  8
Sketch
100
AcDbLine
 10
10.500000000
 20
-12.233393944
 30
0.000000000
 11
8.890000000
 21
-12.233393944
 31
0.000000000
  0
ARC
  5
A8C
330
A02
100
AcDbEntity
  8
Sketch
100
AcDbCircle
 10
8.890000000
 20
-11.433393944
 30
0.000000000
 40
0.800000000
100
AcDbArc
 50
90.000000000
 51
-90.000000000
  0
LINE
  5
A8D
330
A02
100
AcDbEntity
  8
Sketch
100
AcDbLine
 10
8.890000000
 20
-10.633393944
 30
0.000000000
 11
10.500000000
 21
-10.633393944
 31
0.000000000
  0
LINE
  5
A8E
330
A02
100
AcDbEntity
  8
Sketch
100
AcDbLine
 10
10.500000000
 20
-9.693393944
 30
0.000000000
 11
8.890000000
 21
-9.693393944
 31
0.000000000
  0
ARC
  5
A8F
330
A02
100
AcDbEntity
  8
Sketch
100
AcDbCircle
 10
8.890000000
 20
-8.893393944
 30
0.000000000
 40
0.800000000
100
AcDbArc
 50
90.000000000
 51
-90.000000000
  0
LINE
  5
A90
330
A02
100
AcDbEntity
  8
Sketch
100
AcDbLine
 10
8.890000000
 20
-8.093393944
 30
0.000000000
 11
10.500000000
 21
-8.093393944
 31
0.000000000
  0
LINE
  5
A91
330
A02
100
AcDbEntity
  8
Sketch
100
AcDbLine
 10
10.500000000
 20
-7.153393944
 30
0.000000000
 11
8.431726908
 21
-7.153393944
 31
0.000000000
  0
ARC
  5
A92
330
A02
100
AcDbEntity
  8
Sketch
100
AcDbCircle
 10
8.431726908
 20
-6.893393944
 30
0.000000000
 40
0.260000000
100
AcDbArc
 50
180.000000000
 51
-90.000000000
  0
LINE
  5
A93
330
A02
100
AcDbEntity
  8
Sketch
100
AcDbLine
 10
8.171726908
 20
-6.893393944
 30
0.000000000
 11
8.171726908
 21
-5.813393944
 31
0.000000000
  0
ARC
  5
A94
330
A02
100
AcDbEntity
  8
Sketch
100
AcDbCircle
 10
8.431726908
 20
-5.813393944
 30
0.000000000
 40
0.260000000
100
AcDbArc
 50
90.000000000
 51
180.000000000
  0
LINE
  5
A95
330
A02
100
AcDbEntity
  8
Sketch
100
AcDbLine
 10
8.431726908
 20
-5.553393944
 30
0.000000000
 11
10.500000000
 21
-5.553393944
 31
0.000000000
  0
LINE
  5
A96
330
A02
100
AcDbEntity
  8
Sketch
100
AcDbLine
 10
10.500000000
 20
-4.613393944
 30
0.000000000
 11
8.890000000
 21
-4.613393944
 31
0.000000000
  0
ARC
  5
A97
330
A02
100
AcDbEntity
  8
Sketch
100
AcDbCircle
 10
8.890000000
 20
-3.813393944
 30
0.000000000
 40
0.800000000
100
AcDbArc
 50
90.000000000
 51
-90.000000000
  0
LINE
  5
A98
330
A02
100
AcDbEntity
  8
Sketch
100
AcDbLine
 10
8.890000000
 20
-3.013393944
 30
0.000000000
 11
10.500000000
 21
-3.013393944
 31
0.000000000
  0
LINE
  5
A99
330
A02
100
AcDbEntity
  8
Sketch
100
AcDbLine
 10
10.500000000
 20
-2.073393944
 30
0.000000000
 11
8.890000000
 21
-2.073393944
 31
0.000000000
  0
ARC
  5
A9A
330
A02
100
AcDbEntity
  8
Sketch
100
AcDbCircle
 10
8.890000000
 20
-1.273393944
 30
0.000000000
 40
0.800000000
100
AcDbArc
 50
90.000000000
 51
-90.000000000
  0
LINE
  5
A9B
330
A02
100
AcDbEntity
  8
Sketch
100
AcDbLine
 10
8.890000000
 20
-0.473393944
 30
0.000000000
 11
10.500000000
 21
-0.473393944
 31
0.000000000
  0
LINE
  5
A9C
330
A02
100
AcDbEntity
  8
Sketch
100
AcDbLine
 10
10.500000000
 20
0.466606056
 30
0.000000000
 11
8.890000000
 21
0.466606056
 31
0.000000000
  0
ARC
  5
A9D
330
A02
100
AcDbEntity
  8
Sketch
100
AcDbCircle
 10
8.890000000
 20
1.266606056
 30
0.000000000
 40
0.800000000
100
AcDbArc
 50
90.000000000
 51
-90.000000000
  0
LINE
  5
A9E
330
A02
100
AcDbEntity
  8
Sketch
100
AcDbLine
 10
8.890000000
 20
2.066606056
 30
0.000000000
 11
10.500000000
 21
2.066606056
 31
0.000000000
  0
LINE
  5
A9F
330
A02
100
AcDbEntity
  8
Sketch
100
AcDbLine
 10
10.500000000
 20
3.006606056
 30
0.000000000
 11
8.890000000
 21
3.006606056
 31
0.000000000
  0
ARC
  5
AA0
330
A02
100
AcDbEntity
  8
Sketch
100
AcDbCircle
 10
8.890000000
 20
3.806606056
 30
0.000000000
 40
0.800000000
100
AcDbArc
 50
90.000000000
 51
-90.000000000
  0
LINE
  5
AA1
330
A02
100
AcDbEntity
  8
Sketch
100
AcDbLine
 10
8.890000000
 20
4.606606056
 30
0.000000000
 11
10.500000000
 21
4.606606056
 31
0.000000000
  0
LINE
  5
AA2
330
A02
100
AcDbEntity
  8
Sketch
100
AcDbLine
 10
10.500000000
 20
5.566765056
 30
0.000000000
 11
8.431726908
 21
5.566765056
 31
0.000000000
  0
ARC
  5
AA3
330
A02
100
AcDbEntity
  8
Sketch
100
AcDbCircle
 10
8.431726908
 20
5.826765056
 30
0.000000000
 40
0.260000000
100
AcDbArc
 50
180.000000000
 51
-90.000000000
  0
LINE
  5
AA4
330
A02
100
AcDbEntity
  8
Sketch
100
AcDbLine
 10
8.171726908
 20
5.826765056
 30
0.000000000
 11
8.171726908
 21
6.906765056
 31
0.000000000
  0
ARC
  5
AA5
330
A02
100
AcDbEntity
  8
Sketch
100
AcDbCircle
 10
8.431726908
 20
6.906765056
 30
0.000000000
 40
0.260000000
100
AcDbArc
 50
90.000000000
 51
180.000000000
  0
LINE
  5
AA6
330
A02
100
AcDbEntity
  8
Sketch
100
AcDbLine
 10
8.431726908
 20
7.166765056
 30
0.000000000
 11
10.500000000
 21
7.166765056
 31
0.000000000
  0
LINE
  5
AA7
330
A02
100
AcDbEntity
  8
Sketch
100
AcDbLine
 10
10.500000000
 20
8.086606056
 30
0.000000000
 11
10.500000000
 21
7.166765056
 31
0.000000000
  0
LINE
  5
AA8
330
A02
100
AcDbEntity
  8
Sketch
100
AcDbLine
 10
10.500000000
 20
7.166765056
 30
0.000000000
 11
10.500000000
 21
6.846606056
 31
0.000000000
  0
ARC
  5
AA9
330
A02
100
AcDbEntity
  8
Sketch
100
AcDbCircle
 10
10.500000000
 20
6.346606056
 30
0.000000000
 40
0.500000000
100
AcDbArc
 50
90.000000000
 51
-90.000000000
  0
LINE
  5
AAA
330
A02
100
AcDbEntity
  8
Sketch
100
AcDbLine
 10
10.500000000
 20
5.846606056
 30
0.000000000
 11
10.500000000
 21
5.566765056
 31
0.000000000
  0
LINE
  5
AAB
330
A02
100
AcDbEntity
  8
Sketch
100
AcDbLine
 10
10.500000000
 20
5.566765056
 30
0.000000000
 11
10.500000000
 21
4.606606056
 31
0.000000000
  0
LINE
  5
AAC
330
A02
100
AcDbEntity
  8
Sketch
100
AcDbLine
 10
10.500000000
 20
4.606606056
 30
0.000000000
 11
10.500000000
 21
4.306606056
 31
0.000000000
  0
ARC
  5
AAD
330
A02
100
AcDbEntity
  8
Sketch
100
AcDbCircle
 10
10.500000000
 20
3.806606056
 30
0.000000000
 40
0.500000000
100
AcDbArc
 50
90.000000000
 51
-90.000000000
  0
LINE
  5
AAE
330
A02
100
AcDbEntity
  8
Sketch
100
AcDbLine
 10
10.500000000
 20
3.306606056
 30
0.000000000
 11
10.500000000
 21
3.006606056
 31
0.000000000
  0
LINE
  5
AAF
330
A02
100
AcDbEntity
  8
Sketch
100
AcDbLine
 10
10.500000000
 20
3.006606056
 30
0.000000000
 11
10.500000000
 21
2.066606056
 31
0.000000000
  0
LINE
  5
AB0
330
A02
100
AcDbEntity
  8
Sketch
100
AcDbLine
 10
10.500000000
 20
2.066606056
 30
0.000000000
 11
10.500000000
 21
1.766606056
 31
0.000000000
  0
ARC
  5
AB1
330
A02
100
AcDbEntity
  8
Sketch
100
AcDbCircle
 10
10.500000000
 20
1.266606056
 30
0.000000000
 40
0.500000000
100
AcDbArc
 50
90.000000000
 51
-90.000000000
  0
LINE
  5
AB2
330
A02
100
AcDbEntity
  8
Sketch
100
AcDbLine
 10
10.500000000
 20
0.766606056
 30
0.000000000
 11
10.500000000
 21
0.466606056
 31
0.000000000
  0
LINE
  5
AB3
330
A02
100
AcDbEntity
  8
Sketch
100
AcDbLine
 10
10.500000000
 20
0.466606056
 30
0.000000000
 11
10.500000000
 21
-0.473393944
 31
0.000000000
  0
LINE
  5
AB4
330
A02
100
AcDbEntity
  8
Sketch
100
AcDbLine
 10
10.500000000
 20
-0.473393944
 30
0.000000000
 11
10.500000000
 21
-0.773393944
 31
0.000000000
  0
ARC
  5
AB5
330
A02
100
AcDbEntity
  8
Sketch
100
AcDbCircle
 10
10.500000000
 20
-1.273393944
 30
0.000000000
 40
0.500000000
100
AcDbArc
 50
90.000000000
 51
-90.000000000
  0
LINE
  5
AB6
330
A02
100
AcDbEntity
  8
Sketch
100
AcDbLine
 10
10.500000000
 20
-1.773393944
 30
0.000000000
 11
10.500000000
 21
-2.073393944
 31
0.000000000
  0
LINE
  5
AB7
330
A02
100
AcDbEntity
  8
Sketch
100
AcDbLine
 10
10.500000000
 20
-2.073393944
 30
0.000000000
 11
10.500000000
 21
-3.013393944
 31
0.000000000
  0
LINE
  5
AB8
330
A02
100
AcDbEntity
  8
Sketch
100
AcDbLine
 10
10.500000000
 20
-3.013393944
 30
0.000000000
 11
10.500000000
 21
-3.313393944
 31
0.000000000
  0
ARC
  5
AB9
330
A02
100
AcDbEntity
  8
Sketch
100
AcDbCircle
 10
10.500000000
 20
-3.813393944
 30
0.000000000
 40
0.500000000
100
AcDbArc
 50
90.000000000
 51
-90.000000000
  0
LINE
  5
ABA
330
A02
100
AcDbEntity
  8
Sketch
100
AcDbLine
 10
10.500000000
 20
-4.313393944
 30
0.000000000
 11
10.500000000
 21
-4.613393944
 31
0.000000000
  0
LINE
  5
ABB
330
A02
100
AcDbEntity
  8
Sketch
100
AcDbLine
 10
10.500000000
 20
-4.613393944
 30
0.000000000
 11
10.500000000
 21
-5.553393944
 31
0.000000000
  0
LINE
  5
ABC
330
A02
100
AcDbEntity
  8
Sketch
100
AcDbLine
 10
10.500000000
 20
-5.553393944
 30
0.000000000
 11
10.500000000
 21
-5.853393944
 31
0.000000000
  0
ARC
  5
ABD
330
A02
100
AcDbEntity
  8
Sketch
100
AcDbCircle
 10
10.500000000
 20
-6.353393944
 30
0.000000000
 40
0.500000000
100
AcDbArc
 50
90.000000000
 51
-90.000000000
  0
LINE
  5
ABE
330
A02
100
AcDbEntity
  8
Sketch
100
AcDbLine
 10
10.500000000
 20
-6.853393944
 30
0.000000000
 11
10.500000000
 21
-7.153393944
 31
0.000000000
  0
LINE
  5
ABF
330
A02
100
AcDbEntity
  8
Sketch
100
AcDbLine
 10
10.500000000
 20
-7.153393944
 30
0.000000000
 11
10.500000000
 21
-8.093393944
 31
0.000000000
  0
LINE
  5
AC0
330
A02
100
AcDbEntity
  8
Sketch
100
AcDbLine
 10
10.500000000
 20
-8.093393944
 30
0.000000000
 11
10.500000000
 21
-8.393393944
 31
0.000000000
  0
ARC
  5
AC1
330
A02
100
AcDbEntity
  8
Sketch
100
AcDbCircle
 10
10.500000000
 20
-8.893393944
 30
0.000000000
 40
0.500000000
100
AcDbArc
 50
90.000000000
 51
-90.000000000
  0
LINE
  5
AC2
330
A02
100
AcDbEntity
  8
Sketch
100
AcDbLine
 10
10.500000000
 20
-9.393393944
 30
0.000000000
 11
10.500000000
 21
-9.693393944
 31
0.000000000
  0
LINE
  5
AC3
330
A02
100
AcDbEntity
  8
Sketch
100
AcDbLine
 10
10.500000000
 20
-9.693393944
 30
0.000000000
 11
10.500000000
 21
-10.633393944
 31
0.000000000
  0
LINE
  5
AC4
330
A02
100
AcDbEntity
  8
Sketch
100
AcDbLine
 10
10.500000000
 20
-10.633393944
 30
0.000000000
 11
10.500000000
 21
-10.933393944
 31
0.000000000
  0
ARC
  5
AC5
330
A02
100
AcDbEntity
  8
Sketch
100
AcDbCircle
 10
10.500000000
 20
-11.433393944
 30
0.000000000
 40
0.500000000
100
AcDbArc
 50
90.000000000
 51
-90.000000000
  0
LINE
  5
AC6
330
A02
100
AcDbEntity
  8
Sketch
100
AcDbLine
 10
10.500000000
 20
-11.933393944
 30
0.000000000
 11
10.500000000
 21
-12.233393944
 31
0.000000000
  0
LINE
  5
AC7
330
A02
100
AcDbEntity
  8
Sketch
100
AcDbLine
 10
10.500000000
 20
-12.233393944
 30
0.000000000
 11
10.500000000
 21
-13.173393944
 31
0.000000000
  0
LINE
  5
AC8
330
A02
100
AcDbEntity
  8
Sketch
100
AcDbLine
 10
10.500000000
 20
-13.173393944
 30
0.000000000
 11
10.500000000
 21
-13.473393944
 31
0.000000000
  0
ARC
  5
AC9
330
A02
100
AcDbEntity
  8
Sketch
100
AcDbCircle
 10
10.500000000
 20
-13.973393944
 30
0.000000000
 40
0.500000000
100
AcDbArc
 50
90.000000000
 51
-90.000000000
  0
LINE
  5
ACA
330
A02
100
AcDbEntity
  8
Sketch
100
AcDbLine
 10
10.500000000
 20
-14.473393944
 30
0.000000000
 11
10.500000000
 21
-14.773393944
 31
0.000000000
  0
LINE
  5
ACB
330
A02
100
AcDbEntity
  8
Sketch
100
AcDbLine
 10
10.500000000
 20
-14.773393944
 30
0.000000000
 11
10.500000000
 21
-15.713393944
 31
0.000000000
  0
LINE
  5
ACC
330
A02
100
AcDbEntity
  8
Sketch
100
AcDbLine
 10
10.500000000
 20
-15.713393944
 30
0.000000000
 11
10.500000000
 21
-16.013393944
 31
0.000000000
  0
ARC
  5
ACD
330
A02
100
AcDbEntity
  8
Sketch
100
AcDbCircle
 10
10.500000000
 20
-16.513393944
 30
0.000000000
 40
0.500000000
100
AcDbArc
 50
90.000000000
 51
-90.000000000
  0
LINE
  5
ACE
330
A02
100
AcDbEntity
  8
Sketch
100
AcDbLine
 10
10.500000000
 20
-17.013393944
 30
0.000000000
 11
10.500000000
 21
-17.313393944
 31
0.000000000
  0
LINE
  5
ACF
330
A02
100
AcDbEntity
  8
Sketch
100
AcDbLine
 10
10.500000000
 20
-17.313393944
 30
0.000000000
 11
10.500000000
 21
-18.253393944
 31
0.000000000
  0
LINE
  5
AD0
330
A02
100
AcDbEntity
  8
Sketch
100
AcDbLine
 10
10.500000000
 20
-18.253393944
 30
0.000000000
 11
10.500000000
 21
-18.553393944
 31
0.000000000
  0
ARC
  5
AD1
330
A02
100
AcDbEntity
  8
Sketch
100
AcDbCircle
 10
10.500000000
 20
-19.053393944
 30
0.000000000
 40
0.500000000
100
AcDbArc
 50
90.000000000
 51
-90.000000000
  0
LINE
  5
AD2
330
A02
100
AcDbEntity
  8
Sketch
100
AcDbLine
 10
10.500000000
 20
-19.553393944
 30
0.000000000
 11
10.500000000
 21
-19.853393944
 31
0.000000000
  0
LINE
  5
AD3
330
A02
100
AcDbEntity
  8
Sketch
100
AcDbLine
 10
10.500000000
 20
-19.853393944
 30
0.000000000
 11
10.500000000
 21
-20.793393944
 31
0.000000000
  0
LINE
  5
AD4
330
A02
100
AcDbEntity
  8
Sketch
100
AcDbLine
 10
10.500000000
 20
-20.793393944
 30
0.000000000
 11
10.500000000
 21
-21.093393944
 31
0.000000000
  0
ARC
  5
AD5
330
A02
100
AcDbEntity
  8
Sketch
100
AcDbCircle
 10
10.500000000
 20
-21.593393944
 30
0.000000000
 40
0.500000000
100
AcDbArc
 50
90.000000000
 51
-90.000000000
  0
LINE
  5
AD6
330
A02
100
AcDbEntity
  8
Sketch
100
AcDbLine
 10
10.500000000
 20
-22.093393944
 30
0.000000000
 11
10.500000000
 21
-22.393393944
 31
0.000000000
  0
LINE
  5
AD7
330
A02
100
AcDbEntity
  8
Sketch
100
AcDbLine
 10
10.500000000
 20
-22.393393944
 30
0.000000000
 11
10.500000000
 21
-23.333393944
 31
0.000000000
  0
LINE
  5
AD8
330
A02
100
AcDbEntity
  8
Sketch
100
AcDbLine
 10
10.500000000
 20
-23.333393944
 30
0.000000000
 11
10.500000000
 21
-23.633393944
 31
0.000000000
  0
ARC
  5
AD9
330
A02
100
AcDbEntity
  8
Sketch
100
AcDbCircle
 10
10.500000000
 20
-24.133393944
 30
0.000000000
 40
0.500000000
100
AcDbArc
 50
90.000000000
 51
-90.000000000
  0
LINE
  5
ADA
330
A02
100
AcDbEntity
  8
Sketch
100
AcDbLine
 10
10.500000000
 20
-24.633393944
 30
0.000000000
 11
10.500000000
 21
-24.933393944
 31
0.000000000
  0
LINE
  5
ADB
330
A02
100
AcDbEntity
  8
Sketch
100
AcDbLine
 10
10.500000000
 20
-24.933393944
 30
0.000000000
 11
10.500000000
 21
-25.170000000
 31
0.000000000
  0
ARC
  5
ADC
330
A02
100
AcDbEntity
  8
Sketch
100
AcDbCircle
 10
10.164500351
 20
-25.169343283
 30
0.000000000
 40
0.335500292
100
AcDbArc
 50
-80.252391493
 51
-0.112152311
  0
LINE
  5
ADD
330
A02
100
AcDbEntity
  8
Sketch
100
AcDbLine
 10
10.221303357
 20
-25.500000000
 30
0.000000000
 11
9.901303357
 21
-25.500000000
 31
0.000000000
  0
ARC
  5
ADE
330
A02
100
AcDbEntity
  8
Sketch
100
AcDbCircle
 10
9.901303428
 20
-26.000000000
 30
0.000000000
 40
0.500000000
100
AcDbArc
 50
90.000008066
 51
132.268584430
  0
LINE
  5
ADF
330
A02
100
AcDbEntity
  8
Sketch
100
AcDbLine
 10
9.564999993
 20
-25.630000000
 30
0.000000000
 11
7.064999993
 21
-25.630000000
 31
0.000000000
  0
ARC
  5
AE0
330
A02
100
AcDbEntity
  8
Sketch
100
AcDbCircle
 10
6.728637390
 20
-25.999946211
 30
0.000000000
 40
0.500000000
100
AcDbArc
 50
47.722252353
 51
90.840434642
  0
LINE
  5
AE1
330
A02
100
AcDbEntity
  8
Sketch
100
AcDbLine
 10
-6.728696523
 20
-25.500000000
 30
0.000000000
 11
6.721303477
 21
-25.500000000
 31
0.000000000
  0
ARC
  5
AE2
330
A02
100
AcDbEntity
  8
Sketch
100
AcDbCircle
 10
-6.728696559
 20
-26.000000000
 30
0.000000000
 40
0.500000000
100
AcDbArc
 50
89.999995917
 51
132.268584430
  0
LINE
  5
AE3
330
A02
100
AcDbEntity
  8
Sketch
100
AcDbLine
 10
-7.064999993
 20
-25.630000000
 30
0.000000000
 11
-9.564999993
 21
-25.630000000
 31
0.000000000
  0
ARC
  5
AE4
330
A02
100
AcDbEntity
  8
Sketch
100
AcDbCircle
 10
-9.901362595
 20
-25.999946212
 30
0.000000000
 40
0.500000000
100
AcDbArc
 50
47.722252614
 51
90.840422685
  0
LINE
  5
AE5
330
A02
100
AcDbEntity
  8
Sketch
100
AcDbLine
 10
-10.228696404
 20
-25.500000000
 30
0.000000000
 11
-9.908696404
 21
-25.500000000
 31
0.000000000
  0
ARC
  5
AE6
330
A02
100
AcDbEntity
  8
Sketch
100
AcDbCircle
 10
-10.164500435
 20
-25.170698734
 30
0.000000000
 40
0.335500292
100
AcDbArc
 50
179.880672097
 51
-101.031228937
  0
LINE
  5
AE7
330
A02
100
AcDbEntity
  8
Sketch
100
AcDbLine
 10
-10.500000000
 20
-25.170000000
 30
0.000000000
 11
-10.500000000
 21
-24.933394000
 31
0.000000000
  0
LINE
  5
AE8
330
A02
100
AcDbEntity
  8
Sketch
100
AcDbLine
 10
-10.500000000
 20
-24.933394000
 30
0.000000000
 11
-10.500000000
 21
-24.633393945
 31
0.000000000
  0
ARC
  5
AE9
330
A02
100
AcDbEntity
  8
Sketch
100
AcDbCircle
 10
-10.500000000
 20
-24.133393944
 30
0.000000000
 40
0.500000000
100
AcDbArc
 50
-90.000000000
 51
89.999999999
  0
LINE
  5
AEA
330
A02
100
AcDbEntity
  8
Sketch
100
AcDbLine
 10
-10.500000000
 20
-23.633393944
 30
0.000000000
 11
-10.500000000
 21
-23.333393944
 31
0.000000000
  0
LINE
  5
AEB
330
A02
100
AcDbEntity
  8
Sketch
100
AcDbLine
 10
-10.500000000
 20
-23.333393944
 30
0.000000000
 11
-10.500000000
 21
-22.393393944
 31
0.000000000
  0
LINE
  5
AEC
330
A02
100
AcDbEntity
  8
Sketch
100
AcDbLine
 10
-10.500000000
 20
-22.393393944
 30
0.000000000
 11
-10.500000000
 21
-22.093393944
 31
0.000000000
  0
ARC
  5
AED
330
A02
100
AcDbEntity
  8
Sketch
100
AcDbCircle
 10
-10.500000000
 20
-21.593393944
 30
0.000000000
 40
0.500000000
100
AcDbArc
 50
-89.999999999
 51
89.999999999
  0
LINE
  5
AEE
330
A02
100
AcDbEntity
  8
Sketch
100
AcDbLine
 10
-10.500000000
 20
-21.093393944
 30
0.000000000
 11
-10.500000000
 21
-20.793393944
 31
0.000000000
  0
LINE
  5
AEF
330
A02
100
AcDbEntity
  8
Sketch
100
AcDbLine
 10
-10.500000000
 20
-20.793393944
 30
0.000000000
 11
-10.500000000
 21
-19.853393944
 31
0.000000000
  0
LINE
  5
AF0
330
A02
100
AcDbEntity
  8
Sketch
100
AcDbLine
 10
-10.500000000
 20
-19.853393944
 30
0.000000000
 11
-10.500000000
 21
-19.553393944
 31
0.000000000
  0
ARC
  5
AF1
330
A02
100
AcDbEntity
  8
Sketch
100
AcDbCircle
 10
-10.500000000
 20
-19.053393944
 30
0.000000000
 40
0.500000000
100
AcDbArc
 50
-89.999999999
 51
89.999999999
  0
LINE
  5
AF2
330
A02
100
AcDbEntity
  8
Sketch
100
AcDbLine
 10
-10.500000000
 20
-18.553393944
 30
0.000000000
 11
-10.500000000
 21
-18.253393944
 31
0.000000000
  0
LINE
  5
AF3
330
A02
100
AcDbEntity
  8
Sketch
100
AcDbLine
 10
-10.500000000
 20
-18.253393944
 30
0.000000000
 11
-10.500000000
 21
-17.313393944
 31
0.000000000
  0
LINE
  5
AF4
330
A02
100
AcDbEntity
  8
Sketch
100
AcDbLine
 10
-10.500000000
 20
-17.313393944
 30
0.000000000
 11
-10.500000000
 21
-17.013393944
 31
0.000000000
  0
ARC
  5
AF5
330
A02
100
AcDbEntity
  8
Sketch
100
AcDbCircle
 10
-10.500000000
 20
-16.513393944
 30
0.000000000
 40
0.500000000
100
AcDbArc
 50
-89.999999999
 51
89.999999999
  0
LINE
  5
AF6
330
A02
100
AcDbEntity
  8
Sketch
100
AcDbLine
 10
-10.500000000
 20
-16.013393944
 30
0.000000000
 11
-10.500000000
 21
-15.713393944
 31
0.000000000
  0
LINE
  5
AF7
330
A02
100
AcDbEntity
  8
Sketch
100
AcDbLine
 10
-10.500000000
 20
-15.713393944
 30
0.000000000
 11
-10.500000000
 21
-14.773393944
 31
0.000000000
  0
LINE
  5
AF8
330
A02
100
AcDbEntity
  8
Sketch
100
AcDbLine
 10
-10.500000000
 20
-14.773393944
 30
0.000000000
 11
-10.500000000
 21
-14.473393944
 31
0.000000000
  0
ARC
  5
AF9
330
A02
100
AcDbEntity
  8
Sketch
100
AcDbCircle
 10
-10.500000000
 20
-13.973393944
 30
0.000000000
 40
0.500000000
100
AcDbArc
 50
-89.999999999
 51
89.999999999
  0
LINE
  5
AFA
330
A02
100
AcDbEntity
  8
Sketch
100
AcDbLine
 10
-10.500000000
 20
-13.473393944
 30
0.000000000
 11
-10.500000000
 21
-13.173393944
 31
0.000000000
  0
LINE
  5
AFB
330
A02
100
AcDbEntity
  8
Sketch
100
AcDbLine
 10
-10.500000000
 20
-13.173393944
 30
0.000000000
 11
-10.500000000
 21
-12.233393944
 31
0.000000000
  0
LINE
  5
AFC
330
A02
100
AcDbEntity
  8
Sketch
100
AcDbLine
 10
-10.500000000
 20
-12.233393944
 30
0.000000000
 11
-10.500000000
 21
-11.933393944
 31
0.000000000
  0
ARC
  5
AFD
330
A02
100
AcDbEntity
  8
Sketch
100
AcDbCircle
 10
-10.500000000
 20
-11.433393944
 30
0.000000000
 40
0.500000000
100
AcDbArc
 50
-89.999999999
 51
89.999999999
  0
LINE
  5
AFE
330
A02
100
AcDbEntity
  8
Sketch
100
AcDbLine
 10
-10.500000000
 20
-10.933393944
 30
0.000000000
 11
-10.500000000
 21
-10.633393944
 31
0.000000000
  0
LINE
  5
AFF
330
A02
100
AcDbEntity
  8
Sketch
100
AcDbLine
 10
-10.500000000
 20
-10.633393944
 30
0.000000000
 11
-10.500000000
 21
-9.693393944
 31
0.000000000
  0
LINE
  5
B00
330
A02
100
AcDbEntity
  8
Sketch
100
AcDbLine
 10
-10.500000000
 20
-9.693393944
 30
0.000000000
 11
-10.500000000
 21
-9.393393944
 31
0.000000000
  0
ARC
  5
B01
330
A02
100
AcDbEntity
  8
Sketch
100
AcDbCircle
 10
-10.500000000
 20
-8.893393944
 30
0.000000000
 40
0.500000000
100
AcDbArc
 50
-89.999999999
 51
89.999999999
  0
LINE
  5
B02
330
A02
100
AcDbEntity
  8
Sketch
100
AcDbLine
 10
-10.500000000
 20
-8.393393944
 30
0.000000000
 11
-10.500000000
 21
-8.093393944
 31
0.000000000
  0
LINE
  5
B03
330
A02
100
AcDbEntity
  8
Sketch
100
AcDbLine
 10
-10.500000000
 20
-8.093393944
 30
0.000000000
 11
-10.500000000
 21
-7.153393944
 31
0.000000000
  0
LINE
  5
B04
330
A02
100
AcDbEntity
  8
Sketch
100
AcDbLine
 10
-10.500000000
 20
-7.153393944
 30
0.000000000
 11
-10.500000000
 21
-6.853393944
 31
0.000000000
  0
ARC
  5
B05
330
A02
100
AcDbEntity
  8
Sketch
100
AcDbCircle
 10
-10.500000000
 20
-6.353393944
 30
0.000000000
 40
0.500000000
100
AcDbArc
 50
-89.999999999
 51
89.999999999
  0
LINE
  5
B06
330
A02
100
AcDbEntity
  8
Sketch
100
AcDbLine
 10
-10.500000000
 20
-5.853393944
 30
0.000000000
 11
-10.500000000
 21
-5.553393944
 31
0.000000000
  0
LINE
  5
B07
330
A02
100
AcDbEntity
  8
Sketch
100
AcDbLine
 10
-10.500000000
 20
-5.553393944
 30
0.000000000
 11
-10.500000000
 21
-4.613393944
 31
0.000000000
  0
LINE
  5
B08
330
A02
100
AcDbEntity
  8
Sketch
100
AcDbLine
 10
-10.500000000
 20
-4.613393944
 30
0.000000000
 11
-10.500000000
 21
-4.313393944
 31
0.000000000
  0
ARC
  5
B09
330
A02
100
AcDbEntity
  8
Sketch
100
AcDbCircle
 10
-10.500000000
 20
-3.813393944
 30
0.000000000
 40
0.500000000
100
AcDbArc
 50
-89.999999999
 51
89.999999999
  0
LINE
  5
B0A
330
A02
100
AcDbEntity
  8
Sketch
100
AcDbLine
 10
-10.500000000
 20
-3.313393944
 30
0.000000000
 11
-10.500000000
 21
-3.013393944
 31
0.000000000
  0
LINE
  5
B0B
330
A02
100
AcDbEntity
  8
Sketch
100
AcDbLine
 10
-10.500000000
 20
-3.013393944
 30
0.000000000
 11
-10.500000000
 21
-2.073393944
 31
0.000000000
  0
LINE
  5
B0C
330
A02
100
AcDbEntity
  8
Sketch
100
AcDbLine
 10
-10.500000000
 20
-2.073393944
 30
0.000000000
 11
-10.500000000
 21
-1.773393944
 31
0.000000000
  0
ARC
  5
B0D
330
A02
100
AcDbEntity
  8
Sketch
100
AcDbCircle
 10
-10.500000000
 20
-1.273393944
 30
0.000000000
 40
0.500000000
100
AcDbArc
 50
-89.999999999
 51
89.999999999
  0
LINE
  5
B0E
330
A02
100
AcDbEntity
  8
Sketch
100
AcDbLine
 10
-10.500000000
 20
-0.773393944
 30
0.000000000
 11
-10.500000000
 21
-0.473393944
 31
0.000000000
  0
LINE
  5
B0F
330
A02
100
AcDbEntity
  8
Sketch
100
AcDbLine
 10
-10.500000000
 20
-0.473393944
 30
0.000000000
 11
-10.500000000
 21
0.466606056
 31
0.000000000
  0
LINE
  5
B10
330
A02
100
AcDbEntity
  8
Sketch
100
AcDbLine
 10
-10.500000000
 20
0.466606056
 30
0.000000000
 11
-10.500000000
 21
0.766606056
 31
0.000000000
  0
ARC
  5
B11
330
A02
100
AcDbEntity
  8
Sketch
100
AcDbCircle
 10
-10.500000000
 20
1.266606056
 30
0.000000000
 40
0.500000000
100
AcDbArc
 50
-89.999999999
 51
89.999999999
  0
LINE
  5
B12
330
A02
100
AcDbEntity
  8
Sketch
100
AcDbLine
 10
-10.500000000
 20
1.766606056
 30
0.000000000
 11
-10.500000000
 21
2.066606056
 31
0.000000000
  0
LINE
  5
B13
330
A02
100
AcDbEntity
  8
Sketch
100
AcDbLine
 10
-10.500000000
 20
2.066606056
 30
0.000000000
 11
-10.500000000
 21
3.006606056
 31
0.000000000
  0
LINE
  5
B14
330
A02
100
AcDbEntity
  8
Sketch
100
AcDbLine
 10
-10.500000000
 20
3.006606056
 30
0.000000000
 11
-10.500000000
 21
3.306606056
 31
0.000000000
  0
ARC
  5
B15
330
A02
100
AcDbEntity
  8
Sketch
100
AcDbCircle
 10
-10.500000000
 20
3.806606056
 30
0.000000000
 40
0.500000000
100
AcDbArc
 50
-89.999999999
 51
89.999999999
  0
LINE
  5
B16
330
A02
100
AcDbEntity
  8
Sketch
100
AcDbLine
 10
-10.500000000
 20
4.306606056
 30
0.000000000
 11
-10.500000000
 21
4.606606056
 31
0.000000000
  0
LINE
  5
B17
330
A02
100
AcDbEntity
  8
Sketch
100
AcDbLine
 10
-10.500000000
 20
4.606606056
 30
0.000000000
 11
-10.500000000
 21
5.546606056
 31
0.000000000
  0
LINE
  5
B18
330
A02
100
AcDbEntity
  8
Sketch
100
AcDbLine
 10
-10.500000000
 20
5.546606056
 30
0.000000000
 11
-10.500000000
 21
5.846606056
 31
0.000000000
  0
ARC
  5
B19
330
A02
100
AcDbEntity
  8
Sketch
100
AcDbCircle
 10
-10.500000000
 20
6.346606056
 30
0.000000000
 40
0.500000000
100
AcDbArc
 50
-89.999999999
 51
89.999999999
  0
LINE
  5
B1A
330
A02
100
AcDbEntity
  8
Sketch
100
AcDbLine
 10
-10.500000000
 20
6.846606056
 30
0.000000000
 11
-10.500000000
 21
7.146606056
 31
0.000000000
  0
LINE
  5
B1B
330
A02
100
AcDbEntity
  8
Sketch
100
AcDbLine
 10
-10.500000000
 20
7.146606056
 30
0.000000000
 11
-10.500000000
 21
8.086606056
 31
0.000000000
  0
LINE
  5
B1C
330
A02
100
AcDbEntity
  8
Sketch
100
AcDbLine
 10
-10.500000000
 20
8.086606056
 30
0.000000000
 11
-10.500000000
 21
8.386606056
 31
0.000000000
  0
ARC
  5
B1D
330
A02
100
AcDbEntity
  8
Sketch
100
AcDbCircle
 10
-10.500000000
 20
8.886606056
 30
0.000000000
 40
0.500000000
100
AcDbArc
 50
-89.999999999
 51
89.999999999
  0
LINE
  5
B1E
330
A02
100
AcDbEntity
  8
Sketch
100
AcDbLine
 10
-10.500000000
 20
9.386606056
 30
0.000000000
 11
-10.500000000
 21
9.686606056
 31
0.000000000
  0
LINE
  5
B1F
330
A02
100
AcDbEntity
  8
Sketch
100
AcDbLine
 10
-10.500000000
 20
9.686606056
 30
0.000000000
 11
-10.500000000
 21
10.626606056
 31
0.000000000
  0
LINE
  5
B20
330
A02
100
AcDbEntity
  8
Sketch
100
AcDbLine
 10
-10.500000000
 20
10.626606056
 30
0.000000000
 11
-10.500000000
 21
10.926606056
 31
0.000000000
  0
ARC
  5
B21
330
A02
100
AcDbEntity
  8
Sketch
100
AcDbCircle
 10
-10.500000000
 20
11.426606056
 30
0.000000000
 40
0.500000000
100
AcDbArc
 50
-89.999999999
 51
89.999999999
  0
LINE
  5
B22
330
A02
100
AcDbEntity
  8
Sketch
100
AcDbLine
 10
-10.500000000
 20
11.926606056
 30
0.000000000
 11
-10.500000000
 21
12.226606056
 31
0.000000000
  0
LINE
  5
B23
330
A02
100
AcDbEntity
  8
Sketch
100
AcDbLine
 10
-10.500000000
 20
12.226606056
 30
0.000000000
 11
-10.500000000
 21
13.166606055
 31
0.000000000
  0
LINE
  5
B24
330
A02
100
AcDbEntity
  8
Sketch
100
AcDbLine
 10
-10.500000000
 20
13.166606055
 30
0.000000000
 11
-10.500000000
 21
13.466606055
 31
0.000000000
  0
ARC
  5
B25
330
A02
100
AcDbEntity
  8
Sketch
100
AcDbCircle
 10
-10.500000000
 20
13.966606056
 30
0.000000000
 40
0.500000000
100
AcDbArc
 50
-89.999999999
 51
89.999999999
  0
LINE
  5
B26
330
A02
100
AcDbEntity
  8
Sketch
100
AcDbLine
 10
-10.500000000
 20
14.466606056
 30
0.000000000
 11
-10.500000000
 21
14.766606056
 31
0.000000000
  0
LINE
  5
B27
330
A02
100
AcDbEntity
  8
Sketch
100
AcDbLine
 10
-10.500000000
 20
14.766606056
 30
0.000000000
 11
-10.500000000
 21
15.706606056
 31
0.000000000
  0
LINE
  5
B28
330
A02
100
AcDbEntity
  8
Sketch
100
AcDbLine
 10
-10.500000000
 20
15.706606056
 30
0.000000000
 11
-10.500000000
 21
16.006606056
 31
0.000000000
  0
ARC
  5
B29
330
A02
100
AcDbEntity
  8
Sketch
100
AcDbCircle
 10
-10.500000000
 20
16.506606056
 30
0.000000000
 40
0.500000000
100
AcDbArc
 50
-89.999999999
 51
89.999999999
  0
LINE
  5
B2A
330
A02
100
AcDbEntity
  8
Sketch
100
AcDbLine
 10
-10.500000000
 20
17.006606056
 30
0.000000000
 11
-10.500000000
 21
17.306606055
 31
0.000000000
  0
LINE
  5
B2B
330
A02
100
AcDbEntity
  8
Sketch
100
AcDbLine
 10
-10.500000000
 20
17.306606055
 30
0.000000000
 11
-10.500000000
 21
18.546606056
 31
0.000000000
  0
ARC
  5
B2C
330
A02
100
AcDbEntity
  8
Sketch
100
AcDbCircle
 10
-10.500000000
 20
19.046606056
 30
0.000000000
 40
0.500000000
100
AcDbArc
 50
-90.000000000
 51
90.000000000
  0
LINE
  5
B2D
330
A02
100
AcDbEntity
  8
Sketch
100
AcDbLine
 10
-10.500000000
 20
19.546606056
 30
0.000000000
 11
-10.500000000
 21
20.786606056
 31
0.000000000
  0
LINE
  5
B2E
330
A02
100
AcDbEntity
  8
Sketch
100
AcDbLine
 10
-10.500000000
 20
20.786606056
 30
0.000000000
 11
-10.500000000
 21
21.086606056
 31
0.000000000
  0
ARC
  5
B2F
330
A02
100
AcDbEntity
  8
Sketch
100
AcDbCircle
 10
-10.500000000
 20
21.586606056
 30
0.000000000
 40
0.500000000
100
AcDbArc
 50
-89.999999999
 51
89.999999999
  0
LINE
  5
B30
330
A02
100
AcDbEntity
  8
Sketch
100
AcDbLine
 10
-10.500000000
 20
22.086606056
 30
0.000000000
 11
-10.500000000
 21
22.386606056
 31
0.000000000
  0
LINE
  5
B31
330
A02
100
AcDbEntity
  8
Sketch
100
AcDbLine
 10
-10.500000000
 20
22.386606056
 30
0.000000000
 11
-10.500000000
 21
23.326606056
 31
0.000000000
  0
LINE
  5
B32
330
A02
100
AcDbEntity
  8
Sketch
100
AcDbLine
 10
-10.500000000
 20
23.326606056
 30
0.000000000
 11
-10.500000000
 21
23.626606056
 31
0.000000000
  0
ARC
  5
B33
330
A02
100
AcDbEntity
  8
Sketch
100
AcDbCircle
 10
-10.500000000
 20
24.126606056
 30
0.000000000
 40
0.500000000
100
AcDbArc
 50
-89.999999999
 51
89.999999999
  0
LINE
  5
B34
330
A02
100
AcDbEntity
  8
Sketch
100
AcDbLine
 10
-10.500000000
 20
24.626606056
 30
0.000000000
 11
-10.500000000
 21
24.926606056
 31
0.000000000
  0
LINE
  5
B35
330
A02
100
AcDbEntity
  8
Sketch
100
AcDbLine
 10
-10.500000000
 20
24.926606056
 30
0.000000000
 11
-10.500000000
 21
25.166606056
 31
0.000000000
  0
ARC
  5
B36
330
A02
100
AcDbEntity
  8
Sketch
100
AcDbCircle
 10
-10.164499708
 20
25.166605786
 30
0.000000000
 40
0.335500292
100
AcDbArc
 50
100.388874886
 51
179.999954008
  0
LINE
  5
B37
330
A02
100
AcDbEntity
  8
Sketch
100
AcDbLine
 10
-10.224999859
 20
25.496606056
 30
0.000000000
 11
-9.904999859
 21
25.496606056
 31
0.000000000
  0
ARC
  5
B38
330
A02
100
AcDbEntity
  8
Sketch
100
AcDbCircle
 10
-9.904999993
 20
25.996606056
 30
0.000000000
 40
0.500000000
100
AcDbArc
 50
-89.999984604
 51
-47.156356956
  0
LINE
  5
B39
330
A02
100
AcDbEntity
  8
Sketch
100
AcDbLine
 10
-9.564999993
 20
25.630000000
 30
0.000000000
 11
-7.064999993
 21
25.630000000
 31
0.000000000
  0
ARC
  5
B3A
330
A02
100
AcDbEntity
  8
Sketch
100
AcDbCircle
 10
-6.724999993
 20
25.996606056
 30
0.000000000
 40
0.500000000
100
AcDbArc
 50
-132.843643044
 51
-90.000000776
  0
LINE
  5
B3B
330
A02
100
AcDbEntity
  8
Sketch
100
AcDbLine
 10
-6.725000000
 20
25.496606056
 30
0.000000000
 11
6.725000000
 21
25.496606056
 31
0.000000000
  0
ARC
  5
B3C
330
A02
100
AcDbEntity
  8
Sketch
100
AcDbCircle
 10
6.724999993
 20
25.996606056
 30
0.000000000
 40
0.500000000
100
AcDbArc
 50
-89.999999224
 51
-47.156356956
  0
LINE
  5
B3D
330
A02
100
AcDbEntity
  8
Sketch
100
AcDbLine
 10
7.064999993
 20
25.630000000
 30
0.000000000
 11
9.564999993
 21
25.630000000
 31
0.000000000
  0
ARC
  5
B3E
330
A02
100
AcDbEntity
  8
Sketch
100
AcDbCircle
 10
9.904999993
 20
25.996606056
 30
0.000000000
 40
0.500000000
100
AcDbArc
 50
-132.843643044
 51
-90.000015396
  0
LINE
  5
B3F
330
A02
100
AcDbEntity
  8
Sketch
100
AcDbLine
 10
10.224999859
 20
25.496606056
 30
0.000000000
 11
9.904999859
 21
25.496606056
 31
0.000000000
  0
ARC
  5
B40
330
A02
100
AcDbEntity
  8
Sketch
100
AcDbCircle
 10
10.164499708
 20
25.166605786
 30
0.000000000
 40
0.335500292
100
AcDbArc
 50
0.000045992
 51
79.611125113
  0
CIRCLE
  5
B41
330
A02
100
AcDbEntity
  8
Sketch
100
AcDbCircle
 10
-5.700000000
 20
23.496606056
 30
0.000000000
 40
1.500000000
  0
CIRCLE
  5
B42
330
A02
100
AcDbEntity
  8
Sketch
100
AcDbCircle
 10
5.700000000
 20
23.496606056
 30
0.000000000
 40
1.500000000
  0
CIRCLE
  5
B43
330
A02
100
AcDbEntity
  8
Sketch
100
AcDbCircle
 10
-8.890000000
 20
-24.133393944
 30
0.000000000
 40
0.500000000
  0
CIRCLE
  5
B44
330
A02
100
AcDbEntity
  8
Sketch
100
AcDbCircle
 10
-8.890000000
 20
-21.593393944
 30
0.000000000
 40
0.500000000
  0
CIRCLE
  5
B45
330
A02
100
AcDbEntity
  8
Sketch
100
AcDbCircle
 10
-8.890000000
 20
-19.053393944
 30
0.000000000
 40
0.500000000
  0
CIRCLE
  5
B46
330
A02
100
AcDbEntity
  8
Sketch
100
AcDbCircle
 10
-8.890000000
 20
-16.513393944
 30
0.000000000
 40
0.500000000
  0
CIRCLE
  5
B47
330
A02
100
AcDbEntity
  8
Sketch
100
AcDbCircle
 10
-8.890000000
 20
-13.973393944
 30
0.000000000
 40
0.500000000
  0
CIRCLE
  5
B48
330
A02
100
AcDbEntity
  8
Sketch
100
AcDbCircle
 10
-8.890000000
 20
-11.433393944
 30
0.000000000
 40
0.500000000
  0
CIRCLE
  5
B49
330
A02
100
AcDbEntity
  8
Sketch
100
AcDbCircle
 10
-8.890000000
 20
-8.893393944
 30
0.000000000
 40
0.500000000
  0
CIRCLE
  5
B4A
330
A02
100
AcDbEntity
  8
Sketch
100
AcDbCircle
 10
-8.890000000
 20
-6.353393944
 30
0.000000000
 40
0.500000000
  0
CIRCLE
  5
B4B
330
A02
100
AcDbEntity
  8
Sketch
100
AcDbCircle
 10
-8.890000000
 20
-3.813393944
 30
0.000000000
 40
0.500000000
  0
CIRCLE
  5
B4C
330
A02
100
AcDbEntity
  8
Sketch
100
AcDbCircle
 10
-8.890000000
 20
-1.273393944
 30
0.000000000
 40
0.500000000
  0
CIRCLE
  5
B4D
330
A02
100
AcDbEntity
  8
Sketch
100
AcDbCircle
 10
-8.890000000
 20
1.266606056
 30
0.000000000
 40
0.500000000
  0
CIRCLE
  5
B4E
330
A02
100
AcDbEntity
  8
Sketch
100
AcDbCircle
 10
-8.890000000
 20
3.806606056
 30
0.000000000
 40
0.500000000
  0
CIRCLE
  5
B4F
330
A02
100
AcDbEntity
  8
Sketch
100
AcDbCircle
 10
-8.890000000
 20
6.346606056
 30
0.000000000
 40
0.500000000
  0
CIRCLE
  5
B50
330
A02
100
AcDbEntity
  8
Sketch
100
AcDbCircle
 10
-8.890000000
 20
8.886606056
 30
0.000000000
 40
0.500000000
  0
CIRCLE
  5
B51
330
A02
100
AcDbEntity
  8
Sketch
100
AcDbCircle
 10
-8.890000000
 20
11.426606056
 30
0.000000000
 40
0.500000000
  0
CIRCLE
  5
B52
330
A02
100
AcDbEntity
  8
Sketch
100
AcDbCircle
 10
-8.890000000
 20
13.966606056
 30
0.000000000
 40
0.500000000
  0
CIRCLE
  5
B53
330
A02
100
AcDbEntity
  8
Sketch
100
AcDbCircle
 10
-8.890000000
 20
16.506606056
 30
0.000000000
 40
0.500000000
  0
CIRCLE
  5
B54
330
A02
100
AcDbEntity
  8
Sketch
100
AcDbCircle
 10
-8.890000000
 20
21.586606056
 30
0.000000000
 40
0.500000000
  0
CIRCLE
  5
B55
330
A02
100
AcDbEntity
  8
Sketch
100
AcDbCircle
 10
-8.890000000
 20
24.126606056
 30
0.000000000
 40
0.500000000
  0
CIRCLE
  5
B56
330
A02
100
AcDbEntity
  8
Sketch
100
AcDbCircle
 10
8.890000000
 20
24.126606056
 30
0.000000000
 40
0.500000000
  0
CIRCLE
  5
B57
330
A02
100
AcDbEntity
  8
Sketch
100
AcDbCircle
 10
8.890000000
 20
21.586606056
 30
0.000000000
 40
0.500000000
  0
CIRCLE
  5
B58
330
A02
100
AcDbEntity
  8
Sketch
100
AcDbCircle
 10
8.890000000
 20
19.046606056
 30
0.000000000
 40
0.500000000
  0
CIRCLE
  5
B59
330
A02
100
AcDbEntity
  8
Sketch
100
AcDbCircle
 10
8.890000000
 20
16.506606056
 30
0.000000000
 40
0.500000000
  0
CIRCLE
  5
B5A
330
A02
100
AcDbEntity
  8
Sketch
100
AcDbCircle
 10
8.890000000
 20
13.966606056
 30
0.000000000
 40
0.500000000
  0
CIRCLE
  5
B5B
330
A02
100
AcDbEntity
  8
Sketch
100
AcDbCircle
 10
8.890000000
 20
11.426606056
 30
0.000000000
 40
0.500000000
  0
CIRCLE
  5
B5C
330
A02
100
AcDbEntity
  8
Sketch
100
AcDbCircle
 10
8.890000000
 20
8.886606056
 30
0.000000000
 40
0.500000000
  0
CIRCLE
  5
B5D
330
A02
100
AcDbEntity
  8
Sketch
100
AcDbCircle
 10
8.890000000
 20
6.346606056
 30
0.000000000
 40
0.500000000
  0
CIRCLE
  5
B5E
330
A02
100
AcDbEntity
  8
Sketch
100
AcDbCircle
 10
8.890000000
 20
3.806606056
 30
0.000000000
 40
0.500000000
  0
CIRCLE
  5
B5F
330
A02
100
AcDbEntity
  8
Sketch
100
AcDbCircle
 10
8.890000000
 20
1.266606056
 30
0.000000000
 40
0.500000000
  0
CIRCLE
  5
B60
330
A02
100
AcDbEntity
  8
Sketch
100
AcDbCircle
 10
8.890000000
 20
-1.273393944
 30
0.000000000
 40
0.500000000
  0
CIRCLE
  5
B61
330
A02
100
AcDbEntity
  8
Sketch
100
AcDbCircle
 10
8.890000000
 20
-3.813393944
 30
0.000000000
 40
0.500000000
  0
CIRCLE
  5
B62
330
A02
100
AcDbEntity
  8
Sketch
100
AcDbCircle
 10
8.890000000
 20
-6.353393944
 30
0.000000000
 40
0.500000000
  0
CIRCLE
  5
B63
330
A02
100
AcDbEntity
  8
Sketch
100
AcDbCircle
 10
8.890000000
 20
-8.893393944
 30
0.000000000
 40
0.500000000
  0
CIRCLE
  5
B64
330
A02
100
AcDbEntity
  8
Sketch
100
AcDbCircle
 10
8.890000000
 20
-11.433393944
 30
0.000000000
 40
0.500000000
  0
CIRCLE
  5
B65
330
A02
100
AcDbEntity
  8
Sketch
100
AcDbCircle
 10
8.890000000
 20
-13.973393944
 30
0.000000000
 40
0.500000000
  0
CIRCLE
  5
B66
330
A02
100
AcDbEntity
  8
Sketch
100
AcDbCircle
 10
8.890000000
 20
-16.513393944
 30
0.000000000
 40
0.500000000
  0
CIRCLE
  5
B67
330
A02
100
AcDbEntity
  8
Sketch
100
AcDbCircle
 10
8.890000000
 20
-19.053393944
 30
0.000000000
 40
0.500000000
  0
CIRCLE
  5
B68
330
A02
100
AcDbEntity
  8
Sketch
100
AcDbCircle
 10
8.890000000
 20
-21.593393944
 30
0.000000000
 40
0.500000000
  0
CIRCLE
  5
B69
330
A02
100
AcDbEntity
  8
Sketch
100
AcDbCircle
 10
8.890000000
 20
-24.133393944
 30
0.000000000
 40
0.500000000
  0
CIRCLE
  5
B6A
330
A02
100
AcDbEntity
  8
Sketch
100
AcDbCircle
 10
-5.700000000
 20
-23.500000000
 30
0.000000000
 40
1.050000000
  0
CIRCLE
  5
B6B
330
A02
100
AcDbEntity
  8
Sketch
100
AcDbCircle
 10
5.700000000
 20
-23.500000000
 30
0.000000000
 40
1.050000000
  0
CIRCLE
  5
B6C
330
A02
100
AcDbEntity
  8
Sketch
100
AcDbCircle
 10
0.606034000
 20
-5.700000000
 30
0.000000000
 40
0.500000000
  0
CIRCLE
  5
B6D
330
A02
100
AcDbEntity
  8
Sketch
100
AcDbCircle
 10
3.146034000
 20
-5.700000000
 30
0.000000000
 40
0.500000000
  0
CIRCLE
  5
B6E
330
A02
100
AcDbEntity
  8
Sketch
100
AcDbCircle
 10
5.686034000
 20
-5.700000000
 30
0.000000000
 40
0.500000000
  0
CIRCLE
  5
B6F
330
A02
100
AcDbEntity
  8
Sketch
100
AcDbCircle
 10
-8.890000000
 20
19.046606056
 30
0.000000000
 40
0.500000000
  0
ARC
  5
B70
330
A02
100
AcDbEntity
  8
Sketch
100
AcDbCircle
 10
-2.425000000
 20
21.446606056
 30
0.000000000
 40
0.270000000
100
AcDbArc
 50
0.000000000
 51
-179.999999713
  0
LINE
  5
B71
330
A02
100
AcDbEntity
  8
Sketch
100
AcDbLine
 10
-2.695000000
 20
21.446606054
 30
0.000000000
 11
-2.695000000
 21
20.646606056
 31
0.000000000
  0
ARC
  5
B72
330
A02
100
AcDbEntity
  8
Sketch
100
AcDbCircle
 10
-2.425000000
 20
20.646606056
 30
0.000000000
 40
0.270000000
100
AcDbArc
 50
180.000000000
 51
0.000000000
  0
LINE
  5
B73
330
A02
100
AcDbEntity
  8
Sketch
100
AcDbLine
 10
-2.155000000
 20
20.646606056
 30
0.000000000
 11
-2.155000000
 21
21.446606054
 31
0.000000000
  0
ARC
  5
B74
330
A02
100
AcDbEntity
  8
Sketch
100
AcDbCircle
 10
-2.725000000
 20
24.446606056
 30
0.000000000
 40
0.270000000
100
AcDbArc
 50
0.000000000
 51
180.000000000
  0
LINE
  5
B75
330
A02
100
AcDbEntity
  8
Sketch
100
AcDbLine
 10
-2.995000000
 20
24.446606056
 30
0.000000000
 11
-2.995000000
 21
23.646606056
 31
0.000000000
  0
ARC
  5
B76
330
A02
100
AcDbEntity
  8
Sketch
100
AcDbCircle
 10
-2.725000000
 20
23.646606056
 30
0.000000000
 40
0.270000000
100
AcDbArc
 50
180.000000000
 51
0.000000000
  0
LINE
  5
B77
330
A02
100
AcDbEntity
  8
Sketch
100
AcDbLine
 10
-2.455000000
 20
23.646606056
 30
0.000000000
 11
-2.455000000
 21
24.446606056
 31
0.000000000
  0
ARC
  5
B78
330
A02
100
AcDbEntity
  8
Sketch
100
AcDbCircle
 10
2.425000000
 20
21.446606056
 30
0.000000000
 40
0.270000000
100
AcDbArc
 50
0.000000000
 51
-179.999999662
  0
LINE
  5
B79
330
A02
100
AcDbEntity
  8
Sketch
100
AcDbLine
 10
2.155000000
 20
21.446606054
 30
0.000000000
 11
2.155000000
 21
20.646606056
 31
0.000000000
  0
ARC
  5
B7A
330
A02
100
AcDbEntity
  8
Sketch
100
AcDbCircle
 10
2.425000000
 20
20.646606056
 30
0.000000000
 40
0.270000000
100
AcDbArc
 50
180.000000000
 51
0.000000000
  0
LINE
  5
B7B
330
A02
100
AcDbEntity
  8
Sketch
100
AcDbLine
 10
2.695000000
 20
20.646606056
 30
0.000000000
 11
2.695000000
 21
21.446606054
 31
0.000000000
  0
ARC
  5
B7C
330
A02
100
AcDbEntity
  8
Sketch
100
AcDbCircle
 10
2.725000000
 20
24.446606056
 30
0.000000000
 40
0.270000000
100
AcDbArc
 50
0.000000000
 51
-179.999999643
  0
LINE
  5
B7D
330
A02
100
AcDbEntity
  8
Sketch
100
AcDbLine
 10
2.455000000
 20
24.446606054
 30
0.000000000
 11
2.455000000
 21
23.646606056
 31
0.000000000
  0
ARC
  5
B7E
330
A02
100
AcDbEntity
  8
Sketch
100
AcDbCircle
 10
2.725000000
 20
23.646606056
 30
0.000000000
 40
0.270000000
100
AcDbArc
 50
180.000000000
 51
0.000000000
  0
LINE
  5
B7F
330
A02
100
AcDbEntity
  8
Sketch
100
AcDbLine
 10
2.995000000
 20
23.646606056
 30
0.000000000
 11
2.995000000
 21
24.446606054
 31
0.000000000
  0
CIRCLE
  5
B80
330
A02
100
AcDbEntity
  8
Sketch
100
AcDbCircle
 10
-5.700000000
 20
-23.500000000
 30
0.000000000
 40
1.400000000
  0
CIRCLE
  5
B81
330
A02
100
AcDbEntity
  8
Sketch
100
AcDbCircle
 10
5.700000000
 20
-23.500000000
 30
0.000000000
 40
1.400000000
  0
LINE
  5
B82
330
A02
100
AcDbEntity
  8
Sketch
100
AcDbLine
 10
-0.093966000
 20
-5.000000000
 30
0.000000000
 11
-0.093966000
 21
-6.400000000
 31
0.000000000
  0
LINE
  5
B83
330
A02
100
AcDbEntity
  8
Sketch
100
AcDbLine
 10
-0.093966000
 20
-6.400000000
 30
0.000000000
 11
1.306034000
 21
-6.400000000
 31
0.000000000
  0
LINE
  5
B84
330
A02
100
AcDbEntity
  8
Sketch
100
AcDbLine
 10
1.306034000
 20
-6.400000000
 30
0.000000000
 11
1.306034000
 21
-5.000000000
 31
0.000000000
  0
LINE
  5
B85
330
A02
100
AcDbEntity
  8
Sketch
100
AcDbLine
 10
1.306034000
 20
-5.000000000
 30
0.000000000
 11
-0.093966000
 21
-5.000000000
 31
0.000000000
  0
CIRCLE
  5
B86
330
A02
100
AcDbEntity
  8
Sketch
100
AcDbCircle
 10
3.146034000
 20
-5.700000000
 30
0.000000000
 40
0.700000000
  0
CIRCLE
  5
B87
330
A02
100
AcDbEntity
  8
Sketch
100
AcDbCircle
 10
5.686034000
 20
-5.700000000
 30
0.000000000
 40
0.700000000
  0
ARC
  5
B88
330
A02
100
AcDbEntity
  8
Sketch
100
AcDbCircle
 10
-3.070821194
 20
11.516469355
 30
0.000000000
 40
0.206993360
100
AcDbArc
 50
90.000000000
 51
180.000000000
  0
LINE
  5
B89
330
A02
100
AcDbEntity
  8
Sketch
100
AcDbLine
 10
-3.277814554
 20
10.436971705
 30
0.000000000
 11
-3.277814554
 21
11.516469355
 31
0.000000000
  0
ARC
  5
B8A
330
A02
100
AcDbEntity
  8
Sketch
100
AcDbCircle
 10
-3.070821194
 20
10.436971705
 30
0.000000000
 40
0.206993360
100
AcDbArc
 50
180.000000000
 51
-90.000000000
  0
LINE
  5
B8B
330
A02
100
AcDbEntity
  8
Sketch
100
AcDbLine
 10
-2.014581930
 20
10.229978345
 30
0.000000000
 11
-3.070821194
 21
10.229978345
 31
0.000000000
  0
ARC
  5
B8C
330
A02
100
AcDbEntity
  8
Sketch
100
AcDbCircle
 10
-2.014581930
 20
10.436971705
 30
0.000000000
 40
0.206993360
100
AcDbArc
 50
-90.000000000
 51
0.000000000
  0
LINE
  5
B8D
330
A02
100
AcDbEntity
  8
Sketch
100
AcDbLine
 10
-1.807588570
 20
11.516469355
 30
0.000000000
 11
-1.807588570
 21
10.436971705
 31
0.000000000
  0
ARC
  5
B8E
330
A02
100
AcDbEntity
  8
Sketch
100
AcDbCircle
 10
-2.014581930
 20
11.516469355
 30
0.000000000
 40
0.206993360
100
AcDbArc
 50
0.000000000
 51
90.000000000
  0
LINE
  5
B8F
330
A02
100
AcDbEntity
  8
Sketch
100
AcDbLine
 10
-3.070821194
 20
11.723462715
 30
0.000000000
 11
-2.014581930
 21
11.723462715
 31
0.000000000
  0
LINE
  5
B90
330
A02
100
AcDbEntity
  8
Sketch
100
AcDbLine
 10
-10.499862000
 20
18.246452000
 30
0.000000000
 11
-8.433735046
 21
18.246452000
 31
0.000000000
  0
ARC
  5
B91
330
A02
100
AcDbEntity
  8
Sketch
100
AcDbCircle
 10
-8.433735046
 20
18.506606056
 30
0.000000000
 40
0.260154056
100
AcDbArc
 50
-90.000000000
 51
0.000000000
  0
LINE
  5
B92
330
A02
100
AcDbEntity
  8
Sketch
100
AcDbLine
 10
-8.173580990
 20
18.506606056
 30
0.000000000
 11
-8.173580990
 21
19.586606056
 31
0.000000000
  0
ARC
  5
B93
330
A02
100
AcDbEntity
  8
Sketch
100
AcDbCircle
 10
-8.433735046
 20
19.586606056
 30
0.000000000
 40
0.260154056
100
AcDbArc
 50
0.000000000
 51
90.000000000
  0
LINE
  5
B94
330
A02
100
AcDbEntity
  8
Sketch
100
AcDbLine
 10
-8.433735046
 20
19.846760111
 30
0.000000000
 11
-10.499862000
 21
19.846760111
 31
0.000000000
  0
LINE
  5
B95
330
A02
100
AcDbEntity
  8
Sketch
100
AcDbLine
 10
-10.499862000
 20
19.846760111
 30
0.000000000
 11
-10.499862000
 21
19.546760111
 31
0.000000000
  0
ARC
  5
B96
330
A02
100
AcDbEntity
  8
Sketch
100
AcDbCircle
 10
-10.498154087
 20
19.046606056
 30
0.000000000
 40
0.500156972
100
AcDbArc
 50
-90.195651319
 51
90.195651318
  0
LINE
  5
B97
330
A02
100
AcDbEntity
  8
Sketch
100
AcDbLine
 10
-10.499862000
 20
18.246452000
 30
0.000000000
 11
-10.499862000
 21
18.546452000
 31
0.000000000
  0
ARC
  5
B98
330
A02
100
AcDbEntity
  8
Sketch
100
AcDbCircle
 10
-3.075758194
 20
14.047510355
 30
0.000000000
 40
0.206993360
100
AcDbArc
 50
90.000000000
 51
180.000000000
  0
LINE
  5
B99
330
A02
100
AcDbEntity
  8
Sketch
100
AcDbLine
 10
-3.282751554
 20
12.968012705
 30
0.000000000
 11
-3.282751554
 21
14.047510355
 31
0.000000000
  0
ARC
  5
B9A
330
A02
100
AcDbEntity
  8
Sketch
100
AcDbCircle
 10
-3.075758194
 20
12.968012705
 30
0.000000000
 40
0.206993360
100
AcDbArc
 50
180.000000000
 51
-90.000000000
  0
LINE
  5
B9B
330
A02
100
AcDbEntity
  8
Sketch
100
AcDbLine
 10
-2.019518930
 20
12.761019345
 30
0.000000000
 11
-3.075758194
 21
12.761019345
 31
0.000000000
  0
ARC
  5
B9C
330
A02
100
AcDbEntity
  8
Sketch
100
AcDbCircle
 10
-2.019518930
 20
12.968012705
 30
0.000000000
 40
0.206993360
100
AcDbArc
 50
-90.000000000
 51
0.000000000
  0
LINE
  5
B9D
330
A02
100
AcDbEntity
  8
Sketch
100
AcDbLine
 10
-1.812525570
 20
14.047510355
 30
0.000000000
 11
-1.812525570
 21
12.968012705
 31
0.000000000
  0
ARC
  5
B9E
330
A02
100
AcDbEntity
  8
Sketch
100
AcDbCircle
 10
-2.019518930
 20
14.047510355
 30
0.000000000
 40
0.206993360
100
AcDbArc
 50
0.000000000
 51
90.000000000
  0
LINE
  5
B9F
330
A02
100
AcDbEntity
  8
Sketch
100
AcDbLine
 10
-3.075758194
 20
14.254503715
 30
0.000000000
 11
-2.019518930
 21
14.254503715
 31
0.000000000
  0
ARC
  5
BA0
330
A02
100
AcDbEntity
  8
Sketch
100
AcDbCircle
 10
-3.148624194
 20
16.526306355
 30
0.000000000
 40
0.206993360
100
AcDbArc
 50
90.000000000
 51
180.000000000
  0
LINE
  5
BA1
330
A02
100
AcDbEntity
  8
Sketch
100
AcDbLine
 10
-3.355617554
 20
15.446808705
 30
0.000000000
 11
-3.355617554
 21
16.526306355
 31
0.000000000
  0
ARC
  5
BA2
330
A02
100
AcDbEntity
  8
Sketch
100
AcDbCircle
 10
-3.148624194
 20
15.446808705
 30
0.000000000
 40
0.206993360
100
AcDbArc
 50
180.000000000
 51
-90.000000000
  0
LINE
  5
BA3
330
A02
100
AcDbEntity
  8
Sketch
100
AcDbLine
 10
-2.092384930
 20
15.239815345
 30
0.000000000
 11
-3.148624194
 21
15.239815345
 31
0.000000000
  0
ARC
  5
BA4
330
A02
100
AcDbEntity
  8
Sketch
100
AcDbCircle
 10
-2.092384930
 20
15.446808705
 30
0.000000000
 40
0.206993360
100
AcDbArc
 50
-90.000000000
 51
0.000000000
  0
LINE
  5
BA5
330
A02
100
AcDbEntity
  8
Sketch
100
AcDbLine
 10
-1.885391570
 20
16.526306355
 30
0.000000000
 11
-1.885391570
 21
15.446808705
 31
0.000000000
  0
ARC
  5
BA6
330
A02
100
AcDbEntity
  8
Sketch
100
AcDbCircle
 10
-2.092384930
 20
16.526306355
 30
0.000000000
 40
0.206993360
100
AcDbArc
 50
0.000000000
 51
90.000000000
  0
LINE
  5
BA7
330
A02
100
AcDbEntity
  8
Sketch
100
AcDbLine
 10
-3.148624194
 20
16.733299715
 30
0.000000000
 11
-2.092384930
 21
16.733299715
 31
0.000000000
  0
ARC
  5
BA8
330
A02
100
AcDbEntity
  8
Sketch
100
AcDbCircle
 10
-2.425000000
 20
21.446605986
 30
0.000000000
 40
0.530000000
100
AcDbArc
 50
0.000000000
 51
-180.000000000
  0
LINE
  5
BA9
330
A02
100
AcDbEntity
  8
Sketch
100
AcDbLine
 10
-2.955000000
 20
21.446605986
 30
0.000000000
 11
-2.955000000
 21
20.646606056
 31
0.000000000
  0
ARC
  5
BAA
330
A02
100
AcDbEntity
  8
Sketch
100
AcDbCircle
 10
-2.425000000
 20
20.646606056
 30
0.000000000
 40
0.530000000
100
AcDbArc
 50
180.000000000
 51
0.000000000
  0
LINE
  5
BAB
330
A02
100
AcDbEntity
  8
Sketch
100
AcDbLine
 10
-1.895000000
 20
20.646606056
 30
0.000000000
 11
-1.895000000
 21
21.446605986
 31
0.000000000
  0
ARC
  5
BAC
330
A02
100
AcDbEntity
  8
Sketch
100
AcDbCircle
 10
-2.725000000
 20
24.446606056
 30
0.000000000
 40
0.530000000
100
AcDbArc
 50
0.000000000
 51
180.000000000
  0
LINE
  5
BAD
330
A02
100
AcDbEntity
  8
Sketch
100
AcDbLine
 10
-3.255000000
 20
24.446606056
 30
0.000000000
 11
-3.255000000
 21
23.646606056
 31
0.000000000
  0
ARC
  5
BAE
330
A02
100
AcDbEntity
  8
Sketch
100
AcDbCircle
 10
-2.725000000
 20
23.646606056
 30
0.000000000
 40
0.530000000
100
AcDbArc
 50
180.000000000
 51
0.000000000
  0
LINE
  5
BAF
330
A02
100
AcDbEntity
  8
Sketch
100
AcDbLine
 10
-2.195000000
 20
23.646606056
 30
0.000000000
 11
-2.195000000
 21
24.446606056
 31
0.000000000
  0
ARC
  5
BB0
330
A02
100
AcDbEntity
  8
Sketch
100
AcDbCircle
 10
-1.616498000
 20
24.744173000
 30
0.000000000
 40
0.182631038
100
AcDbArc
 50
90.000000000
 51
180.000000000
  0
LINE
  5
BB1
330
A02
100
AcDbEntity
  8
Sketch
100
AcDbLine
 10
-1.799129038
 20
23.684890995
 30
0.000000000
 11
-1.799129038
 21
24.744173000
 31
0.000000000
  0
ARC
  5
BB2
330
A02
100
AcDbEntity
  8
Sketch
100
AcDbCircle
 10
-1.616498000
 20
23.684890995
 30
0.000000000
 40
0.182631038
100
AcDbArc
 50
180.000000000
 51
-90.000000000
  0
LINE
  5
BB3
330
A02
100
AcDbEntity
  8
Sketch
100
AcDbLine
 10
-0.570495995
 20
23.502259957
 30
0.000000000
 11
-1.616498000
 21
23.502259957
 31
0.000000000
  0
ARC
  5
BB4
330
A02
100
AcDbEntity
  8
Sketch
100
AcDbCircle
 10
-0.570495995
 20
23.684890995
 30
0.000000000
 40
0.182631038
100
AcDbArc
 50
-90.000000000
 51
0.000000000
  0
LINE
  5
BB5
330
A02
100
AcDbEntity
  8
Sketch
100
AcDbLine
 10
-0.387864957
 20
24.744173000
 30
0.000000000
 11
-0.387864957
 21
23.684890995
 31
0.000000000
  0
ARC
  5
BB6
330
A02
100
AcDbEntity
  8
Sketch
100
AcDbCircle
 10
-0.570495995
 20
24.744173000
 30
0.000000000
 40
0.182631038
100
AcDbArc
 50
0.000000000
 51
90.000000000
  0
LINE
  5
BB7
330
A02
100
AcDbEntity
  8
Sketch
100
AcDbLine
 10
-1.616498000
 20
24.926804038
 30
0.000000000
 11
-0.570495995
 21
24.926804038
 31
0.000000000
  0
ARC
  5
BB8
330
A02
100
AcDbEntity
  8
Sketch
100
AcDbCircle
 10
-0.599118194
 20
21.491612355
 30
0.000000000
 40
0.206993360
100
AcDbArc
 50
90.000000000
 51
180.000000000
  0
LINE
  5
BB9
330
A02
100
AcDbEntity
  8
Sketch
100
AcDbLine
 10
-0.806111554
 20
20.412114705
 30
0.000000000
 11
-0.806111554
 21
21.491612355
 31
0.000000000
  0
ARC
  5
BBA
330
A02
100
AcDbEntity
  8
Sketch
100
AcDbCircle
 10
-0.599118194
 20
20.412114705
 30
0.000000000
 40
0.206993360
100
AcDbArc
 50
180.000000000
 51
-90.000000000
  0
LINE
  5
BBB
330
A02
100
AcDbEntity
  8
Sketch
100
AcDbLine
 10
0.457121070
 20
20.205121345
 30
0.000000000
 11
-0.599118194
 21
20.205121345
 31
0.000000000
  0
ARC
  5
BBC
330
A02
100
AcDbEntity
  8
Sketch
100
AcDbCircle
 10
0.457121070
 20
20.412114705
 30
0.000000000
 40
0.206993360
100
AcDbArc
 50
-90.000000000
 51
0.000000000
  0
LINE
  5
BBD
330
A02
100
AcDbEntity
  8
Sketch
100
AcDbLine
 10
0.664114430
 20
21.491612355
 30
0.000000000
 11
0.664114430
 21
20.412114705
 31
0.000000000
  0
ARC
  5
BBE
330
A02
100
AcDbEntity
  8
Sketch
100
AcDbCircle
 10
0.457121070
 20
21.491612355
 30
0.000000000
 40
0.206993360
100
AcDbArc
 50
0.000000000
 51
90.000000000
  0
LINE
  5
BBF
330
A02
100
AcDbEntity
  8
Sketch
100
AcDbLine
 10
-0.599118194
 20
21.698605715
 30
0.000000000
 11
0.457121070
 21
21.698605715
 31
0.000000000
  0
ARC
  5
BC0
330
A02
100
AcDbEntity
  8
Sketch
100
AcDbCircle
 10
0.398146968
 20
24.746439000
 30
0.000000000
 40
0.196719038
100
AcDbArc
 50
90.000000000
 51
180.000000000
  0
LINE
  5
BC1
330
A02
100
AcDbEntity
  8
Sketch
100
AcDbLine
 10
0.201427930
 20
23.687156995
 30
0.000000000
 11
0.201427930
 21
24.746439000
 31
0.000000000
  0
ARC
  5
BC2
330
A02
100
AcDbEntity
  8
Sketch
100
AcDbCircle
 10
0.398146968
 20
23.687156995
 30
0.000000000
 40
0.196719038
100
AcDbArc
 50
180.000000000
 51
-90.000000000
  0
LINE
  5
BC3
330
A02
100
AcDbEntity
  8
Sketch
100
AcDbLine
 10
1.461758973
 20
23.490437957
 30
0.000000000
 11
0.398146968
 21
23.490437957
 31
0.000000000
  0
ARC
  5
BC4
330
A02
100
AcDbEntity
  8
Sketch
100
AcDbCircle
 10
1.461758973
 20
23.687156995
 30
0.000000000
 40
0.196719038
100
AcDbArc
 50
-90.000000000
 51
0.000000000
  0
LINE
  5
BC5
330
A02
100
AcDbEntity
  8
Sketch
100
AcDbLine
 10
1.658478010
 20
24.746439000
 30
0.000000000
 11
1.658478010
 21
23.687156995
 31
0.000000000
  0
ARC
  5
BC6
330
A02
100
AcDbEntity
  8
Sketch
100
AcDbCircle
 10
1.461758973
 20
24.746439000
 30
0.000000000
 40
0.196719038
100
AcDbArc
 50
0.000000000
 51
90.000000000
  0
LINE
  5
BC7
330
A02
100
AcDbEntity
  8
Sketch
100
AcDbLine
 10
0.398146968
 20
24.943158038
 30
0.000000000
 11
1.461758973
 21
24.943158038
 31
0.000000000
  0
ARC
  5
BC8
330
A02
100
AcDbEntity
  8
Sketch
100
AcDbCircle
 10
2.425000000
 20
21.446605872
 30
0.000000000
 40
0.530000000
100
AcDbArc
 50
0.000000000
 51
180.000000000
  0
LINE
  5
BC9
330
A02
100
AcDbEntity
  8
Sketch
100
AcDbLine
 10
1.895000000
 20
21.446605872
 30
0.000000000
 11
1.895000000
 21
20.646606056
 31
0.000000000
  0
ARC
  5
BCA
330
A02
100
AcDbEntity
  8
Sketch
100
AcDbCircle
 10
2.425000000
 20
20.646606056
 30
0.000000000
 40
0.530000000
100
AcDbArc
 50
180.000000000
 51
0.000000000
  0
LINE
  5
BCB
330
A02
100
AcDbEntity
  8
Sketch
100
AcDbLine
 10
2.955000000
 20
20.646606056
 30
0.000000000
 11
2.955000000
 21
21.446605872
 31
0.000000000
  0
ARC
  5
BCC
330
A02
100
AcDbEntity
  8
Sketch
100
AcDbCircle
 10
2.725000000
 20
24.446605861
 30
0.000000000
 40
0.530000000
100
AcDbArc
 50
0.000000000
 51
180.000000000
  0
LINE
  5
BCD
330
A02
100
AcDbEntity
  8
Sketch
100
AcDbLine
 10
2.195000000
 20
24.446605861
 30
0.000000000
 11
2.195000000
 21
23.646606056
 31
0.000000000
  0
ARC
  5
BCE
330
A02
100
AcDbEntity
  8
Sketch
100
AcDbCircle
 10
2.725000000
 20
23.646606056
 30
0.000000000
 40
0.530000000
100
AcDbArc
 50
180.000000000
 51
0.000000000
  0
LINE
  5
BCF
330
A02
100
AcDbEntity
  8
Sketch
100
AcDbLine
 10
3.255000000
 20
23.646606056
 30
0.000000000
 11
3.255000000
 21
24.446605861
 31
0.000000000
  0
ENDSEC
  0
SECTION
  2
OBJECTS
  0
DICTIONARY
  5
F000
330
0
100
AcDbDictionary
  3
ACAD_GROUP
350
F001
  0
DICTIONARY
  5
F001
330
F000
100
AcDbDictionary
  0
ENDSEC
  0
EOF