solid OpenSCAD_Model
  facet normal -0 0 1
    outer loop
      vertex -5 5 -30
      vertex 5 -5 -30
      vertex 5 5 -30
    endloop
  endfacet
  facet normal 0 0 1
    outer loop
      vertex 5 -5 -30
      vertex -5 5 -30
      vertex -5 -5 -30
    endloop
  endfacet
  facet normal 0 0 -1
    outer loop
      vertex -5 -5 -330
      vertex 5 5 -330
      vertex 5 -5 -330
    endloop
  endfacet
  facet normal -0 0 -1
    outer loop
      vertex 5 5 -330
      vertex -5 -5 -330
      vertex -5 5 -330
    endloop
  endfacet
  facet normal 0 -1 0
    outer loop
      vertex -5 -5 -330
      vertex 5 -5 -30
      vertex -5 -5 -30
    endloop
  endfacet
  facet normal 0 -1 -0
    outer loop
      vertex 5 -5 -30
      vertex -5 -5 -330
      vertex 5 -5 -330
    endloop
  endfacet
  facet normal 1 -0 0
    outer loop
      vertex 5 -5 -30
      vertex 5 5 -330
      vertex 5 5 -30
    endloop
  endfacet
  facet normal 1 0 0
    outer loop
      vertex 5 5 -330
      vertex 5 -5 -30
      vertex 5 -5 -330
    endloop
  endfacet
  facet normal 0 1 -0
    outer loop
      vertex 5 5 -330
      vertex -5 5 -30
      vertex 5 5 -30
    endloop
  endfacet
  facet normal 0 1 0
    outer loop
      vertex -5 5 -30
      vertex 5 5 -330
      vertex -5 5 -330
    endloop
  endfacet
  facet normal -1 0 0
    outer loop
      vertex -5 -5 -330
      vertex -5 5 -30
      vertex -5 5 -330
    endloop
  endfacet
  facet normal -1 -0 0
    outer loop
      vertex -5 5 -30
      vertex -5 -5 -330
      vertex -5 -5 -30
    endloop
  endfacet
endsolid OpenSCAD_Model
