%TF.GenerationSoftware,KiCad,Pcbnew,10.0.0-10.0.0~ubuntu24.04.1*%
%TF.CreationDate,2026-03-22T15:53:17+05:30*%
%TF.ProjectId,orbigator,6f726269-6761-4746-9f72-2e6b69636164,v2*%
%TF.SameCoordinates,Original*%
%TF.FileFunction,Soldermask,Bot*%
%TF.FilePolarity,Negative*%
%FSLAX46Y46*%
G04 Gerber Fmt 4.6, Leading zero omitted, Abs format (unit mm)*
G04 Created by KiCad (PCBNEW 10.0.0-10.0.0~ubuntu24.04.1) date 2026-03-22 15:53:17*
%MOMM*%
%LPD*%
G01*
G04 APERTURE LIST*
G04 Aperture macros list*
%AMRoundRect*
0 Rectangle with rounded corners*
0 $1 Rounding radius*
0 $2 $3 $4 $5 $6 $7 $8 $9 X,Y pos of 4 corners*
0 Add a 4 corners polygon primitive as box body*
4,1,4,$2,$3,$4,$5,$6,$7,$8,$9,$2,$3,0*
0 Add four circle primitives for the rounded corners*
1,1,$1+$1,$2,$3*
1,1,$1+$1,$4,$5*
1,1,$1+$1,$6,$7*
1,1,$1+$1,$8,$9*
0 Add four rect primitives between the rounded corners*
20,1,$1+$1,$2,$3,$4,$5,0*
20,1,$1+$1,$4,$5,$6,$7,0*
20,1,$1+$1,$6,$7,$8,$9,0*
20,1,$1+$1,$8,$9,$2,$3,0*%
G04 Aperture macros list end*
%ADD10RoundRect,0.250000X-0.600000X-0.600000X0.600000X-0.600000X0.600000X0.600000X-0.600000X0.600000X0*%
%ADD11RoundRect,0.250000X0.750000X-0.750000X0.750000X0.750000X-0.750000X0.750000X-0.750000X-0.750000X0*%
%ADD12C,2.000000*%
%ADD13RoundRect,0.235294X-0.564706X-0.864706X0.564706X-0.864706X0.564706X0.864706X-0.564706X0.864706X0*%
%ADD14O,1.600000X2.200000*%
%ADD15RoundRect,0.750000X0.500000X1.750000X-0.500000X1.750000X-0.500000X-1.750000X0.500000X-1.750000X0*%
%ADD16RoundRect,0.750000X1.750000X0.500000X-1.750000X0.500000X-1.750000X-0.500000X1.750000X-0.500000X0*%
%ADD17C,2.200000*%
%ADD18C,1.850000*%
%ADD19R,2.500000X5.100000*%
%ADD20C,10.200000*%
%ADD21C,5.000000*%
%ADD22O,1.400000X2.400000*%
%ADD23RoundRect,0.194444X0.505556X1.005556X-0.505556X1.005556X-0.505556X-1.005556X0.505556X-1.005556X0*%
%TA.AperFunction,Profile*%
%ADD24C,0.050000*%
%TD*%
G04 APERTURE END LIST*
D10*
%TO.C,J5*%
X112570000Y-89600000D03*
%TD*%
%TO.C,J1*%
X125070000Y-89600000D03*
%TD*%
%TO.C,J10*%
X97270000Y-89600000D03*
%TD*%
%TO.C,J30*%
X114705000Y-75800000D03*
%TD*%
%TO.C,J19*%
X112485000Y-115400000D03*
%TD*%
%TO.C,J6*%
X110070000Y-89600000D03*
%TD*%
%TO.C,J28*%
X109625000Y-75800000D03*
%TD*%
%TO.C,J20*%
X87115000Y-115400000D03*
%TD*%
%TO.C,J34*%
X82035000Y-89600000D03*
%TD*%
D11*
%TO.C,RTC1*%
X99480000Y-78700000D03*
D12*
X102020000Y-78700000D03*
X104560000Y-78700000D03*
X107100000Y-78700000D03*
X109640000Y-78700000D03*
X112180000Y-78700000D03*
X114720000Y-78700000D03*
%TD*%
D10*
%TO.C,J23*%
X87085001Y-89600000D03*
%TD*%
%TO.C,J36*%
X120075000Y-89600000D03*
%TD*%
%TO.C,J25*%
X76990001Y-89600000D03*
%TD*%
%TO.C,J17*%
X117584999Y-115400000D03*
%TD*%
%TO.C,J29*%
X112165000Y-75800000D03*
%TD*%
%TO.C,J11*%
X92070000Y-89600000D03*
%TD*%
%TO.C,J8*%
X89570000Y-89600000D03*
%TD*%
D13*
%TO.C,M1*%
X97500000Y-125800000D03*
D14*
X100000000Y-125799999D03*
X102500000Y-125800000D03*
%TD*%
D10*
%TO.C,J3*%
X117584999Y-89600000D03*
%TD*%
%TO.C,J16*%
X122685000Y-115400000D03*
%TD*%
D15*
%TO.C,J27*%
X124808000Y-125157500D03*
X130808000Y-125157500D03*
D16*
X127808000Y-120457500D03*
%TD*%
D10*
%TO.C,J15*%
X125285001Y-115400000D03*
%TD*%
%TO.C,J13*%
X84570000Y-89600000D03*
%TD*%
%TO.C,J32*%
X129485000Y-102560000D03*
%TD*%
D17*
%TO.C,U1*%
X77100000Y-105225000D03*
D18*
X80130000Y-104925000D03*
X80130000Y-100075000D03*
D17*
X77100000Y-99775000D03*
%TD*%
D10*
%TO.C,J37*%
X107445000Y-89610000D03*
%TD*%
%TO.C,J12*%
X94670000Y-89600001D03*
%TD*%
%TO.C,J21*%
X129485000Y-100000000D03*
%TD*%
%TO.C,J35*%
X120145000Y-115410000D03*
%TD*%
%TO.C,J22*%
X129485000Y-105100000D03*
%TD*%
%TO.C,J14*%
X102385000Y-89600000D03*
%TD*%
%TO.C,J18*%
X115084999Y-115400000D03*
%TD*%
D13*
%TO.C,M2*%
X97499997Y-119000000D03*
D14*
X99999997Y-118999999D03*
X102499997Y-119000000D03*
%TD*%
D10*
%TO.C,J2*%
X122570000Y-89600000D03*
%TD*%
%TO.C,J7*%
X104870000Y-89600000D03*
%TD*%
%TO.C,J9*%
X99770000Y-89600000D03*
%TD*%
%TO.C,J24*%
X79485000Y-89600000D03*
%TD*%
%TO.C,J26*%
X107385000Y-115400000D03*
%TD*%
%TO.C,J4*%
X115070000Y-89600000D03*
%TD*%
D19*
%TO.C,BT1*%
X87600000Y-124000000D03*
X72400000Y-124000000D03*
D20*
X80000000Y-124000000D03*
%TD*%
D21*
%TO.C,DISP1*%
X129500000Y-85500000D03*
X129500000Y-114500000D03*
X70500000Y-85500000D03*
X70500000Y-114500000D03*
D22*
X119820000Y-84400000D03*
X117280000Y-84400000D03*
X114740000Y-84400000D03*
X112200000Y-84400000D03*
X109660000Y-84400000D03*
X107120000Y-84400000D03*
X104580000Y-84400000D03*
X102040000Y-84400000D03*
D23*
X99500000Y-84400000D03*
%TD*%
D24*
X65000000Y-77500000D02*
X65000000Y-93000000D01*
X65000000Y-77500000D02*
G75*
G02*
X68000000Y-74500000I3000000J0D01*
G01*
X65000000Y-111800000D02*
X65000000Y-127000000D01*
X65000000Y-111800000D02*
G75*
G02*
X68000000Y-108800000I3000000J0D01*
G01*
X68000000Y-74500000D02*
X132000000Y-74500000D01*
X68000000Y-96000000D02*
G75*
G02*
X65000000Y-93000000I0J3000000D01*
G01*
X68000000Y-96000000D02*
X74000000Y-96000000D01*
X68000000Y-130000000D02*
G75*
G02*
X65000000Y-127000000I0J3000000D01*
G01*
X74000000Y-96000000D02*
X74000000Y-108800000D01*
X74000000Y-108800000D02*
X68000000Y-108800000D01*
X132000000Y-74500000D02*
G75*
G02*
X135000000Y-77500000I0J-3000000D01*
G01*
X135000000Y-77500000D02*
X135000000Y-130000000D01*
X135000000Y-130000000D02*
X68000000Y-130000000D01*
M02*
