%TF.GenerationSoftware,KiCad,Pcbnew,10.0.0-10.0.0~ubuntu24.04.1*%
%TF.CreationDate,2026-03-28T21:45:12+05:30*%
%TF.ProjectId,orbigator,6f726269-6761-4746-9f72-2e6b69636164,v2*%
%TF.SameCoordinates,PX3dfd240PY7bfa480*%
%TF.FileFunction,Soldermask,Top*%
%TF.FilePolarity,Negative*%
%FSLAX46Y46*%
G04 Gerber Fmt 4.6, Leading zero omitted, Abs format (unit mm)*
G04 Created by KiCad (PCBNEW 10.0.0-10.0.0~ubuntu24.04.1) date 2026-03-28 21:45:12*
%MOMM*%
%LPD*%
G01*
G04 APERTURE LIST*
G04 Aperture macros list*
%AMRoundRect*
0 Rectangle with rounded corners*
0 $1 Rounding radius*
0 $2 $3 $4 $5 $6 $7 $8 $9 X,Y pos of 4 corners*
0 Add a 4 corners polygon primitive as box body*
4,1,4,$2,$3,$4,$5,$6,$7,$8,$9,$2,$3,0*
0 Add four circle primitives for the rounded corners*
1,1,$1+$1,$2,$3*
1,1,$1+$1,$4,$5*
1,1,$1+$1,$6,$7*
1,1,$1+$1,$8,$9*
0 Add four rect primitives between the rounded corners*
20,1,$1+$1,$2,$3,$4,$5,0*
20,1,$1+$1,$4,$5,$6,$7,0*
20,1,$1+$1,$6,$7,$8,$9,0*
20,1,$1+$1,$8,$9,$2,$3,0*%
%AMFreePoly0*
4,1,37,0.800000,0.796148,0.878414,0.796148,1.032228,0.765552,1.177117,0.705537,1.307515,0.618408,1.418408,0.507515,1.505537,0.377117,1.565552,0.232228,1.596148,0.078414,1.596148,-0.078414,1.565552,-0.232228,1.505537,-0.377117,1.418408,-0.507515,1.307515,-0.618408,1.177117,-0.705537,1.032228,-0.765552,0.878414,-0.796148,0.800000,-0.796148,0.800000,-0.800000,-1.400000,-0.800000,
-1.403843,-0.796157,-1.439018,-0.796157,-1.511114,-0.766294,-1.566294,-0.711114,-1.596157,-0.639018,-1.596157,-0.603843,-1.600000,-0.600000,-1.600000,0.600000,-1.596157,0.603843,-1.596157,0.639018,-1.566294,0.711114,-1.511114,0.766294,-1.439018,0.796157,-1.403843,0.796157,-1.400000,0.800000,0.800000,0.800000,0.800000,0.796148,0.800000,0.796148,$1*%
%AMFreePoly1*
4,1,37,1.403843,0.796157,1.439018,0.796157,1.511114,0.766294,1.566294,0.711114,1.596157,0.639018,1.596157,0.603843,1.600000,0.600000,1.600000,-0.600000,1.596157,-0.603843,1.596157,-0.639018,1.566294,-0.711114,1.511114,-0.766294,1.439018,-0.796157,1.403843,-0.796157,1.400000,-0.800000,-0.800000,-0.800000,-0.800000,-0.796148,-0.878414,-0.796148,-1.032228,-0.765552,-1.177117,-0.705537,
-1.307515,-0.618408,-1.418408,-0.507515,-1.505537,-0.377117,-1.565552,-0.232228,-1.596148,-0.078414,-1.596148,0.078414,-1.565552,0.232228,-1.505537,0.377117,-1.418408,0.507515,-1.307515,0.618408,-1.177117,0.705537,-1.032228,0.765552,-0.878414,0.796148,-0.800000,0.796148,-0.800000,0.800000,1.400000,0.800000,1.403843,0.796157,1.403843,0.796157,$1*%
%AMFreePoly2*
4,1,37,1.600000,0.796148,1.678414,0.796148,1.832228,0.765552,1.977117,0.705537,2.107515,0.618408,2.218408,0.507515,2.305537,0.377117,2.365552,0.232228,2.396148,0.078414,2.396148,-0.078414,2.365552,-0.232228,2.305537,-0.377117,2.218408,-0.507515,2.107515,-0.618408,1.977117,-0.705537,1.832228,-0.765552,1.678414,-0.796148,1.600000,-0.796148,1.600000,-0.800000,-0.600000,-0.800000,
-0.603843,-0.796157,-0.639018,-0.796157,-0.711114,-0.766294,-0.766294,-0.711114,-0.796157,-0.639018,-0.796157,-0.603843,-0.800000,-0.600000,-0.800000,0.600000,-0.796157,0.603843,-0.796157,0.639018,-0.766294,0.711114,-0.711114,0.766294,-0.639018,0.796157,-0.603843,0.796157,-0.600000,0.800000,1.600000,0.800000,1.600000,0.796148,1.600000,0.796148,$1*%
G04 Aperture macros list end*
%ADD10RoundRect,0.250000X-0.600000X-0.600000X0.600000X-0.600000X0.600000X0.600000X-0.600000X0.600000X0*%
%ADD11RoundRect,0.250000X-0.650000X1.000000X-0.650000X-1.000000X0.650000X-1.000000X0.650000X1.000000X0*%
%ADD12RoundRect,0.250000X0.337500X0.475000X-0.337500X0.475000X-0.337500X-0.475000X0.337500X-0.475000X0*%
%ADD13RoundRect,0.150000X-0.150000X0.825000X-0.150000X-0.825000X0.150000X-0.825000X0.150000X0.825000X0*%
%ADD14RoundRect,0.250000X-0.337500X-0.475000X0.337500X-0.475000X0.337500X0.475000X-0.337500X0.475000X0*%
%ADD15RoundRect,0.250000X0.750000X-0.750000X0.750000X0.750000X-0.750000X0.750000X-0.750000X-0.750000X0*%
%ADD16C,2.000000*%
%ADD17RoundRect,0.250000X-0.350000X-0.450000X0.350000X-0.450000X0.350000X0.450000X-0.350000X0.450000X0*%
%ADD18RoundRect,0.235294X-0.564706X-0.864706X0.564706X-0.864706X0.564706X0.864706X-0.564706X0.864706X0*%
%ADD19O,1.600000X2.200000*%
%ADD20RoundRect,0.750000X0.500000X1.750000X-0.500000X1.750000X-0.500000X-1.750000X0.500000X-1.750000X0*%
%ADD21RoundRect,0.750000X1.750000X0.500000X-1.750000X0.500000X-1.750000X-0.500000X1.750000X-0.500000X0*%
%ADD22RoundRect,0.250000X-0.475000X0.337500X-0.475000X-0.337500X0.475000X-0.337500X0.475000X0.337500X0*%
%ADD23RoundRect,0.250000X0.600000X-0.600000X0.600000X0.600000X-0.600000X0.600000X-0.600000X-0.600000X0*%
%ADD24C,2.200000*%
%ADD25C,1.850000*%
%ADD26FreePoly0,90.000000*%
%ADD27RoundRect,0.800000X0.000010X-0.800000X0.000010X0.800000X-0.000010X0.800000X-0.000010X-0.800000X0*%
%ADD28FreePoly1,90.000000*%
%ADD29RoundRect,0.800000X0.800000X0.000010X-0.800000X0.000010X-0.800000X-0.000010X0.800000X-0.000010X0*%
%ADD30FreePoly2,0.000000*%
%ADD31RoundRect,0.250000X0.550000X-1.500000X0.550000X1.500000X-0.550000X1.500000X-0.550000X-1.500000X0*%
%ADD32RoundRect,0.150000X-0.825000X-0.150000X0.825000X-0.150000X0.825000X0.150000X-0.825000X0.150000X0*%
%ADD33RoundRect,0.200000X-0.250000X-0.200000X0.250000X-0.200000X0.250000X0.200000X-0.250000X0.200000X0*%
%ADD34C,5.000000*%
%ADD35O,1.400000X2.400000*%
%ADD36RoundRect,0.194444X0.505556X1.005556X-0.505556X1.005556X-0.505556X-1.005556X0.505556X-1.005556X0*%
%TA.AperFunction,Profile*%
%ADD37C,0.050000*%
%TD*%
G04 APERTURE END LIST*
D10*
%TO.C,J5*%
X47570000Y40400000D03*
%TD*%
%TO.C,J1*%
X60070000Y40400000D03*
%TD*%
D11*
%TO.C,D1*%
X54000000Y6800000D03*
X54000000Y2800000D03*
%TD*%
D10*
%TO.C,J10*%
X32270000Y40400000D03*
%TD*%
%TO.C,J30*%
X49705000Y54200000D03*
%TD*%
%TO.C,J19*%
X47485000Y14600000D03*
%TD*%
%TO.C,J6*%
X45070000Y40400000D03*
%TD*%
%TO.C,J28*%
X44625000Y54200000D03*
%TD*%
%TO.C,J20*%
X22115000Y14600000D03*
%TD*%
D12*
%TO.C,C6*%
X35337500Y8300000D03*
X33262500Y8300000D03*
%TD*%
D13*
%TO.C,U2*%
X19610001Y9674999D03*
X18339999Y9675001D03*
X17070000Y9675000D03*
X15800000Y9675001D03*
X14530001Y9675001D03*
X13259999Y9675000D03*
X11990000Y9675000D03*
X11989999Y4725001D03*
X13260001Y4724999D03*
X14530000Y4725000D03*
X15800000Y4724999D03*
X17069999Y4724999D03*
X18340001Y4725000D03*
X19610000Y4725000D03*
%TD*%
D10*
%TO.C,J34*%
X17035000Y40400000D03*
%TD*%
D14*
%TO.C,C9*%
X22462500Y2200000D03*
X24537500Y2200000D03*
%TD*%
D15*
%TO.C,RTC1*%
X34480000Y51300000D03*
D16*
X37020000Y51300000D03*
X39560000Y51300000D03*
X42100000Y51300000D03*
X44640000Y51300000D03*
X47180000Y51300000D03*
X49720000Y51300000D03*
%TD*%
D17*
%TO.C,R5*%
X13000000Y46900000D03*
X15000000Y46900000D03*
%TD*%
D10*
%TO.C,J23*%
X22085001Y40400000D03*
%TD*%
%TO.C,J36*%
X55075000Y40400000D03*
%TD*%
%TO.C,J25*%
X11990001Y40400000D03*
%TD*%
%TO.C,J17*%
X52584999Y14600000D03*
%TD*%
%TO.C,J29*%
X47165000Y54200000D03*
%TD*%
%TO.C,J11*%
X27070000Y40400000D03*
%TD*%
%TO.C,J8*%
X24570000Y40400000D03*
%TD*%
D17*
%TO.C,R3*%
X22500000Y9700000D03*
X24500000Y9700000D03*
%TD*%
D18*
%TO.C,M1*%
X33000000Y3000000D03*
D19*
X35500000Y3000001D03*
X38000000Y3000000D03*
%TD*%
D10*
%TO.C,J3*%
X52584999Y40400000D03*
%TD*%
%TO.C,J16*%
X57685000Y14600000D03*
%TD*%
D20*
%TO.C,J27*%
X59808000Y4842500D03*
X65808000Y4842500D03*
D21*
X62808000Y9542500D03*
%TD*%
D17*
%TO.C,R2*%
X22500000Y7200000D03*
X24500000Y7200000D03*
%TD*%
D10*
%TO.C,J15*%
X60285001Y14600000D03*
%TD*%
D17*
%TO.C,R4*%
X13000000Y50400000D03*
X15000000Y50400000D03*
%TD*%
D22*
%TO.C,C3*%
X50400000Y8037500D03*
X50400000Y5962500D03*
%TD*%
D10*
%TO.C,J13*%
X19570000Y40400000D03*
%TD*%
D23*
%TO.C,J32*%
X64440000Y27500000D03*
%TD*%
D24*
%TO.C,U1*%
X12100000Y24775000D03*
D25*
X15130000Y25075000D03*
X15130000Y29925000D03*
D24*
X12100000Y30225000D03*
D26*
X11970000Y17810000D03*
D27*
X14510000Y17810000D03*
D28*
X17050000Y17810000D03*
D27*
X19590000Y17810000D03*
X22130000Y17810000D03*
X24670000Y17810000D03*
X27210000Y17810000D03*
D28*
X29750000Y17810000D03*
D27*
X32290000Y17810000D03*
X34830000Y17810000D03*
X37370000Y17810000D03*
X39910000Y17810000D03*
D28*
X42450000Y17810000D03*
D27*
X44990000Y17810000D03*
X47530000Y17810000D03*
X50070000Y17810000D03*
X52610000Y17810000D03*
D28*
X55150000Y17810000D03*
D27*
X57690000Y17810000D03*
X60230000Y17810000D03*
X60230000Y37190000D03*
X57690000Y37190000D03*
D26*
X55150000Y37190000D03*
D27*
X52610000Y37190000D03*
X50070000Y37190000D03*
X47530000Y37190000D03*
X44990000Y37190000D03*
D26*
X42450000Y37190000D03*
D27*
X39910000Y37190000D03*
X37370000Y37190000D03*
X34830000Y37190000D03*
X32290000Y37190000D03*
D26*
X29750000Y37190000D03*
D27*
X27210000Y37190000D03*
X24670000Y37190000D03*
X22130000Y37190000D03*
X19590000Y37190000D03*
D26*
X17050000Y37190000D03*
D27*
X14510000Y37190000D03*
X11970000Y37190000D03*
D29*
X60800000Y24960000D03*
D30*
X60000000Y27500000D03*
D29*
X60800000Y30040000D03*
%TD*%
D10*
%TO.C,J37*%
X42445000Y40390000D03*
%TD*%
D17*
%TO.C,R1*%
X22500000Y4700000D03*
X24500000Y4700000D03*
%TD*%
D12*
%TO.C,C5*%
X32037500Y44200000D03*
X29962500Y44200000D03*
%TD*%
D31*
%TO.C,C8*%
X45100000Y2800000D03*
X45100000Y8400000D03*
%TD*%
D10*
%TO.C,J12*%
X29670000Y40399999D03*
%TD*%
D23*
%TO.C,J21*%
X64500000Y30040000D03*
%TD*%
D10*
%TO.C,J35*%
X55145000Y14590000D03*
%TD*%
D23*
%TO.C,J22*%
X64440000Y24960000D03*
%TD*%
D14*
%TO.C,C1*%
X19462500Y44200000D03*
X21537500Y44200000D03*
%TD*%
D32*
%TO.C,U4*%
X17525000Y49905000D03*
X17525000Y48635000D03*
X17525000Y47365000D03*
X17525000Y46095000D03*
X22475000Y46095000D03*
X22475000Y47365000D03*
X22475000Y48635000D03*
X22475000Y49905000D03*
%TD*%
D10*
%TO.C,J14*%
X37385000Y40400000D03*
%TD*%
%TO.C,J18*%
X50084999Y14600000D03*
%TD*%
D18*
%TO.C,M2*%
X33000000Y12100000D03*
D19*
X35500000Y12100001D03*
X38000000Y12100000D03*
%TD*%
D12*
%TO.C,C2*%
X27037500Y44200000D03*
X24962500Y44200000D03*
%TD*%
D10*
%TO.C,J2*%
X57570000Y40400000D03*
%TD*%
%TO.C,J7*%
X39870000Y40400000D03*
%TD*%
D33*
%TO.C,Q1*%
X53000000Y11950000D03*
X53000000Y10050000D03*
X55000000Y11000000D03*
%TD*%
D12*
%TO.C,C7*%
X35337500Y6200000D03*
X33262500Y6200000D03*
%TD*%
D10*
%TO.C,J9*%
X34770000Y40400000D03*
%TD*%
%TO.C,J24*%
X14485000Y40400000D03*
%TD*%
%TO.C,J26*%
X42385000Y14600000D03*
%TD*%
%TO.C,J4*%
X50070000Y40400000D03*
%TD*%
D34*
%TO.C,DISP1*%
X64500000Y15500000D03*
X64500000Y44500000D03*
X5500000Y15500000D03*
X5500000Y44500000D03*
D35*
X54820000Y45600000D03*
X52280000Y45600000D03*
X49740000Y45600000D03*
X47200000Y45600000D03*
X44660000Y45600000D03*
X42120000Y45600000D03*
X39580000Y45600000D03*
X37040000Y45600000D03*
D36*
X34500000Y45600000D03*
%TD*%
D37*
X0Y53000000D02*
X0Y37000000D01*
X0Y53000000D02*
G75*
G02*
X3000000Y56000000I3000000J0D01*
G01*
X0Y18200000D02*
X0Y3000000D01*
X0Y18200000D02*
G75*
G02*
X3000000Y21200000I3000000J0D01*
G01*
X3000000Y56000000D02*
X67000000Y56000000D01*
X3000000Y34000000D02*
G75*
G02*
X0Y37000000I0J3000000D01*
G01*
X3000000Y34000000D02*
X9000000Y34000000D01*
X3000000Y0D02*
G75*
G02*
X0Y3000000I0J3000000D01*
G01*
X3000000Y0D02*
X7600000Y0D01*
X8300000Y700000D02*
G75*
G02*
X7600000Y0I-700000J0D01*
G01*
X8300000Y700000D02*
G75*
G02*
X9000000Y1400000I700000J0D01*
G01*
X9000000Y34000000D02*
X9000000Y21200000D01*
X9000000Y21200000D02*
X3000000Y21200000D01*
X15000000Y1400000D02*
X9000000Y1400000D01*
X15000000Y1400000D02*
X21000000Y1400000D01*
X21000000Y1400000D02*
G75*
G02*
X21700000Y700000I0J-700000D01*
G01*
X22400000Y0D02*
G75*
G02*
X21700000Y700000I0J700000D01*
G01*
X22400000Y0D02*
X70000000Y0D01*
X67000000Y56000000D02*
G75*
G02*
X70000000Y53000000I0J-3000000D01*
G01*
X70000000Y53000000D02*
X70000000Y0D01*
M02*
