%TF.GenerationSoftware,KiCad,Pcbnew,9.0.3-9.0.3-0~ubuntu24.04.1*%
%TF.CreationDate,2026-01-31T17:56:03+05:30*%
%TF.ProjectId,orbigator,6f726269-6761-4746-9f72-2e6b69636164,v2*%
%TF.SameCoordinates,Original*%
%TF.FileFunction,Copper,L2,Bot*%
%TF.FilePolarity,Positive*%
%FSLAX46Y46*%
G04 Gerber Fmt 4.6, Leading zero omitted, Abs format (unit mm)*
G04 Created by KiCad (PCBNEW 9.0.3-9.0.3-0~ubuntu24.04.1) date 2026-01-31 17:56:03*
%MOMM*%
%LPD*%
G01*
G04 APERTURE LIST*
G04 Aperture macros list*
%AMRoundRect*
0 Rectangle with rounded corners*
0 $1 Rounding radius*
0 $2 $3 $4 $5 $6 $7 $8 $9 X,Y pos of 4 corners*
0 Add a 4 corners polygon primitive as box body*
4,1,4,$2,$3,$4,$5,$6,$7,$8,$9,$2,$3,0*
0 Add four circle primitives for the rounded corners*
1,1,$1+$1,$2,$3*
1,1,$1+$1,$4,$5*
1,1,$1+$1,$6,$7*
1,1,$1+$1,$8,$9*
0 Add four rect primitives between the rounded corners*
20,1,$1+$1,$2,$3,$4,$5,0*
20,1,$1+$1,$4,$5,$6,$7,0*
20,1,$1+$1,$6,$7,$8,$9,0*
20,1,$1+$1,$8,$9,$2,$3,0*%
G04 Aperture macros list end*
%TA.AperFunction,ComponentPad*%
%ADD10RoundRect,0.250000X-0.600000X-0.600000X0.600000X-0.600000X0.600000X0.600000X-0.600000X0.600000X0*%
%TD*%
%TA.AperFunction,ComponentPad*%
%ADD11RoundRect,0.250000X0.550000X-0.550000X0.550000X0.550000X-0.550000X0.550000X-0.550000X-0.550000X0*%
%TD*%
%TA.AperFunction,ComponentPad*%
%ADD12C,1.600000*%
%TD*%
%TA.AperFunction,ComponentPad*%
%ADD13RoundRect,0.250000X0.600000X0.600000X-0.600000X0.600000X-0.600000X-0.600000X0.600000X-0.600000X0*%
%TD*%
%TA.AperFunction,ComponentPad*%
%ADD14RoundRect,0.235294X0.564706X0.864706X-0.564706X0.864706X-0.564706X-0.864706X0.564706X-0.864706X0*%
%TD*%
%TA.AperFunction,ComponentPad*%
%ADD15O,1.600000X2.200000*%
%TD*%
%TA.AperFunction,ComponentPad*%
%ADD16RoundRect,0.750000X0.500000X1.750000X-0.500000X1.750000X-0.500000X-1.750000X0.500000X-1.750000X0*%
%TD*%
%TA.AperFunction,ComponentPad*%
%ADD17RoundRect,0.750000X1.750000X0.500000X-1.750000X0.500000X-1.750000X-0.500000X1.750000X-0.500000X0*%
%TD*%
%TA.AperFunction,ComponentPad*%
%ADD18C,5.000000*%
%TD*%
%TA.AperFunction,ComponentPad*%
%ADD19O,1.400000X2.400000*%
%TD*%
%TA.AperFunction,ComponentPad*%
%ADD20RoundRect,0.194444X0.505556X1.005556X-0.505556X1.005556X-0.505556X-1.005556X0.505556X-1.005556X0*%
%TD*%
%TA.AperFunction,ComponentPad*%
%ADD21RoundRect,0.250000X-0.750000X0.750000X-0.750000X-0.750000X0.750000X-0.750000X0.750000X0.750000X0*%
%TD*%
%TA.AperFunction,ComponentPad*%
%ADD22C,2.000000*%
%TD*%
%TA.AperFunction,ViaPad*%
%ADD23C,0.800000*%
%TD*%
%TA.AperFunction,Conductor*%
%ADD24C,0.250000*%
%TD*%
%TA.AperFunction,Conductor*%
%ADD25C,0.500000*%
%TD*%
%TA.AperFunction,Profile*%
%ADD26C,0.050000*%
%TD*%
G04 APERTURE END LIST*
D10*
%TO.P,J5,1,Pin_1*%
%TO.N,Net-(J5-Pin_1)*%
X112555000Y-89600000D03*
%TD*%
D11*
%TO.P,U2,1*%
%TO.N,/DIR*%
X75990000Y-127315000D03*
D12*
%TO.P,U2,2*%
%TO.N,/UART_TX*%
X78530000Y-127315000D03*
%TO.P,U2,3*%
%TO.N,/MOT_DAT*%
X81069999Y-127315000D03*
%TO.P,U2,4*%
%TO.N,/GND*%
X83610000Y-127315000D03*
%TO.P,U2,5*%
X86150000Y-127315000D03*
%TO.P,U2,6*%
%TO.N,unconnected-(U2-Pad6)*%
X88690000Y-127315000D03*
%TO.P,U2,7,GND*%
%TO.N,/GND*%
X91230000Y-127315000D03*
%TO.P,U2,8*%
%TO.N,unconnected-(U2-Pad8)*%
X91230000Y-119695000D03*
%TO.P,U2,9*%
%TO.N,/GND*%
X88690000Y-119695000D03*
%TO.P,U2,10*%
X86150000Y-119695000D03*
%TO.P,U2,11*%
%TO.N,unconnected-(U2-Pad11)*%
X83610000Y-119695000D03*
%TO.P,U2,12*%
%TO.N,/GND*%
X81070000Y-119695000D03*
%TO.P,U2,13*%
X78530000Y-119695000D03*
%TO.P,U2,14,VCC*%
%TO.N,/3V3*%
X75990000Y-119695000D03*
%TD*%
D10*
%TO.P,J1,1,Pin_1*%
%TO.N,Net-(J1-Pin_1)*%
X125055000Y-89600000D03*
%TD*%
%TO.P,J10,1,Pin_1*%
%TO.N,Net-(J10-Pin_1)*%
X97255000Y-89600000D03*
%TD*%
%TO.P,J19,1,Pin_1*%
%TO.N,Net-(J19-Pin_1)*%
X112470000Y-115400000D03*
%TD*%
%TO.P,J6,1,Pin_1*%
%TO.N,Net-(J6-Pin_1)*%
X110055000Y-89600000D03*
%TD*%
D13*
%TO.P,J30,1,Pin_1*%
%TO.N,/32k*%
X93100000Y-81800000D03*
%TD*%
D10*
%TO.P,J34,1,Pin_1*%
%TO.N,/GND*%
X82020000Y-89600000D03*
%TD*%
%TO.P,J23,1,Pin_1*%
%TO.N,/3V3*%
X87070001Y-89600000D03*
%TD*%
%TO.P,J36,1,Pin_1*%
%TO.N,/GND*%
X120060000Y-89600000D03*
%TD*%
%TO.P,J25,1,Pin_1*%
%TO.N,/5V0*%
X76975001Y-89600000D03*
%TD*%
%TO.P,J31,1,Pin_1*%
%TO.N,/GND*%
X82020000Y-115340000D03*
%TD*%
%TO.P,J17,1,Pin_1*%
%TO.N,Net-(J17-Pin_1)*%
X117569999Y-115400000D03*
%TD*%
%TO.P,J11,1,Pin_1*%
%TO.N,Net-(J11-Pin_1)*%
X92055000Y-89600000D03*
%TD*%
%TO.P,J8,1,Pin_1*%
%TO.N,Net-(J8-Pin_1)*%
X89555000Y-89600000D03*
%TD*%
D12*
%TO.P,R3,1,+*%
%TO.N,/3V3*%
X102600000Y-123505000D03*
%TO.P,R3,2,-*%
%TO.N,/SDA*%
X94980000Y-123505000D03*
%TD*%
D14*
%TO.P,M1,1,Pin_1*%
%TO.N,/GND*%
X113390000Y-127315000D03*
D15*
%TO.P,M1,2,Pin_2*%
%TO.N,/5V0*%
X110890000Y-127315000D03*
%TO.P,M1,3,Pin_3*%
%TO.N,/MOT_DAT*%
X108390000Y-127315000D03*
%TD*%
D10*
%TO.P,J33,1,Pin_1*%
%TO.N,/GND*%
X94740000Y-115390000D03*
%TD*%
%TO.P,J3,1,Pin_1*%
%TO.N,Net-(J3-Pin_1)*%
X117569999Y-89600000D03*
%TD*%
%TO.P,J16,1,Pin_1*%
%TO.N,Net-(J16-Pin_1)*%
X122670000Y-115400000D03*
%TD*%
D16*
%TO.P,J27,1*%
%TO.N,/5V0*%
X124808000Y-125157500D03*
%TO.P,J27,2*%
%TO.N,/GND*%
X130808000Y-125157500D03*
D17*
%TO.P,J27,3*%
X127808000Y-120457500D03*
%TD*%
D12*
%TO.P,R2,1,+*%
%TO.N,/3V3*%
X102600000Y-119695000D03*
%TO.P,R2,2,-*%
%TO.N,/SCL*%
X94980000Y-119695000D03*
%TD*%
D10*
%TO.P,J15,1,Pin_1*%
%TO.N,Net-(J15-Pin_1)*%
X125270001Y-115400000D03*
%TD*%
%TO.P,J13,1,Pin_1*%
%TO.N,Net-(J13-Pin_1)*%
X84555000Y-89600000D03*
%TD*%
%TO.P,J32,1,Pin_1*%
%TO.N,/GND*%
X129470000Y-102560000D03*
%TD*%
D13*
%TO.P,J28,1,Pin_1*%
%TO.N,/INT*%
X88030000Y-81800000D03*
%TD*%
D10*
%TO.P,J37,1,Pin_1*%
%TO.N,/GND*%
X107430000Y-89610000D03*
%TD*%
D12*
%TO.P,R1,1,+*%
%TO.N,/3V3*%
X102600000Y-127315000D03*
%TO.P,R1,2,-*%
%TO.N,/MOT_DAT*%
X94980000Y-127315000D03*
%TD*%
D10*
%TO.P,J20,1,Pin_1*%
%TO.N,Net-(J20-Pin_1)*%
X87070001Y-115400000D03*
%TD*%
D13*
%TO.P,J29,1,Pin_1*%
%TO.N,/RST*%
X90600000Y-81800000D03*
%TD*%
D10*
%TO.P,J12,1,Pin_1*%
%TO.N,/GND*%
X94655000Y-89600001D03*
%TD*%
%TO.P,J21,1,Pin_1*%
%TO.N,Net-(J21-Pin_1)*%
X129470000Y-100000000D03*
%TD*%
%TO.P,J35,1,Pin_1*%
%TO.N,/GND*%
X120130000Y-115410000D03*
%TD*%
%TO.P,J22,1,Pin_1*%
%TO.N,Net-(J22-Pin_1)*%
X129470000Y-105100000D03*
%TD*%
%TO.P,J14,1,Pin_1*%
%TO.N,Net-(J14-Pin_1)*%
X102370000Y-89600000D03*
%TD*%
%TO.P,J18,1,Pin_1*%
%TO.N,Net-(J18-Pin_1)*%
X115069999Y-115400000D03*
%TD*%
D14*
%TO.P,M2,1,Pin_1*%
%TO.N,/GND*%
X113390000Y-119695000D03*
D15*
%TO.P,M2,2,Pin_2*%
%TO.N,/5V0*%
X110890000Y-119695000D03*
%TO.P,M2,3,Pin_3*%
%TO.N,/MOT_DAT*%
X108390000Y-119695000D03*
%TD*%
D10*
%TO.P,J2,1,Pin_1*%
%TO.N,Net-(J2-Pin_1)*%
X122555000Y-89600000D03*
%TD*%
%TO.P,J7,1,Pin_1*%
%TO.N,Net-(J7-Pin_1)*%
X104855000Y-89600000D03*
%TD*%
%TO.P,J9,1,Pin_1*%
%TO.N,Net-(J9-Pin_1)*%
X99755000Y-89600000D03*
%TD*%
%TO.P,J24,1,Pin_1*%
%TO.N,/5V_SYS*%
X79470000Y-89600000D03*
%TD*%
%TO.P,J26,1,Pin_1*%
%TO.N,/GND*%
X107370000Y-115400000D03*
%TD*%
%TO.P,J4,1,Pin_1*%
%TO.N,Net-(J4-Pin_1)*%
X115055000Y-89600000D03*
%TD*%
D18*
%TO.P,DISP1,*%
%TO.N,*%
X129500000Y-114500000D03*
X129500000Y-85500000D03*
X70500000Y-114500000D03*
X70500000Y-85500000D03*
D19*
%TO.P,DISP1,1,CNF_BTN*%
%TO.N,/CNF_BTN*%
X119820000Y-84400000D03*
%TO.P,DISP1,2,SDA*%
%TO.N,/SDA*%
X117280000Y-84400000D03*
%TO.P,DISP1,3,SCL*%
%TO.N,/SCL*%
X114740000Y-84400000D03*
%TO.P,DISP1,4,ENC_SW*%
%TO.N,/ENC_SW*%
X112200000Y-84400000D03*
%TO.P,DISP1,5,ENC_A*%
%TO.N,/ENC_A*%
X109660000Y-84400000D03*
%TO.P,DISP1,6,ENC_B*%
%TO.N,/ENC_B*%
X107120000Y-84400000D03*
%TO.P,DISP1,7,BAK_BTN*%
%TO.N,/BAK_BTN*%
X104580000Y-84400000D03*
%TO.P,DISP1,8,GND*%
%TO.N,/GND*%
X102040000Y-84400000D03*
D20*
%TO.P,DISP1,9,VCC*%
%TO.N,/3V3*%
X99500000Y-84400000D03*
%TD*%
D21*
%TO.P,RTC1,1,Pin_1*%
%TO.N,/3V3*%
X77880000Y-84400000D03*
D22*
%TO.P,RTC1,2,Pin_2*%
%TO.N,/GND*%
X80420000Y-84400000D03*
%TO.P,RTC1,3,Pin_3*%
%TO.N,/SCL*%
X82960000Y-84400000D03*
%TO.P,RTC1,4,Pin_4*%
%TO.N,/SDA*%
X85500000Y-84400000D03*
%TO.P,RTC1,5,Pin_5*%
%TO.N,/INT*%
X88040000Y-84400000D03*
%TO.P,RTC1,6,Pin_6*%
%TO.N,/RST*%
X90580000Y-84400000D03*
%TO.P,RTC1,7,Pin_7*%
%TO.N,/32k*%
X93120000Y-84400000D03*
%TD*%
D23*
%TO.N,/ENC_B*%
X111260000Y-97000000D03*
%TO.N,/ENC_SW*%
X113790000Y-97000000D03*
%TO.N,/ENC_A*%
X108720000Y-97020000D03*
%TO.N,/BAK_BTN*%
X116340000Y-97000000D03*
%TO.N,/CNF_BTN*%
X118880000Y-96990000D03*
%TO.N,/SDA*%
X89670000Y-109000000D03*
%TO.N,/SCL*%
X92210000Y-109000000D03*
%TD*%
D24*
%TO.N,/ENC_B*%
X111260000Y-98100000D02*
X110520000Y-98840000D01*
X106140000Y-98020000D02*
X106140000Y-87710000D01*
X106140000Y-87710000D02*
X107120000Y-86730000D01*
X111260000Y-97000000D02*
X111260000Y-98100000D01*
X107120000Y-86730000D02*
X107120000Y-84400000D01*
X110520000Y-98840000D02*
X106960000Y-98840000D01*
X106960000Y-98840000D02*
X106140000Y-98020000D01*
D25*
%TO.N,/3V3*%
X76780000Y-121770000D02*
X75990000Y-120980000D01*
X74540000Y-91980000D02*
X74540000Y-88270000D01*
X100085000Y-123505000D02*
X98350000Y-121770000D01*
X102600000Y-119695000D02*
X102600000Y-123505000D01*
X74540000Y-88270000D02*
X75910000Y-86900000D01*
X82340000Y-94800000D02*
X77360000Y-94800000D01*
X98605000Y-115700000D02*
X98605000Y-111065000D01*
X98605000Y-111065000D02*
X82340000Y-94800000D01*
X102600000Y-119695000D02*
X98605000Y-115700000D01*
X77210000Y-86900000D02*
X77880000Y-86230000D01*
X75990000Y-120980000D02*
X75990000Y-119695000D01*
X102600000Y-123505000D02*
X100085000Y-123505000D01*
X77880000Y-86230000D02*
X77880000Y-84400000D01*
X98350000Y-121770000D02*
X76780000Y-121770000D01*
X77360000Y-94800000D02*
X74540000Y-91980000D01*
X75910000Y-86900000D02*
X77210000Y-86900000D01*
X102600000Y-123505000D02*
X102600000Y-127315000D01*
D24*
%TO.N,/ENC_SW*%
X113790000Y-97000000D02*
X113790000Y-88400000D01*
X113790000Y-88400000D02*
X112200000Y-86810000D01*
X112200000Y-86810000D02*
X112200000Y-84400000D01*
%TO.N,/ENC_A*%
X109660000Y-86710000D02*
X109660000Y-84400000D01*
X108720000Y-87650000D02*
X109660000Y-86710000D01*
X108720000Y-97020000D02*
X108720000Y-87650000D01*
%TO.N,/BAK_BTN*%
X104580000Y-86670000D02*
X104580000Y-84400000D01*
X116340000Y-97000000D02*
X116340000Y-99000000D01*
X114630000Y-100710000D02*
X106020000Y-100710000D01*
X103600000Y-87650000D02*
X104580000Y-86670000D01*
X103600000Y-98290000D02*
X103600000Y-87650000D01*
X116340000Y-99000000D02*
X114630000Y-100710000D01*
X106020000Y-100710000D02*
X103600000Y-98290000D01*
D25*
%TO.N,/GND*%
X88690000Y-117840000D02*
X93660000Y-117840000D01*
X94750000Y-116750000D02*
X94750000Y-115400000D01*
X86150000Y-117840000D02*
X88690000Y-117840000D01*
X74050000Y-118710000D02*
X74050000Y-124620000D01*
X74920000Y-117840000D02*
X74050000Y-118710000D01*
X123087500Y-120457500D02*
X127808000Y-120457500D01*
X131450000Y-102500000D02*
X133500000Y-104550000D01*
X78530000Y-117840000D02*
X74920000Y-117840000D01*
X120130000Y-113000000D02*
X118600000Y-111470000D01*
X86150000Y-117840000D02*
X86150000Y-119695000D01*
X83610000Y-125440000D02*
X83610000Y-127315000D01*
X94730000Y-91555000D02*
X107370000Y-104195000D01*
X86150000Y-127315000D02*
X86150000Y-125440000D01*
X78530000Y-119695000D02*
X78530000Y-117840000D01*
X101370000Y-87020000D02*
X102040000Y-86350000D01*
X113390000Y-127315000D02*
X113390000Y-119695000D01*
X121100000Y-102500000D02*
X120150000Y-101550000D01*
X83610000Y-125440000D02*
X86150000Y-125440000D01*
X129000000Y-102500000D02*
X121100000Y-102500000D01*
X81070000Y-119695000D02*
X81070000Y-117840000D01*
X82020000Y-89600000D02*
X82020000Y-88090000D01*
X93660000Y-117840000D02*
X94750000Y-116750000D01*
X120150000Y-115400000D02*
X120150000Y-119695000D01*
X118600000Y-111470000D02*
X107370000Y-111470000D01*
X107370000Y-105690000D02*
X107370000Y-111470000D01*
X133500000Y-120457500D02*
X127808000Y-120457500D01*
X94735000Y-91550000D02*
X94735000Y-89600001D01*
X129000000Y-102500000D02*
X131450000Y-102500000D01*
X86150000Y-117840000D02*
X81070000Y-117840000D01*
X132722500Y-125157500D02*
X130808000Y-125157500D01*
X81070000Y-117840000D02*
X78530000Y-117840000D01*
X120150000Y-92400000D02*
X120150000Y-89600000D01*
X88690000Y-119695000D02*
X88690000Y-117840000D01*
X74870000Y-125440000D02*
X83610000Y-125440000D01*
X133500000Y-120457500D02*
X133500000Y-124380000D01*
X102040000Y-86350000D02*
X102040000Y-84400000D01*
X74050000Y-124620000D02*
X74870000Y-125440000D01*
X120130000Y-115410000D02*
X120130000Y-113000000D01*
X113390000Y-119695000D02*
X120150000Y-119695000D01*
X120150000Y-101550000D02*
X120150000Y-92400000D01*
X95460000Y-87020000D02*
X101370000Y-87020000D01*
X82050000Y-90960000D02*
X82645000Y-91555000D01*
X94730000Y-91555000D02*
X94735000Y-91550000D01*
X107370000Y-111470000D02*
X107370000Y-115400000D01*
X122325000Y-119695000D02*
X123087500Y-120457500D01*
X120150000Y-119695000D02*
X122325000Y-119695000D01*
X82645000Y-91555000D02*
X94730000Y-91555000D01*
X80420000Y-86490000D02*
X80420000Y-84400000D01*
X82020000Y-88090000D02*
X80420000Y-86490000D01*
X90480000Y-125440000D02*
X91230000Y-126190000D01*
X133500000Y-124380000D02*
X132722500Y-125157500D01*
X94655000Y-89600001D02*
X94655000Y-87825000D01*
X91230000Y-126190000D02*
X91230000Y-127315000D01*
X107370000Y-104195000D02*
X107370000Y-105690000D01*
X86150000Y-125440000D02*
X90480000Y-125440000D01*
X82050000Y-89600000D02*
X82050000Y-90960000D01*
X133500000Y-104550000D02*
X133500000Y-120457500D01*
X94655000Y-87825000D02*
X95460000Y-87020000D01*
D24*
%TO.N,/CNF_BTN*%
X119820000Y-87290000D02*
X119820000Y-84400000D01*
X118880000Y-88230000D02*
X119820000Y-87290000D01*
X118880000Y-96990000D02*
X118880000Y-88230000D01*
%TO.N,/SDA*%
X74920000Y-86190000D02*
X74920000Y-82530000D01*
X84490000Y-82410000D02*
X84490000Y-83390000D01*
X90710000Y-106850000D02*
X81220000Y-97360000D01*
X90710000Y-107960000D02*
X90710000Y-106850000D01*
X73320000Y-87790000D02*
X74920000Y-86190000D01*
X74920000Y-82530000D02*
X76320000Y-81130000D01*
X89670000Y-109000000D02*
X90710000Y-107960000D01*
X73320000Y-93390000D02*
X73320000Y-87790000D01*
X76320000Y-81130000D02*
X83210000Y-81130000D01*
X83210000Y-81130000D02*
X84490000Y-82410000D01*
X84490000Y-83390000D02*
X85500000Y-84400000D01*
X77290000Y-97360000D02*
X73320000Y-93390000D01*
X81220000Y-97360000D02*
X77290000Y-97360000D01*
%TO.N,/SCL*%
X83010000Y-81580000D02*
X83970000Y-82540000D01*
X77550000Y-96910000D02*
X73780000Y-93140000D01*
X75380000Y-86370000D02*
X75380000Y-82720000D01*
X83970000Y-82540000D02*
X83970000Y-83390000D01*
X81480000Y-96910000D02*
X77550000Y-96910000D01*
X76520000Y-81580000D02*
X83010000Y-81580000D01*
X73780000Y-93140000D02*
X73780000Y-87970000D01*
X83970000Y-83390000D02*
X82960000Y-84400000D01*
X73780000Y-87970000D02*
X75380000Y-86370000D01*
X75380000Y-82720000D02*
X76520000Y-81580000D01*
X91210000Y-106640000D02*
X81480000Y-96910000D01*
X92210000Y-109000000D02*
X91210000Y-108000000D01*
X91210000Y-108000000D02*
X91210000Y-106640000D01*
D25*
%TO.N,/5V0*%
X109910000Y-117400000D02*
X105800000Y-117400000D01*
X110890000Y-119695000D02*
X110890000Y-118380000D01*
X78570000Y-92950000D02*
X76975001Y-91355001D01*
X111390000Y-129270000D02*
X115630000Y-129270000D01*
X119742500Y-125157500D02*
X124808000Y-125157500D01*
X110890000Y-127315000D02*
X110890000Y-128770000D01*
X98710000Y-101870000D02*
X92720000Y-101870000D01*
X110890000Y-118380000D02*
X109910000Y-117400000D01*
X83800000Y-92950000D02*
X78570000Y-92950000D01*
X105800000Y-117400000D02*
X104495000Y-116095000D01*
X110890000Y-128770000D02*
X111390000Y-129270000D01*
X104495000Y-116095000D02*
X104495000Y-107655000D01*
X115630000Y-129270000D02*
X119742500Y-125157500D01*
X92720000Y-101870000D02*
X83800000Y-92950000D01*
X76975001Y-91355001D02*
X76975001Y-89600000D01*
X110890000Y-119695000D02*
X110890000Y-127315000D01*
X104495000Y-107655000D02*
X98710000Y-101870000D01*
D24*
%TO.N,/MOT_DAT*%
X106205000Y-129500000D02*
X108390000Y-127315000D01*
X94980000Y-129500000D02*
X106205000Y-129500000D01*
D25*
X108390000Y-119695000D02*
X108390000Y-127315000D01*
D24*
X82100000Y-129500000D02*
X94980000Y-129500000D01*
X94980000Y-127315000D02*
X94980000Y-129500000D01*
X81069999Y-128469999D02*
X82100000Y-129500000D01*
X81069999Y-127315000D02*
X81069999Y-128469999D01*
D25*
%TO.N,/32k*%
X93120000Y-84400000D02*
X93120000Y-81860000D01*
%TO.N,/INT*%
X88040000Y-84400000D02*
X88040000Y-81860000D01*
%TO.N,/RST*%
X90580000Y-84400000D02*
X90580000Y-81860000D01*
%TD*%
%TA.AperFunction,Conductor*%
%TO.N,/GND*%
G36*
X78130000Y-119747661D02*
G01*
X78157259Y-119849394D01*
X78209920Y-119940606D01*
X78284394Y-120015080D01*
X78375606Y-120067741D01*
X78477339Y-120095000D01*
X78483553Y-120095000D01*
X77804076Y-120774474D01*
X77832578Y-120795182D01*
X77875243Y-120850512D01*
X77881222Y-120920126D01*
X77848616Y-120981921D01*
X77787777Y-121016278D01*
X77759692Y-121019500D01*
X77142230Y-121019500D01*
X77112789Y-121010855D01*
X77082803Y-121004332D01*
X77077787Y-121000577D01*
X77075191Y-120999815D01*
X77054549Y-120983181D01*
X76885457Y-120814089D01*
X76851972Y-120752766D01*
X76856956Y-120683074D01*
X76885453Y-120638731D01*
X76981966Y-120542219D01*
X76995693Y-120523326D01*
X77102286Y-120376611D01*
X77102415Y-120376359D01*
X77149795Y-120283369D01*
X77197769Y-120232573D01*
X77265590Y-120215778D01*
X77331725Y-120238315D01*
X77370765Y-120283369D01*
X77418141Y-120376350D01*
X77418147Y-120376359D01*
X77450523Y-120420921D01*
X77450524Y-120420922D01*
X78130000Y-119741446D01*
X78130000Y-119747661D01*
G37*
%TD.AperFunction*%
%TA.AperFunction,Conductor*%
G36*
X80670000Y-119747661D02*
G01*
X80697259Y-119849394D01*
X80749920Y-119940606D01*
X80824394Y-120015080D01*
X80915606Y-120067741D01*
X81017339Y-120095000D01*
X81023553Y-120095000D01*
X80344076Y-120774474D01*
X80372578Y-120795182D01*
X80415243Y-120850512D01*
X80421222Y-120920126D01*
X80388616Y-120981921D01*
X80327777Y-121016278D01*
X80299692Y-121019500D01*
X79300307Y-121019500D01*
X79233268Y-120999815D01*
X79187513Y-120947011D01*
X79177569Y-120877853D01*
X79206594Y-120814297D01*
X79227420Y-120795183D01*
X79255921Y-120774474D01*
X78576447Y-120095000D01*
X78582661Y-120095000D01*
X78684394Y-120067741D01*
X78775606Y-120015080D01*
X78850080Y-119940606D01*
X78902741Y-119849394D01*
X78930000Y-119747661D01*
X78930000Y-119741447D01*
X79609474Y-120420921D01*
X79641861Y-120376347D01*
X79641861Y-120376346D01*
X79689515Y-120282820D01*
X79737489Y-120232024D01*
X79805310Y-120215228D01*
X79871445Y-120237765D01*
X79910485Y-120282819D01*
X79958141Y-120376350D01*
X79958147Y-120376359D01*
X79990523Y-120420921D01*
X79990524Y-120420922D01*
X80670000Y-119741446D01*
X80670000Y-119747661D01*
G37*
%TD.AperFunction*%
%TA.AperFunction,Conductor*%
G36*
X82149474Y-120420921D02*
G01*
X82181861Y-120376347D01*
X82181861Y-120376346D01*
X82229234Y-120283371D01*
X82277208Y-120232575D01*
X82345028Y-120215779D01*
X82411164Y-120238316D01*
X82450203Y-120283369D01*
X82497713Y-120376611D01*
X82618028Y-120542213D01*
X82618034Y-120542219D01*
X82762781Y-120686966D01*
X82911728Y-120795182D01*
X82954394Y-120850511D01*
X82960373Y-120920125D01*
X82927768Y-120981920D01*
X82866929Y-121016277D01*
X82838843Y-121019500D01*
X81840307Y-121019500D01*
X81773268Y-120999815D01*
X81727513Y-120947011D01*
X81717569Y-120877853D01*
X81746594Y-120814297D01*
X81767420Y-120795183D01*
X81795922Y-120774474D01*
X81116447Y-120095000D01*
X81122661Y-120095000D01*
X81224394Y-120067741D01*
X81315606Y-120015080D01*
X81390080Y-119940606D01*
X81442741Y-119849394D01*
X81470000Y-119747661D01*
X81470000Y-119741447D01*
X82149474Y-120420921D01*
G37*
%TD.AperFunction*%
%TA.AperFunction,Conductor*%
G36*
X85750000Y-119747661D02*
G01*
X85777259Y-119849394D01*
X85829920Y-119940606D01*
X85904394Y-120015080D01*
X85995606Y-120067741D01*
X86097339Y-120095000D01*
X86103553Y-120095000D01*
X85424076Y-120774474D01*
X85452578Y-120795182D01*
X85495243Y-120850512D01*
X85501222Y-120920126D01*
X85468616Y-120981921D01*
X85407777Y-121016278D01*
X85379692Y-121019500D01*
X84381157Y-121019500D01*
X84314118Y-120999815D01*
X84268363Y-120947011D01*
X84258419Y-120877853D01*
X84287444Y-120814297D01*
X84308271Y-120795182D01*
X84457219Y-120686966D01*
X84601966Y-120542219D01*
X84601968Y-120542215D01*
X84601971Y-120542213D01*
X84722286Y-120376611D01*
X84722415Y-120376359D01*
X84769795Y-120283369D01*
X84817769Y-120232573D01*
X84885590Y-120215778D01*
X84951725Y-120238315D01*
X84990765Y-120283369D01*
X85038141Y-120376350D01*
X85038147Y-120376359D01*
X85070523Y-120420921D01*
X85070524Y-120420922D01*
X85750000Y-119741446D01*
X85750000Y-119747661D01*
G37*
%TD.AperFunction*%
%TA.AperFunction,Conductor*%
G36*
X88290000Y-119747661D02*
G01*
X88317259Y-119849394D01*
X88369920Y-119940606D01*
X88444394Y-120015080D01*
X88535606Y-120067741D01*
X88637339Y-120095000D01*
X88643553Y-120095000D01*
X87964076Y-120774474D01*
X87992578Y-120795182D01*
X88035243Y-120850512D01*
X88041222Y-120920126D01*
X88008616Y-120981921D01*
X87947777Y-121016278D01*
X87919692Y-121019500D01*
X86920307Y-121019500D01*
X86853268Y-120999815D01*
X86807513Y-120947011D01*
X86797569Y-120877853D01*
X86826594Y-120814297D01*
X86847420Y-120795183D01*
X86875921Y-120774474D01*
X86196447Y-120095000D01*
X86202661Y-120095000D01*
X86304394Y-120067741D01*
X86395606Y-120015080D01*
X86470080Y-119940606D01*
X86522741Y-119849394D01*
X86550000Y-119747661D01*
X86550000Y-119741447D01*
X87229474Y-120420921D01*
X87261861Y-120376347D01*
X87261861Y-120376346D01*
X87309515Y-120282820D01*
X87357489Y-120232024D01*
X87425310Y-120215228D01*
X87491445Y-120237765D01*
X87530485Y-120282819D01*
X87578141Y-120376350D01*
X87578147Y-120376359D01*
X87610523Y-120420921D01*
X87610524Y-120420922D01*
X88290000Y-119741446D01*
X88290000Y-119747661D01*
G37*
%TD.AperFunction*%
%TA.AperFunction,Conductor*%
G36*
X89769474Y-120420921D02*
G01*
X89801861Y-120376347D01*
X89801861Y-120376346D01*
X89849234Y-120283371D01*
X89897208Y-120232575D01*
X89965028Y-120215779D01*
X90031164Y-120238316D01*
X90070203Y-120283369D01*
X90117713Y-120376611D01*
X90238028Y-120542213D01*
X90238034Y-120542219D01*
X90382781Y-120686966D01*
X90531728Y-120795182D01*
X90574394Y-120850511D01*
X90580373Y-120920125D01*
X90547768Y-120981920D01*
X90486929Y-121016277D01*
X90458843Y-121019500D01*
X89460307Y-121019500D01*
X89393268Y-120999815D01*
X89347513Y-120947011D01*
X89337569Y-120877853D01*
X89366594Y-120814297D01*
X89387420Y-120795183D01*
X89415922Y-120774474D01*
X88736447Y-120095000D01*
X88742661Y-120095000D01*
X88844394Y-120067741D01*
X88935606Y-120015080D01*
X89010080Y-119940606D01*
X89062741Y-119849394D01*
X89090000Y-119747661D01*
X89090000Y-119741447D01*
X89769474Y-120420921D01*
G37*
%TD.AperFunction*%
%TA.AperFunction,Conductor*%
G36*
X82766587Y-82225185D02*
G01*
X82787229Y-82241819D01*
X83244086Y-82698676D01*
X83277571Y-82759999D01*
X83272587Y-82829691D01*
X83230715Y-82885624D01*
X83165251Y-82910041D01*
X83137008Y-82908830D01*
X83078099Y-82899500D01*
X83078092Y-82899500D01*
X82841908Y-82899500D01*
X82841903Y-82899500D01*
X82608631Y-82936446D01*
X82384003Y-83009433D01*
X82173566Y-83116657D01*
X82112687Y-83160889D01*
X81982490Y-83255483D01*
X81982488Y-83255485D01*
X81982487Y-83255485D01*
X81815482Y-83422490D01*
X81772451Y-83481717D01*
X81717120Y-83524382D01*
X81662405Y-83532448D01*
X81642658Y-83530893D01*
X80902962Y-84270590D01*
X80885925Y-84207007D01*
X80820099Y-84092993D01*
X80727007Y-83999901D01*
X80612993Y-83934075D01*
X80549409Y-83917037D01*
X81289105Y-83177340D01*
X81289104Y-83177338D01*
X81206174Y-83117087D01*
X80995802Y-83009897D01*
X80771247Y-82936934D01*
X80771248Y-82936934D01*
X80538052Y-82900000D01*
X80301948Y-82900000D01*
X80068752Y-82936934D01*
X79844197Y-83009897D01*
X79633830Y-83117084D01*
X79550894Y-83177340D01*
X80290591Y-83917037D01*
X80227007Y-83934075D01*
X80112993Y-83999901D01*
X80019901Y-84092993D01*
X79954075Y-84207007D01*
X79937037Y-84270591D01*
X79416818Y-83750372D01*
X79383333Y-83689049D01*
X79380499Y-83662691D01*
X79380499Y-83599998D01*
X79380498Y-83599981D01*
X79369999Y-83497203D01*
X79369998Y-83497200D01*
X79363066Y-83476282D01*
X79314814Y-83330666D01*
X79222712Y-83181344D01*
X79098656Y-83057288D01*
X78980947Y-82984685D01*
X78949336Y-82965187D01*
X78949331Y-82965185D01*
X78895092Y-82947212D01*
X78782797Y-82910001D01*
X78782795Y-82910000D01*
X78680010Y-82899500D01*
X77079998Y-82899500D01*
X77079981Y-82899501D01*
X76977203Y-82910000D01*
X76977200Y-82910001D01*
X76810668Y-82965185D01*
X76810663Y-82965187D01*
X76661342Y-83057289D01*
X76537289Y-83181342D01*
X76445187Y-83330663D01*
X76445185Y-83330668D01*
X76442663Y-83338280D01*
X76390001Y-83497203D01*
X76390001Y-83497204D01*
X76390000Y-83497204D01*
X76379500Y-83599983D01*
X76379500Y-85200001D01*
X76379501Y-85200018D01*
X76390000Y-85302796D01*
X76390001Y-85302799D01*
X76414759Y-85377512D01*
X76445186Y-85469334D01*
X76537288Y-85618656D01*
X76661344Y-85742712D01*
X76810666Y-85834814D01*
X76922649Y-85871921D01*
X76924603Y-85873274D01*
X76926975Y-85873444D01*
X76953170Y-85893052D01*
X76980092Y-85911692D01*
X76981005Y-85913889D01*
X76982909Y-85915314D01*
X76994346Y-85945977D01*
X77006915Y-85976208D01*
X77006495Y-85978549D01*
X77007327Y-85980778D01*
X77000369Y-86012763D01*
X76994600Y-86044984D01*
X76992824Y-86047449D01*
X76992476Y-86049051D01*
X76971325Y-86077306D01*
X76935452Y-86113180D01*
X76874130Y-86146666D01*
X76847770Y-86149500D01*
X76129500Y-86149500D01*
X76062461Y-86129815D01*
X76016706Y-86077011D01*
X76005500Y-86025500D01*
X76005500Y-83030452D01*
X76025185Y-82963413D01*
X76041819Y-82942771D01*
X76742772Y-82241819D01*
X76804095Y-82208334D01*
X76830453Y-82205500D01*
X82699548Y-82205500D01*
X82766587Y-82225185D01*
G37*
%TD.AperFunction*%
%TA.AperFunction,Conductor*%
G36*
X132003243Y-79500669D02*
G01*
X132280207Y-79515185D01*
X132287534Y-79515789D01*
X132349967Y-79522823D01*
X132355281Y-79523544D01*
X132597152Y-79561852D01*
X132605285Y-79563422D01*
X132660790Y-79576091D01*
X132665195Y-79577183D01*
X132908143Y-79642281D01*
X132917001Y-79645014D01*
X132959625Y-79659929D01*
X132963106Y-79661205D01*
X133209363Y-79755734D01*
X133218707Y-79759769D01*
X133239372Y-79769721D01*
X133241750Y-79770899D01*
X133493968Y-79899411D01*
X133505203Y-79905898D01*
X133757608Y-80069812D01*
X133768109Y-80077441D01*
X134002010Y-80266850D01*
X134011655Y-80275535D01*
X134224464Y-80488344D01*
X134233149Y-80497989D01*
X134422558Y-80731890D01*
X134430182Y-80742384D01*
X134594110Y-80994810D01*
X134600591Y-81006036D01*
X134729079Y-81258210D01*
X134730313Y-81260700D01*
X134740221Y-81281273D01*
X134744266Y-81290640D01*
X134838800Y-81536911D01*
X134840078Y-81540393D01*
X134854983Y-81582989D01*
X134857716Y-81591850D01*
X134922806Y-81834764D01*
X134923922Y-81839266D01*
X134936569Y-81894678D01*
X134938151Y-81902872D01*
X134976442Y-82144631D01*
X134977184Y-82150109D01*
X134981398Y-82187509D01*
X134984205Y-82212421D01*
X134984814Y-82219812D01*
X134990389Y-82326177D01*
X134990559Y-82332642D01*
X134997517Y-117462766D01*
X134999493Y-127441000D01*
X134999500Y-127472661D01*
X134999500Y-129494835D01*
X134998442Y-129510998D01*
X134985013Y-129613143D01*
X134976639Y-129644416D01*
X134939193Y-129734856D01*
X134923009Y-129762896D01*
X134863425Y-129840565D01*
X134840536Y-129863458D01*
X134762884Y-129923053D01*
X134734848Y-129939243D01*
X134644408Y-129976710D01*
X134613137Y-129985090D01*
X134522397Y-129997038D01*
X134515213Y-129997984D01*
X134511757Y-129998439D01*
X134495569Y-129999500D01*
X116261230Y-129999500D01*
X116194191Y-129979815D01*
X116148436Y-129927011D01*
X116138492Y-129857853D01*
X116167517Y-129794297D01*
X116173549Y-129787819D01*
X120017048Y-125944319D01*
X120078371Y-125910834D01*
X120104729Y-125908000D01*
X122933501Y-125908000D01*
X123000540Y-125927685D01*
X123046295Y-125980489D01*
X123057501Y-126032000D01*
X123057501Y-126971723D01*
X123067904Y-127103913D01*
X123067905Y-127103920D01*
X123122902Y-127322178D01*
X123122903Y-127322181D01*
X123215991Y-127527122D01*
X123215997Y-127527132D01*
X123344174Y-127712145D01*
X123344178Y-127712150D01*
X123344181Y-127712154D01*
X123503346Y-127871319D01*
X123503350Y-127871322D01*
X123503354Y-127871325D01*
X123572940Y-127919534D01*
X123688374Y-127999507D01*
X123893317Y-128092596D01*
X123893321Y-128092597D01*
X124111579Y-128147594D01*
X124111581Y-128147594D01*
X124111588Y-128147596D01*
X124243783Y-128158000D01*
X125372216Y-128157999D01*
X125504412Y-128147596D01*
X125722683Y-128092596D01*
X125927626Y-127999507D01*
X126112654Y-127871319D01*
X126271819Y-127712154D01*
X126400007Y-127527126D01*
X126493096Y-127322183D01*
X126548096Y-127103912D01*
X126558500Y-126971717D01*
X126558499Y-124907500D01*
X126558499Y-123343291D01*
X126558498Y-123343283D01*
X126548096Y-123211088D01*
X126545419Y-123200466D01*
X126493097Y-122992821D01*
X126493096Y-122992818D01*
X126400008Y-122787877D01*
X126400007Y-122787874D01*
X126363248Y-122734815D01*
X126271825Y-122602854D01*
X126271822Y-122602850D01*
X126271819Y-122602846D01*
X126112654Y-122443681D01*
X126112652Y-122443679D01*
X126112647Y-122443675D01*
X126097853Y-122433426D01*
X126053957Y-122379066D01*
X126046419Y-122309604D01*
X126077632Y-122247094D01*
X126137685Y-122211381D01*
X126168471Y-122207499D01*
X127557999Y-122207499D01*
X127558000Y-122207498D01*
X127558000Y-120957500D01*
X128058000Y-120957500D01*
X128058000Y-122207499D01*
X129448408Y-122207499D01*
X129515447Y-122227184D01*
X129561202Y-122279988D01*
X129571146Y-122349146D01*
X129542121Y-122412702D01*
X129519023Y-122433428D01*
X129503674Y-122444061D01*
X129503664Y-122444069D01*
X129344569Y-122603164D01*
X129344559Y-122603176D01*
X129216431Y-122788119D01*
X129216428Y-122788125D01*
X129123377Y-122992980D01*
X129068400Y-123211167D01*
X129058000Y-123343303D01*
X129058000Y-124907500D01*
X130308000Y-124907500D01*
X130308000Y-125407500D01*
X129058001Y-125407500D01*
X129058001Y-126971697D01*
X129068400Y-127103832D01*
X129123377Y-127322019D01*
X129216428Y-127526874D01*
X129216431Y-127526880D01*
X129344559Y-127711823D01*
X129344569Y-127711835D01*
X129503664Y-127870930D01*
X129503676Y-127870940D01*
X129688619Y-127999068D01*
X129688625Y-127999071D01*
X129893480Y-128092122D01*
X130111667Y-128147099D01*
X130243810Y-128157499D01*
X130557999Y-128157499D01*
X130558000Y-128157498D01*
X130558000Y-126590512D01*
X130615007Y-126623425D01*
X130742174Y-126657500D01*
X130873826Y-126657500D01*
X131000993Y-126623425D01*
X131058000Y-126590512D01*
X131058000Y-128157499D01*
X131372182Y-128157499D01*
X131372197Y-128157498D01*
X131504332Y-128147099D01*
X131722519Y-128092122D01*
X131927374Y-127999071D01*
X131927380Y-127999068D01*
X132112323Y-127870940D01*
X132112335Y-127870930D01*
X132271430Y-127711835D01*
X132271440Y-127711823D01*
X132399568Y-127526880D01*
X132399571Y-127526874D01*
X132492622Y-127322019D01*
X132547599Y-127103832D01*
X132557999Y-126971696D01*
X132558000Y-126971684D01*
X132558000Y-125407500D01*
X131308000Y-125407500D01*
X131308000Y-124907500D01*
X132557999Y-124907500D01*
X132557999Y-123343317D01*
X132557998Y-123343302D01*
X132547599Y-123211167D01*
X132492622Y-122992980D01*
X132399571Y-122788125D01*
X132399568Y-122788119D01*
X132271440Y-122603176D01*
X132271430Y-122603164D01*
X132112335Y-122444069D01*
X132112323Y-122444059D01*
X131927380Y-122315931D01*
X131927374Y-122315928D01*
X131722519Y-122222877D01*
X131504332Y-122167900D01*
X131372196Y-122157500D01*
X131058000Y-122157500D01*
X131058000Y-123724488D01*
X131000993Y-123691575D01*
X130873826Y-123657500D01*
X130742174Y-123657500D01*
X130615007Y-123691575D01*
X130558000Y-123724488D01*
X130558000Y-122157500D01*
X130417593Y-122157500D01*
X130350554Y-122137815D01*
X130304799Y-122085011D01*
X130294855Y-122015853D01*
X130323880Y-121952297D01*
X130346979Y-121931570D01*
X130362328Y-121920936D01*
X130362335Y-121920930D01*
X130521430Y-121761835D01*
X130521440Y-121761823D01*
X130649568Y-121576880D01*
X130649571Y-121576874D01*
X130742622Y-121372019D01*
X130797599Y-121153832D01*
X130807999Y-121021696D01*
X130808000Y-121021684D01*
X130808000Y-120707500D01*
X129241012Y-120707500D01*
X129273925Y-120650493D01*
X129308000Y-120523326D01*
X129308000Y-120391674D01*
X129273925Y-120264507D01*
X129241012Y-120207500D01*
X130807999Y-120207500D01*
X130807999Y-119893317D01*
X130807998Y-119893302D01*
X130797599Y-119761167D01*
X130742622Y-119542980D01*
X130649571Y-119338125D01*
X130649568Y-119338119D01*
X130521440Y-119153176D01*
X130521430Y-119153164D01*
X130362335Y-118994069D01*
X130362323Y-118994059D01*
X130177380Y-118865931D01*
X130177374Y-118865928D01*
X129972519Y-118772877D01*
X129754332Y-118717900D01*
X129622196Y-118707500D01*
X128058000Y-118707500D01*
X128058000Y-119957500D01*
X127558000Y-119957500D01*
X127558000Y-118707500D01*
X125993817Y-118707500D01*
X125993802Y-118707501D01*
X125861667Y-118717900D01*
X125643480Y-118772877D01*
X125438625Y-118865928D01*
X125438619Y-118865931D01*
X125253676Y-118994059D01*
X125253664Y-118994069D01*
X125094569Y-119153164D01*
X125094559Y-119153176D01*
X124966431Y-119338119D01*
X124966428Y-119338125D01*
X124873377Y-119542980D01*
X124818400Y-119761167D01*
X124808000Y-119893303D01*
X124808000Y-120207500D01*
X126374988Y-120207500D01*
X126342075Y-120264507D01*
X126308000Y-120391674D01*
X126308000Y-120523326D01*
X126342075Y-120650493D01*
X126374988Y-120707500D01*
X124808001Y-120707500D01*
X124808001Y-121021697D01*
X124818400Y-121153832D01*
X124873377Y-121372019D01*
X124966428Y-121576874D01*
X124966431Y-121576880D01*
X125094559Y-121761823D01*
X125094569Y-121761835D01*
X125253664Y-121920930D01*
X125253672Y-121920937D01*
X125268301Y-121931072D01*
X125312197Y-121985432D01*
X125319736Y-122054893D01*
X125288524Y-122117404D01*
X125228471Y-122153117D01*
X125197684Y-122157000D01*
X124243791Y-122157000D01*
X124243776Y-122157001D01*
X124111586Y-122167404D01*
X124111579Y-122167405D01*
X123893321Y-122222402D01*
X123893318Y-122222403D01*
X123688377Y-122315491D01*
X123688367Y-122315497D01*
X123503354Y-122443674D01*
X123503342Y-122443684D01*
X123344184Y-122602842D01*
X123344174Y-122602854D01*
X123215997Y-122787867D01*
X123215991Y-122787877D01*
X123122903Y-122992818D01*
X123122902Y-122992821D01*
X123067905Y-123211079D01*
X123067904Y-123211086D01*
X123057500Y-123343277D01*
X123057500Y-124283000D01*
X123037815Y-124350039D01*
X122985011Y-124395794D01*
X122933500Y-124407000D01*
X119668580Y-124407000D01*
X119523592Y-124435840D01*
X119523582Y-124435843D01*
X119387011Y-124492412D01*
X119386998Y-124492419D01*
X119264084Y-124574548D01*
X119264080Y-124574551D01*
X115355451Y-128483181D01*
X115294128Y-128516666D01*
X115267770Y-128519500D01*
X114788442Y-128519500D01*
X114721403Y-128499815D01*
X114675648Y-128447011D01*
X114665704Y-128377853D01*
X114670736Y-128356495D01*
X114679711Y-128329407D01*
X114689999Y-128228713D01*
X114690000Y-128228700D01*
X114690000Y-127565000D01*
X113823012Y-127565000D01*
X113855925Y-127507993D01*
X113890000Y-127380826D01*
X113890000Y-127249174D01*
X113855925Y-127122007D01*
X113823012Y-127065000D01*
X114690000Y-127065000D01*
X114690000Y-126401299D01*
X114689999Y-126401286D01*
X114679711Y-126300590D01*
X114625646Y-126137432D01*
X114625641Y-126137421D01*
X114535411Y-125991137D01*
X114535408Y-125991133D01*
X114413866Y-125869591D01*
X114413862Y-125869588D01*
X114267578Y-125779358D01*
X114267567Y-125779353D01*
X114104409Y-125725288D01*
X114003713Y-125715000D01*
X113640000Y-125715000D01*
X113640000Y-126881988D01*
X113582993Y-126849075D01*
X113455826Y-126815000D01*
X113324174Y-126815000D01*
X113197007Y-126849075D01*
X113140000Y-126881988D01*
X113140000Y-125715000D01*
X112776286Y-125715000D01*
X112675590Y-125725288D01*
X112512432Y-125779353D01*
X112512421Y-125779358D01*
X112366137Y-125869588D01*
X112366133Y-125869591D01*
X112244591Y-125991133D01*
X112244588Y-125991137D01*
X112154358Y-126137421D01*
X112154354Y-126137430D01*
X112138129Y-126186394D01*
X112098355Y-126243839D01*
X112033839Y-126270661D01*
X111965063Y-126258345D01*
X111920105Y-126220274D01*
X111881971Y-126167786D01*
X111737217Y-126023032D01*
X111737212Y-126023028D01*
X111691615Y-125989900D01*
X111648949Y-125934571D01*
X111640500Y-125889582D01*
X111640500Y-121120416D01*
X111660185Y-121053377D01*
X111691613Y-121020099D01*
X111737219Y-120986966D01*
X111881966Y-120842219D01*
X111920104Y-120789725D01*
X111975433Y-120747059D01*
X112045047Y-120741079D01*
X112106842Y-120773684D01*
X112138129Y-120823605D01*
X112154354Y-120872569D01*
X112154358Y-120872578D01*
X112244588Y-121018862D01*
X112244591Y-121018866D01*
X112366133Y-121140408D01*
X112366137Y-121140411D01*
X112512421Y-121230641D01*
X112512432Y-121230646D01*
X112675590Y-121284711D01*
X112776286Y-121294999D01*
X112776299Y-121295000D01*
X113140000Y-121295000D01*
X113140000Y-120128012D01*
X113197007Y-120160925D01*
X113324174Y-120195000D01*
X113455826Y-120195000D01*
X113582993Y-120160925D01*
X113640000Y-120128012D01*
X113640000Y-121295000D01*
X114003701Y-121295000D01*
X114003713Y-121294999D01*
X114104409Y-121284711D01*
X114267567Y-121230646D01*
X114267578Y-121230641D01*
X114413862Y-121140411D01*
X114413866Y-121140408D01*
X114535408Y-121018866D01*
X114535411Y-121018862D01*
X114625641Y-120872578D01*
X114625646Y-120872567D01*
X114679711Y-120709409D01*
X114689999Y-120608713D01*
X114690000Y-120608700D01*
X114690000Y-119945000D01*
X113823012Y-119945000D01*
X113855925Y-119887993D01*
X113890000Y-119760826D01*
X113890000Y-119629174D01*
X113855925Y-119502007D01*
X113823012Y-119445000D01*
X114690000Y-119445000D01*
X114690000Y-118781299D01*
X114689999Y-118781286D01*
X114679711Y-118680590D01*
X114625646Y-118517432D01*
X114625641Y-118517421D01*
X114535411Y-118371137D01*
X114535408Y-118371133D01*
X114413866Y-118249591D01*
X114413862Y-118249588D01*
X114267578Y-118159358D01*
X114267567Y-118159353D01*
X114104409Y-118105288D01*
X114003713Y-118095000D01*
X113640000Y-118095000D01*
X113640000Y-119261988D01*
X113582993Y-119229075D01*
X113455826Y-119195000D01*
X113324174Y-119195000D01*
X113197007Y-119229075D01*
X113140000Y-119261988D01*
X113140000Y-118095000D01*
X112776286Y-118095000D01*
X112675590Y-118105288D01*
X112512432Y-118159353D01*
X112512421Y-118159358D01*
X112366137Y-118249588D01*
X112366133Y-118249591D01*
X112244591Y-118371133D01*
X112244588Y-118371137D01*
X112154358Y-118517421D01*
X112154354Y-118517430D01*
X112138129Y-118566394D01*
X112098355Y-118623839D01*
X112033839Y-118650661D01*
X111965063Y-118638345D01*
X111920105Y-118600274D01*
X111881971Y-118547786D01*
X111737217Y-118403032D01*
X111737212Y-118403028D01*
X111685968Y-118365797D01*
X111643302Y-118310467D01*
X111637236Y-118289671D01*
X111611659Y-118161092D01*
X111611658Y-118161091D01*
X111611658Y-118161087D01*
X111605321Y-118145787D01*
X111555087Y-118024511D01*
X111555080Y-118024498D01*
X111472952Y-117901585D01*
X111472951Y-117901584D01*
X111368416Y-117797049D01*
X110388421Y-116817052D01*
X110388414Y-116817046D01*
X110314729Y-116767812D01*
X110314729Y-116767813D01*
X110265491Y-116734913D01*
X110128917Y-116678343D01*
X110128907Y-116678340D01*
X109983920Y-116649500D01*
X109983918Y-116649500D01*
X108672754Y-116649500D01*
X108605715Y-116629815D01*
X108559960Y-116577011D01*
X108550016Y-116507853D01*
X108567215Y-116460403D01*
X108654356Y-116319124D01*
X108654358Y-116319119D01*
X108709505Y-116152697D01*
X108709506Y-116152690D01*
X108719999Y-116049986D01*
X108720000Y-116049973D01*
X108720000Y-115650000D01*
X107803012Y-115650000D01*
X107835925Y-115592993D01*
X107870000Y-115465826D01*
X107870000Y-115334174D01*
X107835925Y-115207007D01*
X107803012Y-115150000D01*
X108719999Y-115150000D01*
X108719999Y-114750024D01*
X108719998Y-114750016D01*
X108719995Y-114749983D01*
X111119500Y-114749983D01*
X111119500Y-116050001D01*
X111119501Y-116050018D01*
X111130000Y-116152796D01*
X111130001Y-116152799D01*
X111181801Y-116309119D01*
X111185186Y-116319334D01*
X111277288Y-116468656D01*
X111401344Y-116592712D01*
X111550666Y-116684814D01*
X111717203Y-116739999D01*
X111819991Y-116750500D01*
X113120008Y-116750499D01*
X113222797Y-116739999D01*
X113389334Y-116684814D01*
X113538656Y-116592712D01*
X113662712Y-116468656D01*
X113664458Y-116465825D01*
X113666163Y-116464291D01*
X113667193Y-116462989D01*
X113667415Y-116463164D01*
X113716401Y-116419099D01*
X113785363Y-116407873D01*
X113849447Y-116435712D01*
X113875536Y-116465818D01*
X113877284Y-116468653D01*
X113877287Y-116468656D01*
X114001343Y-116592712D01*
X114150665Y-116684814D01*
X114317202Y-116739999D01*
X114419990Y-116750500D01*
X115720007Y-116750499D01*
X115822796Y-116739999D01*
X115989333Y-116684814D01*
X116138655Y-116592712D01*
X116232318Y-116499049D01*
X116293641Y-116465564D01*
X116363333Y-116470548D01*
X116407680Y-116499049D01*
X116501343Y-116592712D01*
X116650665Y-116684814D01*
X116817202Y-116739999D01*
X116919990Y-116750500D01*
X118220007Y-116750499D01*
X118322796Y-116739999D01*
X118489333Y-116684814D01*
X118638655Y-116592712D01*
X118757672Y-116473695D01*
X118818995Y-116440210D01*
X118888687Y-116445194D01*
X118933034Y-116473695D01*
X119061654Y-116602315D01*
X119210875Y-116694356D01*
X119210880Y-116694358D01*
X119377302Y-116749505D01*
X119377309Y-116749506D01*
X119480019Y-116759999D01*
X119879999Y-116759999D01*
X119880000Y-116759998D01*
X119880000Y-115843012D01*
X119937007Y-115875925D01*
X120064174Y-115910000D01*
X120195826Y-115910000D01*
X120322993Y-115875925D01*
X120380000Y-115843012D01*
X120380000Y-116759999D01*
X120779972Y-116759999D01*
X120779986Y-116759998D01*
X120882697Y-116749505D01*
X121049119Y-116694358D01*
X121049124Y-116694356D01*
X121198342Y-116602317D01*
X121316964Y-116483695D01*
X121378287Y-116450210D01*
X121447979Y-116455194D01*
X121492327Y-116483695D01*
X121601344Y-116592712D01*
X121750666Y-116684814D01*
X121917203Y-116739999D01*
X122019991Y-116750500D01*
X123320008Y-116750499D01*
X123422797Y-116739999D01*
X123589334Y-116684814D01*
X123738656Y-116592712D01*
X123862712Y-116468656D01*
X123864458Y-116465825D01*
X123866163Y-116464290D01*
X123867193Y-116462989D01*
X123867415Y-116463164D01*
X123916400Y-116419098D01*
X123985362Y-116407870D01*
X124049446Y-116435708D01*
X124075537Y-116465816D01*
X124077289Y-116468656D01*
X124201345Y-116592712D01*
X124350667Y-116684814D01*
X124517204Y-116739999D01*
X124619992Y-116750500D01*
X125920009Y-116750499D01*
X126022798Y-116739999D01*
X126189335Y-116684814D01*
X126338657Y-116592712D01*
X126462713Y-116468656D01*
X126554815Y-116319334D01*
X126610000Y-116152797D01*
X126620501Y-116050009D01*
X126620500Y-115979384D01*
X126640184Y-115912348D01*
X126692987Y-115866592D01*
X126762145Y-115856648D01*
X126825701Y-115885672D01*
X126856219Y-115925583D01*
X126869749Y-115953679D01*
X126869750Y-115953680D01*
X126869754Y-115953686D01*
X127049054Y-116239039D01*
X127080811Y-116278861D01*
X127256404Y-116499049D01*
X127259175Y-116502523D01*
X127497477Y-116740825D01*
X127760961Y-116950946D01*
X128046314Y-117130246D01*
X128349949Y-117276469D01*
X128588848Y-117360063D01*
X128668034Y-117387772D01*
X128668046Y-117387776D01*
X128996606Y-117462767D01*
X129331492Y-117500499D01*
X129331493Y-117500500D01*
X129331496Y-117500500D01*
X129668507Y-117500500D01*
X129668507Y-117500499D01*
X130003394Y-117462767D01*
X130331954Y-117387776D01*
X130650051Y-117276469D01*
X130953686Y-117130246D01*
X131239039Y-116950946D01*
X131502523Y-116740825D01*
X131740825Y-116502523D01*
X131950946Y-116239039D01*
X132130246Y-115953686D01*
X132276469Y-115650051D01*
X132387776Y-115331954D01*
X132462767Y-115003394D01*
X132500500Y-114668504D01*
X132500500Y-114331496D01*
X132462767Y-113996606D01*
X132387776Y-113668046D01*
X132276469Y-113349949D01*
X132130246Y-113046314D01*
X131950946Y-112760961D01*
X131740825Y-112497477D01*
X131502523Y-112259175D01*
X131239039Y-112049054D01*
X130953686Y-111869754D01*
X130953683Y-111869752D01*
X130650054Y-111723532D01*
X130331965Y-111612227D01*
X130331953Y-111612223D01*
X130003397Y-111537233D01*
X130003381Y-111537231D01*
X129668508Y-111499500D01*
X129668504Y-111499500D01*
X129331496Y-111499500D01*
X129331491Y-111499500D01*
X128996618Y-111537231D01*
X128996602Y-111537233D01*
X128668046Y-111612223D01*
X128668034Y-111612227D01*
X128349945Y-111723532D01*
X128046316Y-111869752D01*
X127760962Y-112049053D01*
X127497477Y-112259174D01*
X127259174Y-112497477D01*
X127049053Y-112760962D01*
X126869752Y-113046316D01*
X126723532Y-113349945D01*
X126612227Y-113668034D01*
X126612223Y-113668046D01*
X126537233Y-113996602D01*
X126537231Y-113996618D01*
X126524026Y-114113815D01*
X126496959Y-114178229D01*
X126439364Y-114217784D01*
X126369527Y-114219921D01*
X126335710Y-114205470D01*
X126189341Y-114115189D01*
X126189336Y-114115187D01*
X126189335Y-114115186D01*
X126022798Y-114060001D01*
X126022796Y-114060000D01*
X125920011Y-114049500D01*
X124619999Y-114049500D01*
X124619982Y-114049501D01*
X124517204Y-114060000D01*
X124517201Y-114060001D01*
X124350669Y-114115185D01*
X124350664Y-114115187D01*
X124201343Y-114207289D01*
X124077289Y-114331343D01*
X124077284Y-114331349D01*
X124075535Y-114334186D01*
X124073827Y-114335721D01*
X124072808Y-114337011D01*
X124072587Y-114336836D01*
X124023585Y-114380908D01*
X123954622Y-114392127D01*
X123890541Y-114364280D01*
X123864462Y-114334182D01*
X123862712Y-114331344D01*
X123738656Y-114207288D01*
X123606288Y-114125643D01*
X123589336Y-114115187D01*
X123589331Y-114115185D01*
X123560529Y-114105641D01*
X123422797Y-114060001D01*
X123422795Y-114060000D01*
X123320010Y-114049500D01*
X122019998Y-114049500D01*
X122019981Y-114049501D01*
X121917203Y-114060000D01*
X121917200Y-114060001D01*
X121750668Y-114115185D01*
X121750663Y-114115187D01*
X121601345Y-114207287D01*
X121482327Y-114326305D01*
X121421004Y-114359789D01*
X121351312Y-114354805D01*
X121306965Y-114326304D01*
X121198345Y-114217684D01*
X121049124Y-114125643D01*
X121049119Y-114125641D01*
X120882697Y-114070494D01*
X120882690Y-114070493D01*
X120779986Y-114060000D01*
X120380000Y-114060000D01*
X120380000Y-114976988D01*
X120322993Y-114944075D01*
X120195826Y-114910000D01*
X120064174Y-114910000D01*
X119937007Y-114944075D01*
X119880000Y-114976988D01*
X119880000Y-114060000D01*
X119480028Y-114060000D01*
X119480012Y-114060001D01*
X119377302Y-114070494D01*
X119210880Y-114125641D01*
X119210875Y-114125643D01*
X119061654Y-114217684D01*
X118943034Y-114336305D01*
X118881711Y-114369790D01*
X118812019Y-114364806D01*
X118767672Y-114336305D01*
X118638656Y-114207289D01*
X118638655Y-114207288D01*
X118506287Y-114125643D01*
X118489335Y-114115187D01*
X118489330Y-114115185D01*
X118460528Y-114105641D01*
X118322796Y-114060001D01*
X118322794Y-114060000D01*
X118220009Y-114049500D01*
X116919997Y-114049500D01*
X116919980Y-114049501D01*
X116817202Y-114060000D01*
X116817199Y-114060001D01*
X116650667Y-114115185D01*
X116650662Y-114115187D01*
X116501341Y-114207289D01*
X116407680Y-114300951D01*
X116346357Y-114334436D01*
X116276665Y-114329452D01*
X116232318Y-114300951D01*
X116138656Y-114207289D01*
X116138655Y-114207288D01*
X116006287Y-114125643D01*
X115989335Y-114115187D01*
X115989330Y-114115185D01*
X115960528Y-114105641D01*
X115822796Y-114060001D01*
X115822794Y-114060000D01*
X115720009Y-114049500D01*
X114419997Y-114049500D01*
X114419980Y-114049501D01*
X114317202Y-114060000D01*
X114317199Y-114060001D01*
X114150667Y-114115185D01*
X114150662Y-114115187D01*
X114001341Y-114207289D01*
X113877287Y-114331343D01*
X113877283Y-114331348D01*
X113875533Y-114334186D01*
X113873825Y-114335721D01*
X113872806Y-114337011D01*
X113872585Y-114336836D01*
X113823582Y-114380907D01*
X113754619Y-114392124D01*
X113690539Y-114364277D01*
X113664460Y-114334178D01*
X113662712Y-114331344D01*
X113538657Y-114207289D01*
X113538656Y-114207288D01*
X113406288Y-114125643D01*
X113389336Y-114115187D01*
X113389331Y-114115185D01*
X113360529Y-114105641D01*
X113222797Y-114060001D01*
X113222795Y-114060000D01*
X113120010Y-114049500D01*
X111819998Y-114049500D01*
X111819981Y-114049501D01*
X111717203Y-114060000D01*
X111717200Y-114060001D01*
X111550668Y-114115185D01*
X111550663Y-114115187D01*
X111401342Y-114207289D01*
X111277289Y-114331342D01*
X111185187Y-114480663D01*
X111185185Y-114480668D01*
X111185115Y-114480880D01*
X111130001Y-114647203D01*
X111130001Y-114647204D01*
X111130000Y-114647204D01*
X111119500Y-114749983D01*
X108719995Y-114749983D01*
X108709505Y-114647302D01*
X108654358Y-114480880D01*
X108654356Y-114480875D01*
X108562315Y-114331654D01*
X108438345Y-114207684D01*
X108289124Y-114115643D01*
X108289119Y-114115641D01*
X108122697Y-114060494D01*
X108122690Y-114060493D01*
X108019986Y-114050000D01*
X107620000Y-114050000D01*
X107620000Y-114966988D01*
X107562993Y-114934075D01*
X107435826Y-114900000D01*
X107304174Y-114900000D01*
X107177007Y-114934075D01*
X107120000Y-114966988D01*
X107120000Y-114050000D01*
X106720028Y-114050000D01*
X106720012Y-114050001D01*
X106617302Y-114060494D01*
X106450880Y-114115641D01*
X106450875Y-114115643D01*
X106301654Y-114207684D01*
X106177684Y-114331654D01*
X106085643Y-114480875D01*
X106085641Y-114480880D01*
X106030494Y-114647302D01*
X106030493Y-114647309D01*
X106020000Y-114750013D01*
X106020000Y-115150000D01*
X106936988Y-115150000D01*
X106904075Y-115207007D01*
X106870000Y-115334174D01*
X106870000Y-115465826D01*
X106904075Y-115592993D01*
X106936988Y-115650000D01*
X106020001Y-115650000D01*
X106020001Y-116049986D01*
X106030494Y-116152697D01*
X106072301Y-116278861D01*
X106074703Y-116348689D01*
X106038971Y-116408731D01*
X105976451Y-116439924D01*
X105906991Y-116432363D01*
X105866914Y-116405546D01*
X105281819Y-115820451D01*
X105248334Y-115759128D01*
X105245500Y-115732770D01*
X105245500Y-107581079D01*
X105216659Y-107436092D01*
X105216658Y-107436091D01*
X105216658Y-107436087D01*
X105216656Y-107436082D01*
X105160087Y-107299511D01*
X105160080Y-107299498D01*
X105077952Y-107176585D01*
X105035461Y-107134094D01*
X104973416Y-107072049D01*
X103722985Y-105821618D01*
X102435883Y-104534515D01*
X99188421Y-101287052D01*
X99188414Y-101287046D01*
X99090397Y-101221554D01*
X99090396Y-101221554D01*
X99065495Y-101204916D01*
X99065488Y-101204912D01*
X98928917Y-101148343D01*
X98928907Y-101148340D01*
X98783920Y-101119500D01*
X98783918Y-101119500D01*
X93082230Y-101119500D01*
X93015191Y-101099815D01*
X92994549Y-101083181D01*
X84278421Y-92367052D01*
X84278414Y-92367046D01*
X84204729Y-92317812D01*
X84204729Y-92317813D01*
X84155491Y-92284913D01*
X84018917Y-92228343D01*
X84018907Y-92228340D01*
X83873920Y-92199500D01*
X83873918Y-92199500D01*
X78932229Y-92199500D01*
X78865190Y-92179815D01*
X78844548Y-92163181D01*
X77790008Y-91108640D01*
X77756523Y-91047317D01*
X77761507Y-90977625D01*
X77803379Y-90921692D01*
X77838676Y-90903257D01*
X77894335Y-90884814D01*
X78043657Y-90792712D01*
X78134822Y-90701546D01*
X78196141Y-90668064D01*
X78265833Y-90673048D01*
X78310181Y-90701549D01*
X78401344Y-90792712D01*
X78550666Y-90884814D01*
X78717203Y-90939999D01*
X78819991Y-90950500D01*
X80120008Y-90950499D01*
X80222797Y-90939999D01*
X80389334Y-90884814D01*
X80538656Y-90792712D01*
X80657675Y-90673692D01*
X80718994Y-90640210D01*
X80788686Y-90645194D01*
X80833034Y-90673695D01*
X80951654Y-90792315D01*
X81100875Y-90884356D01*
X81100880Y-90884358D01*
X81267302Y-90939505D01*
X81267309Y-90939506D01*
X81370019Y-90949999D01*
X81769999Y-90949999D01*
X81770000Y-90949998D01*
X81770000Y-90033012D01*
X81827007Y-90065925D01*
X81954174Y-90100000D01*
X82085826Y-90100000D01*
X82212993Y-90065925D01*
X82270000Y-90033012D01*
X82270000Y-90949999D01*
X82669972Y-90949999D01*
X82669986Y-90949998D01*
X82772697Y-90939505D01*
X82939119Y-90884358D01*
X82939124Y-90884356D01*
X83088342Y-90792317D01*
X83199464Y-90681195D01*
X83260787Y-90647710D01*
X83330479Y-90652694D01*
X83374827Y-90681195D01*
X83486344Y-90792712D01*
X83635666Y-90884814D01*
X83802203Y-90939999D01*
X83904991Y-90950500D01*
X85205008Y-90950499D01*
X85307797Y-90939999D01*
X85474334Y-90884814D01*
X85623656Y-90792712D01*
X85724822Y-90691545D01*
X85786141Y-90658063D01*
X85855833Y-90663047D01*
X85900181Y-90691548D01*
X86001345Y-90792712D01*
X86150667Y-90884814D01*
X86317204Y-90939999D01*
X86419992Y-90950500D01*
X87720009Y-90950499D01*
X87822798Y-90939999D01*
X87989335Y-90884814D01*
X88138657Y-90792712D01*
X88224822Y-90706546D01*
X88286141Y-90673064D01*
X88355833Y-90678048D01*
X88400181Y-90706549D01*
X88486344Y-90792712D01*
X88635666Y-90884814D01*
X88802203Y-90939999D01*
X88904991Y-90950500D01*
X90205008Y-90950499D01*
X90307797Y-90939999D01*
X90474334Y-90884814D01*
X90623656Y-90792712D01*
X90717319Y-90699049D01*
X90778642Y-90665564D01*
X90848334Y-90670548D01*
X90892681Y-90699049D01*
X90986344Y-90792712D01*
X91135666Y-90884814D01*
X91302203Y-90939999D01*
X91404991Y-90950500D01*
X92705008Y-90950499D01*
X92807797Y-90939999D01*
X92974334Y-90884814D01*
X93123656Y-90792712D01*
X93247712Y-90668656D01*
X93249752Y-90665347D01*
X93251745Y-90663555D01*
X93252193Y-90662989D01*
X93252289Y-90663065D01*
X93301694Y-90618623D01*
X93370656Y-90607395D01*
X93434740Y-90635234D01*
X93460832Y-90665344D01*
X93462682Y-90668344D01*
X93586654Y-90792316D01*
X93735875Y-90884357D01*
X93735880Y-90884359D01*
X93902302Y-90939506D01*
X93902309Y-90939507D01*
X94005019Y-90950000D01*
X94404999Y-90950000D01*
X94405000Y-90949999D01*
X94405000Y-90033013D01*
X94462007Y-90065926D01*
X94589174Y-90100001D01*
X94720826Y-90100001D01*
X94847993Y-90065926D01*
X94905000Y-90033013D01*
X94905000Y-90950000D01*
X95304972Y-90950000D01*
X95304986Y-90949999D01*
X95407697Y-90939506D01*
X95574119Y-90884359D01*
X95574124Y-90884357D01*
X95723345Y-90792316D01*
X95847314Y-90668347D01*
X95849161Y-90665353D01*
X95850968Y-90663726D01*
X95851798Y-90662678D01*
X95851977Y-90662819D01*
X95901105Y-90618623D01*
X95970067Y-90607395D01*
X96034151Y-90635233D01*
X96060243Y-90665341D01*
X96062288Y-90668656D01*
X96186344Y-90792712D01*
X96335666Y-90884814D01*
X96502203Y-90939999D01*
X96604991Y-90950500D01*
X97905008Y-90950499D01*
X98007797Y-90939999D01*
X98174334Y-90884814D01*
X98323656Y-90792712D01*
X98417319Y-90699049D01*
X98478642Y-90665564D01*
X98548334Y-90670548D01*
X98592681Y-90699049D01*
X98686344Y-90792712D01*
X98835666Y-90884814D01*
X99002203Y-90939999D01*
X99104991Y-90950500D01*
X100405008Y-90950499D01*
X100507797Y-90939999D01*
X100674334Y-90884814D01*
X100823656Y-90792712D01*
X100947712Y-90668656D01*
X100956961Y-90653661D01*
X101008909Y-90606936D01*
X101077871Y-90595713D01*
X101141954Y-90623557D01*
X101168039Y-90653661D01*
X101177095Y-90668344D01*
X101177288Y-90668656D01*
X101301344Y-90792712D01*
X101450666Y-90884814D01*
X101617203Y-90939999D01*
X101719991Y-90950500D01*
X102850500Y-90950499D01*
X102917539Y-90970184D01*
X102963294Y-91022987D01*
X102974500Y-91074499D01*
X102974500Y-98351606D01*
X102995613Y-98457754D01*
X102995614Y-98457757D01*
X102995613Y-98457757D01*
X102998535Y-98472447D01*
X102998537Y-98472453D01*
X103045685Y-98586280D01*
X103045687Y-98586283D01*
X103045688Y-98586286D01*
X103079915Y-98637509D01*
X103114142Y-98688733D01*
X103201267Y-98775858D01*
X103201270Y-98775860D01*
X103208554Y-98783144D01*
X105531016Y-101105606D01*
X105531045Y-101105637D01*
X105621264Y-101195856D01*
X105621267Y-101195858D01*
X105698190Y-101247256D01*
X105723715Y-101264312D01*
X105773212Y-101284814D01*
X105837548Y-101311463D01*
X105897971Y-101323481D01*
X105958393Y-101335500D01*
X114691607Y-101335500D01*
X114752029Y-101323481D01*
X114812452Y-101311463D01*
X114845792Y-101297652D01*
X114926286Y-101264312D01*
X114977509Y-101230084D01*
X115028733Y-101195858D01*
X115115858Y-101108733D01*
X115115859Y-101108731D01*
X115122925Y-101101665D01*
X115122928Y-101101661D01*
X116738729Y-99485860D01*
X116738733Y-99485858D01*
X116825858Y-99398733D01*
X116858432Y-99349983D01*
X128119500Y-99349983D01*
X128119500Y-100650001D01*
X128119501Y-100650018D01*
X128130000Y-100752796D01*
X128130001Y-100752799D01*
X128185185Y-100919331D01*
X128185187Y-100919336D01*
X128277289Y-101068657D01*
X128401304Y-101192672D01*
X128434789Y-101253995D01*
X128429805Y-101323687D01*
X128401305Y-101368034D01*
X128277682Y-101491657D01*
X128185643Y-101640875D01*
X128185641Y-101640880D01*
X128130494Y-101807302D01*
X128130493Y-101807309D01*
X128120000Y-101910013D01*
X128120000Y-102310000D01*
X129036988Y-102310000D01*
X129004075Y-102367007D01*
X128970000Y-102494174D01*
X128970000Y-102625826D01*
X129004075Y-102752993D01*
X129036988Y-102810000D01*
X128120001Y-102810000D01*
X128120001Y-103209986D01*
X128130494Y-103312697D01*
X128185641Y-103479119D01*
X128185643Y-103479124D01*
X128277684Y-103628345D01*
X128391304Y-103741965D01*
X128424789Y-103803288D01*
X128419805Y-103872980D01*
X128391305Y-103917327D01*
X128277287Y-104031345D01*
X128185187Y-104180663D01*
X128185185Y-104180668D01*
X128157349Y-104264670D01*
X128130001Y-104347203D01*
X128130001Y-104347204D01*
X128130000Y-104347204D01*
X128119500Y-104449983D01*
X128119500Y-105750001D01*
X128119501Y-105750018D01*
X128130000Y-105852796D01*
X128130001Y-105852799D01*
X128156518Y-105932820D01*
X128185186Y-106019334D01*
X128277288Y-106168656D01*
X128401344Y-106292712D01*
X128550666Y-106384814D01*
X128717203Y-106439999D01*
X128819991Y-106450500D01*
X130120008Y-106450499D01*
X130222797Y-106439999D01*
X130389334Y-106384814D01*
X130538656Y-106292712D01*
X130662712Y-106168656D01*
X130754814Y-106019334D01*
X130809999Y-105852797D01*
X130820500Y-105750009D01*
X130820499Y-104449992D01*
X130809999Y-104347203D01*
X130754814Y-104180666D01*
X130662712Y-104031344D01*
X130548695Y-103917327D01*
X130515210Y-103856004D01*
X130520194Y-103786312D01*
X130548695Y-103741964D01*
X130662317Y-103628342D01*
X130754356Y-103479124D01*
X130754358Y-103479119D01*
X130809505Y-103312697D01*
X130809506Y-103312690D01*
X130819999Y-103209986D01*
X130820000Y-103209973D01*
X130820000Y-102810000D01*
X129903012Y-102810000D01*
X129935925Y-102752993D01*
X129970000Y-102625826D01*
X129970000Y-102494174D01*
X129935925Y-102367007D01*
X129903012Y-102310000D01*
X130819999Y-102310000D01*
X130819999Y-101910028D01*
X130819998Y-101910013D01*
X130809505Y-101807302D01*
X130754358Y-101640880D01*
X130754356Y-101640875D01*
X130662315Y-101491654D01*
X130538695Y-101368034D01*
X130505210Y-101306711D01*
X130510194Y-101237019D01*
X130538691Y-101192676D01*
X130662712Y-101068656D01*
X130754814Y-100919334D01*
X130809999Y-100752797D01*
X130820500Y-100650009D01*
X130820499Y-99349992D01*
X130815013Y-99296292D01*
X130809999Y-99247203D01*
X130809998Y-99247200D01*
X130804850Y-99231665D01*
X130754814Y-99080666D01*
X130662712Y-98931344D01*
X130538656Y-98807288D01*
X130437492Y-98744890D01*
X130389336Y-98715187D01*
X130389331Y-98715185D01*
X130387862Y-98714698D01*
X130222797Y-98660001D01*
X130222795Y-98660000D01*
X130120010Y-98649500D01*
X128819998Y-98649500D01*
X128819981Y-98649501D01*
X128717203Y-98660000D01*
X128717200Y-98660001D01*
X128550668Y-98715185D01*
X128550663Y-98715187D01*
X128401342Y-98807289D01*
X128277289Y-98931342D01*
X128185187Y-99080663D01*
X128185186Y-99080666D01*
X128130001Y-99247203D01*
X128130001Y-99247204D01*
X128130000Y-99247204D01*
X128119500Y-99349983D01*
X116858432Y-99349983D01*
X116894311Y-99296286D01*
X116941463Y-99182452D01*
X116965500Y-99061606D01*
X116965500Y-97699361D01*
X116985185Y-97632322D01*
X117001820Y-97611679D01*
X117039461Y-97574038D01*
X117039464Y-97574035D01*
X117138013Y-97426547D01*
X117205894Y-97262666D01*
X117207884Y-97252666D01*
X117240499Y-97088695D01*
X117240500Y-97088693D01*
X117240500Y-96911306D01*
X117240499Y-96911304D01*
X117205896Y-96737341D01*
X117205893Y-96737332D01*
X117138016Y-96573459D01*
X117138009Y-96573446D01*
X117039464Y-96425965D01*
X117039461Y-96425961D01*
X116914038Y-96300538D01*
X116914034Y-96300535D01*
X116766553Y-96201990D01*
X116766540Y-96201983D01*
X116602667Y-96134106D01*
X116602658Y-96134103D01*
X116428694Y-96099500D01*
X116428691Y-96099500D01*
X116251309Y-96099500D01*
X116251306Y-96099500D01*
X116077341Y-96134103D01*
X116077332Y-96134106D01*
X115913459Y-96201983D01*
X115913446Y-96201990D01*
X115765965Y-96300535D01*
X115765961Y-96300538D01*
X115640538Y-96425961D01*
X115640535Y-96425965D01*
X115541990Y-96573446D01*
X115541983Y-96573459D01*
X115474106Y-96737332D01*
X115474103Y-96737341D01*
X115439500Y-96911304D01*
X115439500Y-97088695D01*
X115474103Y-97262658D01*
X115474106Y-97262667D01*
X115541983Y-97426540D01*
X115541990Y-97426553D01*
X115640535Y-97574034D01*
X115640538Y-97574038D01*
X115678180Y-97611679D01*
X115711666Y-97673001D01*
X115714500Y-97699361D01*
X115714500Y-98689548D01*
X115694815Y-98756587D01*
X115678181Y-98777229D01*
X114407229Y-100048181D01*
X114345906Y-100081666D01*
X114319548Y-100084500D01*
X106330452Y-100084500D01*
X106263413Y-100064815D01*
X106242771Y-100048181D01*
X104261819Y-98067229D01*
X104228334Y-98005906D01*
X104225500Y-97979548D01*
X104225500Y-91074499D01*
X104245185Y-91007460D01*
X104297989Y-90961705D01*
X104349500Y-90950499D01*
X105390500Y-90950499D01*
X105457539Y-90970184D01*
X105503294Y-91022988D01*
X105514500Y-91074499D01*
X105514500Y-98081610D01*
X105538535Y-98202443D01*
X105538538Y-98202455D01*
X105542353Y-98211666D01*
X105549282Y-98228393D01*
X105585688Y-98316286D01*
X105619915Y-98367509D01*
X105623931Y-98373519D01*
X105654141Y-98418733D01*
X105745586Y-98510178D01*
X105745608Y-98510198D01*
X106474139Y-99238729D01*
X106474142Y-99238733D01*
X106561267Y-99325858D01*
X106597385Y-99349991D01*
X106663714Y-99394312D01*
X106663719Y-99394314D01*
X106737390Y-99424829D01*
X106737394Y-99424830D01*
X106744207Y-99427652D01*
X106777548Y-99441463D01*
X106837971Y-99453481D01*
X106898393Y-99465500D01*
X110581607Y-99465500D01*
X110642029Y-99453481D01*
X110702452Y-99441463D01*
X110735792Y-99427652D01*
X110816286Y-99394312D01*
X110882615Y-99349991D01*
X110918733Y-99325858D01*
X111005858Y-99238733D01*
X111005859Y-99238731D01*
X111012925Y-99231665D01*
X111012928Y-99231661D01*
X111658729Y-98585860D01*
X111658733Y-98585858D01*
X111745858Y-98498733D01*
X111795459Y-98424500D01*
X111814312Y-98396286D01*
X111832819Y-98351606D01*
X111861459Y-98282461D01*
X111861459Y-98282459D01*
X111861463Y-98282451D01*
X111885500Y-98161607D01*
X111885500Y-98038393D01*
X111885500Y-97699361D01*
X111905185Y-97632322D01*
X111921820Y-97611679D01*
X111959461Y-97574038D01*
X111959464Y-97574035D01*
X112058013Y-97426547D01*
X112125894Y-97262666D01*
X112127884Y-97252666D01*
X112160499Y-97088695D01*
X112160500Y-97088693D01*
X112160500Y-96911306D01*
X112160499Y-96911304D01*
X112125896Y-96737341D01*
X112125893Y-96737332D01*
X112058016Y-96573459D01*
X112058009Y-96573446D01*
X111959464Y-96425965D01*
X111959461Y-96425961D01*
X111834038Y-96300538D01*
X111834034Y-96300535D01*
X111686553Y-96201990D01*
X111686540Y-96201983D01*
X111522667Y-96134106D01*
X111522658Y-96134103D01*
X111348694Y-96099500D01*
X111348691Y-96099500D01*
X111171309Y-96099500D01*
X111171306Y-96099500D01*
X110997341Y-96134103D01*
X110997332Y-96134106D01*
X110833459Y-96201983D01*
X110833446Y-96201990D01*
X110685965Y-96300535D01*
X110685961Y-96300538D01*
X110560538Y-96425961D01*
X110560535Y-96425965D01*
X110461990Y-96573446D01*
X110461983Y-96573459D01*
X110394106Y-96737332D01*
X110394103Y-96737341D01*
X110359500Y-96911304D01*
X110359500Y-97088695D01*
X110394103Y-97262658D01*
X110394106Y-97262667D01*
X110461983Y-97426540D01*
X110461990Y-97426553D01*
X110560535Y-97574034D01*
X110560538Y-97574038D01*
X110598180Y-97611679D01*
X110612885Y-97638609D01*
X110629477Y-97664426D01*
X110630368Y-97670624D01*
X110631666Y-97673001D01*
X110634500Y-97699361D01*
X110634500Y-97789548D01*
X110614815Y-97856587D01*
X110598181Y-97877229D01*
X110297229Y-98178181D01*
X110235906Y-98211666D01*
X110209548Y-98214500D01*
X107270452Y-98214500D01*
X107203413Y-98194815D01*
X107182771Y-98178181D01*
X106801819Y-97797229D01*
X106768334Y-97735906D01*
X106765500Y-97709548D01*
X106765500Y-91083999D01*
X106785185Y-91016960D01*
X106837989Y-90971205D01*
X106889500Y-90959999D01*
X107179999Y-90959999D01*
X107180000Y-90959998D01*
X107180000Y-90043012D01*
X107237007Y-90075925D01*
X107364174Y-90110000D01*
X107495826Y-90110000D01*
X107622993Y-90075925D01*
X107680000Y-90043012D01*
X107680000Y-90959999D01*
X107970500Y-90959999D01*
X108037539Y-90979684D01*
X108083294Y-91032488D01*
X108094500Y-91083999D01*
X108094500Y-96320638D01*
X108074815Y-96387677D01*
X108058181Y-96408319D01*
X108020538Y-96445961D01*
X108020535Y-96445965D01*
X107921990Y-96593446D01*
X107921983Y-96593459D01*
X107854106Y-96757332D01*
X107854103Y-96757341D01*
X107819500Y-96931304D01*
X107819500Y-97108695D01*
X107854103Y-97282658D01*
X107854106Y-97282667D01*
X107921983Y-97446540D01*
X107921990Y-97446553D01*
X108020535Y-97594034D01*
X108020538Y-97594038D01*
X108145961Y-97719461D01*
X108145965Y-97719464D01*
X108293446Y-97818009D01*
X108293459Y-97818016D01*
X108386580Y-97856587D01*
X108457334Y-97885894D01*
X108457336Y-97885894D01*
X108457341Y-97885896D01*
X108631304Y-97920499D01*
X108631307Y-97920500D01*
X108631309Y-97920500D01*
X108808693Y-97920500D01*
X108808694Y-97920499D01*
X108866682Y-97908964D01*
X108982658Y-97885896D01*
X108982661Y-97885894D01*
X108982666Y-97885894D01*
X109146547Y-97818013D01*
X109294035Y-97719464D01*
X109419464Y-97594035D01*
X109518013Y-97446547D01*
X109585894Y-97282666D01*
X109589873Y-97262666D01*
X109620499Y-97108695D01*
X109620500Y-97108693D01*
X109620500Y-96931306D01*
X109620499Y-96931304D01*
X109585896Y-96757341D01*
X109585893Y-96757332D01*
X109518016Y-96593459D01*
X109518009Y-96593446D01*
X109419464Y-96445965D01*
X109419461Y-96445961D01*
X109381819Y-96408319D01*
X109348334Y-96346996D01*
X109345500Y-96320638D01*
X109345500Y-91074499D01*
X109365185Y-91007460D01*
X109417989Y-90961705D01*
X109469495Y-90950499D01*
X110705008Y-90950499D01*
X110807797Y-90939999D01*
X110974334Y-90884814D01*
X111123656Y-90792712D01*
X111217319Y-90699049D01*
X111278642Y-90665564D01*
X111348334Y-90670548D01*
X111392681Y-90699049D01*
X111486344Y-90792712D01*
X111635666Y-90884814D01*
X111802203Y-90939999D01*
X111904991Y-90950500D01*
X113040500Y-90950499D01*
X113107539Y-90970184D01*
X113153294Y-91022987D01*
X113164500Y-91074499D01*
X113164500Y-96300638D01*
X113144815Y-96367677D01*
X113128181Y-96388319D01*
X113090538Y-96425961D01*
X113090535Y-96425965D01*
X112991990Y-96573446D01*
X112991983Y-96573459D01*
X112924106Y-96737332D01*
X112924103Y-96737341D01*
X112889500Y-96911304D01*
X112889500Y-97088695D01*
X112924103Y-97262658D01*
X112924106Y-97262667D01*
X112991983Y-97426540D01*
X112991990Y-97426553D01*
X113090535Y-97574034D01*
X113090538Y-97574038D01*
X113215961Y-97699461D01*
X113215965Y-97699464D01*
X113363446Y-97798009D01*
X113363459Y-97798016D01*
X113478962Y-97845858D01*
X113527334Y-97865894D01*
X113527336Y-97865894D01*
X113527341Y-97865896D01*
X113701304Y-97900499D01*
X113701307Y-97900500D01*
X113701309Y-97900500D01*
X113878693Y-97900500D01*
X113878694Y-97900499D01*
X113952125Y-97885893D01*
X114052658Y-97865896D01*
X114052661Y-97865894D01*
X114052666Y-97865894D01*
X114216547Y-97798013D01*
X114364035Y-97699464D01*
X114489464Y-97574035D01*
X114588013Y-97426547D01*
X114655894Y-97262666D01*
X114657884Y-97252666D01*
X114690499Y-97088695D01*
X114690500Y-97088693D01*
X114690500Y-96911306D01*
X114690499Y-96911304D01*
X114655896Y-96737341D01*
X114655893Y-96737332D01*
X114588016Y-96573459D01*
X114588009Y-96573446D01*
X114489464Y-96425965D01*
X114489461Y-96425961D01*
X114451819Y-96388319D01*
X114418334Y-96326996D01*
X114415500Y-96300638D01*
X114415500Y-91074499D01*
X114435185Y-91007460D01*
X114487989Y-90961705D01*
X114539500Y-90950499D01*
X115705002Y-90950499D01*
X115705008Y-90950499D01*
X115807797Y-90939999D01*
X115974334Y-90884814D01*
X116123656Y-90792712D01*
X116224821Y-90691546D01*
X116286140Y-90658064D01*
X116355832Y-90663048D01*
X116400180Y-90691549D01*
X116501343Y-90792712D01*
X116650665Y-90884814D01*
X116817202Y-90939999D01*
X116919990Y-90950500D01*
X118130500Y-90950499D01*
X118197539Y-90970184D01*
X118243294Y-91022987D01*
X118254500Y-91074499D01*
X118254500Y-96290638D01*
X118234815Y-96357677D01*
X118218181Y-96378319D01*
X118180538Y-96415961D01*
X118180535Y-96415965D01*
X118081990Y-96563446D01*
X118081983Y-96563459D01*
X118014106Y-96727332D01*
X118014103Y-96727341D01*
X117979500Y-96901304D01*
X117979500Y-97078695D01*
X118014103Y-97252658D01*
X118014106Y-97252667D01*
X118081983Y-97416540D01*
X118081990Y-97416553D01*
X118180535Y-97564034D01*
X118180538Y-97564038D01*
X118305961Y-97689461D01*
X118305965Y-97689464D01*
X118453446Y-97788009D01*
X118453459Y-97788016D01*
X118525880Y-97818013D01*
X118617334Y-97855894D01*
X118617336Y-97855894D01*
X118617341Y-97855896D01*
X118791304Y-97890499D01*
X118791307Y-97890500D01*
X118791309Y-97890500D01*
X118968693Y-97890500D01*
X118968694Y-97890499D01*
X119026682Y-97878964D01*
X119142658Y-97855896D01*
X119142661Y-97855894D01*
X119142666Y-97855894D01*
X119306547Y-97788013D01*
X119454035Y-97689464D01*
X119579464Y-97564035D01*
X119678013Y-97416547D01*
X119745894Y-97252666D01*
X119780500Y-97078691D01*
X119780500Y-96901309D01*
X119780500Y-96901306D01*
X119780499Y-96901304D01*
X119745896Y-96727341D01*
X119745893Y-96727332D01*
X119678016Y-96563459D01*
X119678009Y-96563446D01*
X119579464Y-96415965D01*
X119579461Y-96415961D01*
X119541819Y-96378319D01*
X119508334Y-96316996D01*
X119505500Y-96290638D01*
X119505500Y-91073999D01*
X119525185Y-91006960D01*
X119577989Y-90961205D01*
X119629500Y-90949999D01*
X119810000Y-90949999D01*
X119810000Y-90033012D01*
X119867007Y-90065925D01*
X119994174Y-90100000D01*
X120125826Y-90100000D01*
X120252993Y-90065925D01*
X120310000Y-90033012D01*
X120310000Y-90949999D01*
X120709972Y-90949999D01*
X120709986Y-90949998D01*
X120812697Y-90939505D01*
X120979119Y-90884358D01*
X120979124Y-90884356D01*
X121128342Y-90792317D01*
X121219464Y-90701195D01*
X121280787Y-90667710D01*
X121350479Y-90672694D01*
X121394827Y-90701195D01*
X121486344Y-90792712D01*
X121635666Y-90884814D01*
X121802203Y-90939999D01*
X121904991Y-90950500D01*
X123205008Y-90950499D01*
X123307797Y-90939999D01*
X123474334Y-90884814D01*
X123623656Y-90792712D01*
X123717319Y-90699049D01*
X123778642Y-90665564D01*
X123848334Y-90670548D01*
X123892681Y-90699049D01*
X123986344Y-90792712D01*
X124135666Y-90884814D01*
X124302203Y-90939999D01*
X124404991Y-90950500D01*
X125705008Y-90950499D01*
X125807797Y-90939999D01*
X125974334Y-90884814D01*
X126123656Y-90792712D01*
X126247712Y-90668656D01*
X126339814Y-90519334D01*
X126394999Y-90352797D01*
X126405500Y-90250009D01*
X126405499Y-88949992D01*
X126394999Y-88847203D01*
X126339814Y-88680666D01*
X126247712Y-88531344D01*
X126123656Y-88407288D01*
X125975075Y-88315643D01*
X125974336Y-88315187D01*
X125974331Y-88315185D01*
X125972862Y-88314698D01*
X125807797Y-88260001D01*
X125807795Y-88260000D01*
X125705010Y-88249500D01*
X124404998Y-88249500D01*
X124404981Y-88249501D01*
X124302203Y-88260000D01*
X124302200Y-88260001D01*
X124135668Y-88315185D01*
X124135663Y-88315187D01*
X123986342Y-88407289D01*
X123892681Y-88500951D01*
X123831358Y-88534436D01*
X123761666Y-88529452D01*
X123717319Y-88500951D01*
X123623657Y-88407289D01*
X123623656Y-88407288D01*
X123475075Y-88315643D01*
X123474336Y-88315187D01*
X123474331Y-88315185D01*
X123472862Y-88314698D01*
X123307797Y-88260001D01*
X123307795Y-88260000D01*
X123205010Y-88249500D01*
X121904998Y-88249500D01*
X121904981Y-88249501D01*
X121802203Y-88260000D01*
X121802200Y-88260001D01*
X121635668Y-88315185D01*
X121635663Y-88315187D01*
X121486345Y-88407287D01*
X121394827Y-88498805D01*
X121333503Y-88532289D01*
X121263812Y-88527305D01*
X121219465Y-88498804D01*
X121128345Y-88407684D01*
X120979124Y-88315643D01*
X120979119Y-88315641D01*
X120812697Y-88260494D01*
X120812690Y-88260493D01*
X120709986Y-88250000D01*
X120310000Y-88250000D01*
X120310000Y-89166988D01*
X120252993Y-89134075D01*
X120125826Y-89100000D01*
X119994174Y-89100000D01*
X119867007Y-89134075D01*
X119810000Y-89166988D01*
X119810000Y-88235950D01*
X119818644Y-88206509D01*
X119825168Y-88176523D01*
X119828922Y-88171507D01*
X119829685Y-88168911D01*
X119846312Y-88148276D01*
X120218729Y-87775860D01*
X120218733Y-87775858D01*
X120305858Y-87688733D01*
X120350675Y-87621659D01*
X120357254Y-87611813D01*
X120357256Y-87611810D01*
X120364106Y-87601557D01*
X120374312Y-87586285D01*
X120412656Y-87493714D01*
X120421463Y-87472452D01*
X120429456Y-87432265D01*
X120442974Y-87364311D01*
X120442974Y-87364304D01*
X120445500Y-87351608D01*
X120445500Y-85992628D01*
X120465185Y-85925589D01*
X120496611Y-85892312D01*
X120602073Y-85815690D01*
X120735690Y-85682073D01*
X120846760Y-85529199D01*
X120932547Y-85360832D01*
X120942081Y-85331491D01*
X126499500Y-85331491D01*
X126499500Y-85668508D01*
X126537231Y-86003381D01*
X126537233Y-86003397D01*
X126612223Y-86331953D01*
X126612227Y-86331965D01*
X126723532Y-86650054D01*
X126869752Y-86953683D01*
X126869754Y-86953686D01*
X127049054Y-87239039D01*
X127259175Y-87502523D01*
X127497477Y-87740825D01*
X127760961Y-87950946D01*
X128046314Y-88130246D01*
X128349949Y-88276469D01*
X128588848Y-88360063D01*
X128668034Y-88387772D01*
X128668046Y-88387776D01*
X128996606Y-88462767D01*
X129331492Y-88500499D01*
X129331493Y-88500500D01*
X129331496Y-88500500D01*
X129668507Y-88500500D01*
X129668507Y-88500499D01*
X130003394Y-88462767D01*
X130331954Y-88387776D01*
X130650051Y-88276469D01*
X130953686Y-88130246D01*
X131239039Y-87950946D01*
X131502523Y-87740825D01*
X131740825Y-87502523D01*
X131950946Y-87239039D01*
X132130246Y-86953686D01*
X132276469Y-86650051D01*
X132387776Y-86331954D01*
X132462767Y-86003394D01*
X132500500Y-85668504D01*
X132500500Y-85331496D01*
X132462767Y-84996606D01*
X132387776Y-84668046D01*
X132276469Y-84349949D01*
X132130246Y-84046314D01*
X131950946Y-83760961D01*
X131740825Y-83497477D01*
X131502523Y-83259175D01*
X131497893Y-83255483D01*
X131435606Y-83205811D01*
X131239039Y-83049054D01*
X130953686Y-82869754D01*
X130953683Y-82869752D01*
X130650054Y-82723532D01*
X130331965Y-82612227D01*
X130331953Y-82612223D01*
X130003397Y-82537233D01*
X130003381Y-82537231D01*
X129668508Y-82499500D01*
X129668504Y-82499500D01*
X129331496Y-82499500D01*
X129331491Y-82499500D01*
X128996618Y-82537231D01*
X128996602Y-82537233D01*
X128668046Y-82612223D01*
X128668034Y-82612227D01*
X128349945Y-82723532D01*
X128046316Y-82869752D01*
X127760962Y-83049053D01*
X127497477Y-83259174D01*
X127259174Y-83497477D01*
X127049053Y-83760962D01*
X126869752Y-84046316D01*
X126723532Y-84349945D01*
X126612227Y-84668034D01*
X126612223Y-84668046D01*
X126537233Y-84996602D01*
X126537231Y-84996618D01*
X126499500Y-85331491D01*
X120942081Y-85331491D01*
X120990940Y-85181118D01*
X121008497Y-85070269D01*
X121020500Y-84994486D01*
X121020500Y-83805513D01*
X120990940Y-83618881D01*
X120932545Y-83439163D01*
X120846759Y-83270800D01*
X120844914Y-83268260D01*
X120735690Y-83117927D01*
X120602073Y-82984310D01*
X120449199Y-82873240D01*
X120431161Y-82864049D01*
X120280836Y-82787454D01*
X120101118Y-82729059D01*
X119914486Y-82699500D01*
X119914481Y-82699500D01*
X119725519Y-82699500D01*
X119725514Y-82699500D01*
X119538881Y-82729059D01*
X119359163Y-82787454D01*
X119190800Y-82873240D01*
X119140205Y-82910000D01*
X119037927Y-82984310D01*
X119037925Y-82984312D01*
X119037924Y-82984312D01*
X118904312Y-83117924D01*
X118904312Y-83117925D01*
X118904310Y-83117927D01*
X118895841Y-83129584D01*
X118793240Y-83270800D01*
X118707454Y-83439163D01*
X118667931Y-83560803D01*
X118628493Y-83618478D01*
X118564134Y-83645676D01*
X118495288Y-83633761D01*
X118443812Y-83586516D01*
X118432069Y-83560803D01*
X118392545Y-83439163D01*
X118306759Y-83270800D01*
X118304914Y-83268260D01*
X118195690Y-83117927D01*
X118062073Y-82984310D01*
X117909199Y-82873240D01*
X117891161Y-82864049D01*
X117740836Y-82787454D01*
X117561118Y-82729059D01*
X117374486Y-82699500D01*
X117374481Y-82699500D01*
X117185519Y-82699500D01*
X117185514Y-82699500D01*
X116998881Y-82729059D01*
X116819163Y-82787454D01*
X116650800Y-82873240D01*
X116600205Y-82910000D01*
X116497927Y-82984310D01*
X116497925Y-82984312D01*
X116497924Y-82984312D01*
X116364312Y-83117924D01*
X116364312Y-83117925D01*
X116364310Y-83117927D01*
X116355841Y-83129584D01*
X116253240Y-83270800D01*
X116167454Y-83439163D01*
X116127931Y-83560803D01*
X116088493Y-83618478D01*
X116024134Y-83645676D01*
X115955288Y-83633761D01*
X115903812Y-83586516D01*
X115892069Y-83560803D01*
X115852545Y-83439163D01*
X115766759Y-83270800D01*
X115764914Y-83268260D01*
X115655690Y-83117927D01*
X115522073Y-82984310D01*
X115369199Y-82873240D01*
X115351161Y-82864049D01*
X115200836Y-82787454D01*
X115021118Y-82729059D01*
X114834486Y-82699500D01*
X114834481Y-82699500D01*
X114645519Y-82699500D01*
X114645514Y-82699500D01*
X114458881Y-82729059D01*
X114279163Y-82787454D01*
X114110800Y-82873240D01*
X114060205Y-82910000D01*
X113957927Y-82984310D01*
X113957925Y-82984312D01*
X113957924Y-82984312D01*
X113824312Y-83117924D01*
X113824312Y-83117925D01*
X113824310Y-83117927D01*
X113815841Y-83129584D01*
X113713240Y-83270800D01*
X113627454Y-83439163D01*
X113587931Y-83560803D01*
X113548493Y-83618478D01*
X113484134Y-83645676D01*
X113415288Y-83633761D01*
X113363812Y-83586516D01*
X113352069Y-83560803D01*
X113312545Y-83439163D01*
X113226759Y-83270800D01*
X113224914Y-83268260D01*
X113115690Y-83117927D01*
X112982073Y-82984310D01*
X112829199Y-82873240D01*
X112811161Y-82864049D01*
X112660836Y-82787454D01*
X112481118Y-82729059D01*
X112294486Y-82699500D01*
X112294481Y-82699500D01*
X112105519Y-82699500D01*
X112105514Y-82699500D01*
X111918881Y-82729059D01*
X111739163Y-82787454D01*
X111570800Y-82873240D01*
X111520205Y-82910000D01*
X111417927Y-82984310D01*
X111417925Y-82984312D01*
X111417924Y-82984312D01*
X111284312Y-83117924D01*
X111284312Y-83117925D01*
X111284310Y-83117927D01*
X111275841Y-83129584D01*
X111173240Y-83270800D01*
X111087454Y-83439163D01*
X111047931Y-83560803D01*
X111008493Y-83618478D01*
X110944134Y-83645676D01*
X110875288Y-83633761D01*
X110823812Y-83586516D01*
X110812069Y-83560803D01*
X110772545Y-83439163D01*
X110686759Y-83270800D01*
X110684914Y-83268260D01*
X110575690Y-83117927D01*
X110442073Y-82984310D01*
X110289199Y-82873240D01*
X110271161Y-82864049D01*
X110120836Y-82787454D01*
X109941118Y-82729059D01*
X109754486Y-82699500D01*
X109754481Y-82699500D01*
X109565519Y-82699500D01*
X109565514Y-82699500D01*
X109378881Y-82729059D01*
X109199163Y-82787454D01*
X109030800Y-82873240D01*
X108980205Y-82910000D01*
X108877927Y-82984310D01*
X108877925Y-82984312D01*
X108877924Y-82984312D01*
X108744312Y-83117924D01*
X108744312Y-83117925D01*
X108744310Y-83117927D01*
X108735841Y-83129584D01*
X108633240Y-83270800D01*
X108547454Y-83439163D01*
X108507931Y-83560803D01*
X108468493Y-83618478D01*
X108404134Y-83645676D01*
X108335288Y-83633761D01*
X108283812Y-83586516D01*
X108272069Y-83560803D01*
X108232545Y-83439163D01*
X108146759Y-83270800D01*
X108144914Y-83268260D01*
X108035690Y-83117927D01*
X107902073Y-82984310D01*
X107749199Y-82873240D01*
X107731161Y-82864049D01*
X107580836Y-82787454D01*
X107401118Y-82729059D01*
X107214486Y-82699500D01*
X107214481Y-82699500D01*
X107025519Y-82699500D01*
X107025514Y-82699500D01*
X106838881Y-82729059D01*
X106659163Y-82787454D01*
X106490800Y-82873240D01*
X106440205Y-82910000D01*
X106337927Y-82984310D01*
X106337925Y-82984312D01*
X106337924Y-82984312D01*
X106204312Y-83117924D01*
X106204312Y-83117925D01*
X106204310Y-83117927D01*
X106195841Y-83129584D01*
X106093240Y-83270800D01*
X106007454Y-83439163D01*
X105967931Y-83560803D01*
X105928493Y-83618478D01*
X105864134Y-83645676D01*
X105795288Y-83633761D01*
X105743812Y-83586516D01*
X105732069Y-83560803D01*
X105692545Y-83439163D01*
X105606759Y-83270800D01*
X105604914Y-83268260D01*
X105495690Y-83117927D01*
X105362073Y-82984310D01*
X105209199Y-82873240D01*
X105191161Y-82864049D01*
X105040836Y-82787454D01*
X104861118Y-82729059D01*
X104674486Y-82699500D01*
X104674481Y-82699500D01*
X104485519Y-82699500D01*
X104485514Y-82699500D01*
X104298881Y-82729059D01*
X104119163Y-82787454D01*
X103950800Y-82873240D01*
X103900205Y-82910000D01*
X103797927Y-82984310D01*
X103797925Y-82984312D01*
X103797924Y-82984312D01*
X103664312Y-83117924D01*
X103664312Y-83117925D01*
X103664310Y-83117927D01*
X103655841Y-83129584D01*
X103553240Y-83270800D01*
X103467454Y-83439163D01*
X103427668Y-83561612D01*
X103388230Y-83619287D01*
X103323871Y-83646485D01*
X103255025Y-83634570D01*
X103203549Y-83587325D01*
X103191806Y-83561611D01*
X103152085Y-83439362D01*
X103066329Y-83271059D01*
X102955314Y-83118258D01*
X102955310Y-83118253D01*
X102821746Y-82984689D01*
X102821741Y-82984685D01*
X102668940Y-82873670D01*
X102500635Y-82787913D01*
X102321004Y-82729549D01*
X102320995Y-82729547D01*
X102290000Y-82724637D01*
X102290000Y-83966988D01*
X102232993Y-83934075D01*
X102105826Y-83900000D01*
X101974174Y-83900000D01*
X101847007Y-83934075D01*
X101790000Y-83966988D01*
X101790000Y-82724637D01*
X101789999Y-82724637D01*
X101759004Y-82729547D01*
X101758995Y-82729549D01*
X101579364Y-82787913D01*
X101411059Y-82873670D01*
X101258258Y-82984685D01*
X101258253Y-82984689D01*
X101124689Y-83118253D01*
X101124685Y-83118258D01*
X101013670Y-83271059D01*
X100934985Y-83425486D01*
X100887010Y-83476282D01*
X100819189Y-83493077D01*
X100753054Y-83470539D01*
X100709603Y-83415824D01*
X100700500Y-83369191D01*
X100700500Y-83338280D01*
X100696085Y-83289694D01*
X100694137Y-83268257D01*
X100643930Y-83107135D01*
X100556622Y-82962711D01*
X100556620Y-82962709D01*
X100556619Y-82962707D01*
X100437292Y-82843380D01*
X100424336Y-82835548D01*
X100292865Y-82756070D01*
X100131743Y-82705863D01*
X100131741Y-82705862D01*
X100131739Y-82705862D01*
X100082715Y-82701407D01*
X100061722Y-82699500D01*
X98938278Y-82699500D01*
X98919192Y-82701234D01*
X98868260Y-82705862D01*
X98707134Y-82756070D01*
X98562707Y-82843380D01*
X98443380Y-82962707D01*
X98356070Y-83107134D01*
X98305862Y-83268260D01*
X98300771Y-83324282D01*
X98299500Y-83338278D01*
X98299500Y-85461722D01*
X98301407Y-85482715D01*
X98305862Y-85531739D01*
X98305862Y-85531741D01*
X98305863Y-85531743D01*
X98332946Y-85618655D01*
X98356070Y-85692865D01*
X98443380Y-85837292D01*
X98562707Y-85956619D01*
X98562709Y-85956620D01*
X98562711Y-85956622D01*
X98707135Y-86043930D01*
X98868257Y-86094137D01*
X98938278Y-86100500D01*
X98938281Y-86100500D01*
X100061719Y-86100500D01*
X100061722Y-86100500D01*
X100131743Y-86094137D01*
X100292865Y-86043930D01*
X100437289Y-85956622D01*
X100556622Y-85837289D01*
X100643930Y-85692865D01*
X100694137Y-85531743D01*
X100700500Y-85461722D01*
X100700500Y-85430808D01*
X100720185Y-85363769D01*
X100772989Y-85318014D01*
X100842147Y-85308070D01*
X100905703Y-85337095D01*
X100934985Y-85374513D01*
X101013670Y-85528940D01*
X101124685Y-85681741D01*
X101124689Y-85681746D01*
X101258253Y-85815310D01*
X101258258Y-85815314D01*
X101411059Y-85926329D01*
X101579362Y-86012085D01*
X101758997Y-86070451D01*
X101790000Y-86075362D01*
X101790000Y-84833012D01*
X101847007Y-84865925D01*
X101974174Y-84900000D01*
X102105826Y-84900000D01*
X102232993Y-84865925D01*
X102290000Y-84833012D01*
X102290000Y-86075361D01*
X102321002Y-86070451D01*
X102500637Y-86012085D01*
X102668940Y-85926329D01*
X102821741Y-85815314D01*
X102821746Y-85815310D01*
X102955310Y-85681746D01*
X102955314Y-85681741D01*
X103066329Y-85528940D01*
X103152086Y-85360635D01*
X103191806Y-85238389D01*
X103231243Y-85180713D01*
X103295601Y-85153514D01*
X103364448Y-85165428D01*
X103415924Y-85212672D01*
X103427668Y-85238387D01*
X103467454Y-85360836D01*
X103543612Y-85510303D01*
X103553240Y-85529199D01*
X103664310Y-85682073D01*
X103797927Y-85815690D01*
X103903387Y-85892311D01*
X103946051Y-85947640D01*
X103954500Y-85992628D01*
X103954500Y-86359547D01*
X103934815Y-86426586D01*
X103918181Y-86447228D01*
X103573803Y-86791606D01*
X103201270Y-87164139D01*
X103201267Y-87164142D01*
X103169551Y-87195858D01*
X103114142Y-87251266D01*
X103084347Y-87295858D01*
X103084346Y-87295857D01*
X103045689Y-87353712D01*
X103045685Y-87353719D01*
X103027180Y-87398397D01*
X103027180Y-87398398D01*
X102998538Y-87467545D01*
X102998535Y-87467555D01*
X102974500Y-87588389D01*
X102974500Y-88125500D01*
X102954815Y-88192539D01*
X102902011Y-88238294D01*
X102850500Y-88249500D01*
X101719998Y-88249500D01*
X101719981Y-88249501D01*
X101617203Y-88260000D01*
X101617200Y-88260001D01*
X101450668Y-88315185D01*
X101450663Y-88315187D01*
X101301342Y-88407289D01*
X101177289Y-88531342D01*
X101171917Y-88540050D01*
X101170756Y-88541935D01*
X101168038Y-88546341D01*
X101116089Y-88593064D01*
X101047126Y-88604285D01*
X100983044Y-88576441D01*
X100956962Y-88546341D01*
X100954245Y-88541936D01*
X100947712Y-88531344D01*
X100823656Y-88407288D01*
X100675075Y-88315643D01*
X100674336Y-88315187D01*
X100674331Y-88315185D01*
X100672862Y-88314698D01*
X100507797Y-88260001D01*
X100507795Y-88260000D01*
X100405010Y-88249500D01*
X99104998Y-88249500D01*
X99104981Y-88249501D01*
X99002203Y-88260000D01*
X99002200Y-88260001D01*
X98835668Y-88315185D01*
X98835663Y-88315187D01*
X98686342Y-88407289D01*
X98592681Y-88500951D01*
X98531358Y-88534436D01*
X98461666Y-88529452D01*
X98417319Y-88500951D01*
X98323657Y-88407289D01*
X98323656Y-88407288D01*
X98175075Y-88315643D01*
X98174336Y-88315187D01*
X98174331Y-88315185D01*
X98172862Y-88314698D01*
X98007797Y-88260001D01*
X98007795Y-88260000D01*
X97905010Y-88249500D01*
X96604998Y-88249500D01*
X96604981Y-88249501D01*
X96502203Y-88260000D01*
X96502200Y-88260001D01*
X96335668Y-88315185D01*
X96335663Y-88315187D01*
X96186342Y-88407289D01*
X96062286Y-88531345D01*
X96060239Y-88534665D01*
X96058241Y-88536461D01*
X96057807Y-88537011D01*
X96057712Y-88536936D01*
X96008287Y-88581386D01*
X95939324Y-88592602D01*
X95875244Y-88564754D01*
X95849162Y-88534649D01*
X95847316Y-88531656D01*
X95723345Y-88407685D01*
X95574124Y-88315644D01*
X95574119Y-88315642D01*
X95407697Y-88260495D01*
X95407690Y-88260494D01*
X95304986Y-88250001D01*
X94905000Y-88250001D01*
X94905000Y-89166989D01*
X94847993Y-89134076D01*
X94720826Y-89100001D01*
X94589174Y-89100001D01*
X94462007Y-89134076D01*
X94405000Y-89166989D01*
X94405000Y-88250001D01*
X94005028Y-88250001D01*
X94005012Y-88250002D01*
X93902302Y-88260495D01*
X93735880Y-88315642D01*
X93735875Y-88315644D01*
X93586654Y-88407685D01*
X93462683Y-88531656D01*
X93462680Y-88531660D01*
X93460832Y-88534657D01*
X93459027Y-88536280D01*
X93458202Y-88537324D01*
X93458023Y-88537182D01*
X93408884Y-88581382D01*
X93339921Y-88592603D01*
X93275839Y-88564760D01*
X93249755Y-88534657D01*
X93247712Y-88531344D01*
X93123656Y-88407288D01*
X92975075Y-88315643D01*
X92974336Y-88315187D01*
X92974331Y-88315185D01*
X92972862Y-88314698D01*
X92807797Y-88260001D01*
X92807795Y-88260000D01*
X92705010Y-88249500D01*
X91404998Y-88249500D01*
X91404981Y-88249501D01*
X91302203Y-88260000D01*
X91302200Y-88260001D01*
X91135668Y-88315185D01*
X91135663Y-88315187D01*
X90986342Y-88407289D01*
X90892681Y-88500951D01*
X90831358Y-88534436D01*
X90761666Y-88529452D01*
X90717319Y-88500951D01*
X90623657Y-88407289D01*
X90623656Y-88407288D01*
X90475075Y-88315643D01*
X90474336Y-88315187D01*
X90474331Y-88315185D01*
X90472862Y-88314698D01*
X90307797Y-88260001D01*
X90307795Y-88260000D01*
X90205010Y-88249500D01*
X88904998Y-88249500D01*
X88904981Y-88249501D01*
X88802203Y-88260000D01*
X88802200Y-88260001D01*
X88635668Y-88315185D01*
X88635663Y-88315187D01*
X88486345Y-88407287D01*
X88400181Y-88493451D01*
X88338857Y-88526935D01*
X88269166Y-88521951D01*
X88224819Y-88493450D01*
X88138658Y-88407289D01*
X88138657Y-88407288D01*
X87990076Y-88315643D01*
X87989337Y-88315187D01*
X87989332Y-88315185D01*
X87987863Y-88314698D01*
X87822798Y-88260001D01*
X87822796Y-88260000D01*
X87720011Y-88249500D01*
X86419999Y-88249500D01*
X86419982Y-88249501D01*
X86317204Y-88260000D01*
X86317201Y-88260001D01*
X86150669Y-88315185D01*
X86150664Y-88315187D01*
X86001346Y-88407287D01*
X85900181Y-88508452D01*
X85838858Y-88541936D01*
X85769166Y-88536952D01*
X85724819Y-88508451D01*
X85623657Y-88407289D01*
X85623656Y-88407288D01*
X85475075Y-88315643D01*
X85474336Y-88315187D01*
X85474331Y-88315185D01*
X85472862Y-88314698D01*
X85307797Y-88260001D01*
X85307795Y-88260000D01*
X85205010Y-88249500D01*
X83904998Y-88249500D01*
X83904981Y-88249501D01*
X83802203Y-88260000D01*
X83802200Y-88260001D01*
X83635668Y-88315185D01*
X83635663Y-88315187D01*
X83486345Y-88407287D01*
X83374827Y-88518805D01*
X83313504Y-88552289D01*
X83243812Y-88547305D01*
X83199465Y-88518804D01*
X83088345Y-88407684D01*
X82939124Y-88315643D01*
X82939119Y-88315641D01*
X82772697Y-88260494D01*
X82772690Y-88260493D01*
X82669986Y-88250000D01*
X82270000Y-88250000D01*
X82270000Y-89166988D01*
X82212993Y-89134075D01*
X82085826Y-89100000D01*
X81954174Y-89100000D01*
X81827007Y-89134075D01*
X81770000Y-89166988D01*
X81770000Y-88250000D01*
X81370028Y-88250000D01*
X81370012Y-88250001D01*
X81267302Y-88260494D01*
X81100880Y-88315641D01*
X81100875Y-88315643D01*
X80951657Y-88407682D01*
X80833034Y-88526305D01*
X80771711Y-88559789D01*
X80702019Y-88554805D01*
X80657672Y-88526304D01*
X80538657Y-88407289D01*
X80538656Y-88407288D01*
X80390075Y-88315643D01*
X80389336Y-88315187D01*
X80389331Y-88315185D01*
X80387862Y-88314698D01*
X80222797Y-88260001D01*
X80222795Y-88260000D01*
X80120010Y-88249500D01*
X78819998Y-88249500D01*
X78819981Y-88249501D01*
X78717203Y-88260000D01*
X78717200Y-88260001D01*
X78550668Y-88315185D01*
X78550663Y-88315187D01*
X78401345Y-88407287D01*
X78310181Y-88498451D01*
X78248857Y-88531935D01*
X78179166Y-88526951D01*
X78134819Y-88498450D01*
X78043658Y-88407289D01*
X78043657Y-88407288D01*
X77895076Y-88315643D01*
X77894337Y-88315187D01*
X77894332Y-88315185D01*
X77892863Y-88314698D01*
X77727798Y-88260001D01*
X77727796Y-88260000D01*
X77625011Y-88249500D01*
X76324999Y-88249500D01*
X76324982Y-88249501D01*
X76222204Y-88260000D01*
X76222201Y-88260001D01*
X76055669Y-88315185D01*
X76055664Y-88315187D01*
X75906343Y-88407289D01*
X75782290Y-88531342D01*
X75690188Y-88680663D01*
X75690187Y-88680666D01*
X75635002Y-88847203D01*
X75635002Y-88847204D01*
X75635001Y-88847204D01*
X75624501Y-88949983D01*
X75624501Y-90250001D01*
X75624502Y-90250018D01*
X75635001Y-90352796D01*
X75635002Y-90352799D01*
X75667501Y-90450872D01*
X75690187Y-90519334D01*
X75782289Y-90668656D01*
X75906345Y-90792712D01*
X76055667Y-90884814D01*
X76139506Y-90912595D01*
X76196949Y-90952366D01*
X76223773Y-91016882D01*
X76224501Y-91030300D01*
X76224501Y-91428919D01*
X76224501Y-91428921D01*
X76224500Y-91428921D01*
X76253341Y-91573908D01*
X76253344Y-91573918D01*
X76309915Y-91710493D01*
X76342813Y-91759728D01*
X76342814Y-91759731D01*
X76392047Y-91833415D01*
X76392053Y-91833422D01*
X77987049Y-93428416D01*
X78091584Y-93532951D01*
X78091585Y-93532952D01*
X78214498Y-93615080D01*
X78214511Y-93615087D01*
X78324854Y-93660792D01*
X78351087Y-93671658D01*
X78351091Y-93671658D01*
X78351092Y-93671659D01*
X78496079Y-93700500D01*
X78496082Y-93700500D01*
X83437770Y-93700500D01*
X83504809Y-93720185D01*
X83525451Y-93736819D01*
X92241586Y-102452954D01*
X92271058Y-102472645D01*
X92315270Y-102502186D01*
X92364505Y-102535084D01*
X92364506Y-102535084D01*
X92364507Y-102535085D01*
X92364509Y-102535086D01*
X92501082Y-102591656D01*
X92501087Y-102591658D01*
X92501091Y-102591658D01*
X92501092Y-102591659D01*
X92646079Y-102620500D01*
X92646082Y-102620500D01*
X92646083Y-102620500D01*
X92793917Y-102620500D01*
X98347770Y-102620500D01*
X98414809Y-102640185D01*
X98435451Y-102656819D01*
X103708181Y-107929548D01*
X103741666Y-107990871D01*
X103744500Y-108017229D01*
X103744500Y-116168918D01*
X103744500Y-116168920D01*
X103744499Y-116168920D01*
X103773340Y-116313907D01*
X103773343Y-116313917D01*
X103829913Y-116450490D01*
X103829915Y-116450493D01*
X103842053Y-116468660D01*
X103842052Y-116468660D01*
X103912046Y-116573414D01*
X103912052Y-116573421D01*
X104726404Y-117387772D01*
X105321584Y-117982952D01*
X105342593Y-117996989D01*
X105383773Y-118024505D01*
X105383774Y-118024505D01*
X105444505Y-118065084D01*
X105501080Y-118088518D01*
X105581088Y-118121659D01*
X105697241Y-118144763D01*
X105720380Y-118149365D01*
X105726081Y-118150500D01*
X105726082Y-118150500D01*
X105726083Y-118150500D01*
X105873918Y-118150500D01*
X107508731Y-118150500D01*
X107575770Y-118170185D01*
X107621525Y-118222989D01*
X107631469Y-118292147D01*
X107602444Y-118355703D01*
X107581616Y-118374818D01*
X107542786Y-118403028D01*
X107398028Y-118547786D01*
X107277715Y-118713386D01*
X107184781Y-118895776D01*
X107121522Y-119090465D01*
X107089500Y-119292648D01*
X107089500Y-120097351D01*
X107121522Y-120299534D01*
X107184781Y-120494223D01*
X107277715Y-120676613D01*
X107398028Y-120842213D01*
X107398034Y-120842219D01*
X107542781Y-120986966D01*
X107588384Y-121020098D01*
X107631050Y-121075425D01*
X107639500Y-121120416D01*
X107639500Y-125889582D01*
X107619815Y-125956621D01*
X107588385Y-125989900D01*
X107542787Y-126023028D01*
X107542782Y-126023032D01*
X107398028Y-126167786D01*
X107277715Y-126333386D01*
X107184781Y-126515776D01*
X107121522Y-126710465D01*
X107089500Y-126912648D01*
X107089500Y-127679546D01*
X107069815Y-127746585D01*
X107053181Y-127767227D01*
X106779488Y-128040921D01*
X106236933Y-128583477D01*
X105982229Y-128838181D01*
X105920906Y-128871666D01*
X105894548Y-128874500D01*
X95729500Y-128874500D01*
X95662461Y-128854815D01*
X95616706Y-128802011D01*
X95605500Y-128750500D01*
X95605500Y-128531114D01*
X95625185Y-128464075D01*
X95658575Y-128431398D01*
X95657668Y-128430150D01*
X95661605Y-128427289D01*
X95661610Y-128427287D01*
X95827219Y-128306966D01*
X95971966Y-128162219D01*
X95971968Y-128162215D01*
X95971971Y-128162213D01*
X96040021Y-128068548D01*
X96092287Y-127996610D01*
X96185220Y-127814219D01*
X96248477Y-127619534D01*
X96280500Y-127417352D01*
X96280500Y-127212648D01*
X96263265Y-127103832D01*
X96248477Y-127010465D01*
X96196038Y-126849075D01*
X96185220Y-126815781D01*
X96185218Y-126815778D01*
X96185218Y-126815776D01*
X96133865Y-126714991D01*
X96092287Y-126633390D01*
X96060092Y-126589077D01*
X95971971Y-126467786D01*
X95827213Y-126323028D01*
X95661613Y-126202715D01*
X95661612Y-126202714D01*
X95661610Y-126202713D01*
X95593052Y-126167781D01*
X95479223Y-126109781D01*
X95284534Y-126046522D01*
X95109995Y-126018878D01*
X95082352Y-126014500D01*
X94877648Y-126014500D01*
X94853329Y-126018351D01*
X94675465Y-126046522D01*
X94480776Y-126109781D01*
X94298386Y-126202715D01*
X94132786Y-126323028D01*
X93988028Y-126467786D01*
X93867715Y-126633386D01*
X93774781Y-126815776D01*
X93711522Y-127010465D01*
X93679500Y-127212648D01*
X93679500Y-127417351D01*
X93711522Y-127619534D01*
X93774781Y-127814223D01*
X93826135Y-127915009D01*
X93867585Y-127996359D01*
X93867715Y-127996613D01*
X93988028Y-128162213D01*
X93988034Y-128162219D01*
X94132781Y-128306966D01*
X94298390Y-128427287D01*
X94298394Y-128427289D01*
X94302332Y-128430150D01*
X94301111Y-128431829D01*
X94342155Y-128477177D01*
X94354500Y-128531114D01*
X94354500Y-128750500D01*
X94334815Y-128817539D01*
X94282011Y-128863294D01*
X94230500Y-128874500D01*
X82410453Y-128874500D01*
X82343414Y-128854815D01*
X82322772Y-128838181D01*
X81942068Y-128457477D01*
X81937729Y-128449531D01*
X81930482Y-128444106D01*
X81921247Y-128419346D01*
X81908583Y-128396154D01*
X81909228Y-128387124D01*
X81906065Y-128378642D01*
X81911681Y-128352821D01*
X81913567Y-128326462D01*
X81919385Y-128317408D01*
X81920917Y-128310369D01*
X81942065Y-128282118D01*
X82061965Y-128162219D01*
X82182286Y-127996610D01*
X82229795Y-127903367D01*
X82277768Y-127852573D01*
X82345588Y-127835777D01*
X82411724Y-127858314D01*
X82450764Y-127903368D01*
X82498141Y-127996350D01*
X82498147Y-127996359D01*
X82530523Y-128040921D01*
X82530524Y-128040922D01*
X83210000Y-127361446D01*
X83210000Y-127367661D01*
X83237259Y-127469394D01*
X83289920Y-127560606D01*
X83364394Y-127635080D01*
X83455606Y-127687741D01*
X83557339Y-127715000D01*
X83563553Y-127715000D01*
X82884076Y-128394474D01*
X82928650Y-128426859D01*
X83110968Y-128519755D01*
X83305582Y-128582990D01*
X83507683Y-128615000D01*
X83712317Y-128615000D01*
X83914417Y-128582990D01*
X84109031Y-128519755D01*
X84291349Y-128426859D01*
X84335921Y-128394474D01*
X83656447Y-127715000D01*
X83662661Y-127715000D01*
X83764394Y-127687741D01*
X83855606Y-127635080D01*
X83930080Y-127560606D01*
X83982741Y-127469394D01*
X84010000Y-127367661D01*
X84010000Y-127361447D01*
X84689474Y-128040921D01*
X84721861Y-127996347D01*
X84721861Y-127996346D01*
X84769515Y-127902820D01*
X84817489Y-127852024D01*
X84885310Y-127835228D01*
X84951445Y-127857765D01*
X84990485Y-127902819D01*
X85038141Y-127996350D01*
X85038147Y-127996359D01*
X85070523Y-128040921D01*
X85070524Y-128040922D01*
X85750000Y-127361446D01*
X85750000Y-127367661D01*
X85777259Y-127469394D01*
X85829920Y-127560606D01*
X85904394Y-127635080D01*
X85995606Y-127687741D01*
X86097339Y-127715000D01*
X86103553Y-127715000D01*
X85424076Y-128394474D01*
X85468650Y-128426859D01*
X85650968Y-128519755D01*
X85845582Y-128582990D01*
X86047683Y-128615000D01*
X86252317Y-128615000D01*
X86454417Y-128582990D01*
X86649031Y-128519755D01*
X86831349Y-128426859D01*
X86875921Y-128394474D01*
X86196447Y-127715000D01*
X86202661Y-127715000D01*
X86304394Y-127687741D01*
X86395606Y-127635080D01*
X86470080Y-127560606D01*
X86522741Y-127469394D01*
X86550000Y-127367661D01*
X86550000Y-127361447D01*
X87229474Y-128040921D01*
X87261861Y-127996347D01*
X87261861Y-127996346D01*
X87309234Y-127903371D01*
X87357208Y-127852575D01*
X87425028Y-127835779D01*
X87491164Y-127858316D01*
X87530203Y-127903369D01*
X87577713Y-127996611D01*
X87698028Y-128162213D01*
X87842786Y-128306971D01*
X87997460Y-128419346D01*
X88008390Y-128427287D01*
X88118088Y-128483181D01*
X88190776Y-128520218D01*
X88190778Y-128520218D01*
X88190781Y-128520220D01*
X88281856Y-128549812D01*
X88385465Y-128583477D01*
X88486557Y-128599488D01*
X88587648Y-128615500D01*
X88587649Y-128615500D01*
X88792351Y-128615500D01*
X88792352Y-128615500D01*
X88994534Y-128583477D01*
X89189219Y-128520220D01*
X89371610Y-128427287D01*
X89469048Y-128356495D01*
X89537213Y-128306971D01*
X89537215Y-128306968D01*
X89537219Y-128306966D01*
X89681966Y-128162219D01*
X89681968Y-128162215D01*
X89681971Y-128162213D01*
X89786894Y-128017797D01*
X89802287Y-127996610D01*
X89849795Y-127903369D01*
X89897769Y-127852573D01*
X89965590Y-127835778D01*
X90031725Y-127858315D01*
X90070765Y-127903369D01*
X90118141Y-127996350D01*
X90118147Y-127996359D01*
X90150523Y-128040921D01*
X90150524Y-128040922D01*
X90830000Y-127361446D01*
X90830000Y-127367661D01*
X90857259Y-127469394D01*
X90909920Y-127560606D01*
X90984394Y-127635080D01*
X91075606Y-127687741D01*
X91177339Y-127715000D01*
X91183553Y-127715000D01*
X90504076Y-128394474D01*
X90548650Y-128426859D01*
X90730968Y-128519755D01*
X90925582Y-128582990D01*
X91127683Y-128615000D01*
X91332317Y-128615000D01*
X91534417Y-128582990D01*
X91729031Y-128519755D01*
X91911349Y-128426859D01*
X91955921Y-128394474D01*
X91276447Y-127715000D01*
X91282661Y-127715000D01*
X91384394Y-127687741D01*
X91475606Y-127635080D01*
X91550080Y-127560606D01*
X91602741Y-127469394D01*
X91630000Y-127367661D01*
X91630000Y-127361447D01*
X92309474Y-128040921D01*
X92341859Y-127996349D01*
X92434755Y-127814031D01*
X92497990Y-127619417D01*
X92530000Y-127417317D01*
X92530000Y-127212682D01*
X92497990Y-127010582D01*
X92434755Y-126815968D01*
X92341859Y-126633650D01*
X92309474Y-126589077D01*
X92309474Y-126589076D01*
X91630000Y-127268551D01*
X91630000Y-127262339D01*
X91602741Y-127160606D01*
X91550080Y-127069394D01*
X91475606Y-126994920D01*
X91384394Y-126942259D01*
X91282661Y-126915000D01*
X91276446Y-126915000D01*
X91955922Y-126235524D01*
X91955921Y-126235523D01*
X91911359Y-126203147D01*
X91911350Y-126203141D01*
X91729031Y-126110244D01*
X91534417Y-126047009D01*
X91332317Y-126015000D01*
X91127683Y-126015000D01*
X90925582Y-126047009D01*
X90730968Y-126110244D01*
X90548644Y-126203143D01*
X90504077Y-126235523D01*
X90504077Y-126235524D01*
X91183554Y-126915000D01*
X91177339Y-126915000D01*
X91075606Y-126942259D01*
X90984394Y-126994920D01*
X90909920Y-127069394D01*
X90857259Y-127160606D01*
X90830000Y-127262339D01*
X90830000Y-127268553D01*
X90150524Y-126589077D01*
X90150523Y-126589077D01*
X90118143Y-126633644D01*
X90070765Y-126726630D01*
X90022790Y-126777426D01*
X89954969Y-126794221D01*
X89888834Y-126771683D01*
X89849795Y-126726630D01*
X89841559Y-126710466D01*
X89802287Y-126633390D01*
X89802285Y-126633387D01*
X89802284Y-126633385D01*
X89681971Y-126467786D01*
X89537213Y-126323028D01*
X89371613Y-126202715D01*
X89371612Y-126202714D01*
X89371610Y-126202713D01*
X89303052Y-126167781D01*
X89189223Y-126109781D01*
X88994534Y-126046522D01*
X88819995Y-126018878D01*
X88792352Y-126014500D01*
X88587648Y-126014500D01*
X88563329Y-126018351D01*
X88385465Y-126046522D01*
X88190776Y-126109781D01*
X88008386Y-126202715D01*
X87842786Y-126323028D01*
X87698028Y-126467786D01*
X87577713Y-126633388D01*
X87530203Y-126726630D01*
X87482228Y-126777426D01*
X87414407Y-126794220D01*
X87348272Y-126771682D01*
X87309234Y-126726628D01*
X87261861Y-126633652D01*
X87229474Y-126589077D01*
X87229474Y-126589076D01*
X86550000Y-127268551D01*
X86550000Y-127262339D01*
X86522741Y-127160606D01*
X86470080Y-127069394D01*
X86395606Y-126994920D01*
X86304394Y-126942259D01*
X86202661Y-126915000D01*
X86196446Y-126915000D01*
X86875922Y-126235524D01*
X86875921Y-126235523D01*
X86831359Y-126203147D01*
X86831350Y-126203141D01*
X86649031Y-126110244D01*
X86454417Y-126047009D01*
X86252317Y-126015000D01*
X86047683Y-126015000D01*
X85845582Y-126047009D01*
X85650968Y-126110244D01*
X85468644Y-126203143D01*
X85424077Y-126235523D01*
X85424077Y-126235524D01*
X86103554Y-126915000D01*
X86097339Y-126915000D01*
X85995606Y-126942259D01*
X85904394Y-126994920D01*
X85829920Y-127069394D01*
X85777259Y-127160606D01*
X85750000Y-127262339D01*
X85750000Y-127268553D01*
X85070524Y-126589077D01*
X85070523Y-126589077D01*
X85038143Y-126633644D01*
X84990485Y-126727180D01*
X84942510Y-126777976D01*
X84874689Y-126794771D01*
X84808554Y-126772233D01*
X84769515Y-126727180D01*
X84721859Y-126633650D01*
X84689474Y-126589077D01*
X84689474Y-126589076D01*
X84010000Y-127268551D01*
X84010000Y-127262339D01*
X83982741Y-127160606D01*
X83930080Y-127069394D01*
X83855606Y-126994920D01*
X83764394Y-126942259D01*
X83662661Y-126915000D01*
X83656446Y-126915000D01*
X84335922Y-126235524D01*
X84335921Y-126235523D01*
X84291359Y-126203147D01*
X84291350Y-126203141D01*
X84109031Y-126110244D01*
X83914417Y-126047009D01*
X83712317Y-126015000D01*
X83507683Y-126015000D01*
X83305582Y-126047009D01*
X83110968Y-126110244D01*
X82928644Y-126203143D01*
X82884077Y-126235523D01*
X82884077Y-126235524D01*
X83563554Y-126915000D01*
X83557339Y-126915000D01*
X83455606Y-126942259D01*
X83364394Y-126994920D01*
X83289920Y-127069394D01*
X83237259Y-127160606D01*
X83210000Y-127262339D01*
X83210000Y-127268553D01*
X82530524Y-126589077D01*
X82530523Y-126589077D01*
X82498143Y-126633645D01*
X82498141Y-126633648D01*
X82450763Y-126726632D01*
X82402789Y-126777427D01*
X82334967Y-126794222D01*
X82268833Y-126771684D01*
X82229794Y-126726630D01*
X82182285Y-126633388D01*
X82061970Y-126467786D01*
X81917212Y-126323028D01*
X81751612Y-126202715D01*
X81751611Y-126202714D01*
X81751609Y-126202713D01*
X81683051Y-126167781D01*
X81569222Y-126109781D01*
X81374533Y-126046522D01*
X81199994Y-126018878D01*
X81172351Y-126014500D01*
X80967647Y-126014500D01*
X80943328Y-126018351D01*
X80765464Y-126046522D01*
X80570775Y-126109781D01*
X80388385Y-126202715D01*
X80222785Y-126323028D01*
X80078027Y-126467786D01*
X79957711Y-126633389D01*
X79957710Y-126633391D01*
X79910483Y-126726079D01*
X79862509Y-126776875D01*
X79794688Y-126793670D01*
X79728553Y-126771132D01*
X79689514Y-126726079D01*
X79683864Y-126714991D01*
X79642287Y-126633390D01*
X79642285Y-126633387D01*
X79642284Y-126633385D01*
X79521971Y-126467786D01*
X79377213Y-126323028D01*
X79211613Y-126202715D01*
X79211612Y-126202714D01*
X79211610Y-126202713D01*
X79143052Y-126167781D01*
X79029223Y-126109781D01*
X78834534Y-126046522D01*
X78659995Y-126018878D01*
X78632352Y-126014500D01*
X78427648Y-126014500D01*
X78403329Y-126018351D01*
X78225465Y-126046522D01*
X78030776Y-126109781D01*
X77848386Y-126202715D01*
X77682786Y-126323028D01*
X77538032Y-126467782D01*
X77538028Y-126467787D01*
X77469978Y-126561451D01*
X77414648Y-126604117D01*
X77345035Y-126610096D01*
X77283240Y-126577490D01*
X77251954Y-126527570D01*
X77224814Y-126445666D01*
X77132712Y-126296344D01*
X77008656Y-126172288D01*
X76859334Y-126080186D01*
X76692797Y-126025001D01*
X76692795Y-126025000D01*
X76590010Y-126014500D01*
X75389998Y-126014500D01*
X75389981Y-126014501D01*
X75287203Y-126025000D01*
X75287200Y-126025001D01*
X75120668Y-126080185D01*
X75120663Y-126080187D01*
X74971342Y-126172289D01*
X74847289Y-126296342D01*
X74755187Y-126445663D01*
X74755185Y-126445668D01*
X74747858Y-126467781D01*
X74700001Y-126612203D01*
X74700001Y-126612204D01*
X74700000Y-126612204D01*
X74689500Y-126714983D01*
X74689500Y-127915001D01*
X74689501Y-127915018D01*
X74700000Y-128017796D01*
X74700001Y-128017799D01*
X74755185Y-128184331D01*
X74755186Y-128184334D01*
X74847288Y-128333656D01*
X74971344Y-128457712D01*
X75120666Y-128549814D01*
X75287203Y-128604999D01*
X75389991Y-128615500D01*
X76590008Y-128615499D01*
X76692797Y-128604999D01*
X76859334Y-128549814D01*
X77008656Y-128457712D01*
X77132712Y-128333656D01*
X77224814Y-128184334D01*
X77251955Y-128102427D01*
X77291726Y-128044984D01*
X77356242Y-128018161D01*
X77425018Y-128030476D01*
X77469977Y-128068547D01*
X77503160Y-128114219D01*
X77538034Y-128162219D01*
X77682786Y-128306971D01*
X77837460Y-128419346D01*
X77848390Y-128427287D01*
X77958088Y-128483181D01*
X78030776Y-128520218D01*
X78030778Y-128520218D01*
X78030781Y-128520220D01*
X78121856Y-128549812D01*
X78225465Y-128583477D01*
X78326557Y-128599488D01*
X78427648Y-128615500D01*
X78427649Y-128615500D01*
X78632351Y-128615500D01*
X78632352Y-128615500D01*
X78834534Y-128583477D01*
X79029219Y-128520220D01*
X79211610Y-128427287D01*
X79309048Y-128356495D01*
X79377213Y-128306971D01*
X79377215Y-128306968D01*
X79377219Y-128306966D01*
X79521966Y-128162219D01*
X79521968Y-128162215D01*
X79521971Y-128162213D01*
X79626894Y-128017797D01*
X79642287Y-127996610D01*
X79689515Y-127903919D01*
X79737488Y-127853125D01*
X79805309Y-127836329D01*
X79871444Y-127858866D01*
X79910484Y-127903920D01*
X79957584Y-127996359D01*
X79957714Y-127996613D01*
X80078027Y-128162213D01*
X80078033Y-128162219D01*
X80222780Y-128306966D01*
X80388389Y-128427287D01*
X80388393Y-128427289D01*
X80392331Y-128430150D01*
X80391110Y-128431829D01*
X80432154Y-128477177D01*
X80443239Y-128525610D01*
X80443902Y-128525545D01*
X80444413Y-128530741D01*
X80444499Y-128531114D01*
X80444499Y-128531610D01*
X80468534Y-128652443D01*
X80468539Y-128652460D01*
X80515684Y-128766280D01*
X80515689Y-128766289D01*
X80524343Y-128779239D01*
X80532592Y-128791584D01*
X80584141Y-128868732D01*
X80671266Y-128955857D01*
X80671268Y-128955858D01*
X80681946Y-128966536D01*
X81503228Y-129787819D01*
X81536713Y-129849142D01*
X81531729Y-129918834D01*
X81489857Y-129974767D01*
X81424393Y-129999184D01*
X81415547Y-129999500D01*
X68003246Y-129999500D01*
X67996756Y-129999330D01*
X67993970Y-129999184D01*
X67987062Y-129998821D01*
X67719828Y-129984816D01*
X67712433Y-129984206D01*
X67650126Y-129977185D01*
X67644613Y-129976438D01*
X67402875Y-129938151D01*
X67394680Y-129936569D01*
X67339261Y-129923920D01*
X67334761Y-129922804D01*
X67091852Y-129857717D01*
X67082989Y-129854983D01*
X67040397Y-129840079D01*
X67036915Y-129838802D01*
X66790635Y-129744264D01*
X66781269Y-129740219D01*
X66760700Y-129730313D01*
X66758210Y-129729079D01*
X66506036Y-129600591D01*
X66494810Y-129594110D01*
X66242384Y-129430182D01*
X66231890Y-129422558D01*
X65997989Y-129233149D01*
X65988344Y-129224464D01*
X65775535Y-129011655D01*
X65766850Y-129002010D01*
X65577441Y-128768109D01*
X65569812Y-128757608D01*
X65501528Y-128652460D01*
X65405896Y-128505199D01*
X65399408Y-128493963D01*
X65270899Y-128241750D01*
X65269721Y-128239372D01*
X65259769Y-128218707D01*
X65255732Y-128209358D01*
X65161190Y-127963067D01*
X65159949Y-127959684D01*
X65145004Y-127916976D01*
X65142282Y-127908148D01*
X65077176Y-127665169D01*
X65076091Y-127660792D01*
X65063426Y-127605302D01*
X65061851Y-127597145D01*
X65023551Y-127355327D01*
X65022815Y-127349896D01*
X65015789Y-127287539D01*
X65015186Y-127280224D01*
X65001049Y-127010466D01*
X65000670Y-127003242D01*
X65000500Y-126996753D01*
X65000500Y-114331491D01*
X67499500Y-114331491D01*
X67499500Y-114668508D01*
X67537231Y-115003381D01*
X67537233Y-115003397D01*
X67612223Y-115331953D01*
X67612227Y-115331965D01*
X67723532Y-115650054D01*
X67869752Y-115953683D01*
X67869754Y-115953686D01*
X68049054Y-116239039D01*
X68080811Y-116278861D01*
X68256404Y-116499049D01*
X68259175Y-116502523D01*
X68497477Y-116740825D01*
X68760961Y-116950946D01*
X69046314Y-117130246D01*
X69349949Y-117276469D01*
X69588848Y-117360063D01*
X69668034Y-117387772D01*
X69668046Y-117387776D01*
X69996606Y-117462767D01*
X70331492Y-117500499D01*
X70331493Y-117500500D01*
X70331496Y-117500500D01*
X70668507Y-117500500D01*
X70668507Y-117500499D01*
X71003394Y-117462767D01*
X71331954Y-117387776D01*
X71650051Y-117276469D01*
X71953686Y-117130246D01*
X72239039Y-116950946D01*
X72502523Y-116740825D01*
X72740825Y-116502523D01*
X72950946Y-116239039D01*
X73130246Y-115953686D01*
X73276469Y-115650051D01*
X73387776Y-115331954D01*
X73462767Y-115003394D01*
X73498077Y-114690013D01*
X80670000Y-114690013D01*
X80670000Y-115090000D01*
X81586988Y-115090000D01*
X81554075Y-115147007D01*
X81520000Y-115274174D01*
X81520000Y-115405826D01*
X81554075Y-115532993D01*
X81586988Y-115590000D01*
X80670001Y-115590000D01*
X80670001Y-115989986D01*
X80680494Y-116092697D01*
X80735641Y-116259119D01*
X80735643Y-116259124D01*
X80827684Y-116408345D01*
X80951654Y-116532315D01*
X81100875Y-116624356D01*
X81100880Y-116624358D01*
X81267302Y-116679505D01*
X81267309Y-116679506D01*
X81370019Y-116689999D01*
X81769999Y-116689999D01*
X81770000Y-116689998D01*
X81770000Y-115773012D01*
X81827007Y-115805925D01*
X81954174Y-115840000D01*
X82085826Y-115840000D01*
X82212993Y-115805925D01*
X82270000Y-115773012D01*
X82270000Y-116689999D01*
X82669972Y-116689999D01*
X82669986Y-116689998D01*
X82772697Y-116679505D01*
X82939119Y-116624358D01*
X82939124Y-116624356D01*
X83088345Y-116532315D01*
X83212315Y-116408345D01*
X83304356Y-116259124D01*
X83304358Y-116259119D01*
X83359505Y-116092697D01*
X83359506Y-116092690D01*
X83369999Y-115989986D01*
X83370000Y-115989973D01*
X83370000Y-115590000D01*
X82453012Y-115590000D01*
X82485925Y-115532993D01*
X82520000Y-115405826D01*
X82520000Y-115274174D01*
X82485925Y-115147007D01*
X82453012Y-115090000D01*
X83369999Y-115090000D01*
X83369999Y-114749983D01*
X85719501Y-114749983D01*
X85719501Y-116050001D01*
X85719502Y-116050018D01*
X85730001Y-116152796D01*
X85730002Y-116152799D01*
X85781802Y-116309119D01*
X85785187Y-116319334D01*
X85877289Y-116468656D01*
X86001345Y-116592712D01*
X86150667Y-116684814D01*
X86317204Y-116739999D01*
X86419992Y-116750500D01*
X87720009Y-116750499D01*
X87822798Y-116739999D01*
X87989335Y-116684814D01*
X88138657Y-116592712D01*
X88262713Y-116468656D01*
X88354815Y-116319334D01*
X88410000Y-116152797D01*
X88420501Y-116050009D01*
X88420500Y-115389132D01*
X88420500Y-114749998D01*
X88420500Y-114749992D01*
X88420447Y-114749476D01*
X88420448Y-114749472D01*
X88420446Y-114749465D01*
X88419482Y-114740028D01*
X88419480Y-114740013D01*
X93390000Y-114740013D01*
X93390000Y-115140000D01*
X94306988Y-115140000D01*
X94274075Y-115197007D01*
X94240000Y-115324174D01*
X94240000Y-115455826D01*
X94274075Y-115582993D01*
X94306988Y-115640000D01*
X93390001Y-115640000D01*
X93390001Y-116039986D01*
X93400494Y-116142697D01*
X93455641Y-116309119D01*
X93455643Y-116309124D01*
X93547684Y-116458345D01*
X93671654Y-116582315D01*
X93820875Y-116674356D01*
X93820880Y-116674358D01*
X93987302Y-116729505D01*
X93987309Y-116729506D01*
X94090019Y-116739999D01*
X94489999Y-116739999D01*
X94490000Y-116739998D01*
X94490000Y-115823012D01*
X94547007Y-115855925D01*
X94674174Y-115890000D01*
X94805826Y-115890000D01*
X94932993Y-115855925D01*
X94990000Y-115823012D01*
X94990000Y-116739999D01*
X95389972Y-116739999D01*
X95389986Y-116739998D01*
X95492697Y-116729505D01*
X95659119Y-116674358D01*
X95659124Y-116674356D01*
X95808345Y-116582315D01*
X95932315Y-116458345D01*
X96024356Y-116309124D01*
X96024358Y-116309119D01*
X96079505Y-116142697D01*
X96079506Y-116142690D01*
X96089999Y-116039986D01*
X96090000Y-116039973D01*
X96090000Y-115640000D01*
X95173012Y-115640000D01*
X95205925Y-115582993D01*
X95240000Y-115455826D01*
X95240000Y-115324174D01*
X95205925Y-115197007D01*
X95173012Y-115140000D01*
X96089999Y-115140000D01*
X96089999Y-114740028D01*
X96089998Y-114740013D01*
X96079505Y-114637302D01*
X96024358Y-114470880D01*
X96024356Y-114470875D01*
X95932315Y-114321654D01*
X95808345Y-114197684D01*
X95659124Y-114105643D01*
X95659119Y-114105641D01*
X95492697Y-114050494D01*
X95492690Y-114050493D01*
X95389986Y-114040000D01*
X94990000Y-114040000D01*
X94990000Y-114956988D01*
X94932993Y-114924075D01*
X94805826Y-114890000D01*
X94674174Y-114890000D01*
X94547007Y-114924075D01*
X94490000Y-114956988D01*
X94490000Y-114040000D01*
X94090028Y-114040000D01*
X94090012Y-114040001D01*
X93987302Y-114050494D01*
X93820880Y-114105641D01*
X93820875Y-114105643D01*
X93671654Y-114197684D01*
X93547684Y-114321654D01*
X93455643Y-114470875D01*
X93455641Y-114470880D01*
X93400494Y-114637302D01*
X93400493Y-114637309D01*
X93390000Y-114740013D01*
X88419480Y-114740013D01*
X88410000Y-114647203D01*
X88354815Y-114480666D01*
X88262713Y-114331344D01*
X88138657Y-114207288D01*
X88006289Y-114125643D01*
X87989337Y-114115187D01*
X87989332Y-114115185D01*
X87960530Y-114105641D01*
X87822798Y-114060001D01*
X87822796Y-114060000D01*
X87720011Y-114049500D01*
X86419999Y-114049500D01*
X86419982Y-114049501D01*
X86317204Y-114060000D01*
X86317201Y-114060001D01*
X86150669Y-114115185D01*
X86150664Y-114115187D01*
X86001343Y-114207289D01*
X85877290Y-114331342D01*
X85785188Y-114480663D01*
X85785186Y-114480668D01*
X85785116Y-114480880D01*
X85730002Y-114647203D01*
X85730002Y-114647204D01*
X85730001Y-114647204D01*
X85719501Y-114749983D01*
X83369999Y-114749983D01*
X83369999Y-114690028D01*
X83369998Y-114690013D01*
X83359505Y-114587302D01*
X83304358Y-114420880D01*
X83304356Y-114420875D01*
X83212315Y-114271654D01*
X83088345Y-114147684D01*
X82939124Y-114055643D01*
X82939119Y-114055641D01*
X82772697Y-114000494D01*
X82772690Y-114000493D01*
X82669986Y-113990000D01*
X82270000Y-113990000D01*
X82270000Y-114906988D01*
X82212993Y-114874075D01*
X82085826Y-114840000D01*
X81954174Y-114840000D01*
X81827007Y-114874075D01*
X81770000Y-114906988D01*
X81770000Y-113990000D01*
X81370028Y-113990000D01*
X81370012Y-113990001D01*
X81267302Y-114000494D01*
X81100880Y-114055641D01*
X81100875Y-114055643D01*
X80951654Y-114147684D01*
X80827684Y-114271654D01*
X80735643Y-114420875D01*
X80735641Y-114420880D01*
X80680494Y-114587302D01*
X80680493Y-114587309D01*
X80670000Y-114690013D01*
X73498077Y-114690013D01*
X73500500Y-114668504D01*
X73500500Y-114331496D01*
X73462767Y-113996606D01*
X73387776Y-113668046D01*
X73276469Y-113349949D01*
X73130246Y-113046314D01*
X72950946Y-112760961D01*
X72740825Y-112497477D01*
X72502523Y-112259175D01*
X72239039Y-112049054D01*
X71953686Y-111869754D01*
X71953683Y-111869752D01*
X71650054Y-111723532D01*
X71331965Y-111612227D01*
X71331953Y-111612223D01*
X71003397Y-111537233D01*
X71003381Y-111537231D01*
X70668508Y-111499500D01*
X70668504Y-111499500D01*
X70331496Y-111499500D01*
X70331491Y-111499500D01*
X69996618Y-111537231D01*
X69996602Y-111537233D01*
X69668046Y-111612223D01*
X69668034Y-111612227D01*
X69349945Y-111723532D01*
X69046316Y-111869752D01*
X68760962Y-112049053D01*
X68497477Y-112259174D01*
X68259174Y-112497477D01*
X68049053Y-112760962D01*
X67869752Y-113046316D01*
X67723532Y-113349945D01*
X67612227Y-113668034D01*
X67612223Y-113668046D01*
X67537233Y-113996602D01*
X67537231Y-113996618D01*
X67499500Y-114331491D01*
X65000500Y-114331491D01*
X65000500Y-111803246D01*
X65000670Y-111796757D01*
X65001069Y-111789139D01*
X65015186Y-111519770D01*
X65015789Y-111512465D01*
X65022817Y-111450092D01*
X65023549Y-111444683D01*
X65061853Y-111202842D01*
X65063423Y-111194708D01*
X65076097Y-111139182D01*
X65077169Y-111134854D01*
X65142289Y-110891825D01*
X65144999Y-110883038D01*
X65159964Y-110840272D01*
X65161173Y-110836976D01*
X65255741Y-110590618D01*
X65259760Y-110581309D01*
X65269755Y-110560555D01*
X65270861Y-110558322D01*
X65399415Y-110306023D01*
X65405891Y-110294808D01*
X65569819Y-110042380D01*
X65577434Y-110031899D01*
X65766858Y-109797979D01*
X65775525Y-109788354D01*
X65988354Y-109575525D01*
X65997979Y-109566858D01*
X66231899Y-109377434D01*
X66242380Y-109369819D01*
X66494808Y-109205891D01*
X66506023Y-109199415D01*
X66758319Y-109070863D01*
X66760589Y-109069739D01*
X66781295Y-109059767D01*
X66790624Y-109055739D01*
X67036954Y-108961182D01*
X67040294Y-108959956D01*
X67083033Y-108945001D01*
X67091831Y-108942288D01*
X67334805Y-108877182D01*
X67339183Y-108876096D01*
X67394741Y-108863416D01*
X67402837Y-108861853D01*
X67644680Y-108823550D01*
X67650095Y-108822816D01*
X67712443Y-108815791D01*
X67719787Y-108815185D01*
X67996756Y-108800669D01*
X68003246Y-108800500D01*
X74000207Y-108800500D01*
X74000500Y-108800207D01*
X74000500Y-105118713D01*
X75749500Y-105118713D01*
X75749500Y-105331286D01*
X75782730Y-105541096D01*
X75782754Y-105541243D01*
X75831344Y-105690788D01*
X75848444Y-105743414D01*
X75944951Y-105932820D01*
X76069890Y-106104786D01*
X76220213Y-106255109D01*
X76392179Y-106380048D01*
X76392181Y-106380049D01*
X76392184Y-106380051D01*
X76581588Y-106476557D01*
X76783757Y-106542246D01*
X76993713Y-106575500D01*
X76993714Y-106575500D01*
X77206286Y-106575500D01*
X77206287Y-106575500D01*
X77416243Y-106542246D01*
X77618412Y-106476557D01*
X77807816Y-106380051D01*
X77857830Y-106343714D01*
X77979786Y-106255109D01*
X77979788Y-106255106D01*
X77979792Y-106255104D01*
X78130104Y-106104792D01*
X78130106Y-106104788D01*
X78130109Y-106104786D01*
X78255048Y-105932820D01*
X78255047Y-105932820D01*
X78255051Y-105932816D01*
X78351557Y-105743412D01*
X78417246Y-105541243D01*
X78450500Y-105331287D01*
X78450500Y-105118713D01*
X78417246Y-104908757D01*
X78392464Y-104832486D01*
X78954500Y-104832486D01*
X78954500Y-105017513D01*
X78983445Y-105200265D01*
X79040619Y-105376232D01*
X79040620Y-105376235D01*
X79124622Y-105541096D01*
X79233379Y-105690787D01*
X79364213Y-105821621D01*
X79513904Y-105930378D01*
X79594763Y-105971577D01*
X79678764Y-106014379D01*
X79678767Y-106014380D01*
X79766750Y-106042967D01*
X79854736Y-106071555D01*
X80037486Y-106100500D01*
X80037487Y-106100500D01*
X80222513Y-106100500D01*
X80222514Y-106100500D01*
X80405264Y-106071555D01*
X80581235Y-106014379D01*
X80746096Y-105930378D01*
X80895787Y-105821621D01*
X81026621Y-105690787D01*
X81135378Y-105541096D01*
X81219379Y-105376235D01*
X81276555Y-105200264D01*
X81305500Y-105017514D01*
X81305500Y-104832486D01*
X81276555Y-104649736D01*
X81219379Y-104473765D01*
X81219379Y-104473764D01*
X81135377Y-104308903D01*
X81026621Y-104159213D01*
X80895787Y-104028379D01*
X80746096Y-103919622D01*
X80721889Y-103907288D01*
X80581235Y-103835620D01*
X80581232Y-103835619D01*
X80405265Y-103778445D01*
X80288814Y-103760001D01*
X80222514Y-103749500D01*
X80037486Y-103749500D01*
X79976569Y-103759148D01*
X79854734Y-103778445D01*
X79678767Y-103835619D01*
X79678764Y-103835620D01*
X79513903Y-103919622D01*
X79439826Y-103973443D01*
X79364213Y-104028379D01*
X79364211Y-104028381D01*
X79364210Y-104028381D01*
X79233381Y-104159210D01*
X79233381Y-104159211D01*
X79233379Y-104159213D01*
X79217791Y-104180668D01*
X79124622Y-104308903D01*
X79040620Y-104473764D01*
X79040619Y-104473767D01*
X78983445Y-104649734D01*
X78954500Y-104832486D01*
X78392464Y-104832486D01*
X78351557Y-104706588D01*
X78255051Y-104517184D01*
X78255049Y-104517181D01*
X78255048Y-104517179D01*
X78130109Y-104345213D01*
X77979786Y-104194890D01*
X77807820Y-104069951D01*
X77618414Y-103973444D01*
X77618413Y-103973443D01*
X77618412Y-103973443D01*
X77416243Y-103907754D01*
X77416241Y-103907753D01*
X77416240Y-103907753D01*
X77254957Y-103882208D01*
X77206287Y-103874500D01*
X76993713Y-103874500D01*
X76945042Y-103882208D01*
X76783760Y-103907753D01*
X76581585Y-103973444D01*
X76392179Y-104069951D01*
X76220213Y-104194890D01*
X76069890Y-104345213D01*
X75944951Y-104517179D01*
X75848444Y-104706585D01*
X75782753Y-104908760D01*
X75749500Y-105118713D01*
X74000500Y-105118713D01*
X74000500Y-99668713D01*
X75749500Y-99668713D01*
X75749500Y-99881286D01*
X75782753Y-100091239D01*
X75848444Y-100293414D01*
X75944951Y-100482820D01*
X76069890Y-100654786D01*
X76220213Y-100805109D01*
X76392179Y-100930048D01*
X76392181Y-100930049D01*
X76392184Y-100930051D01*
X76581588Y-101026557D01*
X76783757Y-101092246D01*
X76993713Y-101125500D01*
X76993714Y-101125500D01*
X77206286Y-101125500D01*
X77206287Y-101125500D01*
X77416243Y-101092246D01*
X77618412Y-101026557D01*
X77807816Y-100930051D01*
X77829789Y-100914086D01*
X77979786Y-100805109D01*
X77979788Y-100805106D01*
X77979792Y-100805104D01*
X78130104Y-100654792D01*
X78130106Y-100654788D01*
X78130109Y-100654786D01*
X78255048Y-100482820D01*
X78255047Y-100482820D01*
X78255051Y-100482816D01*
X78351557Y-100293412D01*
X78417246Y-100091243D01*
X78434472Y-99982486D01*
X78954500Y-99982486D01*
X78954500Y-100167513D01*
X78983445Y-100350265D01*
X79040619Y-100526232D01*
X79040620Y-100526235D01*
X79106121Y-100654786D01*
X79124622Y-100691096D01*
X79233379Y-100840787D01*
X79364213Y-100971621D01*
X79513904Y-101080378D01*
X79555682Y-101101665D01*
X79678764Y-101164379D01*
X79678767Y-101164380D01*
X79765839Y-101192671D01*
X79854736Y-101221555D01*
X80037486Y-101250500D01*
X80037487Y-101250500D01*
X80222513Y-101250500D01*
X80222514Y-101250500D01*
X80405264Y-101221555D01*
X80581235Y-101164379D01*
X80746096Y-101080378D01*
X80895787Y-100971621D01*
X81026621Y-100840787D01*
X81135378Y-100691096D01*
X81219379Y-100526235D01*
X81276555Y-100350264D01*
X81305500Y-100167514D01*
X81305500Y-99982486D01*
X81276555Y-99799736D01*
X81247967Y-99711750D01*
X81219380Y-99623767D01*
X81219379Y-99623764D01*
X81176577Y-99539763D01*
X81135378Y-99458904D01*
X81026621Y-99309213D01*
X80895787Y-99178379D01*
X80746096Y-99069622D01*
X80730364Y-99061606D01*
X80581235Y-98985620D01*
X80581232Y-98985619D01*
X80405265Y-98928445D01*
X80313889Y-98913972D01*
X80222514Y-98899500D01*
X80037486Y-98899500D01*
X79976569Y-98909148D01*
X79854734Y-98928445D01*
X79678767Y-98985619D01*
X79678764Y-98985620D01*
X79513903Y-99069622D01*
X79428499Y-99131672D01*
X79364213Y-99178379D01*
X79364211Y-99178381D01*
X79364210Y-99178381D01*
X79233381Y-99309210D01*
X79233381Y-99309211D01*
X79233379Y-99309213D01*
X79221286Y-99325858D01*
X79124622Y-99458903D01*
X79040620Y-99623764D01*
X79040619Y-99623767D01*
X78983445Y-99799734D01*
X78954500Y-99982486D01*
X78434472Y-99982486D01*
X78450500Y-99881287D01*
X78450500Y-99668713D01*
X78417246Y-99458757D01*
X78351557Y-99256588D01*
X78255051Y-99067184D01*
X78255049Y-99067181D01*
X78255048Y-99067179D01*
X78130109Y-98895213D01*
X77979786Y-98744890D01*
X77807820Y-98619951D01*
X77618414Y-98523444D01*
X77618413Y-98523443D01*
X77618412Y-98523443D01*
X77416243Y-98457754D01*
X77416241Y-98457753D01*
X77416240Y-98457753D01*
X77254957Y-98432208D01*
X77206287Y-98424500D01*
X76993713Y-98424500D01*
X76945042Y-98432208D01*
X76783760Y-98457753D01*
X76581585Y-98523444D01*
X76392179Y-98619951D01*
X76220213Y-98744890D01*
X76069890Y-98895213D01*
X75944951Y-99067179D01*
X75848444Y-99256585D01*
X75782753Y-99458760D01*
X75749500Y-99668713D01*
X74000500Y-99668713D01*
X74000500Y-95999793D01*
X74000207Y-95999500D01*
X68003246Y-95999500D01*
X67996756Y-95999330D01*
X67719828Y-95984816D01*
X67712433Y-95984206D01*
X67650126Y-95977185D01*
X67644613Y-95976438D01*
X67402875Y-95938151D01*
X67394680Y-95936569D01*
X67339261Y-95923920D01*
X67334761Y-95922804D01*
X67091852Y-95857717D01*
X67082989Y-95854983D01*
X67040397Y-95840079D01*
X67036915Y-95838802D01*
X66790635Y-95744264D01*
X66781269Y-95740219D01*
X66760700Y-95730313D01*
X66758210Y-95729079D01*
X66506036Y-95600591D01*
X66494810Y-95594110D01*
X66242384Y-95430182D01*
X66231890Y-95422558D01*
X65997989Y-95233149D01*
X65988344Y-95224464D01*
X65775535Y-95011655D01*
X65766850Y-95002010D01*
X65577441Y-94768109D01*
X65569812Y-94757608D01*
X65405898Y-94505203D01*
X65399408Y-94493963D01*
X65333223Y-94364068D01*
X65270899Y-94241750D01*
X65269721Y-94239372D01*
X65259769Y-94218707D01*
X65255732Y-94209358D01*
X65161190Y-93963067D01*
X65159949Y-93959684D01*
X65145004Y-93916976D01*
X65142282Y-93908148D01*
X65077176Y-93665169D01*
X65076091Y-93660792D01*
X65063426Y-93605302D01*
X65061851Y-93597145D01*
X65023551Y-93355327D01*
X65022815Y-93349896D01*
X65015789Y-93287539D01*
X65015186Y-93280224D01*
X65000670Y-93003242D01*
X65000500Y-92996753D01*
X65000500Y-85331491D01*
X67499500Y-85331491D01*
X67499500Y-85668508D01*
X67537231Y-86003381D01*
X67537233Y-86003397D01*
X67612223Y-86331953D01*
X67612227Y-86331965D01*
X67723532Y-86650054D01*
X67869752Y-86953683D01*
X67869754Y-86953686D01*
X68049054Y-87239039D01*
X68259175Y-87502523D01*
X68497477Y-87740825D01*
X68760961Y-87950946D01*
X69046314Y-88130246D01*
X69349949Y-88276469D01*
X69588848Y-88360063D01*
X69668034Y-88387772D01*
X69668046Y-88387776D01*
X69996606Y-88462767D01*
X70331492Y-88500499D01*
X70331493Y-88500500D01*
X70331496Y-88500500D01*
X70668507Y-88500500D01*
X70668507Y-88500499D01*
X71003394Y-88462767D01*
X71331954Y-88387776D01*
X71650051Y-88276469D01*
X71953686Y-88130246D01*
X72239039Y-87950946D01*
X72493187Y-87748269D01*
X72557874Y-87721861D01*
X72626569Y-87734618D01*
X72677463Y-87782488D01*
X72694500Y-87845217D01*
X72694500Y-93451611D01*
X72718535Y-93572444D01*
X72718540Y-93572461D01*
X72765685Y-93686280D01*
X72765687Y-93686283D01*
X72765688Y-93686286D01*
X72799915Y-93737509D01*
X72834142Y-93788733D01*
X72921267Y-93875858D01*
X72921270Y-93875860D01*
X72928554Y-93883144D01*
X76801016Y-97755606D01*
X76801045Y-97755637D01*
X76891266Y-97845858D01*
X76921251Y-97865893D01*
X76959226Y-97891267D01*
X76993715Y-97914312D01*
X77060397Y-97941932D01*
X77064775Y-97943745D01*
X77064784Y-97943750D01*
X77102805Y-97959498D01*
X77107548Y-97961463D01*
X77167971Y-97973481D01*
X77228393Y-97985500D01*
X77228394Y-97985500D01*
X80909548Y-97985500D01*
X80976587Y-98005185D01*
X80997229Y-98021819D01*
X90048181Y-107072771D01*
X90081666Y-107134094D01*
X90084500Y-107160452D01*
X90084500Y-107649548D01*
X90064815Y-107716587D01*
X90048181Y-107737229D01*
X89722229Y-108063181D01*
X89660906Y-108096666D01*
X89634548Y-108099500D01*
X89581306Y-108099500D01*
X89407341Y-108134103D01*
X89407332Y-108134106D01*
X89243459Y-108201983D01*
X89243446Y-108201990D01*
X89095965Y-108300535D01*
X89095961Y-108300538D01*
X88970538Y-108425961D01*
X88970535Y-108425965D01*
X88871990Y-108573446D01*
X88871983Y-108573459D01*
X88804106Y-108737332D01*
X88804103Y-108737341D01*
X88769500Y-108911304D01*
X88769500Y-109088695D01*
X88804103Y-109262658D01*
X88804106Y-109262667D01*
X88871983Y-109426540D01*
X88871990Y-109426553D01*
X88970535Y-109574034D01*
X88970538Y-109574038D01*
X89095961Y-109699461D01*
X89095965Y-109699464D01*
X89243446Y-109798009D01*
X89243459Y-109798016D01*
X89366363Y-109848923D01*
X89407334Y-109865894D01*
X89407336Y-109865894D01*
X89407341Y-109865896D01*
X89581304Y-109900499D01*
X89581307Y-109900500D01*
X89581309Y-109900500D01*
X89758693Y-109900500D01*
X89758694Y-109900499D01*
X89816682Y-109888964D01*
X89932658Y-109865896D01*
X89932661Y-109865894D01*
X89932666Y-109865894D01*
X90096547Y-109798013D01*
X90244035Y-109699464D01*
X90369464Y-109574035D01*
X90468013Y-109426547D01*
X90535894Y-109262666D01*
X90570500Y-109088691D01*
X90570500Y-109035451D01*
X90590185Y-108968412D01*
X90606815Y-108947774D01*
X90852318Y-108702270D01*
X90913641Y-108668786D01*
X90983333Y-108673770D01*
X91027680Y-108702271D01*
X91273181Y-108947771D01*
X91306666Y-109009094D01*
X91309500Y-109035452D01*
X91309500Y-109088695D01*
X91344103Y-109262658D01*
X91344106Y-109262667D01*
X91411983Y-109426540D01*
X91411990Y-109426553D01*
X91510535Y-109574034D01*
X91510538Y-109574038D01*
X91635961Y-109699461D01*
X91635965Y-109699464D01*
X91783446Y-109798009D01*
X91783459Y-109798016D01*
X91906363Y-109848923D01*
X91947334Y-109865894D01*
X91947336Y-109865894D01*
X91947341Y-109865896D01*
X92121304Y-109900499D01*
X92121307Y-109900500D01*
X92121309Y-109900500D01*
X92298693Y-109900500D01*
X92298694Y-109900499D01*
X92356682Y-109888964D01*
X92472658Y-109865896D01*
X92472661Y-109865894D01*
X92472666Y-109865894D01*
X92636547Y-109798013D01*
X92784035Y-109699464D01*
X92909464Y-109574035D01*
X93008013Y-109426547D01*
X93075894Y-109262666D01*
X93110500Y-109088691D01*
X93110500Y-108911309D01*
X93110500Y-108911306D01*
X93110499Y-108911304D01*
X93075896Y-108737341D01*
X93075893Y-108737332D01*
X93008016Y-108573459D01*
X93008009Y-108573446D01*
X92909464Y-108425965D01*
X92909461Y-108425961D01*
X92784038Y-108300538D01*
X92784034Y-108300535D01*
X92636553Y-108201990D01*
X92636540Y-108201983D01*
X92472667Y-108134106D01*
X92472658Y-108134103D01*
X92298694Y-108099500D01*
X92298691Y-108099500D01*
X92245453Y-108099500D01*
X92178414Y-108079815D01*
X92157772Y-108063181D01*
X91871819Y-107777228D01*
X91838334Y-107715905D01*
X91835500Y-107689547D01*
X91835500Y-106578398D01*
X91835499Y-106578390D01*
X91835232Y-106577048D01*
X91834924Y-106575500D01*
X91811463Y-106457549D01*
X91808543Y-106450500D01*
X91791932Y-106410397D01*
X91764312Y-106343715D01*
X91747256Y-106318190D01*
X91695858Y-106241267D01*
X91695856Y-106241264D01*
X91605637Y-106151045D01*
X91605606Y-106151016D01*
X81973150Y-96518560D01*
X81965860Y-96511270D01*
X81965858Y-96511267D01*
X81878733Y-96424142D01*
X81827509Y-96389915D01*
X81776286Y-96355688D01*
X81755301Y-96346996D01*
X81690061Y-96319973D01*
X81690060Y-96319972D01*
X81681483Y-96316420D01*
X81662452Y-96308537D01*
X81571952Y-96290536D01*
X81569119Y-96289972D01*
X81569105Y-96289969D01*
X81541609Y-96284500D01*
X81541607Y-96284500D01*
X81541606Y-96284500D01*
X77860452Y-96284500D01*
X77793413Y-96264815D01*
X77772771Y-96248181D01*
X77286771Y-95762181D01*
X77253286Y-95700858D01*
X77258270Y-95631166D01*
X77300142Y-95575233D01*
X77365606Y-95550816D01*
X77374452Y-95550500D01*
X77433917Y-95550500D01*
X81977770Y-95550500D01*
X82044809Y-95570185D01*
X82065451Y-95586819D01*
X97818181Y-111339548D01*
X97851666Y-111400871D01*
X97854500Y-111427229D01*
X97854500Y-115773918D01*
X97854500Y-115773920D01*
X97854499Y-115773920D01*
X97883340Y-115918907D01*
X97883343Y-115918917D01*
X97939914Y-116055492D01*
X97972812Y-116104727D01*
X97972813Y-116104730D01*
X98022046Y-116178414D01*
X98022052Y-116178421D01*
X101273526Y-119429893D01*
X101307011Y-119491216D01*
X101308318Y-119536971D01*
X101299500Y-119592647D01*
X101299500Y-119797351D01*
X101331522Y-119999534D01*
X101394781Y-120194223D01*
X101440205Y-120283371D01*
X101487585Y-120376359D01*
X101487715Y-120376613D01*
X101608028Y-120542213D01*
X101608034Y-120542219D01*
X101752781Y-120686966D01*
X101798384Y-120720098D01*
X101841050Y-120775425D01*
X101849500Y-120820416D01*
X101849500Y-122379582D01*
X101829815Y-122446621D01*
X101798385Y-122479900D01*
X101752787Y-122513028D01*
X101752782Y-122513032D01*
X101608032Y-122657782D01*
X101608028Y-122657787D01*
X101574900Y-122703385D01*
X101519571Y-122746051D01*
X101474582Y-122754500D01*
X100447229Y-122754500D01*
X100380190Y-122734815D01*
X100359548Y-122718181D01*
X98828421Y-121187052D01*
X98828420Y-121187051D01*
X98709043Y-121107287D01*
X98709040Y-121107284D01*
X98705504Y-121104921D01*
X98705497Y-121104917D01*
X98705495Y-121104916D01*
X98568913Y-121048342D01*
X98568907Y-121048340D01*
X98423920Y-121019500D01*
X98423918Y-121019500D01*
X95751157Y-121019500D01*
X95684118Y-120999815D01*
X95638363Y-120947011D01*
X95628419Y-120877853D01*
X95657444Y-120814297D01*
X95678271Y-120795182D01*
X95827219Y-120686966D01*
X95971966Y-120542219D01*
X95971968Y-120542215D01*
X95971971Y-120542213D01*
X96024732Y-120469590D01*
X96092287Y-120376610D01*
X96185220Y-120194219D01*
X96248477Y-119999534D01*
X96280500Y-119797352D01*
X96280500Y-119592648D01*
X96272257Y-119540606D01*
X96248477Y-119390465D01*
X96185218Y-119195776D01*
X96131559Y-119090466D01*
X96092287Y-119013390D01*
X96060092Y-118969077D01*
X95971971Y-118847786D01*
X95827213Y-118703028D01*
X95661613Y-118582715D01*
X95661612Y-118582714D01*
X95661610Y-118582713D01*
X95591378Y-118546928D01*
X95479223Y-118489781D01*
X95284534Y-118426522D01*
X95109995Y-118398878D01*
X95082352Y-118394500D01*
X94877648Y-118394500D01*
X94853329Y-118398351D01*
X94675465Y-118426522D01*
X94480776Y-118489781D01*
X94298386Y-118582715D01*
X94132786Y-118703028D01*
X93988028Y-118847786D01*
X93867715Y-119013386D01*
X93774781Y-119195776D01*
X93711522Y-119390465D01*
X93679500Y-119592648D01*
X93679500Y-119797351D01*
X93711522Y-119999534D01*
X93774781Y-120194223D01*
X93820205Y-120283371D01*
X93867585Y-120376359D01*
X93867715Y-120376613D01*
X93988028Y-120542213D01*
X93988034Y-120542219D01*
X94132781Y-120686966D01*
X94281728Y-120795182D01*
X94324394Y-120850511D01*
X94330373Y-120920125D01*
X94297768Y-120981920D01*
X94236929Y-121016277D01*
X94208843Y-121019500D01*
X92001157Y-121019500D01*
X91934118Y-120999815D01*
X91888363Y-120947011D01*
X91878419Y-120877853D01*
X91907444Y-120814297D01*
X91928271Y-120795182D01*
X92077219Y-120686966D01*
X92221966Y-120542219D01*
X92221968Y-120542215D01*
X92221971Y-120542213D01*
X92274732Y-120469590D01*
X92342287Y-120376610D01*
X92435220Y-120194219D01*
X92498477Y-119999534D01*
X92530500Y-119797352D01*
X92530500Y-119592648D01*
X92522257Y-119540606D01*
X92498477Y-119390465D01*
X92435218Y-119195776D01*
X92381559Y-119090466D01*
X92342287Y-119013390D01*
X92310092Y-118969077D01*
X92221971Y-118847786D01*
X92077213Y-118703028D01*
X91911613Y-118582715D01*
X91911612Y-118582714D01*
X91911610Y-118582713D01*
X91841378Y-118546928D01*
X91729223Y-118489781D01*
X91534534Y-118426522D01*
X91359995Y-118398878D01*
X91332352Y-118394500D01*
X91127648Y-118394500D01*
X91103329Y-118398351D01*
X90925465Y-118426522D01*
X90730776Y-118489781D01*
X90548386Y-118582715D01*
X90382786Y-118703028D01*
X90238028Y-118847786D01*
X90117713Y-119013388D01*
X90070203Y-119106630D01*
X90022228Y-119157426D01*
X89954407Y-119174220D01*
X89888272Y-119151682D01*
X89849234Y-119106628D01*
X89801861Y-119013652D01*
X89769474Y-118969077D01*
X89769474Y-118969076D01*
X89090000Y-119648551D01*
X89090000Y-119642339D01*
X89062741Y-119540606D01*
X89010080Y-119449394D01*
X88935606Y-119374920D01*
X88844394Y-119322259D01*
X88742661Y-119295000D01*
X88736446Y-119295000D01*
X89415922Y-118615524D01*
X89415921Y-118615523D01*
X89371359Y-118583147D01*
X89371350Y-118583141D01*
X89189031Y-118490244D01*
X88994417Y-118427009D01*
X88792317Y-118395000D01*
X88587683Y-118395000D01*
X88385582Y-118427009D01*
X88190968Y-118490244D01*
X88008644Y-118583143D01*
X87964077Y-118615523D01*
X87964077Y-118615524D01*
X88643554Y-119295000D01*
X88637339Y-119295000D01*
X88535606Y-119322259D01*
X88444394Y-119374920D01*
X88369920Y-119449394D01*
X88317259Y-119540606D01*
X88290000Y-119642339D01*
X88290000Y-119648553D01*
X87610524Y-118969077D01*
X87610523Y-118969077D01*
X87578143Y-119013644D01*
X87530485Y-119107180D01*
X87482510Y-119157976D01*
X87414689Y-119174771D01*
X87348554Y-119152233D01*
X87309515Y-119107180D01*
X87261859Y-119013650D01*
X87229474Y-118969077D01*
X87229474Y-118969076D01*
X86550000Y-119648551D01*
X86550000Y-119642339D01*
X86522741Y-119540606D01*
X86470080Y-119449394D01*
X86395606Y-119374920D01*
X86304394Y-119322259D01*
X86202661Y-119295000D01*
X86196446Y-119295000D01*
X86875922Y-118615524D01*
X86875921Y-118615523D01*
X86831359Y-118583147D01*
X86831350Y-118583141D01*
X86649031Y-118490244D01*
X86454417Y-118427009D01*
X86252317Y-118395000D01*
X86047683Y-118395000D01*
X85845582Y-118427009D01*
X85650968Y-118490244D01*
X85468644Y-118583143D01*
X85424077Y-118615523D01*
X85424077Y-118615524D01*
X86103554Y-119295000D01*
X86097339Y-119295000D01*
X85995606Y-119322259D01*
X85904394Y-119374920D01*
X85829920Y-119449394D01*
X85777259Y-119540606D01*
X85750000Y-119642339D01*
X85750000Y-119648553D01*
X85070524Y-118969077D01*
X85070523Y-118969077D01*
X85038143Y-119013644D01*
X84990765Y-119106630D01*
X84942790Y-119157426D01*
X84874969Y-119174221D01*
X84808834Y-119151683D01*
X84769795Y-119106630D01*
X84761559Y-119090466D01*
X84722287Y-119013390D01*
X84722285Y-119013387D01*
X84722284Y-119013385D01*
X84601971Y-118847786D01*
X84457213Y-118703028D01*
X84291613Y-118582715D01*
X84291612Y-118582714D01*
X84291610Y-118582713D01*
X84221378Y-118546928D01*
X84109223Y-118489781D01*
X83914534Y-118426522D01*
X83739995Y-118398878D01*
X83712352Y-118394500D01*
X83507648Y-118394500D01*
X83483329Y-118398351D01*
X83305465Y-118426522D01*
X83110776Y-118489781D01*
X82928386Y-118582715D01*
X82762786Y-118703028D01*
X82618028Y-118847786D01*
X82497713Y-119013388D01*
X82450203Y-119106630D01*
X82402228Y-119157426D01*
X82334407Y-119174220D01*
X82268272Y-119151682D01*
X82229234Y-119106628D01*
X82181861Y-119013652D01*
X82149474Y-118969077D01*
X82149474Y-118969076D01*
X81470000Y-119648551D01*
X81470000Y-119642339D01*
X81442741Y-119540606D01*
X81390080Y-119449394D01*
X81315606Y-119374920D01*
X81224394Y-119322259D01*
X81122661Y-119295000D01*
X81116446Y-119295000D01*
X81795922Y-118615524D01*
X81795921Y-118615523D01*
X81751359Y-118583147D01*
X81751350Y-118583141D01*
X81569031Y-118490244D01*
X81374417Y-118427009D01*
X81172317Y-118395000D01*
X80967683Y-118395000D01*
X80765582Y-118427009D01*
X80570968Y-118490244D01*
X80388644Y-118583143D01*
X80344077Y-118615523D01*
X80344077Y-118615524D01*
X81023554Y-119295000D01*
X81017339Y-119295000D01*
X80915606Y-119322259D01*
X80824394Y-119374920D01*
X80749920Y-119449394D01*
X80697259Y-119540606D01*
X80670000Y-119642339D01*
X80670000Y-119648553D01*
X79990524Y-118969077D01*
X79990523Y-118969077D01*
X79958143Y-119013644D01*
X79910485Y-119107180D01*
X79862510Y-119157976D01*
X79794689Y-119174771D01*
X79728554Y-119152233D01*
X79689515Y-119107180D01*
X79641859Y-119013650D01*
X79609474Y-118969077D01*
X79609474Y-118969076D01*
X78930000Y-119648551D01*
X78930000Y-119642339D01*
X78902741Y-119540606D01*
X78850080Y-119449394D01*
X78775606Y-119374920D01*
X78684394Y-119322259D01*
X78582661Y-119295000D01*
X78576446Y-119295000D01*
X79255922Y-118615524D01*
X79255921Y-118615523D01*
X79211359Y-118583147D01*
X79211350Y-118583141D01*
X79029031Y-118490244D01*
X78834417Y-118427009D01*
X78632317Y-118395000D01*
X78427683Y-118395000D01*
X78225582Y-118427009D01*
X78030968Y-118490244D01*
X77848644Y-118583143D01*
X77804077Y-118615523D01*
X77804077Y-118615524D01*
X78483554Y-119295000D01*
X78477339Y-119295000D01*
X78375606Y-119322259D01*
X78284394Y-119374920D01*
X78209920Y-119449394D01*
X78157259Y-119540606D01*
X78130000Y-119642339D01*
X78130000Y-119648553D01*
X77450524Y-118969077D01*
X77450523Y-118969077D01*
X77418143Y-119013644D01*
X77370765Y-119106630D01*
X77322790Y-119157426D01*
X77254969Y-119174221D01*
X77188834Y-119151683D01*
X77149795Y-119106630D01*
X77141559Y-119090466D01*
X77102287Y-119013390D01*
X77102285Y-119013387D01*
X77102284Y-119013385D01*
X76981971Y-118847786D01*
X76837213Y-118703028D01*
X76671613Y-118582715D01*
X76671612Y-118582714D01*
X76671610Y-118582713D01*
X76601378Y-118546928D01*
X76489223Y-118489781D01*
X76294534Y-118426522D01*
X76119995Y-118398878D01*
X76092352Y-118394500D01*
X75887648Y-118394500D01*
X75863329Y-118398351D01*
X75685465Y-118426522D01*
X75490776Y-118489781D01*
X75308386Y-118582715D01*
X75142786Y-118703028D01*
X74998028Y-118847786D01*
X74877715Y-119013386D01*
X74784781Y-119195776D01*
X74721522Y-119390465D01*
X74689500Y-119592648D01*
X74689500Y-119797351D01*
X74721522Y-119999534D01*
X74784781Y-120194223D01*
X74830205Y-120283371D01*
X74877585Y-120376359D01*
X74877715Y-120376613D01*
X74998028Y-120542213D01*
X74998034Y-120542219D01*
X75142781Y-120686966D01*
X75188384Y-120720098D01*
X75231050Y-120775425D01*
X75239500Y-120820416D01*
X75239500Y-121053918D01*
X75239500Y-121053920D01*
X75239499Y-121053920D01*
X75268340Y-121198907D01*
X75268343Y-121198917D01*
X75324914Y-121335492D01*
X75324915Y-121335494D01*
X75324916Y-121335495D01*
X75349320Y-121372019D01*
X75357812Y-121384727D01*
X75357813Y-121384730D01*
X75407046Y-121458414D01*
X75407052Y-121458421D01*
X75869562Y-121920930D01*
X76301584Y-122352952D01*
X76313548Y-122360946D01*
X76356485Y-122389636D01*
X76356495Y-122389641D01*
X76361092Y-122392713D01*
X76424505Y-122435084D01*
X76481080Y-122458518D01*
X76561088Y-122491659D01*
X76677241Y-122514763D01*
X76696468Y-122518587D01*
X76706081Y-122520500D01*
X76706082Y-122520500D01*
X76706083Y-122520500D01*
X76853918Y-122520500D01*
X93844411Y-122520500D01*
X93911450Y-122540185D01*
X93957205Y-122592989D01*
X93967149Y-122662147D01*
X93944729Y-122717385D01*
X93867715Y-122823386D01*
X93774781Y-123005776D01*
X93711522Y-123200465D01*
X93679500Y-123402648D01*
X93679500Y-123607351D01*
X93711522Y-123809534D01*
X93774781Y-124004223D01*
X93867715Y-124186613D01*
X93988028Y-124352213D01*
X94132786Y-124496971D01*
X94239568Y-124574551D01*
X94298390Y-124617287D01*
X94414607Y-124676503D01*
X94480776Y-124710218D01*
X94480778Y-124710218D01*
X94480781Y-124710220D01*
X94585137Y-124744127D01*
X94675465Y-124773477D01*
X94776557Y-124789488D01*
X94877648Y-124805500D01*
X94877649Y-124805500D01*
X95082351Y-124805500D01*
X95082352Y-124805500D01*
X95284534Y-124773477D01*
X95479219Y-124710220D01*
X95661610Y-124617287D01*
X95781619Y-124530096D01*
X95827213Y-124496971D01*
X95827215Y-124496968D01*
X95827219Y-124496966D01*
X95971966Y-124352219D01*
X95971968Y-124352215D01*
X95971971Y-124352213D01*
X96046404Y-124249763D01*
X96092287Y-124186610D01*
X96185220Y-124004219D01*
X96248477Y-123809534D01*
X96280500Y-123607352D01*
X96280500Y-123402648D01*
X96250172Y-123211167D01*
X96248477Y-123200465D01*
X96185218Y-123005776D01*
X96151503Y-122939607D01*
X96092287Y-122823390D01*
X96042236Y-122754500D01*
X96015271Y-122717385D01*
X95991791Y-122651579D01*
X96007617Y-122583525D01*
X96057723Y-122534830D01*
X96115589Y-122520500D01*
X97987770Y-122520500D01*
X98054809Y-122540185D01*
X98075451Y-122556819D01*
X99502049Y-123983416D01*
X99606584Y-124087951D01*
X99606587Y-124087953D01*
X99606588Y-124087954D01*
X99729503Y-124170083D01*
X99729506Y-124170085D01*
X99779665Y-124190861D01*
X99786080Y-124193518D01*
X99866088Y-124226659D01*
X99982241Y-124249763D01*
X100005380Y-124254365D01*
X100011081Y-124255500D01*
X100011082Y-124255500D01*
X100011083Y-124255500D01*
X100158918Y-124255500D01*
X101474582Y-124255500D01*
X101541621Y-124275185D01*
X101574900Y-124306615D01*
X101608028Y-124352212D01*
X101608032Y-124352217D01*
X101608034Y-124352219D01*
X101752781Y-124496966D01*
X101798384Y-124530098D01*
X101841050Y-124585425D01*
X101849500Y-124630416D01*
X101849500Y-126189582D01*
X101829815Y-126256621D01*
X101798385Y-126289900D01*
X101752787Y-126323028D01*
X101752782Y-126323032D01*
X101608028Y-126467786D01*
X101487715Y-126633386D01*
X101394781Y-126815776D01*
X101331522Y-127010465D01*
X101299500Y-127212648D01*
X101299500Y-127417351D01*
X101331522Y-127619534D01*
X101394781Y-127814223D01*
X101446135Y-127915009D01*
X101487585Y-127996359D01*
X101487715Y-127996613D01*
X101608028Y-128162213D01*
X101752786Y-128306971D01*
X101907460Y-128419346D01*
X101918390Y-128427287D01*
X102028088Y-128483181D01*
X102100776Y-128520218D01*
X102100778Y-128520218D01*
X102100781Y-128520220D01*
X102191856Y-128549812D01*
X102295465Y-128583477D01*
X102396557Y-128599488D01*
X102497648Y-128615500D01*
X102497649Y-128615500D01*
X102702351Y-128615500D01*
X102702352Y-128615500D01*
X102904534Y-128583477D01*
X103099219Y-128520220D01*
X103281610Y-128427287D01*
X103379048Y-128356495D01*
X103447213Y-128306971D01*
X103447215Y-128306968D01*
X103447219Y-128306966D01*
X103591966Y-128162219D01*
X103591968Y-128162215D01*
X103591971Y-128162213D01*
X103660021Y-128068548D01*
X103712287Y-127996610D01*
X103805220Y-127814219D01*
X103868477Y-127619534D01*
X103900500Y-127417352D01*
X103900500Y-127212648D01*
X103883265Y-127103832D01*
X103868477Y-127010465D01*
X103816038Y-126849075D01*
X103805220Y-126815781D01*
X103805218Y-126815778D01*
X103805218Y-126815776D01*
X103753865Y-126714991D01*
X103712287Y-126633390D01*
X103680092Y-126589077D01*
X103591971Y-126467786D01*
X103447217Y-126323032D01*
X103447212Y-126323028D01*
X103401615Y-126289900D01*
X103358949Y-126234571D01*
X103350500Y-126189582D01*
X103350500Y-124630416D01*
X103370185Y-124563377D01*
X103401613Y-124530099D01*
X103447219Y-124496966D01*
X103591966Y-124352219D01*
X103591968Y-124352215D01*
X103591971Y-124352213D01*
X103666404Y-124249763D01*
X103712287Y-124186610D01*
X103805220Y-124004219D01*
X103868477Y-123809534D01*
X103900500Y-123607352D01*
X103900500Y-123402648D01*
X103870172Y-123211167D01*
X103868477Y-123200465D01*
X103805218Y-123005776D01*
X103771503Y-122939607D01*
X103712287Y-122823390D01*
X103686666Y-122788125D01*
X103591971Y-122657786D01*
X103447217Y-122513032D01*
X103447212Y-122513028D01*
X103401615Y-122479900D01*
X103358949Y-122424571D01*
X103350500Y-122379582D01*
X103350500Y-120820416D01*
X103370185Y-120753377D01*
X103401613Y-120720099D01*
X103447219Y-120686966D01*
X103591966Y-120542219D01*
X103591968Y-120542215D01*
X103591971Y-120542213D01*
X103644732Y-120469590D01*
X103712287Y-120376610D01*
X103805220Y-120194219D01*
X103868477Y-119999534D01*
X103900500Y-119797352D01*
X103900500Y-119592648D01*
X103892257Y-119540606D01*
X103868477Y-119390465D01*
X103805218Y-119195776D01*
X103751559Y-119090466D01*
X103712287Y-119013390D01*
X103680092Y-118969077D01*
X103591971Y-118847786D01*
X103447213Y-118703028D01*
X103281613Y-118582715D01*
X103281612Y-118582714D01*
X103281610Y-118582713D01*
X103211378Y-118546928D01*
X103099223Y-118489781D01*
X102904534Y-118426522D01*
X102729995Y-118398878D01*
X102702352Y-118394500D01*
X102497648Y-118394500D01*
X102441971Y-118403318D01*
X102372678Y-118394363D01*
X102334893Y-118368526D01*
X99391819Y-115425451D01*
X99358334Y-115364128D01*
X99355500Y-115337770D01*
X99355500Y-110991081D01*
X99350785Y-110967381D01*
X99349763Y-110962241D01*
X99326659Y-110846088D01*
X99293518Y-110766080D01*
X99275774Y-110723241D01*
X99270085Y-110709506D01*
X99270083Y-110709503D01*
X99187954Y-110586588D01*
X99187953Y-110586587D01*
X99187951Y-110586584D01*
X99083416Y-110482049D01*
X95041365Y-106439998D01*
X82818421Y-94217052D01*
X82818414Y-94217046D01*
X82744729Y-94167812D01*
X82744729Y-94167813D01*
X82695491Y-94134913D01*
X82558917Y-94078343D01*
X82558907Y-94078340D01*
X82413920Y-94049500D01*
X82413918Y-94049500D01*
X77722229Y-94049500D01*
X77655190Y-94029815D01*
X77634548Y-94013181D01*
X75326819Y-91705451D01*
X75293334Y-91644128D01*
X75290500Y-91617770D01*
X75290500Y-88632229D01*
X75310185Y-88565190D01*
X75326819Y-88544548D01*
X76184548Y-87686819D01*
X76245871Y-87653334D01*
X76272229Y-87650500D01*
X77283920Y-87650500D01*
X77381462Y-87631096D01*
X77428913Y-87621658D01*
X77565495Y-87565084D01*
X77621672Y-87527548D01*
X77621672Y-87527547D01*
X77621674Y-87527547D01*
X77672309Y-87493714D01*
X77688416Y-87482952D01*
X78462951Y-86708416D01*
X78481211Y-86681088D01*
X78545084Y-86585495D01*
X78601658Y-86448913D01*
X78611478Y-86399547D01*
X78630500Y-86303920D01*
X78630500Y-86017534D01*
X78650185Y-85950495D01*
X78702989Y-85904740D01*
X78741897Y-85894176D01*
X78782797Y-85889999D01*
X78949334Y-85834814D01*
X79098656Y-85742712D01*
X79222712Y-85618656D01*
X79314814Y-85469334D01*
X79369999Y-85302797D01*
X79380500Y-85200009D01*
X79380499Y-85137305D01*
X79400183Y-85070269D01*
X79416818Y-85049626D01*
X79937037Y-84529408D01*
X79954075Y-84592993D01*
X80019901Y-84707007D01*
X80112993Y-84800099D01*
X80227007Y-84865925D01*
X80290590Y-84882962D01*
X79550893Y-85622658D01*
X79633828Y-85682914D01*
X79844197Y-85790102D01*
X80068752Y-85863065D01*
X80068751Y-85863065D01*
X80301948Y-85900000D01*
X80538052Y-85900000D01*
X80771247Y-85863065D01*
X80995802Y-85790102D01*
X81206163Y-85682918D01*
X81206169Y-85682914D01*
X81289104Y-85622658D01*
X81289105Y-85622658D01*
X80549408Y-84882962D01*
X80612993Y-84865925D01*
X80727007Y-84800099D01*
X80820099Y-84707007D01*
X80885925Y-84592993D01*
X80902962Y-84529409D01*
X81642657Y-85269104D01*
X81662404Y-85267550D01*
X81730781Y-85281914D01*
X81772452Y-85318283D01*
X81813305Y-85374513D01*
X81815483Y-85377510D01*
X81982490Y-85544517D01*
X82173567Y-85683343D01*
X82272991Y-85734002D01*
X82384003Y-85790566D01*
X82384005Y-85790566D01*
X82384008Y-85790568D01*
X82504412Y-85829689D01*
X82608631Y-85863553D01*
X82841903Y-85900500D01*
X82841908Y-85900500D01*
X83078097Y-85900500D01*
X83311368Y-85863553D01*
X83312870Y-85863065D01*
X83535992Y-85790568D01*
X83746433Y-85683343D01*
X83937510Y-85544517D01*
X84104517Y-85377510D01*
X84129682Y-85342872D01*
X84185011Y-85300207D01*
X84254625Y-85294228D01*
X84316420Y-85326833D01*
X84330318Y-85342873D01*
X84353305Y-85374513D01*
X84355483Y-85377510D01*
X84522490Y-85544517D01*
X84713567Y-85683343D01*
X84812991Y-85734002D01*
X84924003Y-85790566D01*
X84924005Y-85790566D01*
X84924008Y-85790568D01*
X85044412Y-85829689D01*
X85148631Y-85863553D01*
X85381903Y-85900500D01*
X85381908Y-85900500D01*
X85618097Y-85900500D01*
X85851368Y-85863553D01*
X85852870Y-85863065D01*
X86075992Y-85790568D01*
X86286433Y-85683343D01*
X86477510Y-85544517D01*
X86644517Y-85377510D01*
X86669682Y-85342872D01*
X86725011Y-85300207D01*
X86794625Y-85294228D01*
X86856420Y-85326833D01*
X86870318Y-85342873D01*
X86893305Y-85374513D01*
X86895483Y-85377510D01*
X87062490Y-85544517D01*
X87253567Y-85683343D01*
X87352991Y-85734002D01*
X87464003Y-85790566D01*
X87464005Y-85790566D01*
X87464008Y-85790568D01*
X87584412Y-85829689D01*
X87688631Y-85863553D01*
X87921903Y-85900500D01*
X87921908Y-85900500D01*
X88158097Y-85900500D01*
X88391368Y-85863553D01*
X88392870Y-85863065D01*
X88615992Y-85790568D01*
X88826433Y-85683343D01*
X89017510Y-85544517D01*
X89184517Y-85377510D01*
X89209682Y-85342872D01*
X89265011Y-85300207D01*
X89334625Y-85294228D01*
X89396420Y-85326833D01*
X89410318Y-85342873D01*
X89433305Y-85374513D01*
X89435483Y-85377510D01*
X89602490Y-85544517D01*
X89793567Y-85683343D01*
X89892991Y-85734002D01*
X90004003Y-85790566D01*
X90004005Y-85790566D01*
X90004008Y-85790568D01*
X90124412Y-85829689D01*
X90228631Y-85863553D01*
X90461903Y-85900500D01*
X90461908Y-85900500D01*
X90698097Y-85900500D01*
X90931368Y-85863553D01*
X90932870Y-85863065D01*
X91155992Y-85790568D01*
X91366433Y-85683343D01*
X91557510Y-85544517D01*
X91724517Y-85377510D01*
X91749682Y-85342872D01*
X91805011Y-85300207D01*
X91874625Y-85294228D01*
X91936420Y-85326833D01*
X91950318Y-85342873D01*
X91973305Y-85374513D01*
X91975483Y-85377510D01*
X92142490Y-85544517D01*
X92333567Y-85683343D01*
X92432991Y-85734002D01*
X92544003Y-85790566D01*
X92544005Y-85790566D01*
X92544008Y-85790568D01*
X92664412Y-85829689D01*
X92768631Y-85863553D01*
X93001903Y-85900500D01*
X93001908Y-85900500D01*
X93238097Y-85900500D01*
X93471368Y-85863553D01*
X93472870Y-85863065D01*
X93695992Y-85790568D01*
X93906433Y-85683343D01*
X94097510Y-85544517D01*
X94264517Y-85377510D01*
X94403343Y-85186433D01*
X94510568Y-84975992D01*
X94583553Y-84751368D01*
X94608637Y-84592993D01*
X94620500Y-84518097D01*
X94620500Y-84281902D01*
X94583553Y-84048631D01*
X94510566Y-83824003D01*
X94428373Y-83662691D01*
X94403343Y-83613567D01*
X94264517Y-83422490D01*
X94097510Y-83255483D01*
X94092847Y-83252095D01*
X94084230Y-83245834D01*
X94041566Y-83190503D01*
X94035588Y-83120890D01*
X94068196Y-83059095D01*
X94092016Y-83039983D01*
X94168656Y-82992712D01*
X94292712Y-82868656D01*
X94384814Y-82719334D01*
X94439999Y-82552797D01*
X94450500Y-82450009D01*
X94450499Y-81149992D01*
X94439999Y-81047203D01*
X94384814Y-80880666D01*
X94292712Y-80731344D01*
X94168656Y-80607288D01*
X94075888Y-80550069D01*
X94019336Y-80515187D01*
X94019331Y-80515185D01*
X94016654Y-80514298D01*
X93852797Y-80460001D01*
X93852795Y-80460000D01*
X93750010Y-80449500D01*
X92449998Y-80449500D01*
X92449981Y-80449501D01*
X92347203Y-80460000D01*
X92347200Y-80460001D01*
X92180668Y-80515185D01*
X92180663Y-80515187D01*
X92031342Y-80607289D01*
X91937681Y-80700951D01*
X91876358Y-80734436D01*
X91806666Y-80729452D01*
X91762319Y-80700951D01*
X91668657Y-80607289D01*
X91668656Y-80607288D01*
X91575888Y-80550069D01*
X91519336Y-80515187D01*
X91519331Y-80515185D01*
X91516654Y-80514298D01*
X91352797Y-80460001D01*
X91352795Y-80460000D01*
X91250010Y-80449500D01*
X89949998Y-80449500D01*
X89949981Y-80449501D01*
X89847203Y-80460000D01*
X89847200Y-80460001D01*
X89680668Y-80515185D01*
X89680663Y-80515187D01*
X89531342Y-80607289D01*
X89402681Y-80735951D01*
X89341358Y-80769436D01*
X89271666Y-80764452D01*
X89227319Y-80735951D01*
X89098657Y-80607289D01*
X89098656Y-80607288D01*
X89005888Y-80550069D01*
X88949336Y-80515187D01*
X88949331Y-80515185D01*
X88946654Y-80514298D01*
X88782797Y-80460001D01*
X88782795Y-80460000D01*
X88680010Y-80449500D01*
X87379998Y-80449500D01*
X87379981Y-80449501D01*
X87277203Y-80460000D01*
X87277200Y-80460001D01*
X87110668Y-80515185D01*
X87110663Y-80515187D01*
X86961342Y-80607289D01*
X86837289Y-80731342D01*
X86745187Y-80880663D01*
X86745186Y-80880666D01*
X86690001Y-81047203D01*
X86690001Y-81047204D01*
X86690000Y-81047204D01*
X86679500Y-81149983D01*
X86679500Y-82450001D01*
X86679501Y-82450018D01*
X86690000Y-82552796D01*
X86690001Y-82552799D01*
X86745185Y-82719331D01*
X86745187Y-82719336D01*
X86767845Y-82756070D01*
X86837288Y-82868656D01*
X86961344Y-82992712D01*
X87054204Y-83049988D01*
X87100928Y-83101934D01*
X87112151Y-83170897D01*
X87084308Y-83234979D01*
X87066003Y-83252095D01*
X87066195Y-83252319D01*
X87062487Y-83255485D01*
X86895484Y-83422488D01*
X86870318Y-83457127D01*
X86814987Y-83499792D01*
X86745374Y-83505771D01*
X86683579Y-83473165D01*
X86669682Y-83457127D01*
X86656634Y-83439168D01*
X86644517Y-83422490D01*
X86477510Y-83255483D01*
X86286433Y-83116657D01*
X86266899Y-83106704D01*
X86075996Y-83009433D01*
X85851368Y-82936446D01*
X85618097Y-82899500D01*
X85618092Y-82899500D01*
X85381908Y-82899500D01*
X85381903Y-82899500D01*
X85258898Y-82918982D01*
X85189604Y-82910027D01*
X85136152Y-82865031D01*
X85115513Y-82798280D01*
X85115500Y-82796509D01*
X85115500Y-82348394D01*
X85114377Y-82342750D01*
X85114376Y-82342744D01*
X85111024Y-82325894D01*
X85100685Y-82273914D01*
X85091463Y-82227548D01*
X85044311Y-82113714D01*
X85044310Y-82113713D01*
X85044307Y-82113707D01*
X84975859Y-82011268D01*
X84975858Y-82011267D01*
X84888733Y-81924142D01*
X84888732Y-81924141D01*
X83695859Y-80731269D01*
X83695858Y-80731267D01*
X83608733Y-80644142D01*
X83553577Y-80607288D01*
X83506286Y-80575688D01*
X83506287Y-80575688D01*
X83506285Y-80575687D01*
X83432835Y-80545264D01*
X83432833Y-80545263D01*
X83425792Y-80542347D01*
X83392452Y-80528537D01*
X83325330Y-80515186D01*
X83320874Y-80514299D01*
X83320868Y-80514298D01*
X83286319Y-80507426D01*
X83271607Y-80504500D01*
X83271606Y-80504500D01*
X76381607Y-80504500D01*
X76258393Y-80504500D01*
X76231531Y-80509843D01*
X76204669Y-80515186D01*
X76204668Y-80515185D01*
X76137552Y-80528535D01*
X76137545Y-80528537D01*
X76108817Y-80540437D01*
X76108811Y-80540439D01*
X76104207Y-80542347D01*
X76023714Y-80575688D01*
X75976423Y-80607288D01*
X75921267Y-80644142D01*
X75834142Y-80731267D01*
X74523710Y-82041698D01*
X74523701Y-82041707D01*
X74521270Y-82044139D01*
X74521267Y-82044142D01*
X74434142Y-82131267D01*
X74411142Y-82165689D01*
X74406287Y-82172953D01*
X74406283Y-82172959D01*
X74365690Y-82233710D01*
X74365690Y-82233711D01*
X74365688Y-82233714D01*
X74349037Y-82273914D01*
X74318538Y-82347544D01*
X74318535Y-82347556D01*
X74294500Y-82468389D01*
X74294500Y-85879547D01*
X74274815Y-85946586D01*
X74258181Y-85967228D01*
X73499744Y-86725664D01*
X73438421Y-86759149D01*
X73368729Y-86754165D01*
X73312796Y-86712293D01*
X73288379Y-86646829D01*
X73295021Y-86597030D01*
X73387776Y-86331954D01*
X73462767Y-86003394D01*
X73500500Y-85668504D01*
X73500500Y-85331496D01*
X73462767Y-84996606D01*
X73387776Y-84668046D01*
X73276469Y-84349949D01*
X73130246Y-84046314D01*
X72950946Y-83760961D01*
X72740825Y-83497477D01*
X72502523Y-83259175D01*
X72497893Y-83255483D01*
X72435606Y-83205811D01*
X72239039Y-83049054D01*
X71953686Y-82869754D01*
X71953683Y-82869752D01*
X71650054Y-82723532D01*
X71331965Y-82612227D01*
X71331953Y-82612223D01*
X71003397Y-82537233D01*
X71003381Y-82537231D01*
X70668508Y-82499500D01*
X70668504Y-82499500D01*
X70331496Y-82499500D01*
X70331491Y-82499500D01*
X69996618Y-82537231D01*
X69996602Y-82537233D01*
X69668046Y-82612223D01*
X69668034Y-82612227D01*
X69349945Y-82723532D01*
X69046316Y-82869752D01*
X68760962Y-83049053D01*
X68497477Y-83259174D01*
X68259174Y-83497477D01*
X68049053Y-83760962D01*
X67869752Y-84046316D01*
X67723532Y-84349945D01*
X67612227Y-84668034D01*
X67612223Y-84668046D01*
X67537233Y-84996602D01*
X67537231Y-84996618D01*
X67499500Y-85331491D01*
X65000500Y-85331491D01*
X65000500Y-82503245D01*
X65000670Y-82496756D01*
X65002157Y-82468389D01*
X65015185Y-82219783D01*
X65015790Y-82212449D01*
X65022816Y-82150097D01*
X65023549Y-82144684D01*
X65061853Y-81902842D01*
X65063423Y-81894708D01*
X65076097Y-81839182D01*
X65077169Y-81834854D01*
X65142289Y-81591825D01*
X65144999Y-81583038D01*
X65159964Y-81540272D01*
X65161173Y-81536976D01*
X65255741Y-81290618D01*
X65259760Y-81281309D01*
X65269755Y-81260555D01*
X65270861Y-81258322D01*
X65399415Y-81006023D01*
X65405891Y-80994808D01*
X65569819Y-80742380D01*
X65577434Y-80731899D01*
X65766858Y-80497979D01*
X65775525Y-80488354D01*
X65988354Y-80275525D01*
X65997979Y-80266858D01*
X66231899Y-80077434D01*
X66242380Y-80069819D01*
X66494808Y-79905891D01*
X66506023Y-79899415D01*
X66758319Y-79770863D01*
X66760589Y-79769739D01*
X66781295Y-79759767D01*
X66790624Y-79755739D01*
X67036954Y-79661182D01*
X67040294Y-79659956D01*
X67083033Y-79645001D01*
X67091831Y-79642288D01*
X67334805Y-79577182D01*
X67339183Y-79576096D01*
X67394741Y-79563416D01*
X67402837Y-79561853D01*
X67644680Y-79523550D01*
X67650095Y-79522816D01*
X67712443Y-79515791D01*
X67719787Y-79515185D01*
X67996756Y-79500669D01*
X68003246Y-79500500D01*
X131996754Y-79500500D01*
X132003243Y-79500669D01*
G37*
%TD.AperFunction*%
%TA.AperFunction,Conductor*%
G36*
X108444712Y-85166238D02*
G01*
X108496188Y-85213482D01*
X108507931Y-85239196D01*
X108547454Y-85360836D01*
X108623612Y-85510303D01*
X108633240Y-85529199D01*
X108744310Y-85682073D01*
X108877927Y-85815690D01*
X108983387Y-85892311D01*
X109026051Y-85947640D01*
X109034500Y-85992628D01*
X109034500Y-86399547D01*
X109014815Y-86466586D01*
X108998181Y-86487228D01*
X108632965Y-86852444D01*
X108321270Y-87164139D01*
X108321267Y-87164142D01*
X108289551Y-87195858D01*
X108234142Y-87251266D01*
X108204347Y-87295858D01*
X108204346Y-87295857D01*
X108165689Y-87353712D01*
X108165685Y-87353719D01*
X108147180Y-87398397D01*
X108147180Y-87398398D01*
X108118538Y-87467545D01*
X108118535Y-87467555D01*
X108094500Y-87588389D01*
X108094500Y-88136000D01*
X108074815Y-88203039D01*
X108022011Y-88248794D01*
X107970500Y-88260000D01*
X107680000Y-88260000D01*
X107680000Y-89176988D01*
X107622993Y-89144075D01*
X107495826Y-89110000D01*
X107364174Y-89110000D01*
X107237007Y-89144075D01*
X107180000Y-89176988D01*
X107180000Y-88260000D01*
X106889500Y-88260000D01*
X106880814Y-88257449D01*
X106871853Y-88258738D01*
X106847812Y-88247759D01*
X106822461Y-88240315D01*
X106816533Y-88233474D01*
X106808297Y-88229713D01*
X106794007Y-88207478D01*
X106776706Y-88187511D01*
X106774418Y-88176996D01*
X106770523Y-88170935D01*
X106765500Y-88136000D01*
X106765500Y-88020451D01*
X106785185Y-87953412D01*
X106801815Y-87932774D01*
X107518729Y-87215860D01*
X107518733Y-87215858D01*
X107605858Y-87128733D01*
X107674311Y-87026286D01*
X107721463Y-86912452D01*
X107745500Y-86791606D01*
X107745500Y-85992628D01*
X107765185Y-85925589D01*
X107796611Y-85892312D01*
X107902073Y-85815690D01*
X108035690Y-85682073D01*
X108146760Y-85529199D01*
X108232547Y-85360832D01*
X108272069Y-85239195D01*
X108311507Y-85181521D01*
X108375866Y-85154323D01*
X108444712Y-85166238D01*
G37*
%TD.AperFunction*%
%TD*%
D26*
X74000000Y-96000000D02*
X74000000Y-108800000D01*
X65000000Y-111800000D02*
G75*
G02*
X68000000Y-108800000I3000000J0D01*
G01*
X68000000Y-130000000D02*
G75*
G02*
X65000000Y-127000000I0J3000000D01*
G01*
X65000000Y-111800000D02*
X65000000Y-127000000D01*
X65000000Y-82500000D02*
X65000000Y-93000000D01*
X132000000Y-79500000D02*
G75*
G02*
X135000000Y-82500000I0J-3000000D01*
G01*
X68000000Y-96000000D02*
X74000000Y-96000000D01*
X68000000Y-96000000D02*
G75*
G02*
X65000000Y-93000000I0J3000000D01*
G01*
X132000000Y-79500000D02*
X68000000Y-79500000D01*
X135000000Y-82500000D02*
X135000000Y-130000000D01*
X135000000Y-130000000D02*
X68000000Y-130000000D01*
X74000000Y-108800000D02*
X68000000Y-108800000D01*
X65000000Y-82500000D02*
G75*
G02*
X68000000Y-79500000I3000000J0D01*
G01*
M02*
