%TF.GenerationSoftware,KiCad,Pcbnew,10.0.0-10.0.0~ubuntu24.04.1*%
%TF.CreationDate,2026-03-28T21:45:11+05:30*%
%TF.ProjectId,orbigator,6f726269-6761-4746-9f72-2e6b69636164,v2*%
%TF.SameCoordinates,PX3dfd240PY7bfa480*%
%TF.FileFunction,Copper,L1,Top*%
%TF.FilePolarity,Positive*%
%FSLAX46Y46*%
G04 Gerber Fmt 4.6, Leading zero omitted, Abs format (unit mm)*
G04 Created by KiCad (PCBNEW 10.0.0-10.0.0~ubuntu24.04.1) date 2026-03-28 21:45:11*
%MOMM*%
%LPD*%
G01*
G04 APERTURE LIST*
G04 Aperture macros list*
%AMRoundRect*
0 Rectangle with rounded corners*
0 $1 Rounding radius*
0 $2 $3 $4 $5 $6 $7 $8 $9 X,Y pos of 4 corners*
0 Add a 4 corners polygon primitive as box body*
4,1,4,$2,$3,$4,$5,$6,$7,$8,$9,$2,$3,0*
0 Add four circle primitives for the rounded corners*
1,1,$1+$1,$2,$3*
1,1,$1+$1,$4,$5*
1,1,$1+$1,$6,$7*
1,1,$1+$1,$8,$9*
0 Add four rect primitives between the rounded corners*
20,1,$1+$1,$2,$3,$4,$5,0*
20,1,$1+$1,$4,$5,$6,$7,0*
20,1,$1+$1,$6,$7,$8,$9,0*
20,1,$1+$1,$8,$9,$2,$3,0*%
%AMFreePoly0*
4,1,37,0.800000,0.796148,0.878414,0.796148,1.032228,0.765552,1.177117,0.705537,1.307515,0.618408,1.418408,0.507515,1.505537,0.377117,1.565552,0.232228,1.596148,0.078414,1.596148,-0.078414,1.565552,-0.232228,1.505537,-0.377117,1.418408,-0.507515,1.307515,-0.618408,1.177117,-0.705537,1.032228,-0.765552,0.878414,-0.796148,0.800000,-0.796148,0.800000,-0.800000,-1.400000,-0.800000,
-1.403843,-0.796157,-1.439018,-0.796157,-1.511114,-0.766294,-1.566294,-0.711114,-1.596157,-0.639018,-1.596157,-0.603843,-1.600000,-0.600000,-1.600000,0.600000,-1.596157,0.603843,-1.596157,0.639018,-1.566294,0.711114,-1.511114,0.766294,-1.439018,0.796157,-1.403843,0.796157,-1.400000,0.800000,0.800000,0.800000,0.800000,0.796148,0.800000,0.796148,$1*%
%AMFreePoly1*
4,1,37,1.403843,0.796157,1.439018,0.796157,1.511114,0.766294,1.566294,0.711114,1.596157,0.639018,1.596157,0.603843,1.600000,0.600000,1.600000,-0.600000,1.596157,-0.603843,1.596157,-0.639018,1.566294,-0.711114,1.511114,-0.766294,1.439018,-0.796157,1.403843,-0.796157,1.400000,-0.800000,-0.800000,-0.800000,-0.800000,-0.796148,-0.878414,-0.796148,-1.032228,-0.765552,-1.177117,-0.705537,
-1.307515,-0.618408,-1.418408,-0.507515,-1.505537,-0.377117,-1.565552,-0.232228,-1.596148,-0.078414,-1.596148,0.078414,-1.565552,0.232228,-1.505537,0.377117,-1.418408,0.507515,-1.307515,0.618408,-1.177117,0.705537,-1.032228,0.765552,-0.878414,0.796148,-0.800000,0.796148,-0.800000,0.800000,1.400000,0.800000,1.403843,0.796157,1.403843,0.796157,$1*%
%AMFreePoly2*
4,1,37,1.600000,0.796148,1.678414,0.796148,1.832228,0.765552,1.977117,0.705537,2.107515,0.618408,2.218408,0.507515,2.305537,0.377117,2.365552,0.232228,2.396148,0.078414,2.396148,-0.078414,2.365552,-0.232228,2.305537,-0.377117,2.218408,-0.507515,2.107515,-0.618408,1.977117,-0.705537,1.832228,-0.765552,1.678414,-0.796148,1.600000,-0.796148,1.600000,-0.800000,-0.600000,-0.800000,
-0.603843,-0.796157,-0.639018,-0.796157,-0.711114,-0.766294,-0.766294,-0.711114,-0.796157,-0.639018,-0.796157,-0.603843,-0.800000,-0.600000,-0.800000,0.600000,-0.796157,0.603843,-0.796157,0.639018,-0.766294,0.711114,-0.711114,0.766294,-0.639018,0.796157,-0.603843,0.796157,-0.600000,0.800000,1.600000,0.800000,1.600000,0.796148,1.600000,0.796148,$1*%
G04 Aperture macros list end*
%TA.AperFunction,ComponentPad*%
%ADD10RoundRect,0.250000X-0.600000X-0.600000X0.600000X-0.600000X0.600000X0.600000X-0.600000X0.600000X0*%
%TD*%
%TA.AperFunction,SMDPad,CuDef*%
%ADD11RoundRect,0.250000X-0.650000X1.000000X-0.650000X-1.000000X0.650000X-1.000000X0.650000X1.000000X0*%
%TD*%
%TA.AperFunction,SMDPad,CuDef*%
%ADD12RoundRect,0.250000X0.337500X0.475000X-0.337500X0.475000X-0.337500X-0.475000X0.337500X-0.475000X0*%
%TD*%
%TA.AperFunction,SMDPad,CuDef*%
%ADD13RoundRect,0.150000X-0.150000X0.825000X-0.150000X-0.825000X0.150000X-0.825000X0.150000X0.825000X0*%
%TD*%
%TA.AperFunction,SMDPad,CuDef*%
%ADD14RoundRect,0.250000X-0.337500X-0.475000X0.337500X-0.475000X0.337500X0.475000X-0.337500X0.475000X0*%
%TD*%
%TA.AperFunction,ComponentPad*%
%ADD15RoundRect,0.250000X0.750000X-0.750000X0.750000X0.750000X-0.750000X0.750000X-0.750000X-0.750000X0*%
%TD*%
%TA.AperFunction,ComponentPad*%
%ADD16C,2.000000*%
%TD*%
%TA.AperFunction,SMDPad,CuDef*%
%ADD17RoundRect,0.250000X-0.350000X-0.450000X0.350000X-0.450000X0.350000X0.450000X-0.350000X0.450000X0*%
%TD*%
%TA.AperFunction,ComponentPad*%
%ADD18RoundRect,0.235294X-0.564706X-0.864706X0.564706X-0.864706X0.564706X0.864706X-0.564706X0.864706X0*%
%TD*%
%TA.AperFunction,ComponentPad*%
%ADD19O,1.600000X2.200000*%
%TD*%
%TA.AperFunction,ComponentPad*%
%ADD20RoundRect,0.750000X0.500000X1.750000X-0.500000X1.750000X-0.500000X-1.750000X0.500000X-1.750000X0*%
%TD*%
%TA.AperFunction,ComponentPad*%
%ADD21RoundRect,0.750000X1.750000X0.500000X-1.750000X0.500000X-1.750000X-0.500000X1.750000X-0.500000X0*%
%TD*%
%TA.AperFunction,SMDPad,CuDef*%
%ADD22RoundRect,0.250000X-0.475000X0.337500X-0.475000X-0.337500X0.475000X-0.337500X0.475000X0.337500X0*%
%TD*%
%TA.AperFunction,ComponentPad*%
%ADD23RoundRect,0.250000X0.600000X-0.600000X0.600000X0.600000X-0.600000X0.600000X-0.600000X-0.600000X0*%
%TD*%
%TA.AperFunction,SMDPad,CuDef*%
%ADD24FreePoly0,90.000000*%
%TD*%
%TA.AperFunction,SMDPad,CuDef*%
%ADD25RoundRect,0.800000X0.000010X-0.800000X0.000010X0.800000X-0.000010X0.800000X-0.000010X-0.800000X0*%
%TD*%
%TA.AperFunction,SMDPad,CuDef*%
%ADD26FreePoly1,90.000000*%
%TD*%
%TA.AperFunction,SMDPad,CuDef*%
%ADD27RoundRect,0.800000X0.800000X0.000010X-0.800000X0.000010X-0.800000X-0.000010X0.800000X-0.000010X0*%
%TD*%
%TA.AperFunction,SMDPad,CuDef*%
%ADD28FreePoly2,0.000000*%
%TD*%
%TA.AperFunction,SMDPad,CuDef*%
%ADD29RoundRect,0.250000X0.550000X-1.500000X0.550000X1.500000X-0.550000X1.500000X-0.550000X-1.500000X0*%
%TD*%
%TA.AperFunction,SMDPad,CuDef*%
%ADD30RoundRect,0.150000X-0.825000X-0.150000X0.825000X-0.150000X0.825000X0.150000X-0.825000X0.150000X0*%
%TD*%
%TA.AperFunction,SMDPad,CuDef*%
%ADD31RoundRect,0.200000X-0.250000X-0.200000X0.250000X-0.200000X0.250000X0.200000X-0.250000X0.200000X0*%
%TD*%
%TA.AperFunction,ComponentPad*%
%ADD32C,5.000000*%
%TD*%
%TA.AperFunction,ComponentPad*%
%ADD33O,1.400000X2.400000*%
%TD*%
%TA.AperFunction,ComponentPad*%
%ADD34RoundRect,0.194444X0.505556X1.005556X-0.505556X1.005556X-0.505556X-1.005556X0.505556X-1.005556X0*%
%TD*%
%TA.AperFunction,ViaPad*%
%ADD35C,0.800000*%
%TD*%
%TA.AperFunction,Conductor*%
%ADD36C,0.500000*%
%TD*%
%TA.AperFunction,Conductor*%
%ADD37C,0.250000*%
%TD*%
%TA.AperFunction,Conductor*%
%ADD38C,1.000000*%
%TD*%
%TA.AperFunction,Profile*%
%ADD39C,0.050000*%
%TD*%
G04 APERTURE END LIST*
D10*
%TO.P,J5,1,Pin_1_1*%
%TO.N,Net-(J5-Pin_1)*%
X47570000Y40400000D03*
%TD*%
%TO.P,J1,1,Pin_1_1*%
%TO.N,Net-(J1-Pin_1)*%
X60070000Y40400000D03*
%TD*%
D11*
%TO.P,D1,1,K_1*%
%TO.N,/V_SYS*%
X54000000Y6800000D03*
%TO.P,D1,2,A_2*%
%TO.N,/5V0*%
X54000000Y2800000D03*
%TD*%
D10*
%TO.P,J10,1,Pin_1_1*%
%TO.N,Net-(J10-Pin_1)*%
X32270000Y40400000D03*
%TD*%
%TO.P,J30,1,Pin_1_1*%
%TO.N,/32k2*%
X49705000Y54200000D03*
%TD*%
%TO.P,J19,1,Pin_1_1*%
%TO.N,Net-(J19-Pin_1)*%
X47485000Y14600000D03*
%TD*%
%TO.P,J6,1,Pin_1_1*%
%TO.N,Net-(J6-Pin_1)*%
X45070000Y40400000D03*
%TD*%
%TO.P,J28,1,Pin_1_1*%
%TO.N,/INT2*%
X44625000Y54200000D03*
%TD*%
%TO.P,J20,1,Pin_1_1*%
%TO.N,Net-(J20-Pin_1)*%
X22115000Y14600000D03*
%TD*%
D12*
%TO.P,C6,1,+_1*%
%TO.N,/5V0*%
X35337500Y8300000D03*
%TO.P,C6,2,-_2*%
%TO.N,/GND*%
X33262500Y8300000D03*
%TD*%
D13*
%TO.P,U2,1*%
%TO.N,/DIR*%
X19610001Y9674999D03*
%TO.P,U2,2*%
%TO.N,/UART_TX*%
X18339999Y9675001D03*
%TO.P,U2,3*%
%TO.N,/MOT_DAT*%
X17070000Y9675000D03*
%TO.P,U2,4*%
%TO.N,/GND*%
X15800000Y9675001D03*
%TO.P,U2,5*%
X14530001Y9675001D03*
%TO.P,U2,6*%
%TO.N,unconnected-(U2-Pad6)*%
X13259999Y9675000D03*
%TO.P,U2,7,GND_7*%
%TO.N,/GND*%
X11990000Y9675000D03*
%TO.P,U2,8*%
%TO.N,unconnected-(U2-Pad8)*%
X11989999Y4725001D03*
%TO.P,U2,9*%
%TO.N,/GND*%
X13260001Y4724999D03*
%TO.P,U2,10*%
X14530000Y4725000D03*
%TO.P,U2,11*%
%TO.N,unconnected-(U2-Pad11)*%
X15800000Y4724999D03*
%TO.P,U2,12*%
%TO.N,/GND*%
X17069999Y4724999D03*
%TO.P,U2,13*%
X18340001Y4725000D03*
%TO.P,U2,14,VCC_14*%
%TO.N,/3V3*%
X19610000Y4725000D03*
%TD*%
D10*
%TO.P,J34,1,Pin_1_1*%
%TO.N,/GND*%
X17035000Y40400000D03*
%TD*%
D14*
%TO.P,C9,1,+_1*%
%TO.N,/3V3*%
X22462500Y2200000D03*
%TO.P,C9,2,-_2*%
%TO.N,/GND*%
X24537500Y2200000D03*
%TD*%
D15*
%TO.P,RTC1,1,Pin_1_1*%
%TO.N,/3V3*%
X34480000Y51300000D03*
D16*
%TO.P,RTC1,2,Pin_2_2*%
%TO.N,/GND*%
X37020000Y51300000D03*
%TO.P,RTC1,3,Pin_3_3*%
%TO.N,/SCL*%
X39560000Y51300000D03*
%TO.P,RTC1,4,Pin_4_4*%
%TO.N,/SDA*%
X42100000Y51300000D03*
%TO.P,RTC1,5,Pin_5_5*%
%TO.N,/INT2*%
X44640000Y51300000D03*
%TO.P,RTC1,6,Pin_6_6*%
%TO.N,/RST2*%
X47180000Y51300000D03*
%TO.P,RTC1,7,Pin_7_7*%
%TO.N,/32k2*%
X49720000Y51300000D03*
%TD*%
D17*
%TO.P,R5,1,+_1*%
%TO.N,/3V3*%
X13000000Y46900000D03*
%TO.P,R5,2,-_2*%
%TO.N,/INT*%
X15000000Y46900000D03*
%TD*%
D10*
%TO.P,J23,1,Pin_1_1*%
%TO.N,/3V3*%
X22085001Y40400000D03*
%TD*%
%TO.P,J36,1,Pin_1_1*%
%TO.N,/GND*%
X55075000Y40400000D03*
%TD*%
%TO.P,J25,1,Pin_1_1*%
%TO.N,/V_BUS*%
X11990001Y40400000D03*
%TD*%
%TO.P,J17,1,Pin_1_1*%
%TO.N,Net-(J17-Pin_1)*%
X52584999Y14600000D03*
%TD*%
%TO.P,J29,1,Pin_1_1*%
%TO.N,/RST2*%
X47165000Y54200000D03*
%TD*%
%TO.P,J11,1,Pin_1_1*%
%TO.N,Net-(J11-Pin_1)*%
X27070000Y40400000D03*
%TD*%
%TO.P,J8,1,Pin_1_1*%
%TO.N,Net-(J8-Pin_1)*%
X24570000Y40400000D03*
%TD*%
D17*
%TO.P,R3,1,+_1*%
%TO.N,/3V3*%
X22500000Y9700000D03*
%TO.P,R3,2,-_2*%
%TO.N,/SDA*%
X24500000Y9700000D03*
%TD*%
D18*
%TO.P,M1,1,Pin_1_1*%
%TO.N,/GND*%
X33000000Y3000000D03*
D19*
%TO.P,M1,2,Pin_2_2*%
%TO.N,/5V0*%
X35500000Y3000001D03*
%TO.P,M1,3,Pin_3_3*%
%TO.N,/MOT_DAT*%
X38000000Y3000000D03*
%TD*%
D10*
%TO.P,J3,1,Pin_1_1*%
%TO.N,Net-(J3-Pin_1)*%
X52584999Y40400000D03*
%TD*%
%TO.P,J16,1,Pin_1_1*%
%TO.N,Net-(J16-Pin_1)*%
X57685000Y14600000D03*
%TD*%
D20*
%TO.P,J27,1*%
%TO.N,/5V0*%
X59808000Y4842500D03*
%TO.P,J27,2*%
%TO.N,/GND*%
X65808000Y4842500D03*
D21*
%TO.P,J27,3*%
X62808000Y9542500D03*
%TD*%
D17*
%TO.P,R2,1,+_1*%
%TO.N,/3V3*%
X22500000Y7200000D03*
%TO.P,R2,2,-_2*%
%TO.N,/SCL*%
X24500000Y7200000D03*
%TD*%
D10*
%TO.P,J15,1,Pin_1_1*%
%TO.N,Net-(J15-Pin_1)*%
X60285001Y14600000D03*
%TD*%
D17*
%TO.P,R4,1,+_1*%
%TO.N,/3V3*%
X13000000Y50400000D03*
%TO.P,R4,2,-_2*%
%TO.N,/32k*%
X15000000Y50400000D03*
%TD*%
D22*
%TO.P,C3,1,+_1*%
%TO.N,/V_SYS*%
X50400000Y8037500D03*
%TO.P,C3,2,-_2*%
%TO.N,/GND*%
X50400000Y5962500D03*
%TD*%
D10*
%TO.P,J13,1,Pin_1_1*%
%TO.N,Net-(J13-Pin_1)*%
X19570000Y40400000D03*
%TD*%
D23*
%TO.P,J32,1,Pin_1_1*%
%TO.N,/GND*%
X64440000Y27500000D03*
%TD*%
D24*
%TO.P,U1,1,GPIO0_1*%
%TO.N,/UART_TX*%
X11970000Y17810000D03*
D25*
%TO.P,U1,2,GPIO1_2*%
%TO.N,/MOT_DAT*%
X14510000Y17810000D03*
D26*
%TO.P,U1,3,GND_3*%
%TO.N,/GND*%
X17050000Y17810000D03*
D25*
%TO.P,U1,4,GPIO2_4*%
%TO.N,/DIR*%
X19590000Y17810000D03*
%TO.P,U1,5,GPIO3_5*%
%TO.N,Net-(J20-Pin_1)*%
X22130000Y17810000D03*
%TO.P,U1,6,GPIO4_6*%
%TO.N,/SDA*%
X24670000Y17810000D03*
%TO.P,U1,7,GPIO5_7*%
%TO.N,/SCL*%
X27210000Y17810000D03*
D26*
%TO.P,U1,8,GND_8*%
%TO.N,/GND*%
X29750000Y17810000D03*
D25*
%TO.P,U1,9,GPIO6_9*%
%TO.N,/ENC_A*%
X32290000Y17810000D03*
%TO.P,U1,10,GPIO7_10*%
%TO.N,/ENC_B*%
X34830000Y17810000D03*
%TO.P,U1,11,GPIO8_11*%
%TO.N,/ENC_SW*%
X37370000Y17810000D03*
%TO.P,U1,12,GPIO9_12*%
%TO.N,/BAK_BTN*%
X39910000Y17810000D03*
D26*
%TO.P,U1,13,GND_13*%
%TO.N,/GND*%
X42450000Y17810000D03*
D25*
%TO.P,U1,14,GPIO10_14*%
%TO.N,/CNF_BTN*%
X44990000Y17810000D03*
%TO.P,U1,15,GPIO11_15*%
%TO.N,Net-(J19-Pin_1)*%
X47530000Y17810000D03*
%TO.P,U1,16,GPIO12_16*%
%TO.N,Net-(J18-Pin_1)*%
X50070000Y17810000D03*
%TO.P,U1,17,GPIO13_17*%
%TO.N,Net-(J17-Pin_1)*%
X52610000Y17810000D03*
D26*
%TO.P,U1,18,GND_18*%
%TO.N,/GND*%
X55150000Y17810000D03*
D25*
%TO.P,U1,19,GPIO14_19*%
%TO.N,Net-(J16-Pin_1)*%
X57690000Y17810000D03*
%TO.P,U1,20,GPIO15_20*%
%TO.N,Net-(J15-Pin_1)*%
X60230000Y17810000D03*
%TO.P,U1,21,GPIO16_21*%
%TO.N,Net-(J1-Pin_1)*%
X60230000Y37190000D03*
%TO.P,U1,22,GPIO17_22*%
%TO.N,Net-(J2-Pin_1)*%
X57690000Y37190000D03*
D24*
%TO.P,U1,23,GND_23*%
%TO.N,/GND*%
X55150000Y37190000D03*
D25*
%TO.P,U1,24,GPIO18_24*%
%TO.N,Net-(J3-Pin_1)*%
X52610000Y37190000D03*
%TO.P,U1,25,GPIO19_25*%
%TO.N,Net-(J4-Pin_1)*%
X50070000Y37190000D03*
%TO.P,U1,26,GPIO20_26*%
%TO.N,Net-(J5-Pin_1)*%
X47530000Y37190000D03*
%TO.P,U1,27,GPIO21_27*%
%TO.N,Net-(J6-Pin_1)*%
X44990000Y37190000D03*
D24*
%TO.P,U1,28,GND_28*%
%TO.N,/GND*%
X42450000Y37190000D03*
D25*
%TO.P,U1,29,GPIO22_29*%
%TO.N,Net-(J7-Pin_1)*%
X39910000Y37190000D03*
%TO.P,U1,30,RUN_30*%
%TO.N,Net-(J14-Pin_1)*%
X37370000Y37190000D03*
%TO.P,U1,31,GPIO26_ADC0_31*%
%TO.N,Net-(J9-Pin_1)*%
X34830000Y37190000D03*
%TO.P,U1,32,GPIO27_ADC1_32*%
%TO.N,Net-(J10-Pin_1)*%
X32290000Y37190000D03*
D24*
%TO.P,U1,33,AGND_33*%
%TO.N,/GND*%
X29750000Y37190000D03*
D25*
%TO.P,U1,34,GPIO28_ADC2_34*%
%TO.N,Net-(J11-Pin_1)*%
X27210000Y37190000D03*
%TO.P,U1,35,ADC_VREF_35*%
%TO.N,Net-(J8-Pin_1)*%
X24670000Y37190000D03*
%TO.P,U1,36,3V3_36*%
%TO.N,/3V3*%
X22130000Y37190000D03*
%TO.P,U1,37,3V3_EN_37*%
%TO.N,Net-(J13-Pin_1)*%
X19590000Y37190000D03*
D24*
%TO.P,U1,38,GND_38*%
%TO.N,/GND*%
X17050000Y37190000D03*
D25*
%TO.P,U1,39,VSYS_39*%
%TO.N,/V_SYS*%
X14510000Y37190000D03*
%TO.P,U1,40,VBUS_40*%
%TO.N,/V_BUS*%
X11970000Y37190000D03*
D27*
%TO.P,U1,D1,SWCLK_D1*%
%TO.N,Net-(J22-Pin_1)*%
X60800000Y24960000D03*
D28*
%TO.P,U1,D2,GND_D2*%
%TO.N,/GND*%
X60000000Y27500000D03*
D27*
%TO.P,U1,D3,SWDIO_D3*%
%TO.N,Net-(J21-Pin_1)*%
X60800000Y30040000D03*
%TD*%
D10*
%TO.P,J37,1,Pin_1_1*%
%TO.N,/GND*%
X42445000Y40390000D03*
%TD*%
D17*
%TO.P,R1,1,+_1*%
%TO.N,/3V3*%
X22500000Y4700000D03*
%TO.P,R1,2,-_2*%
%TO.N,/MOT_DAT*%
X24500000Y4700000D03*
%TD*%
D12*
%TO.P,C5,1,+_1*%
%TO.N,/3V3*%
X32037500Y44200000D03*
%TO.P,C5,2,-_2*%
%TO.N,/GND*%
X29962500Y44200000D03*
%TD*%
D29*
%TO.P,C8,1,+_1*%
%TO.N,/5V0*%
X45100000Y2800000D03*
%TO.P,C8,2,-_2*%
%TO.N,/GND*%
X45100000Y8400000D03*
%TD*%
D10*
%TO.P,J12,1,Pin_1_1*%
%TO.N,/GND*%
X29670000Y40399999D03*
%TD*%
D23*
%TO.P,J21,1,Pin_1_1*%
%TO.N,Net-(J21-Pin_1)*%
X64500000Y30040000D03*
%TD*%
D10*
%TO.P,J35,1,Pin_1_1*%
%TO.N,/GND*%
X55145000Y14590000D03*
%TD*%
D23*
%TO.P,J22,1,Pin_1_1*%
%TO.N,Net-(J22-Pin_1)*%
X64440000Y24960000D03*
%TD*%
D14*
%TO.P,C1,1,+_1*%
%TO.N,/3V3*%
X19462500Y44200000D03*
%TO.P,C1,2,-_2*%
%TO.N,/GND*%
X21537500Y44200000D03*
%TD*%
D30*
%TO.P,U4,1,32KHZ_1*%
%TO.N,/32k*%
X17525000Y49905000D03*
%TO.P,U4,2,VCC_2*%
%TO.N,/3V3*%
X17525000Y48635000D03*
%TO.P,U4,3,~{INT}/SQW_3*%
%TO.N,/INT*%
X17525000Y47365000D03*
%TO.P,U4,4,~{RST}_4*%
%TO.N,/RST*%
X17525000Y46095000D03*
%TO.P,U4,5,GND_5*%
%TO.N,/GND*%
X22475000Y46095000D03*
%TO.P,U4,6,VBAT_6*%
%TO.N,/VBAT*%
X22475000Y47365000D03*
%TO.P,U4,7,SDA_7*%
%TO.N,/SDA*%
X22475000Y48635000D03*
%TO.P,U4,8,SCL_8*%
%TO.N,/SCL*%
X22475000Y49905000D03*
%TD*%
D10*
%TO.P,J14,1,Pin_1_1*%
%TO.N,Net-(J14-Pin_1)*%
X37385000Y40400000D03*
%TD*%
%TO.P,J18,1,Pin_1_1*%
%TO.N,Net-(J18-Pin_1)*%
X50084999Y14600000D03*
%TD*%
D18*
%TO.P,M2,1,Pin_1_1*%
%TO.N,/GND*%
X33000000Y12100000D03*
D19*
%TO.P,M2,2,Pin_2_2*%
%TO.N,/5V0*%
X35500000Y12100001D03*
%TO.P,M2,3,Pin_3_3*%
%TO.N,/MOT_DAT*%
X38000000Y12100000D03*
%TD*%
D12*
%TO.P,C2,1,+_1*%
%TO.N,/VBAT*%
X27037500Y44200000D03*
%TO.P,C2,2,-_2*%
%TO.N,/GND*%
X24962500Y44200000D03*
%TD*%
D10*
%TO.P,J2,1,Pin_1_1*%
%TO.N,Net-(J2-Pin_1)*%
X57570000Y40400000D03*
%TD*%
%TO.P,J7,1,Pin_1_1*%
%TO.N,Net-(J7-Pin_1)*%
X39870000Y40400000D03*
%TD*%
D31*
%TO.P,Q1,1,G_1*%
%TO.N,/V_BUS*%
X53000000Y11950000D03*
%TO.P,Q1,2,S_2*%
%TO.N,/V_SYS*%
X53000000Y10050000D03*
%TO.P,Q1,3,D_3*%
%TO.N,/5V0*%
X55000000Y11000000D03*
%TD*%
D12*
%TO.P,C7,1,+_1*%
%TO.N,/5V0*%
X35337500Y6200000D03*
%TO.P,C7,2,-_2*%
%TO.N,/GND*%
X33262500Y6200000D03*
%TD*%
D10*
%TO.P,J9,1,Pin_1_1*%
%TO.N,Net-(J9-Pin_1)*%
X34770000Y40400000D03*
%TD*%
%TO.P,J24,1,Pin_1_1*%
%TO.N,/V_SYS*%
X14485000Y40400000D03*
%TD*%
%TO.P,J26,1,Pin_1_1*%
%TO.N,/GND*%
X42385000Y14600000D03*
%TD*%
%TO.P,J4,1,Pin_1_1*%
%TO.N,Net-(J4-Pin_1)*%
X50070000Y40400000D03*
%TD*%
D32*
%TO.P,DISP1,*%
%TO.N,*%
X64500000Y15500000D03*
X64500000Y44500000D03*
X5500000Y15500000D03*
X5500000Y44500000D03*
D33*
%TO.P,DISP1,1,CNF_BTN_1*%
%TO.N,/CNF_BTN*%
X54820000Y45600000D03*
%TO.P,DISP1,2,SDA_2*%
%TO.N,/SDA*%
X52280000Y45600000D03*
%TO.P,DISP1,3,SCL_3*%
%TO.N,/SCL*%
X49740000Y45600000D03*
%TO.P,DISP1,4,ENC_SW_4*%
%TO.N,/ENC_SW*%
X47200000Y45600000D03*
%TO.P,DISP1,5,ENC_A_5*%
%TO.N,/ENC_A*%
X44660000Y45600000D03*
%TO.P,DISP1,6,ENC_B_6*%
%TO.N,/ENC_B*%
X42120000Y45600000D03*
%TO.P,DISP1,7,BAK_BTN_7*%
%TO.N,/BAK_BTN*%
X39580000Y45600000D03*
%TO.P,DISP1,8,GND_8*%
%TO.N,/GND*%
X37040000Y45600000D03*
D34*
%TO.P,DISP1,9,VCC_9*%
%TO.N,/3V3*%
X34500000Y45600000D03*
%TD*%
D35*
%TO.N,/V_SYS*%
X50000000Y12800000D03*
%TO.N,/GND*%
X45100000Y10700000D03*
X24262500Y46095000D03*
X46800000Y9700000D03*
X31600000Y6000000D03*
X15800000Y7200000D03*
X31600000Y8200000D03*
X50400000Y4700000D03*
X29750000Y15000000D03*
X28700000Y45600000D03*
X43200000Y9700000D03*
X11990000Y7200000D03*
X26000000Y2200000D03*
X18300000Y7200000D03*
X14500000Y7200000D03*
X22500000Y44200000D03*
X24000000Y44200000D03*
X17050000Y20210000D03*
%TO.N,/MOT_DAT*%
X17070000Y14710000D03*
X26000000Y4700000D03*
X14500000Y15700000D03*
%TO.N,/SCL*%
X50000000Y32900000D03*
%TO.N,/SDA*%
X50000000Y34100000D03*
%TO.N,/V_BUS*%
X51600000Y11650000D03*
%TO.N,/ENC_A*%
X38500000Y32400000D03*
%TO.N,/ENC_B*%
X38500000Y30000000D03*
%TO.N,/ENC_SW*%
X38500000Y26000000D03*
%TO.N,/BAK_BTN*%
X38500000Y28700000D03*
%TO.N,/CNF_BTN*%
X53870000Y33990000D03*
%TO.N,/VBAT*%
X7600000Y9600000D03*
%TD*%
%TO.N,/V_SYS*%
D36*
X53000000Y10050000D02*
X50950000Y10050000D01*
X50950000Y10050000D02*
X50000000Y11000000D01*
X50000000Y11000000D02*
X50000000Y12800000D01*
%TO.N,/SCL*%
D37*
X50000000Y32900000D02*
X49700000Y33200000D01*
X49700000Y33200000D02*
X48500000Y33200000D01*
X48500000Y33200000D02*
X47400000Y34300000D01*
X47400000Y34300000D02*
X38900000Y34300000D01*
X38900000Y34300000D02*
X36700000Y32100000D01*
X36700000Y32100000D02*
X36700000Y26600000D01*
X36700000Y26600000D02*
X30300000Y20200000D01*
X30300000Y20200000D02*
X26800000Y20200000D01*
X26800000Y20200000D02*
X26200000Y19600000D01*
X26200000Y19600000D02*
X26200000Y18820000D01*
X26200000Y18820000D02*
X27210000Y17810000D01*
%TO.N,/SDA*%
X50000000Y34100000D02*
X49700000Y33800000D01*
X49700000Y33800000D02*
X48600000Y33800000D01*
X48600000Y33800000D02*
X47600000Y34800000D01*
X36200000Y32400000D02*
X36200000Y26800000D01*
X47600000Y34800000D02*
X38600000Y34800000D01*
X38600000Y34800000D02*
X36200000Y32400000D01*
X36200000Y26800000D02*
X30100000Y20700000D01*
X30100000Y20700000D02*
X26600000Y20700000D01*
X25700000Y18840000D02*
X24670000Y17810000D01*
X26600000Y20700000D02*
X25700000Y19800000D01*
X25700000Y19800000D02*
X25700000Y18840000D01*
%TO.N,/ENC_A*%
X38500000Y32400000D02*
X37900000Y32400000D01*
X37900000Y32400000D02*
X37200000Y31700000D01*
X37200000Y31700000D02*
X37200000Y25800000D01*
X37200000Y25800000D02*
X32290000Y20890000D01*
X32290000Y20890000D02*
X32290000Y17810000D01*
%TO.N,/ENC_B*%
X38500000Y30000000D02*
X38000000Y30000000D01*
X38000000Y30000000D02*
X37700000Y29700000D01*
X37700000Y29700000D02*
X37700000Y25600000D01*
X37700000Y25600000D02*
X34830000Y22730000D01*
X34830000Y22730000D02*
X34830000Y17810000D01*
%TO.N,/GND*%
D36*
X29962500Y44200000D02*
X29962500Y45137500D01*
X29962500Y45137500D02*
X29500000Y45600000D01*
X29500000Y45600000D02*
X28700000Y45600000D01*
%TO.N,/3V3*%
X34500000Y45600000D02*
X32600000Y45600000D01*
X32600000Y45600000D02*
X32037500Y45037500D01*
X32037500Y45037500D02*
X32037500Y44200000D01*
X34500000Y45600000D02*
X34500000Y43700000D01*
X34500000Y43700000D02*
X33300000Y42500000D01*
X33300000Y42500000D02*
X22130000Y42500000D01*
%TO.N,/VBAT*%
X19400000Y52100000D02*
X20000000Y51500000D01*
X11100000Y52100000D02*
X19400000Y52100000D01*
X9700000Y50700000D02*
X11100000Y52100000D01*
X9700000Y35700000D02*
X9700000Y50700000D01*
X11100000Y34300000D02*
X9700000Y35700000D01*
X20000000Y34300000D02*
X11100000Y34300000D01*
X28200000Y22600000D02*
X29200000Y23600000D01*
X11600000Y22600000D02*
X28200000Y22600000D01*
X7600000Y9600000D02*
X9100000Y11100000D01*
X29200000Y25100000D02*
X20000000Y34300000D01*
X29200000Y23600000D02*
X29200000Y25100000D01*
X9100000Y20100000D02*
X11600000Y22600000D01*
X9100000Y11100000D02*
X9100000Y20100000D01*
X20000000Y51500000D02*
X20000000Y48000000D01*
X20000000Y48000000D02*
X20635000Y47365000D01*
X20635000Y47365000D02*
X22475000Y47365000D01*
%TO.N,/3V3*%
X19462500Y42500000D02*
X15800000Y42500000D01*
X15800000Y42500000D02*
X13000000Y45300000D01*
X13000000Y45300000D02*
X13000000Y46900000D01*
X22130000Y42500000D02*
X19462500Y42500000D01*
X19462500Y42500000D02*
X19462500Y44200000D01*
%TO.N,Net-(J5-Pin_1)*%
D37*
X47530000Y40400000D02*
X47530000Y37190000D01*
%TO.N,Net-(J1-Pin_1)*%
X60230000Y37190000D02*
X60230000Y40400000D01*
%TO.N,/V_SYS*%
X14510000Y37190000D02*
X14510000Y40400000D01*
D36*
X53000000Y10050000D02*
X53000000Y9400000D01*
X54000000Y8400000D02*
X54000000Y6800000D01*
X52600000Y6800000D02*
X54000000Y6800000D01*
X53000000Y9400000D02*
X54000000Y8400000D01*
X51362500Y8037500D02*
X52600000Y6800000D01*
X50400000Y8037500D02*
X51362500Y8037500D01*
%TO.N,/5V0*%
D38*
X35500000Y3000001D02*
X35500000Y4600000D01*
X35500000Y12100001D02*
X35500000Y13400000D01*
X36400000Y14300000D02*
X39300000Y14300000D01*
X35500000Y4600000D02*
X35337500Y4762500D01*
X56742500Y4842500D02*
X56742500Y9957500D01*
X35500000Y12100001D02*
X35500000Y9800000D01*
X39300000Y14300000D02*
X40500000Y13100000D01*
X35337500Y9637500D02*
X35337500Y8300000D01*
X35337500Y6200000D02*
X35337500Y8300000D01*
X56742500Y3542500D02*
X56742500Y4842500D01*
X35500000Y9800000D02*
X35337500Y9637500D01*
X56742500Y4842500D02*
X59808000Y4842500D01*
X56000000Y2800000D02*
X56742500Y3542500D01*
X55000000Y11000000D02*
X55700000Y11000000D01*
X41700000Y2800000D02*
X54000000Y2800000D01*
X40500000Y4000000D02*
X41700000Y2800000D01*
X55700000Y11000000D02*
X56742500Y9957500D01*
X54000000Y2800000D02*
X56000000Y2800000D01*
X35500000Y13400000D02*
X36400000Y14300000D01*
X35337500Y4762500D02*
X35337500Y6200000D01*
X40500000Y13100000D02*
X40500000Y4000000D01*
%TO.N,Net-(J10-Pin_1)*%
D37*
X32290000Y40400000D02*
X32290000Y37190000D01*
%TO.N,/32k2*%
X49720000Y51300000D02*
X49720000Y54200000D01*
%TO.N,Net-(J19-Pin_1)*%
X47530000Y14600000D02*
X47530000Y17810000D01*
%TO.N,Net-(J6-Pin_1)*%
X44990000Y37190000D02*
X44990000Y40400000D01*
%TO.N,/INT2*%
X44640000Y51300000D02*
X44640000Y54200000D01*
%TO.N,Net-(J20-Pin_1)*%
X22130000Y17810000D02*
X22130000Y14630000D01*
%TO.N,/GND*%
D38*
X33062500Y6000000D02*
X31600000Y6000000D01*
D36*
X18340001Y4725000D02*
X17070000Y4725000D01*
D38*
X33000000Y12100000D02*
X33000000Y10000000D01*
D36*
X15800000Y9675001D02*
X15800000Y7200000D01*
X24262500Y46095000D02*
X22475000Y46095000D01*
X55150000Y37190000D02*
X55150000Y40400000D01*
X21537500Y44200000D02*
X22500000Y44200000D01*
D38*
X45100000Y8400000D02*
X43800000Y9700000D01*
X45100000Y8400000D02*
X46400000Y9700000D01*
D36*
X50400000Y5962500D02*
X50400000Y4700000D01*
X24537500Y2200000D02*
X26000000Y2200000D01*
D38*
X42450000Y17810000D02*
X42450000Y14665000D01*
D36*
X15800000Y7200000D02*
X18300000Y7200000D01*
X18340001Y7159999D02*
X18340001Y4725000D01*
X13260001Y4724999D02*
X14529999Y4724999D01*
X14530000Y4725000D02*
X14530000Y7170000D01*
D38*
X33162500Y8200000D02*
X31600000Y8200000D01*
X54200000Y42700000D02*
X55075000Y41825000D01*
D36*
X42450000Y40400000D02*
X42450000Y37190000D01*
D38*
X42445000Y41945000D02*
X43200000Y42700000D01*
X29750000Y17810000D02*
X29750000Y15000000D01*
X33262500Y4462500D02*
X33262500Y6200000D01*
X33262500Y8300000D02*
X33162500Y8200000D01*
X33262500Y6200000D02*
X33062500Y6000000D01*
D36*
X29750000Y37190000D02*
X29750000Y40400000D01*
D38*
X45100000Y8400000D02*
X45100000Y10700000D01*
X33000000Y3000000D02*
X33000000Y4200000D01*
D36*
X18300000Y7200000D02*
X18340001Y7159999D01*
D38*
X33262500Y9737500D02*
X33262500Y8300000D01*
D36*
X24962500Y44200000D02*
X24000000Y44200000D01*
D38*
X46400000Y9700000D02*
X46800000Y9700000D01*
D36*
X14500000Y7200000D02*
X15800000Y7200000D01*
X14530000Y7170000D02*
X14500000Y7200000D01*
X14530001Y9675001D02*
X15800000Y9675001D01*
X42450000Y17810000D02*
X42450000Y14600000D01*
D38*
X43800000Y9700000D02*
X43200000Y9700000D01*
D36*
X11990000Y7200000D02*
X12000000Y7200000D01*
D38*
X55075000Y41825000D02*
X55075000Y40400000D01*
X42445000Y40390000D02*
X42445000Y41945000D01*
D36*
X64500000Y27500000D02*
X60000000Y27500000D01*
D38*
X55150000Y17810000D02*
X55150000Y14595000D01*
D36*
X24962500Y45395000D02*
X24262500Y46095000D01*
D38*
X33262500Y6200000D02*
X33262500Y8300000D01*
D36*
X24962500Y44200000D02*
X24962500Y45395000D01*
X12000000Y7200000D02*
X14500000Y7200000D01*
D38*
X43200000Y42700000D02*
X54200000Y42700000D01*
D36*
X17050000Y40400000D02*
X17050000Y37190000D01*
X55150000Y17810000D02*
X55150000Y14600000D01*
X11990000Y9675000D02*
X11990000Y7200000D01*
D38*
X60000000Y27500000D02*
X64485000Y27500000D01*
X33000000Y10000000D02*
X33262500Y9737500D01*
X33000000Y4200000D02*
X33262500Y4462500D01*
X17050000Y17810000D02*
X17050000Y20210000D01*
%TO.N,/DIR*%
D37*
X19610001Y9674999D02*
X19610001Y17789999D01*
%TO.N,/UART_TX*%
X18339999Y9675001D02*
X18339999Y15165001D01*
X15300000Y14700000D02*
X12700000Y14700000D01*
X17805000Y15700000D02*
X16300000Y15700000D01*
X16300000Y15700000D02*
X15300000Y14700000D01*
X12700000Y14700000D02*
X11970000Y15430000D01*
X11970000Y15430000D02*
X11970000Y17810000D01*
X18339999Y15165001D02*
X17805000Y15700000D01*
%TO.N,/MOT_DAT*%
X14500000Y15700000D02*
X14500000Y17800000D01*
X17070000Y14710000D02*
X17070000Y9675000D01*
X26000000Y4700000D02*
X24500000Y4700000D01*
D36*
X38000000Y3000000D02*
X38000000Y1600000D01*
X37200000Y800000D02*
X31350000Y800000D01*
X31350000Y800000D02*
X27450000Y4700000D01*
X38000000Y1600000D02*
X37200000Y800000D01*
D38*
X38000000Y12100000D02*
X38000000Y3000000D01*
D36*
X27450000Y4700000D02*
X26000000Y4700000D01*
%TO.N,/3V3*%
X10200000Y19500000D02*
X12200000Y21500000D01*
X20900000Y2800000D02*
X20900000Y4700000D01*
X10200000Y3700000D02*
X10200000Y19500000D01*
X19610000Y4725000D02*
X19610000Y3110000D01*
X17525000Y48635000D02*
X13005000Y48635000D01*
X28700000Y21500000D02*
X30300000Y23100000D01*
X22130000Y40400000D02*
X22130000Y37190000D01*
X20900000Y4700000D02*
X19635000Y4700000D01*
X30300000Y23100000D02*
X30300000Y25500000D01*
X21500000Y2200000D02*
X20900000Y2800000D01*
X22500000Y9700000D02*
X22500000Y4700000D01*
X22130000Y33670000D02*
X22130000Y37190000D01*
X22462500Y2200000D02*
X21500000Y2200000D01*
X22130000Y42500000D02*
X22130000Y40400000D01*
X30300000Y25500000D02*
X22130000Y33670000D01*
X13000000Y48630000D02*
X13000000Y46900000D01*
X19610000Y3110000D02*
X19100000Y2600000D01*
X13005000Y48635000D02*
X13000000Y48630000D01*
X12200000Y21500000D02*
X28700000Y21500000D01*
X13000000Y50400000D02*
X13000000Y48630000D01*
X22500000Y4700000D02*
X20900000Y4700000D01*
X19100000Y2600000D02*
X11300000Y2600000D01*
X11300000Y2600000D02*
X10200000Y3700000D01*
%TO.N,/SCL*%
D37*
X25095000Y49905000D02*
X25500000Y49500000D01*
X40600000Y50260000D02*
X39560000Y51300000D01*
X40200000Y48700000D02*
X40600000Y49100000D01*
X26900000Y13600000D02*
X26200000Y14300000D01*
X31500000Y48700000D02*
X40200000Y48700000D01*
X26200000Y14300000D02*
X26200000Y16800000D01*
X26900000Y8700000D02*
X26900000Y13600000D01*
X25400000Y8100000D02*
X26300000Y8100000D01*
X26300000Y8100000D02*
X26900000Y8700000D01*
X40600000Y49100000D02*
X40600000Y50260000D01*
X22475000Y49905000D02*
X25095000Y49905000D01*
X30700000Y49500000D02*
X31500000Y48700000D01*
X24500000Y7200000D02*
X25400000Y8100000D01*
X25500000Y49500000D02*
X30700000Y49500000D01*
X26200000Y16800000D02*
X27210000Y17810000D01*
%TO.N,/SDA*%
X41100000Y50300000D02*
X42100000Y51300000D01*
X30500000Y49000000D02*
X31300000Y48200000D01*
X25500000Y8700000D02*
X26100000Y8700000D01*
X31300000Y48200000D02*
X40400000Y48200000D01*
X26400000Y13400000D02*
X25700000Y14100000D01*
X22475000Y48635000D02*
X25035000Y48635000D01*
X25400000Y49000000D02*
X30500000Y49000000D01*
X25700000Y16780000D02*
X24670000Y17810000D01*
X26400000Y9000000D02*
X26400000Y13400000D01*
X41100000Y48900000D02*
X41100000Y50300000D01*
X40400000Y48200000D02*
X41100000Y48900000D01*
X26100000Y8700000D02*
X26400000Y9000000D01*
X25700000Y14100000D02*
X25700000Y16780000D01*
X25035000Y48635000D02*
X25400000Y49000000D01*
X24500000Y9700000D02*
X25500000Y8700000D01*
%TO.N,/RST2*%
X47180000Y51300000D02*
X47180000Y54200000D01*
%TO.N,/INT*%
X16365000Y47365000D02*
X15900000Y46900000D01*
X15900000Y46900000D02*
X15000000Y46900000D01*
X17525000Y47365000D02*
X16365000Y47365000D01*
%TO.N,/V_BUS*%
D36*
X52300000Y11950000D02*
X53000000Y11950000D01*
X52000000Y11650000D02*
X52300000Y11950000D01*
D37*
X11970000Y40400000D02*
X11970000Y37190000D01*
D36*
X51600000Y11650000D02*
X52000000Y11650000D01*
%TO.N,Net-(J17-Pin_1)*%
D37*
X52610000Y14600000D02*
X52610000Y17810000D01*
%TO.N,Net-(J11-Pin_1)*%
X27210000Y40400000D02*
X27210000Y37190000D01*
%TO.N,Net-(J8-Pin_1)*%
X24670000Y37190000D02*
X24670000Y40400000D01*
%TO.N,Net-(J3-Pin_1)*%
X52610000Y40400000D02*
X52610000Y37190000D01*
%TO.N,Net-(J16-Pin_1)*%
X57690000Y14600000D02*
X57690000Y17810000D01*
%TO.N,Net-(J15-Pin_1)*%
X60230000Y17810000D02*
X60230000Y14600000D01*
%TO.N,/32k*%
X16295000Y49905000D02*
X17525000Y49905000D01*
X15000000Y50400000D02*
X15800000Y50400000D01*
X15800000Y50400000D02*
X16295000Y49905000D01*
%TO.N,Net-(J13-Pin_1)*%
X19590000Y37190000D02*
X19590000Y40400000D01*
%TO.N,/ENC_SW*%
X38500000Y25200000D02*
X37370000Y24070000D01*
X38500000Y26000000D02*
X38500000Y25200000D01*
X37370000Y24070000D02*
X37370000Y17810000D01*
%TO.N,/BAK_BTN*%
X38500000Y28700000D02*
X39000000Y28700000D01*
X39400000Y28300000D02*
X39400000Y18320000D01*
X39000000Y28700000D02*
X39400000Y28300000D01*
X39400000Y18320000D02*
X39910000Y17810000D01*
%TO.N,/CNF_BTN*%
X53870000Y29440000D02*
X53870000Y33990000D01*
X44990000Y20560000D02*
X53870000Y29440000D01*
X44990000Y17810000D02*
X44990000Y20560000D01*
%TO.N,Net-(J18-Pin_1)*%
X50070000Y17810000D02*
X50070000Y14600000D01*
%TO.N,Net-(J2-Pin_1)*%
X57690000Y40400000D02*
X57690000Y37190000D01*
%TO.N,Net-(J4-Pin_1)*%
X50070000Y37190000D02*
X50070000Y40400000D01*
%TO.N,Net-(J7-Pin_1)*%
X39910000Y37190000D02*
X39910000Y40400000D01*
%TO.N,Net-(J14-Pin_1)*%
X37370000Y40400000D02*
X37370000Y37190000D01*
%TO.N,Net-(J9-Pin_1)*%
X34830000Y37190000D02*
X34830000Y40400000D01*
%TO.N,Net-(J22-Pin_1)*%
X60000000Y24960000D02*
X64485000Y24960000D01*
%TO.N,Net-(J21-Pin_1)*%
X60000000Y30040000D02*
X64500000Y30040000D01*
%TO.N,/VBAT*%
D36*
X27037500Y44200000D02*
X27037500Y46162500D01*
X27037500Y46162500D02*
X25835000Y47365000D01*
X25835000Y47365000D02*
X22475000Y47365000D01*
%TD*%
%TA.AperFunction,Conductor*%
%TO.N,/GND*%
G36*
X26052606Y37994977D02*
G01*
X26067604Y37990573D01*
X26126355Y37952828D01*
X26127542Y37951459D01*
X26147407Y37907996D01*
X26150863Y37909092D01*
X26153695Y37900165D01*
X26155082Y37891206D01*
X26156587Y37887913D01*
X26156108Y37884577D01*
X26159500Y37862669D01*
X26159500Y36338396D01*
X26171659Y36214934D01*
X26174699Y36184067D01*
X26177209Y36175369D01*
X26177750Y36174011D01*
X26234768Y35986046D01*
X26332315Y35803550D01*
X26332316Y35803549D01*
X26332318Y35803546D01*
X26334130Y35801102D01*
X26336182Y35798838D01*
X26463589Y35643590D01*
X26507021Y35607947D01*
X26623546Y35512318D01*
X26623549Y35512316D01*
X26623555Y35512311D01*
X26747915Y35445840D01*
X26806046Y35414768D01*
X26911463Y35382791D01*
X26945529Y35360466D01*
X27004065Y35354701D01*
X27004066Y35354700D01*
X27004065Y35354700D01*
X27042647Y35350900D01*
X27158392Y35339500D01*
X27158395Y35339500D01*
X27261605Y35339500D01*
X27261608Y35339500D01*
X27415934Y35354700D01*
X27613954Y35414768D01*
X27796450Y35512315D01*
X27956410Y35643590D01*
X28087685Y35803550D01*
X28185232Y35986046D01*
X28197165Y36025387D01*
X28219727Y36059817D01*
X28238536Y36088797D01*
X28302220Y36117537D01*
X28371334Y36107285D01*
X28423933Y36061295D01*
X28438451Y36029125D01*
X28440132Y36023304D01*
X28445000Y35988901D01*
X28445000Y35750213D01*
X28447715Y35699560D01*
X28447780Y35697137D01*
X28447893Y35696231D01*
X28480246Y35569478D01*
X28483438Y35556970D01*
X28483442Y35556959D01*
X28483444Y35556951D01*
X28513881Y35483471D01*
X28513894Y35483440D01*
X28537216Y35434694D01*
X28537217Y35434692D01*
X28537218Y35434691D01*
X28537221Y35434686D01*
X28592782Y35360466D01*
X28623322Y35319670D01*
X28623356Y35319624D01*
X28623366Y35319613D01*
X28679609Y35263370D01*
X28679621Y35263359D01*
X28679623Y35263357D01*
X28679640Y35263341D01*
X28719842Y35227230D01*
X28843454Y35153889D01*
X28843461Y35153885D01*
X28916932Y35123453D01*
X28916935Y35123452D01*
X28967946Y35105456D01*
X29108398Y35085263D01*
X29109681Y35085000D01*
X29110221Y35085000D01*
X29500000Y35085000D01*
X29500000Y37048171D01*
X29505023Y37083107D01*
X29509427Y37098105D01*
X29547172Y37156856D01*
X29548541Y37158043D01*
X29603420Y37185523D01*
X29610979Y37187167D01*
X29637332Y37190000D01*
X29858170Y37190000D01*
X29893106Y37184977D01*
X29908104Y37180573D01*
X29966855Y37142828D01*
X29968042Y37141459D01*
X29995518Y37086598D01*
X29997163Y37079040D01*
X30000000Y37052669D01*
X30000000Y35085000D01*
X30389786Y35085000D01*
X30389788Y35085000D01*
X30440442Y35087716D01*
X30442862Y35087781D01*
X30443760Y35087894D01*
X30443762Y35087894D01*
X30443764Y35087894D01*
X30443766Y35087895D01*
X30443769Y35087895D01*
X30472046Y35095113D01*
X30583030Y35123439D01*
X30583042Y35123443D01*
X30656528Y35153882D01*
X30656556Y35153894D01*
X30705309Y35177219D01*
X30705314Y35177222D01*
X30820378Y35263359D01*
X30820382Y35263362D01*
X30876643Y35319624D01*
X30876659Y35319641D01*
X30912770Y35359843D01*
X30986111Y35483455D01*
X30986115Y35483462D01*
X31016547Y35556933D01*
X31016548Y35556936D01*
X31034544Y35607947D01*
X31053331Y35738625D01*
X31054116Y35742396D01*
X31055000Y35744052D01*
X31055000Y35988619D01*
X31060021Y36023547D01*
X31060640Y36025655D01*
X31061817Y36029666D01*
X31099588Y36088445D01*
X31163141Y36117474D01*
X31232301Y36107535D01*
X31284807Y36062248D01*
X31288103Y36057170D01*
X31302752Y36025655D01*
X31314766Y35986050D01*
X31314767Y35986048D01*
X31314768Y35986046D01*
X31412315Y35803550D01*
X31412316Y35803549D01*
X31412318Y35803546D01*
X31414130Y35801102D01*
X31416182Y35798838D01*
X31543589Y35643590D01*
X31587021Y35607947D01*
X31703546Y35512318D01*
X31703549Y35512316D01*
X31703555Y35512311D01*
X31827915Y35445840D01*
X31886046Y35414768D01*
X31991463Y35382791D01*
X32025529Y35360466D01*
X32084065Y35354701D01*
X32084066Y35354700D01*
X32084065Y35354700D01*
X32122647Y35350900D01*
X32238392Y35339500D01*
X32238395Y35339500D01*
X32341605Y35339500D01*
X32341608Y35339500D01*
X32495934Y35354700D01*
X32693954Y35414768D01*
X32876450Y35512315D01*
X33036410Y35643590D01*
X33167685Y35803550D01*
X33265232Y35986046D01*
X33325300Y36184066D01*
X33340500Y36338392D01*
X33340500Y37858171D01*
X33345523Y37893107D01*
X33349927Y37908105D01*
X33387672Y37966856D01*
X33389041Y37968043D01*
X33443920Y37995523D01*
X33451479Y37997167D01*
X33477832Y38000000D01*
X33637670Y38000000D01*
X33672606Y37994977D01*
X33687604Y37990573D01*
X33746355Y37952828D01*
X33747542Y37951459D01*
X33775018Y37896598D01*
X33776663Y37889040D01*
X33779500Y37862669D01*
X33779500Y36338396D01*
X33791659Y36214934D01*
X33794699Y36184067D01*
X33797209Y36175369D01*
X33797750Y36174011D01*
X33854768Y35986046D01*
X33952315Y35803550D01*
X33952316Y35803549D01*
X33952318Y35803546D01*
X33954130Y35801102D01*
X33956182Y35798838D01*
X34083589Y35643590D01*
X34127021Y35607947D01*
X34243546Y35512318D01*
X34243549Y35512316D01*
X34243555Y35512311D01*
X34367915Y35445840D01*
X34426046Y35414768D01*
X34531463Y35382791D01*
X34565529Y35360466D01*
X34624065Y35354701D01*
X34624066Y35354700D01*
X34624065Y35354700D01*
X34662647Y35350900D01*
X34778392Y35339500D01*
X34778395Y35339500D01*
X34881605Y35339500D01*
X34881608Y35339500D01*
X35035934Y35354700D01*
X35233954Y35414768D01*
X35401830Y35504501D01*
X35435001Y35516536D01*
X35448588Y35519365D01*
X35518232Y35513760D01*
X35573788Y35471394D01*
X35575384Y35469222D01*
X35597585Y35417278D01*
X35598125Y35414208D01*
X35600000Y35392727D01*
X35600000Y29669192D01*
X35594976Y29634255D01*
X35587564Y29609014D01*
X35556269Y29556270D01*
X35448926Y29448927D01*
X35420675Y29427778D01*
X35397587Y29415170D01*
X35338157Y29400000D01*
X34369192Y29400000D01*
X34334256Y29405023D01*
X34309014Y29412435D01*
X34256269Y29443731D01*
X34048926Y29651074D01*
X34027774Y29679330D01*
X34015167Y29702419D01*
X34000000Y29761844D01*
X34000000Y33200000D01*
X33800000Y33400000D01*
X32800000Y33400000D01*
X32799999Y33400000D01*
X32799998Y33400000D01*
X32200000Y32800002D01*
X32200000Y32169192D01*
X32194976Y32134255D01*
X32187564Y32109014D01*
X32156269Y32056270D01*
X31948926Y31848927D01*
X31920675Y31827778D01*
X31897587Y31815170D01*
X31838157Y31800000D01*
X25069192Y31800000D01*
X25034256Y31805023D01*
X25009014Y31812435D01*
X24956269Y31843731D01*
X24548926Y32251074D01*
X24527774Y32279330D01*
X24515167Y32302419D01*
X24500000Y32361844D01*
X24500000Y34600000D01*
X23748926Y35351074D01*
X23727774Y35379330D01*
X23715167Y35402419D01*
X23700000Y35461844D01*
X23700000Y35551649D01*
X23705021Y35586576D01*
X23708207Y35597429D01*
X23745977Y35656210D01*
X23809531Y35685239D01*
X23878677Y35675305D01*
X23882747Y35673447D01*
X23917809Y35646439D01*
X23919275Y35647904D01*
X23923585Y35643594D01*
X23923587Y35643593D01*
X23923589Y35643590D01*
X23967021Y35607947D01*
X24083546Y35512318D01*
X24083549Y35512316D01*
X24083555Y35512311D01*
X24207915Y35445840D01*
X24266046Y35414768D01*
X24371463Y35382791D01*
X24405529Y35360466D01*
X24464065Y35354701D01*
X24464066Y35354700D01*
X24464065Y35354700D01*
X24502647Y35350900D01*
X24618392Y35339500D01*
X24618395Y35339500D01*
X24721605Y35339500D01*
X24721608Y35339500D01*
X24875934Y35354700D01*
X25073954Y35414768D01*
X25256450Y35512315D01*
X25416410Y35643590D01*
X25547685Y35803550D01*
X25645232Y35986046D01*
X25705300Y36184066D01*
X25720500Y36338392D01*
X25720500Y37858171D01*
X25725523Y37893107D01*
X25729927Y37908105D01*
X25767672Y37966856D01*
X25769041Y37968043D01*
X25823920Y37995523D01*
X25831479Y37997167D01*
X25857832Y38000000D01*
X26017670Y38000000D01*
X26052606Y37994977D01*
G37*
%TD.AperFunction*%
%TD*%
D39*
X0Y53000000D02*
X0Y37000000D01*
X0Y53000000D02*
G75*
G02*
X3000000Y56000000I3000000J0D01*
G01*
X0Y18200000D02*
X0Y3000000D01*
X0Y18200000D02*
G75*
G02*
X3000000Y21200000I3000000J0D01*
G01*
X3000000Y56000000D02*
X67000000Y56000000D01*
X3000000Y34000000D02*
G75*
G02*
X0Y37000000I0J3000000D01*
G01*
X3000000Y34000000D02*
X9000000Y34000000D01*
X3000000Y0D02*
G75*
G02*
X0Y3000000I0J3000000D01*
G01*
X3000000Y0D02*
X7600000Y0D01*
X8300000Y700000D02*
G75*
G02*
X7600000Y0I-700000J0D01*
G01*
X8300000Y700000D02*
G75*
G02*
X9000000Y1400000I700000J0D01*
G01*
X9000000Y34000000D02*
X9000000Y21200000D01*
X9000000Y21200000D02*
X3000000Y21200000D01*
X15000000Y1400000D02*
X9000000Y1400000D01*
X15000000Y1400000D02*
X21000000Y1400000D01*
X21000000Y1400000D02*
G75*
G02*
X21700000Y700000I0J-700000D01*
G01*
X22400000Y0D02*
G75*
G02*
X21700000Y700000I0J700000D01*
G01*
X22400000Y0D02*
X70000000Y0D01*
X67000000Y56000000D02*
G75*
G02*
X70000000Y53000000I0J-3000000D01*
G01*
X70000000Y53000000D02*
X70000000Y0D01*
M02*
