%TF.GenerationSoftware,KiCad,Pcbnew,10.0.0-10.0.0~ubuntu24.04.1*%
%TF.CreationDate,2026-03-26T18:42:45+05:30*%
%TF.ProjectId,orbigator,6f726269-6761-4746-9f72-2e6b69636164,v2*%
%TF.SameCoordinates,Original*%
%TF.FileFunction,Copper,L2,Bot*%
%TF.FilePolarity,Positive*%
%FSLAX46Y46*%
G04 Gerber Fmt 4.6, Leading zero omitted, Abs format (unit mm)*
G04 Created by KiCad (PCBNEW 10.0.0-10.0.0~ubuntu24.04.1) date 2026-03-26 18:42:45*
%MOMM*%
%LPD*%
G01*
G04 APERTURE LIST*
G04 Aperture macros list*
%AMRoundRect*
0 Rectangle with rounded corners*
0 $1 Rounding radius*
0 $2 $3 $4 $5 $6 $7 $8 $9 X,Y pos of 4 corners*
0 Add a 4 corners polygon primitive as box body*
4,1,4,$2,$3,$4,$5,$6,$7,$8,$9,$2,$3,0*
0 Add four circle primitives for the rounded corners*
1,1,$1+$1,$2,$3*
1,1,$1+$1,$4,$5*
1,1,$1+$1,$6,$7*
1,1,$1+$1,$8,$9*
0 Add four rect primitives between the rounded corners*
20,1,$1+$1,$2,$3,$4,$5,0*
20,1,$1+$1,$4,$5,$6,$7,0*
20,1,$1+$1,$6,$7,$8,$9,0*
20,1,$1+$1,$8,$9,$2,$3,0*%
G04 Aperture macros list end*
%TA.AperFunction,ComponentPad*%
%ADD10C,5.000000*%
%TD*%
%TA.AperFunction,ComponentPad*%
%ADD11O,1.400000X2.400000*%
%TD*%
%TA.AperFunction,ComponentPad*%
%ADD12RoundRect,0.194444X0.505556X1.005556X-0.505556X1.005556X-0.505556X-1.005556X0.505556X-1.005556X0*%
%TD*%
%TA.AperFunction,ComponentPad*%
%ADD13RoundRect,0.250000X-0.600000X-0.600000X0.600000X-0.600000X0.600000X0.600000X-0.600000X0.600000X0*%
%TD*%
%TA.AperFunction,ComponentPad*%
%ADD14RoundRect,0.250000X0.750000X-0.750000X0.750000X0.750000X-0.750000X0.750000X-0.750000X-0.750000X0*%
%TD*%
%TA.AperFunction,ComponentPad*%
%ADD15C,2.000000*%
%TD*%
%TA.AperFunction,ComponentPad*%
%ADD16RoundRect,0.235294X-0.564706X-0.864706X0.564706X-0.864706X0.564706X0.864706X-0.564706X0.864706X0*%
%TD*%
%TA.AperFunction,ComponentPad*%
%ADD17O,1.600000X2.200000*%
%TD*%
%TA.AperFunction,ComponentPad*%
%ADD18RoundRect,0.750000X0.500000X1.750000X-0.500000X1.750000X-0.500000X-1.750000X0.500000X-1.750000X0*%
%TD*%
%TA.AperFunction,ComponentPad*%
%ADD19RoundRect,0.750000X1.750000X0.500000X-1.750000X0.500000X-1.750000X-0.500000X1.750000X-0.500000X0*%
%TD*%
%TA.AperFunction,SMDPad,CuDef*%
%ADD20R,3.500000X3.600000*%
%TD*%
%TA.AperFunction,SMDPad,CuDef*%
%ADD21C,8.000000*%
%TD*%
%TA.AperFunction,ViaPad*%
%ADD22C,0.800000*%
%TD*%
%TA.AperFunction,Conductor*%
%ADD23C,0.250000*%
%TD*%
%TA.AperFunction,Conductor*%
%ADD24C,0.500000*%
%TD*%
%TA.AperFunction,Conductor*%
%ADD25C,1.000000*%
%TD*%
%TA.AperFunction,Profile*%
%ADD26C,0.050000*%
%TD*%
G04 APERTURE END LIST*
D10*
%TO.P,DISP1,*%
%TO.N,*%
X129500000Y-85500000D03*
X129500000Y-114500000D03*
X70500000Y-85500000D03*
X70500000Y-114500000D03*
D11*
%TO.P,DISP1,1,CNF_BTN_1*%
%TO.N,/CNF_BTN*%
X119820000Y-84400000D03*
%TO.P,DISP1,2,SDA_2*%
%TO.N,/SDA*%
X117280000Y-84400000D03*
%TO.P,DISP1,3,SCL_3*%
%TO.N,/SCL*%
X114740000Y-84400000D03*
%TO.P,DISP1,4,ENC_SW_4*%
%TO.N,/ENC_SW*%
X112200000Y-84400000D03*
%TO.P,DISP1,5,ENC_A_5*%
%TO.N,/ENC_A*%
X109660000Y-84400000D03*
%TO.P,DISP1,6,ENC_B_6*%
%TO.N,/ENC_B*%
X107120000Y-84400000D03*
%TO.P,DISP1,7,BAK_BTN_7*%
%TO.N,/BAK_BTN*%
X104580000Y-84400000D03*
%TO.P,DISP1,8,GND_8*%
%TO.N,/GND*%
X102040000Y-84400000D03*
D12*
%TO.P,DISP1,9,VCC_9*%
%TO.N,/3V3*%
X99500000Y-84400000D03*
%TD*%
D13*
%TO.P,J5,1,Pin_1_1*%
%TO.N,Net-(J5-Pin_1)*%
X112570000Y-89600000D03*
%TD*%
%TO.P,J1,1,Pin_1_1*%
%TO.N,Net-(J1-Pin_1)*%
X125070000Y-89600000D03*
%TD*%
%TO.P,J10,1,Pin_1_1*%
%TO.N,Net-(J10-Pin_1)*%
X97270000Y-89600000D03*
%TD*%
%TO.P,J30,1,Pin_1_1*%
%TO.N,/32k2*%
X114705000Y-75800000D03*
%TD*%
%TO.P,J19,1,Pin_1_1*%
%TO.N,Net-(J19-Pin_1)*%
X112485000Y-115400000D03*
%TD*%
%TO.P,J6,1,Pin_1_1*%
%TO.N,Net-(J6-Pin_1)*%
X110070000Y-89600000D03*
%TD*%
%TO.P,J28,1,Pin_1_1*%
%TO.N,/INT2*%
X109625000Y-75800000D03*
%TD*%
%TO.P,J20,1,Pin_1_1*%
%TO.N,Net-(J20-Pin_1)*%
X87115000Y-115400000D03*
%TD*%
%TO.P,J34,1,Pin_1_1*%
%TO.N,/GND*%
X82035000Y-89600000D03*
%TD*%
D14*
%TO.P,RTC1,1,Pin_1_1*%
%TO.N,/3V3*%
X99480000Y-78700000D03*
D15*
%TO.P,RTC1,2,Pin_2_2*%
%TO.N,/GND*%
X102020000Y-78700000D03*
%TO.P,RTC1,3,Pin_3_3*%
%TO.N,/SCL*%
X104560000Y-78700000D03*
%TO.P,RTC1,4,Pin_4_4*%
%TO.N,/SDA*%
X107100000Y-78700000D03*
%TO.P,RTC1,5,Pin_5_5*%
%TO.N,/INT2*%
X109640000Y-78700000D03*
%TO.P,RTC1,6,Pin_6_6*%
%TO.N,/RST2*%
X112180000Y-78700000D03*
%TO.P,RTC1,7,Pin_7_7*%
%TO.N,/32k2*%
X114720000Y-78700000D03*
%TD*%
D13*
%TO.P,J23,1,Pin_1_1*%
%TO.N,/3V3*%
X87085001Y-89600000D03*
%TD*%
%TO.P,J36,1,Pin_1_1*%
%TO.N,/GND*%
X120075000Y-89600000D03*
%TD*%
%TO.P,J25,1,Pin_1_1*%
%TO.N,/V_BUS*%
X76990001Y-89600000D03*
%TD*%
%TO.P,J17,1,Pin_1_1*%
%TO.N,Net-(J17-Pin_1)*%
X117584999Y-115400000D03*
%TD*%
%TO.P,J29,1,Pin_1_1*%
%TO.N,/RST2*%
X112165000Y-75800000D03*
%TD*%
%TO.P,J11,1,Pin_1_1*%
%TO.N,Net-(J11-Pin_1)*%
X92070000Y-89600000D03*
%TD*%
%TO.P,J8,1,Pin_1_1*%
%TO.N,Net-(J8-Pin_1)*%
X89570000Y-89600000D03*
%TD*%
D16*
%TO.P,M1,1,Pin_1_1*%
%TO.N,/GND*%
X98000000Y-127000000D03*
D17*
%TO.P,M1,2,Pin_2_2*%
%TO.N,/5V0*%
X100500000Y-126999999D03*
%TO.P,M1,3,Pin_3_3*%
%TO.N,/MOT_DAT*%
X103000000Y-127000000D03*
%TD*%
D13*
%TO.P,J3,1,Pin_1_1*%
%TO.N,Net-(J3-Pin_1)*%
X117584999Y-89600000D03*
%TD*%
%TO.P,J16,1,Pin_1_1*%
%TO.N,Net-(J16-Pin_1)*%
X122685000Y-115400000D03*
%TD*%
D18*
%TO.P,J27,1*%
%TO.N,/5V0*%
X124808000Y-125157500D03*
%TO.P,J27,2*%
%TO.N,/GND*%
X130808000Y-125157500D03*
D19*
%TO.P,J27,3*%
X127808000Y-120457500D03*
%TD*%
D13*
%TO.P,J15,1,Pin_1_1*%
%TO.N,Net-(J15-Pin_1)*%
X125285001Y-115400000D03*
%TD*%
%TO.P,J13,1,Pin_1_1*%
%TO.N,Net-(J13-Pin_1)*%
X84570000Y-89600000D03*
%TD*%
%TO.P,J32,1,Pin_1_1*%
%TO.N,/GND*%
X129485000Y-102560000D03*
%TD*%
%TO.P,J37,1,Pin_1_1*%
%TO.N,/GND*%
X107445000Y-89610000D03*
%TD*%
%TO.P,J12,1,Pin_1_1*%
%TO.N,/GND*%
X94670000Y-89600001D03*
%TD*%
%TO.P,J21,1,Pin_1_1*%
%TO.N,Net-(J21-Pin_1)*%
X129485000Y-100000000D03*
%TD*%
%TO.P,J35,1,Pin_1_1*%
%TO.N,/GND*%
X120145000Y-115410000D03*
%TD*%
%TO.P,J22,1,Pin_1_1*%
%TO.N,Net-(J22-Pin_1)*%
X129485000Y-105100000D03*
%TD*%
%TO.P,J14,1,Pin_1_1*%
%TO.N,Net-(J14-Pin_1)*%
X102385000Y-89600000D03*
%TD*%
%TO.P,J18,1,Pin_1_1*%
%TO.N,Net-(J18-Pin_1)*%
X115084999Y-115400000D03*
%TD*%
D16*
%TO.P,M2,1,Pin_1_1*%
%TO.N,/GND*%
X98000000Y-117900000D03*
D17*
%TO.P,M2,2,Pin_2_2*%
%TO.N,/5V0*%
X100500000Y-117899999D03*
%TO.P,M2,3,Pin_3_3*%
%TO.N,/MOT_DAT*%
X103000000Y-117900000D03*
%TD*%
D13*
%TO.P,J2,1,Pin_1_1*%
%TO.N,Net-(J2-Pin_1)*%
X122570000Y-89600000D03*
%TD*%
%TO.P,J7,1,Pin_1_1*%
%TO.N,Net-(J7-Pin_1)*%
X104870000Y-89600000D03*
%TD*%
%TO.P,J9,1,Pin_1_1*%
%TO.N,Net-(J9-Pin_1)*%
X99770000Y-89600000D03*
%TD*%
%TO.P,J24,1,Pin_1_1*%
%TO.N,/V_SYS*%
X79485000Y-89600000D03*
%TD*%
%TO.P,J26,1,Pin_1_1*%
%TO.N,/GND*%
X107385000Y-115400000D03*
%TD*%
%TO.P,J4,1,Pin_1_1*%
%TO.N,Net-(J4-Pin_1)*%
X115070000Y-89600000D03*
%TD*%
D20*
%TO.P,BT1,1,+_1*%
%TO.N,/VBAT*%
X87750000Y-124000000D03*
X72250000Y-124000000D03*
D21*
%TO.P,BT1,2,-_2*%
%TO.N,/GND*%
X80000000Y-124000000D03*
%TD*%
D22*
%TO.N,/V_SYS*%
X115000000Y-117200000D03*
%TO.N,/GND*%
X110100000Y-119300000D03*
X89262500Y-83905000D03*
X111800000Y-120300000D03*
X96600000Y-124000000D03*
X80800000Y-122800000D03*
X96600000Y-121800000D03*
X115400000Y-125300000D03*
X94750000Y-115000000D03*
X93700000Y-84400000D03*
X108200000Y-120300000D03*
X76990000Y-122800000D03*
X91000000Y-127800000D03*
X83300000Y-122800000D03*
X79500000Y-122800000D03*
X87500000Y-85800000D03*
X89000000Y-85800000D03*
X82050000Y-109790000D03*
%TO.N,/MOT_DAT*%
X82070000Y-115290000D03*
X91000000Y-125300000D03*
X79500000Y-114300000D03*
%TO.N,/SCL*%
X115000000Y-97100000D03*
%TO.N,/SDA*%
X115000000Y-95900000D03*
%TO.N,/V_BUS*%
X116600000Y-118350000D03*
%TO.N,/ENC_A*%
X103500000Y-97600000D03*
%TO.N,/ENC_B*%
X103500000Y-100000000D03*
%TO.N,/ENC_SW*%
X103500000Y-104000000D03*
%TO.N,/BAK_BTN*%
X103500000Y-101300000D03*
%TO.N,/CNF_BTN*%
X118870000Y-96010000D03*
%TO.N,/VBAT*%
X72600000Y-120400000D03*
%TD*%
%TO.N,/ENC_A*%
D23*
X103500000Y-97600000D02*
X108000000Y-97600000D01*
X108000000Y-97600000D02*
X108720000Y-96880000D01*
X109660000Y-85860000D02*
X109660000Y-84400000D01*
X108720000Y-96880000D02*
X108720000Y-86800000D01*
X108720000Y-86800000D02*
X109660000Y-85860000D01*
%TO.N,/BAK_BTN*%
X104580000Y-84400000D02*
X104580000Y-85850000D01*
X104580000Y-85850000D02*
X103640000Y-86790000D01*
X102100000Y-101300000D02*
X103500000Y-101300000D01*
X103640000Y-86790000D02*
X103640000Y-90560000D01*
X103640000Y-90560000D02*
X102800000Y-91400000D01*
X102800000Y-91400000D02*
X101600000Y-91400000D01*
X101600000Y-91400000D02*
X100600000Y-92400000D01*
X100600000Y-92400000D02*
X100600000Y-99800000D01*
X100600000Y-99800000D02*
X102100000Y-101300000D01*
%TO.N,/ENC_B*%
X103500000Y-100000000D02*
X101600000Y-100000000D01*
X106180000Y-86790000D02*
X107120000Y-85850000D01*
X101600000Y-100000000D02*
X101100000Y-99500000D01*
X101100000Y-99500000D02*
X101100000Y-92600000D01*
X101100000Y-92600000D02*
X101800000Y-91900000D01*
X101800000Y-91900000D02*
X104900000Y-91900000D01*
X104900000Y-91900000D02*
X106180000Y-90620000D01*
X106180000Y-90620000D02*
X106180000Y-86790000D01*
X107120000Y-85850000D02*
X107120000Y-84400000D01*
%TO.N,/V_SYS*%
D24*
X110500000Y-116100000D02*
X110500000Y-108600000D01*
X108600000Y-106700000D02*
X102100000Y-106700000D01*
X91800000Y-96400000D02*
X81170000Y-96400000D01*
X81170000Y-96400000D02*
X79485000Y-94715000D01*
X110500000Y-108600000D02*
X108600000Y-106700000D01*
X102100000Y-106700000D02*
X91800000Y-96400000D01*
X115000000Y-117200000D02*
X111600000Y-117200000D01*
X111600000Y-117200000D02*
X110500000Y-116100000D01*
X79485000Y-94715000D02*
X79485000Y-89600000D01*
%TO.N,/GND*%
D25*
X115400000Y-121400000D02*
X114300000Y-120300000D01*
X133200000Y-121300000D02*
X133200000Y-124500000D01*
X111800000Y-120300000D02*
X110000000Y-120300000D01*
D24*
X87500000Y-85800000D02*
X87500000Y-87800000D01*
X89262500Y-83905000D02*
X89262500Y-84737500D01*
D25*
X80200000Y-123900000D02*
X80200000Y-115890000D01*
X115400000Y-125300000D02*
X115400000Y-121400000D01*
X77290000Y-115890000D02*
X76300000Y-114900000D01*
X115400000Y-125300000D02*
X115400000Y-126600000D01*
D24*
X94750000Y-87800000D02*
X89000000Y-87800000D01*
D25*
X132357500Y-120457500D02*
X133200000Y-121300000D01*
X83800000Y-127800000D02*
X80000000Y-124000000D01*
D24*
X102040000Y-84400000D02*
X102040000Y-82200000D01*
X89000000Y-85800000D02*
X89000000Y-85000000D01*
D25*
X93700000Y-127800000D02*
X94500000Y-127000000D01*
D24*
X82700000Y-87800000D02*
X82050000Y-88450000D01*
X82050000Y-88450000D02*
X82050000Y-89600000D01*
D25*
X102020000Y-77020000D02*
X101000000Y-76000000D01*
X76300000Y-114900000D02*
X76300000Y-111500000D01*
X102020000Y-78700000D02*
X102020000Y-77020000D01*
X132542500Y-125157500D02*
X130808000Y-125157500D01*
D24*
X108390000Y-83190000D02*
X108390000Y-85890000D01*
D25*
X105100000Y-115400000D02*
X107385000Y-115400000D01*
X94750000Y-115000000D02*
X104700000Y-115000000D01*
D24*
X102040000Y-84400000D02*
X102040000Y-87260000D01*
D25*
X76300000Y-111500000D02*
X78010000Y-109790000D01*
X120145000Y-123855000D02*
X118700000Y-125300000D01*
X129500000Y-102500000D02*
X122500000Y-102500000D01*
X122500000Y-95100000D02*
X122500000Y-102500000D01*
D24*
X87500000Y-85800000D02*
X89000000Y-85800000D01*
D25*
X91000000Y-127800000D02*
X83800000Y-127800000D01*
D24*
X101500000Y-87800000D02*
X94750000Y-87800000D01*
X102040000Y-82200000D02*
X107400000Y-82200000D01*
D25*
X110100000Y-119300000D02*
X110100000Y-120200000D01*
X133200000Y-124500000D02*
X132542500Y-125157500D01*
X120145000Y-120457500D02*
X120145000Y-123855000D01*
D24*
X89000000Y-87800000D02*
X87500000Y-87800000D01*
D25*
X110100000Y-120200000D02*
X110000000Y-120300000D01*
X115400000Y-126600000D02*
X114500000Y-127500000D01*
X94500000Y-127000000D02*
X98000000Y-127000000D01*
X122500000Y-107400000D02*
X122500000Y-102500000D01*
D24*
X94750000Y-87800000D02*
X94750000Y-89600000D01*
D25*
X120145000Y-109755000D02*
X122500000Y-107400000D01*
D24*
X89262500Y-83905000D02*
X93205000Y-83905000D01*
X108390000Y-85890000D02*
X107450000Y-86830000D01*
D25*
X104000000Y-123000000D02*
X98000000Y-123000000D01*
X78010000Y-109790000D02*
X82050000Y-109790000D01*
D24*
X89262500Y-84737500D02*
X89000000Y-85000000D01*
D25*
X118700000Y-125300000D02*
X115400000Y-125300000D01*
X98000000Y-123000000D02*
X98000000Y-117900000D01*
X110000000Y-120300000D02*
X108200000Y-120300000D01*
D24*
X87500000Y-87800000D02*
X82700000Y-87800000D01*
D25*
X89262500Y-78737500D02*
X89262500Y-83905000D01*
X104700000Y-115000000D02*
X105100000Y-115400000D01*
X80200000Y-115890000D02*
X77290000Y-115890000D01*
X92000000Y-76000000D02*
X89262500Y-78737500D01*
X114300000Y-120300000D02*
X111800000Y-120300000D01*
D24*
X102040000Y-82200000D02*
X102040000Y-78720000D01*
D25*
X120075000Y-92675000D02*
X122500000Y-95100000D01*
D24*
X107450000Y-86830000D02*
X107450000Y-89600000D01*
D25*
X94750000Y-115000000D02*
X89540000Y-109790000D01*
X98000000Y-127000000D02*
X98000000Y-123000000D01*
X89540000Y-109790000D02*
X82050000Y-109790000D01*
X120145000Y-120457500D02*
X127808000Y-120457500D01*
D24*
X102040000Y-87260000D02*
X101500000Y-87800000D01*
D25*
X127808000Y-120457500D02*
X132357500Y-120457500D01*
X91000000Y-127800000D02*
X93700000Y-127800000D01*
D24*
X93205000Y-83905000D02*
X93700000Y-84400000D01*
D25*
X120145000Y-115410000D02*
X120145000Y-109755000D01*
X108500000Y-127500000D02*
X104000000Y-123000000D01*
D24*
X89000000Y-85800000D02*
X89000000Y-87800000D01*
D25*
X120075000Y-89600000D02*
X120075000Y-92675000D01*
D24*
X107400000Y-82200000D02*
X108390000Y-83190000D01*
D25*
X114500000Y-127500000D02*
X108500000Y-127500000D01*
X101000000Y-76000000D02*
X92000000Y-76000000D01*
X120145000Y-115410000D02*
X120145000Y-120457500D01*
%TO.N,/MOT_DAT*%
D23*
X89800000Y-113300000D02*
X82070000Y-113300000D01*
X91000000Y-114500000D02*
X89800000Y-113300000D01*
X82070000Y-115290000D02*
X82070000Y-113300000D01*
X82070000Y-113300000D02*
X80500000Y-113300000D01*
X91000000Y-125300000D02*
X91000000Y-114500000D01*
X80500000Y-113300000D02*
X79500000Y-114300000D01*
%TO.N,/3V3*%
D24*
X99500000Y-84400000D02*
X99500000Y-81100000D01*
X99500000Y-81100000D02*
X99480000Y-81080000D01*
X99480000Y-81080000D02*
X99480000Y-78700000D01*
%TO.N,/SCL*%
D23*
X114300000Y-81200000D02*
X115800000Y-82700000D01*
X113810000Y-86770000D02*
X114740000Y-85840000D01*
X106300000Y-81200000D02*
X114300000Y-81200000D01*
X105600000Y-80500000D02*
X106300000Y-81200000D01*
X105600000Y-79740000D02*
X105600000Y-80500000D01*
X115800000Y-83340000D02*
X114740000Y-84400000D01*
X115000000Y-97100000D02*
X113810000Y-95910000D01*
X115800000Y-82700000D02*
X115800000Y-83340000D01*
X113810000Y-95910000D02*
X113810000Y-86770000D01*
X104560000Y-78700000D02*
X105600000Y-79740000D01*
X114740000Y-85840000D02*
X114740000Y-84400000D01*
%TO.N,/SDA*%
X116330000Y-86790000D02*
X117280000Y-85840000D01*
X117280000Y-85840000D02*
X117280000Y-84400000D01*
X114500000Y-80700000D02*
X116300000Y-82500000D01*
X106200000Y-80400000D02*
X106500000Y-80700000D01*
X107100000Y-78700000D02*
X106200000Y-79600000D01*
X116300000Y-83420000D02*
X117280000Y-84400000D01*
X116300000Y-82500000D02*
X116300000Y-83420000D01*
X115000000Y-95900000D02*
X116330000Y-94570000D01*
X106500000Y-80700000D02*
X114500000Y-80700000D01*
X116330000Y-94570000D02*
X116330000Y-86790000D01*
X106200000Y-79600000D02*
X106200000Y-80400000D01*
%TO.N,/V_BUS*%
D24*
X79620000Y-97400000D02*
X76970000Y-94750000D01*
X109400000Y-109100000D02*
X108100000Y-107800000D01*
X111050000Y-118350000D02*
X109400000Y-116700000D01*
X76970000Y-94750000D02*
X76970000Y-89600000D01*
X101700000Y-107800000D02*
X91300000Y-97400000D01*
X108100000Y-107800000D02*
X101700000Y-107800000D01*
X91300000Y-97400000D02*
X79620000Y-97400000D01*
X109400000Y-116700000D02*
X109400000Y-109100000D01*
X116600000Y-118350000D02*
X111050000Y-118350000D01*
%TO.N,/ENC_SW*%
D23*
X111250000Y-102950000D02*
X111250000Y-86790000D01*
X110200000Y-104000000D02*
X111250000Y-102950000D01*
X111250000Y-86790000D02*
X112200000Y-85840000D01*
X103500000Y-104000000D02*
X110200000Y-104000000D01*
X112200000Y-85840000D02*
X112200000Y-84400000D01*
%TO.N,/CNF_BTN*%
X118870000Y-86770000D02*
X119820000Y-85820000D01*
X119820000Y-85820000D02*
X119820000Y-84400000D01*
X118870000Y-96010000D02*
X118870000Y-86770000D01*
%TO.N,/VBAT*%
D24*
X72250000Y-124000000D02*
X72250000Y-120750000D01*
X72250000Y-120750000D02*
X72600000Y-120400000D01*
%TD*%
%TA.AperFunction,Conductor*%
%TO.N,/GND*%
G36*
X108474709Y-85193769D02*
G01*
X108476994Y-85195866D01*
X108511087Y-85248910D01*
X108547452Y-85360833D01*
X108557870Y-85381279D01*
X108633108Y-85528940D01*
X108633240Y-85529199D01*
X108633241Y-85529200D01*
X108633240Y-85529200D01*
X108635088Y-85531743D01*
X108744310Y-85682073D01*
X108744312Y-85682075D01*
X108748534Y-85686297D01*
X108769686Y-85714553D01*
X108777178Y-85728274D01*
X108792030Y-85796534D01*
X108791901Y-85798340D01*
X108772533Y-85856543D01*
X108768352Y-85863049D01*
X108751716Y-85883692D01*
X108324270Y-86311138D01*
X108321270Y-86314139D01*
X108321255Y-86314153D01*
X108234144Y-86401263D01*
X108234138Y-86401271D01*
X108200602Y-86451462D01*
X108200601Y-86451464D01*
X108172369Y-86493715D01*
X108172360Y-86493729D01*
X108168629Y-86499311D01*
X108166865Y-86501719D01*
X108165690Y-86503709D01*
X108165687Y-86503714D01*
X108165685Y-86503718D01*
X108136489Y-86574207D01*
X108132347Y-86584207D01*
X108132345Y-86584213D01*
X108131573Y-86586077D01*
X108130965Y-86587544D01*
X108130960Y-86587555D01*
X108118538Y-86617541D01*
X108118538Y-86617542D01*
X108118535Y-86617551D01*
X108118530Y-86617573D01*
X108094500Y-86738384D01*
X108094500Y-88118170D01*
X108089475Y-88153114D01*
X108085070Y-88168112D01*
X108047327Y-88226855D01*
X108045958Y-88228042D01*
X107991097Y-88255518D01*
X107983539Y-88257163D01*
X107957168Y-88260000D01*
X107695000Y-88260000D01*
X107695000Y-88997749D01*
X107675315Y-89064788D01*
X107622511Y-89110543D01*
X107553353Y-89120487D01*
X107538908Y-89117524D01*
X107510828Y-89110000D01*
X107510826Y-89110000D01*
X107379174Y-89110000D01*
X107379171Y-89110000D01*
X107351092Y-89117524D01*
X107281242Y-89115861D01*
X107223380Y-89076698D01*
X107195877Y-89012469D01*
X107195000Y-88997749D01*
X107195000Y-88260000D01*
X106947330Y-88260000D01*
X106912389Y-88254975D01*
X106897390Y-88250570D01*
X106838644Y-88212827D01*
X106837457Y-88211458D01*
X106809977Y-88156583D01*
X106808332Y-88149021D01*
X106805500Y-88122668D01*
X106805500Y-87118280D01*
X106810522Y-87083347D01*
X106811372Y-87080452D01*
X106817934Y-87058102D01*
X106849228Y-87005360D01*
X107518729Y-86335860D01*
X107518733Y-86335858D01*
X107605858Y-86248733D01*
X107674311Y-86146286D01*
X107674312Y-86146285D01*
X107705521Y-86070940D01*
X107721463Y-86032452D01*
X107728406Y-85997541D01*
X107740142Y-85964270D01*
X107752769Y-85940130D01*
X107789756Y-85897293D01*
X107902073Y-85815690D01*
X108035690Y-85682073D01*
X108146760Y-85529199D01*
X108232547Y-85360832D01*
X108266560Y-85256149D01*
X108282132Y-85224478D01*
X108288521Y-85215134D01*
X108342612Y-85170912D01*
X108412027Y-85162951D01*
X108474709Y-85193769D01*
G37*
%TD.AperFunction*%
%TA.AperFunction,Conductor*%
G36*
X102618671Y-78946358D02*
G01*
X102629702Y-78956149D01*
X103242655Y-79569103D01*
X103242655Y-79569102D01*
X103242657Y-79569104D01*
X103244635Y-79568948D01*
X103279843Y-79571213D01*
X103299116Y-79575262D01*
X103355162Y-79603193D01*
X103360481Y-79607835D01*
X103361905Y-79609078D01*
X103380680Y-79629609D01*
X103415482Y-79677509D01*
X103415483Y-79677510D01*
X103582490Y-79844517D01*
X103773567Y-79983343D01*
X103872991Y-80034002D01*
X103984003Y-80090566D01*
X103984876Y-80091011D01*
X103988630Y-80092070D01*
X104036335Y-80107569D01*
X104104410Y-80129688D01*
X104104411Y-80129689D01*
X104104412Y-80129689D01*
X104208631Y-80163553D01*
X104441903Y-80200500D01*
X104441908Y-80200500D01*
X104678096Y-80200500D01*
X104678097Y-80200500D01*
X104813493Y-80179054D01*
X104848781Y-80178551D01*
X104862547Y-80180330D01*
X104926510Y-80208444D01*
X104965118Y-80266670D01*
X104968964Y-80279106D01*
X104974500Y-80315743D01*
X104974500Y-80561604D01*
X104998537Y-80682452D01*
X104998542Y-80682466D01*
X105009593Y-80709147D01*
X105009599Y-80709159D01*
X105009695Y-80709390D01*
X105009697Y-80709395D01*
X105011664Y-80714142D01*
X105045688Y-80796286D01*
X105079915Y-80847509D01*
X105083833Y-80853372D01*
X105087597Y-80859006D01*
X105087598Y-80859007D01*
X105114137Y-80898728D01*
X105218703Y-81003294D01*
X105218708Y-81003298D01*
X105901262Y-81685854D01*
X105901265Y-81685857D01*
X105969411Y-81731390D01*
X106003714Y-81754311D01*
X106117548Y-81801463D01*
X106235458Y-81824916D01*
X106237657Y-81825409D01*
X106238390Y-81825500D01*
X106238392Y-81825500D01*
X106238393Y-81825500D01*
X106238394Y-81825500D01*
X113971718Y-81825500D01*
X114006650Y-81830521D01*
X114031894Y-81837934D01*
X114084640Y-81869230D01*
X114693383Y-82477974D01*
X114714535Y-82506230D01*
X114720741Y-82517596D01*
X114735592Y-82585870D01*
X114711174Y-82651333D01*
X114660169Y-82691244D01*
X114651632Y-82694851D01*
X114622769Y-82703101D01*
X114458886Y-82729058D01*
X114458884Y-82729058D01*
X114458881Y-82729059D01*
X114279163Y-82787454D01*
X114194981Y-82830347D01*
X114110799Y-82873240D01*
X114023579Y-82936610D01*
X114023578Y-82936610D01*
X113969794Y-82975686D01*
X113962419Y-82979816D01*
X113819816Y-83122419D01*
X113815685Y-83129796D01*
X113713241Y-83270796D01*
X113713241Y-83270798D01*
X113627452Y-83439165D01*
X113593440Y-83543846D01*
X113555017Y-83600683D01*
X113553978Y-83601550D01*
X113547605Y-83610869D01*
X113483242Y-83638058D01*
X113414398Y-83626134D01*
X113385271Y-83606212D01*
X113382982Y-83604111D01*
X113348912Y-83551088D01*
X113346559Y-83543846D01*
X113312545Y-83439163D01*
X113226759Y-83270800D01*
X113224914Y-83268260D01*
X113115690Y-83117927D01*
X112982073Y-82984310D01*
X112829199Y-82873240D01*
X112829196Y-82873238D01*
X112829194Y-82873237D01*
X112822357Y-82869754D01*
X112822353Y-82869750D01*
X112822353Y-82869752D01*
X112660836Y-82787454D01*
X112481118Y-82729059D01*
X112481112Y-82729058D01*
X112294491Y-82699500D01*
X112294486Y-82699500D01*
X112294481Y-82699500D01*
X112105519Y-82699500D01*
X112105514Y-82699500D01*
X112105509Y-82699500D01*
X111918886Y-82729058D01*
X111918884Y-82729058D01*
X111918881Y-82729059D01*
X111739163Y-82787454D01*
X111654981Y-82830347D01*
X111570799Y-82873240D01*
X111483579Y-82936610D01*
X111483578Y-82936610D01*
X111429794Y-82975686D01*
X111422419Y-82979816D01*
X111279816Y-83122419D01*
X111275685Y-83129796D01*
X111173241Y-83270796D01*
X111173241Y-83270798D01*
X111087452Y-83439165D01*
X111053440Y-83543846D01*
X111015017Y-83600683D01*
X111013978Y-83601550D01*
X111007605Y-83610869D01*
X110943242Y-83638058D01*
X110874398Y-83626134D01*
X110845271Y-83606212D01*
X110842982Y-83604111D01*
X110808912Y-83551088D01*
X110806559Y-83543846D01*
X110772545Y-83439163D01*
X110686759Y-83270800D01*
X110684914Y-83268260D01*
X110575690Y-83117927D01*
X110442073Y-82984310D01*
X110289199Y-82873240D01*
X110289196Y-82873238D01*
X110289194Y-82873237D01*
X110282357Y-82869754D01*
X110282353Y-82869750D01*
X110282353Y-82869752D01*
X110120836Y-82787454D01*
X109941118Y-82729059D01*
X109941112Y-82729058D01*
X109754491Y-82699500D01*
X109754486Y-82699500D01*
X109754481Y-82699500D01*
X109565519Y-82699500D01*
X109565514Y-82699500D01*
X109565509Y-82699500D01*
X109378886Y-82729058D01*
X109378884Y-82729058D01*
X109378881Y-82729059D01*
X109199163Y-82787454D01*
X109114981Y-82830347D01*
X109030799Y-82873240D01*
X108943579Y-82936610D01*
X108943578Y-82936610D01*
X108889794Y-82975686D01*
X108882419Y-82979816D01*
X108739816Y-83122419D01*
X108735685Y-83129796D01*
X108633241Y-83270796D01*
X108633241Y-83270798D01*
X108547452Y-83439165D01*
X108513440Y-83543846D01*
X108475017Y-83600683D01*
X108473978Y-83601550D01*
X108467605Y-83610869D01*
X108403242Y-83638058D01*
X108334398Y-83626134D01*
X108305271Y-83606212D01*
X108302982Y-83604111D01*
X108268912Y-83551088D01*
X108266559Y-83543846D01*
X108232545Y-83439163D01*
X108146759Y-83270800D01*
X108144914Y-83268260D01*
X108035690Y-83117927D01*
X107902073Y-82984310D01*
X107749199Y-82873240D01*
X107749196Y-82873238D01*
X107749194Y-82873237D01*
X107742357Y-82869754D01*
X107742353Y-82869750D01*
X107742353Y-82869752D01*
X107580836Y-82787454D01*
X107401118Y-82729059D01*
X107401112Y-82729058D01*
X107214491Y-82699500D01*
X107214486Y-82699500D01*
X107214481Y-82699500D01*
X107025519Y-82699500D01*
X107025514Y-82699500D01*
X107025509Y-82699500D01*
X106838886Y-82729058D01*
X106838884Y-82729058D01*
X106838881Y-82729059D01*
X106659163Y-82787454D01*
X106574981Y-82830347D01*
X106490799Y-82873240D01*
X106403579Y-82936610D01*
X106403578Y-82936610D01*
X106349794Y-82975686D01*
X106342419Y-82979816D01*
X106199816Y-83122419D01*
X106195685Y-83129796D01*
X106093241Y-83270796D01*
X106093241Y-83270798D01*
X106007452Y-83439165D01*
X105973440Y-83543846D01*
X105935017Y-83600683D01*
X105933978Y-83601550D01*
X105927605Y-83610869D01*
X105863242Y-83638058D01*
X105794398Y-83626134D01*
X105765271Y-83606212D01*
X105762982Y-83604111D01*
X105728912Y-83551088D01*
X105726559Y-83543846D01*
X105692545Y-83439163D01*
X105606759Y-83270800D01*
X105604914Y-83268260D01*
X105495690Y-83117927D01*
X105362073Y-82984310D01*
X105209199Y-82873240D01*
X105209196Y-82873238D01*
X105209194Y-82873237D01*
X105202357Y-82869754D01*
X105202353Y-82869750D01*
X105202353Y-82869752D01*
X105040836Y-82787454D01*
X104861118Y-82729059D01*
X104861112Y-82729058D01*
X104674491Y-82699500D01*
X104674486Y-82699500D01*
X104674481Y-82699500D01*
X104485519Y-82699500D01*
X104485514Y-82699500D01*
X104485509Y-82699500D01*
X104298886Y-82729058D01*
X104298884Y-82729058D01*
X104298881Y-82729059D01*
X104119163Y-82787454D01*
X104034981Y-82830347D01*
X103950799Y-82873240D01*
X103863579Y-82936610D01*
X103863578Y-82936610D01*
X103809794Y-82975686D01*
X103802419Y-82979816D01*
X103659816Y-83122419D01*
X103655685Y-83129796D01*
X103553241Y-83270796D01*
X103553241Y-83270798D01*
X103467455Y-83439159D01*
X103433177Y-83544655D01*
X103394761Y-83601486D01*
X103393715Y-83602359D01*
X103387342Y-83611678D01*
X103322979Y-83638867D01*
X103254135Y-83626943D01*
X103225008Y-83607021D01*
X103222719Y-83604920D01*
X103188649Y-83551896D01*
X103152085Y-83439362D01*
X103066329Y-83271059D01*
X102955314Y-83118258D01*
X102955310Y-83118253D01*
X102955309Y-83118252D01*
X102955302Y-83118244D01*
X102821754Y-82984696D01*
X102821746Y-82984689D01*
X102821741Y-82984685D01*
X102668940Y-82873670D01*
X102668939Y-82873669D01*
X102668937Y-82873668D01*
X102500640Y-82787914D01*
X102500629Y-82787910D01*
X102321013Y-82729551D01*
X102321007Y-82729550D01*
X102321004Y-82729549D01*
X102320995Y-82729547D01*
X102320991Y-82729546D01*
X102320985Y-82729545D01*
X102290000Y-82724637D01*
X102290000Y-83787749D01*
X102270315Y-83854788D01*
X102217511Y-83900543D01*
X102148353Y-83910487D01*
X102133908Y-83907524D01*
X102105828Y-83900000D01*
X102105826Y-83900000D01*
X101974174Y-83900000D01*
X101974171Y-83900000D01*
X101946092Y-83907524D01*
X101876242Y-83905861D01*
X101818380Y-83866698D01*
X101790877Y-83802469D01*
X101790000Y-83787749D01*
X101790000Y-82724637D01*
X101789999Y-82724637D01*
X101783300Y-82725698D01*
X101759013Y-82729545D01*
X101758991Y-82729550D01*
X101758985Y-82729551D01*
X101579369Y-82787910D01*
X101579358Y-82787914D01*
X101411061Y-82873668D01*
X101258252Y-82984689D01*
X101258244Y-82984696D01*
X101124696Y-83118244D01*
X101124688Y-83118253D01*
X101124676Y-83118269D01*
X101013670Y-83271058D01*
X101013666Y-83271065D01*
X100943077Y-83409601D01*
X100915551Y-83438744D01*
X100897418Y-83461915D01*
X100880868Y-83467685D01*
X100878286Y-83468929D01*
X100878144Y-83468635D01*
X100831444Y-83484920D01*
X100763506Y-83468606D01*
X100715173Y-83418151D01*
X100703552Y-83384825D01*
X100702796Y-83380951D01*
X100700500Y-83357201D01*
X100700500Y-83338280D01*
X100694392Y-83271065D01*
X100694137Y-83268257D01*
X100643930Y-83107135D01*
X100556622Y-82962711D01*
X100556620Y-82962709D01*
X100556619Y-82962707D01*
X100437293Y-82843381D01*
X100437289Y-82843378D01*
X100437281Y-82843372D01*
X100325608Y-82775863D01*
X100298313Y-82753494D01*
X100285152Y-82739123D01*
X100255804Y-82683390D01*
X100253704Y-82674339D01*
X100250500Y-82646329D01*
X100250500Y-81026077D01*
X100234072Y-80943495D01*
X100232286Y-80931454D01*
X100231097Y-80919380D01*
X100230500Y-80907228D01*
X100230500Y-80335363D01*
X100235523Y-80300427D01*
X100239927Y-80285429D01*
X100277690Y-80226662D01*
X100278901Y-80225611D01*
X100281585Y-80223286D01*
X100330334Y-80197315D01*
X100331233Y-80197071D01*
X100332134Y-80196827D01*
X100351997Y-80193144D01*
X100382797Y-80189999D01*
X100549334Y-80134814D01*
X100698656Y-80042712D01*
X100822712Y-79918656D01*
X100914814Y-79769334D01*
X100969999Y-79602797D01*
X100980500Y-79500009D01*
X100980499Y-79455134D01*
X100985522Y-79420199D01*
X100992932Y-79394962D01*
X101024226Y-79342217D01*
X101410297Y-78956147D01*
X101471619Y-78922663D01*
X101541311Y-78927647D01*
X101597244Y-78969519D01*
X101605363Y-78981828D01*
X101619896Y-79007000D01*
X101619899Y-79007004D01*
X101619901Y-79007007D01*
X101712993Y-79100099D01*
X101738169Y-79114634D01*
X101786384Y-79165202D01*
X101799606Y-79233809D01*
X101773638Y-79298673D01*
X101763849Y-79309702D01*
X101150892Y-79922657D01*
X101150893Y-79922657D01*
X101150893Y-79922658D01*
X101233828Y-79982914D01*
X101444197Y-80090102D01*
X101575782Y-80132857D01*
X101605252Y-80153007D01*
X101668749Y-80163064D01*
X101668752Y-80163065D01*
X101668751Y-80163065D01*
X101901948Y-80200000D01*
X102138051Y-80200000D01*
X102138052Y-80200000D01*
X102371247Y-80163065D01*
X102595802Y-80090102D01*
X102806163Y-79982918D01*
X102806169Y-79982914D01*
X102856509Y-79946340D01*
X102883247Y-79936799D01*
X102889105Y-79922657D01*
X102276149Y-79309702D01*
X102242664Y-79248379D01*
X102247648Y-79178688D01*
X102289519Y-79122754D01*
X102301822Y-79114639D01*
X102327007Y-79100099D01*
X102420099Y-79007007D01*
X102434634Y-78981830D01*
X102485199Y-78933616D01*
X102553805Y-78920391D01*
X102618671Y-78946358D01*
G37*
%TD.AperFunction*%
%TA.AperFunction,Conductor*%
G36*
X131998335Y-74000541D02*
G01*
X132001680Y-74000629D01*
X132004763Y-74000749D01*
X132011162Y-74001084D01*
X132011166Y-74001086D01*
X132011167Y-74001085D01*
X132027948Y-74001964D01*
X132278423Y-74015091D01*
X132282066Y-74015337D01*
X132284059Y-74015501D01*
X132285708Y-74015638D01*
X132289372Y-74015995D01*
X132348530Y-74022661D01*
X132351198Y-74022991D01*
X132354040Y-74023377D01*
X132356673Y-74023764D01*
X132595080Y-74061523D01*
X132599135Y-74062235D01*
X132603247Y-74063028D01*
X132607307Y-74063883D01*
X132659796Y-74075864D01*
X132661924Y-74076371D01*
X132664083Y-74076906D01*
X132666264Y-74077469D01*
X132905940Y-74141690D01*
X132910384Y-74142971D01*
X132914754Y-74144319D01*
X132919123Y-74145756D01*
X132958860Y-74159660D01*
X132960592Y-74160282D01*
X132962153Y-74160855D01*
X132963862Y-74161496D01*
X132963865Y-74161497D01*
X133207027Y-74254838D01*
X133211706Y-74256746D01*
X133216400Y-74258773D01*
X133221022Y-74260883D01*
X133238671Y-74269382D01*
X133239867Y-74269966D01*
X133241129Y-74270591D01*
X133242274Y-74271166D01*
X133491101Y-74397949D01*
X133496795Y-74401042D01*
X133502377Y-74404265D01*
X133507909Y-74407655D01*
X133754882Y-74568042D01*
X133760235Y-74571721D01*
X133765487Y-74575537D01*
X133770634Y-74579487D01*
X133999490Y-74764810D01*
X134004408Y-74769010D01*
X134009264Y-74773381D01*
X134013949Y-74777829D01*
X134222169Y-74986049D01*
X134226617Y-74990736D01*
X134230986Y-74995587D01*
X134235188Y-75000507D01*
X134420512Y-75229364D01*
X134424466Y-75234518D01*
X134428283Y-75239772D01*
X134431958Y-75245119D01*
X134592328Y-75492067D01*
X134595714Y-75497592D01*
X134598960Y-75503213D01*
X134602064Y-75508928D01*
X134728776Y-75757614D01*
X134729427Y-75758910D01*
X134730055Y-75760179D01*
X134730639Y-75761376D01*
X134739109Y-75778964D01*
X134741230Y-75783612D01*
X134743249Y-75788288D01*
X134745172Y-75793004D01*
X134838457Y-76036020D01*
X134839112Y-76037767D01*
X134839753Y-76039515D01*
X134840374Y-76041248D01*
X134854221Y-76080817D01*
X134855667Y-76085210D01*
X134857031Y-76089630D01*
X134858320Y-76094101D01*
X134922503Y-76333634D01*
X134923094Y-76335927D01*
X134923659Y-76338209D01*
X134924184Y-76340418D01*
X134936099Y-76392623D01*
X134936957Y-76396694D01*
X134937757Y-76400835D01*
X134938481Y-76404959D01*
X134976216Y-76643217D01*
X134976618Y-76645951D01*
X134977003Y-76648790D01*
X134977348Y-76651570D01*
X134983995Y-76710565D01*
X134984356Y-76714258D01*
X134984662Y-76717969D01*
X134984911Y-76721668D01*
X134999246Y-76995152D01*
X134999373Y-76998396D01*
X134999457Y-77001603D01*
X134999500Y-77004850D01*
X134999500Y-129784206D01*
X134998902Y-129796367D01*
X134997712Y-129808442D01*
X134995927Y-129820474D01*
X134991970Y-129840366D01*
X134984914Y-129863626D01*
X134975747Y-129885757D01*
X134964284Y-129907200D01*
X134961903Y-129910763D01*
X134946486Y-129929548D01*
X134929548Y-129946486D01*
X134910757Y-129961908D01*
X134907195Y-129964288D01*
X134885762Y-129975744D01*
X134863633Y-129984911D01*
X134840379Y-129991967D01*
X134838344Y-129992372D01*
X134838337Y-129992373D01*
X134838330Y-129992375D01*
X134825052Y-129995016D01*
X134820468Y-129995928D01*
X134808441Y-129997712D01*
X134796368Y-129998902D01*
X134784205Y-129999500D01*
X90624000Y-129999500D01*
X90556961Y-129979815D01*
X90511206Y-129927011D01*
X90500000Y-129875500D01*
X90500000Y-126253166D01*
X90519685Y-126186127D01*
X90572489Y-126140372D01*
X90641647Y-126130428D01*
X90671448Y-126138603D01*
X90696363Y-126148923D01*
X90711499Y-126155192D01*
X90737333Y-126165894D01*
X90737338Y-126165895D01*
X90737341Y-126165896D01*
X90903680Y-126198982D01*
X90906403Y-126199704D01*
X90911306Y-126200500D01*
X91088693Y-126200500D01*
X91092814Y-126200500D01*
X91100667Y-126198117D01*
X91146682Y-126188964D01*
X91146683Y-126188964D01*
X91262653Y-126165897D01*
X91262653Y-126165896D01*
X91262658Y-126165896D01*
X91262661Y-126165894D01*
X91262666Y-126165894D01*
X91265854Y-126164573D01*
X91273835Y-126161273D01*
X91273876Y-126161251D01*
X91426540Y-126098016D01*
X91426540Y-126098015D01*
X91426547Y-126098013D01*
X91444110Y-126086278D01*
X96700000Y-126086278D01*
X96700000Y-126086286D01*
X96700000Y-126750000D01*
X97387750Y-126750000D01*
X97454789Y-126769685D01*
X97500544Y-126822489D01*
X97510488Y-126891647D01*
X97507524Y-126906095D01*
X97500000Y-126934171D01*
X97500000Y-127065828D01*
X97507524Y-127093905D01*
X97505863Y-127163755D01*
X97466701Y-127221618D01*
X97402473Y-127249123D01*
X97387750Y-127250000D01*
X96700000Y-127250000D01*
X96700000Y-127913720D01*
X96710287Y-128014402D01*
X96710289Y-128014413D01*
X96764350Y-128177562D01*
X96764356Y-128177574D01*
X96764362Y-128177585D01*
X96804296Y-128242327D01*
X96837289Y-128295817D01*
X96854584Y-128323855D01*
X96854591Y-128323866D01*
X96854595Y-128323871D01*
X96976127Y-128445403D01*
X96976130Y-128445405D01*
X96976133Y-128445408D01*
X96976137Y-128445411D01*
X97122421Y-128535641D01*
X97122432Y-128535646D01*
X97122436Y-128535648D01*
X97221507Y-128568476D01*
X97285590Y-128589711D01*
X97386286Y-128599999D01*
X97386293Y-128599999D01*
X97386295Y-128600000D01*
X97386299Y-128600000D01*
X97750000Y-128600000D01*
X97750000Y-127612250D01*
X97769685Y-127545211D01*
X97822489Y-127499456D01*
X97891647Y-127489512D01*
X97906093Y-127492475D01*
X97934174Y-127500000D01*
X98065825Y-127500000D01*
X98065826Y-127500000D01*
X98093905Y-127492476D01*
X98163755Y-127494137D01*
X98221618Y-127533299D01*
X98249123Y-127597527D01*
X98250000Y-127612250D01*
X98250000Y-128600000D01*
X98613701Y-128600000D01*
X98613705Y-128600000D01*
X98636820Y-128597638D01*
X98714409Y-128589711D01*
X98822548Y-128553877D01*
X98877562Y-128535648D01*
X98877564Y-128535646D01*
X98877567Y-128535646D01*
X98877578Y-128535641D01*
X99023862Y-128445411D01*
X99023866Y-128445408D01*
X99145408Y-128323866D01*
X99145411Y-128323862D01*
X99235641Y-128177578D01*
X99235644Y-128177570D01*
X99246262Y-128145525D01*
X99262016Y-128113950D01*
X99269447Y-128103216D01*
X99323792Y-128059304D01*
X99393251Y-128051743D01*
X99451518Y-128079164D01*
X99455935Y-128082903D01*
X99458483Y-128085061D01*
X99478674Y-128106808D01*
X99498926Y-128134683D01*
X99508016Y-128147195D01*
X99508028Y-128147212D01*
X99508030Y-128147214D01*
X99508032Y-128147216D01*
X99652786Y-128291970D01*
X99790592Y-128392090D01*
X99818390Y-128412286D01*
X99934607Y-128471502D01*
X99973044Y-128491087D01*
X99994327Y-128501931D01*
X99994326Y-128501931D01*
X100001649Y-128505662D01*
X100005401Y-128506720D01*
X100067850Y-128527011D01*
X100195465Y-128568476D01*
X100267056Y-128579815D01*
X100397648Y-128600499D01*
X100397649Y-128600499D01*
X100602351Y-128600499D01*
X100602352Y-128600499D01*
X100804534Y-128568476D01*
X100999219Y-128505219D01*
X100999247Y-128505205D01*
X101003798Y-128502885D01*
X101003831Y-128502879D01*
X101003827Y-128502871D01*
X101026954Y-128491087D01*
X101181610Y-128412286D01*
X101303311Y-128323866D01*
X101347213Y-128291970D01*
X101347214Y-128291967D01*
X101347216Y-128291966D01*
X101347219Y-128291965D01*
X101347220Y-128291963D01*
X101347273Y-128291925D01*
X101347984Y-128291199D01*
X101491966Y-128147218D01*
X101491970Y-128147213D01*
X101491971Y-128147212D01*
X101612287Y-127981609D01*
X101612288Y-127981608D01*
X101632138Y-127942648D01*
X101632851Y-127941332D01*
X101634540Y-127939629D01*
X101651749Y-127915217D01*
X101660649Y-127905793D01*
X101678416Y-127895422D01*
X101682070Y-127891741D01*
X101686344Y-127890794D01*
X101720986Y-127870573D01*
X101790792Y-127873565D01*
X101844506Y-127909732D01*
X101850577Y-127916738D01*
X101867348Y-127941644D01*
X101887713Y-127981611D01*
X102008028Y-128147213D01*
X102152786Y-128291971D01*
X102290591Y-128392090D01*
X102318390Y-128412287D01*
X102434607Y-128471503D01*
X102478714Y-128493977D01*
X102494327Y-128501932D01*
X102494326Y-128501932D01*
X102501649Y-128505663D01*
X102505401Y-128506721D01*
X102567847Y-128527011D01*
X102695465Y-128568477D01*
X102756790Y-128578190D01*
X102897648Y-128600500D01*
X102897649Y-128600500D01*
X103102351Y-128600500D01*
X103102352Y-128600500D01*
X103304534Y-128568477D01*
X103499219Y-128505220D01*
X103499249Y-128505205D01*
X103521310Y-128493964D01*
X103681610Y-128412287D01*
X103841919Y-128295817D01*
X103847213Y-128291971D01*
X103847213Y-128291969D01*
X103847272Y-128291927D01*
X103848030Y-128291154D01*
X103991966Y-128147219D01*
X103991968Y-128147215D01*
X103991971Y-128147213D01*
X104030106Y-128094724D01*
X104057760Y-128056661D01*
X104057761Y-128056659D01*
X104057767Y-128056651D01*
X104112287Y-127981610D01*
X104205220Y-127799219D01*
X104268477Y-127604534D01*
X104300500Y-127402352D01*
X104300500Y-126597648D01*
X104268477Y-126395466D01*
X104253864Y-126350493D01*
X104205218Y-126200776D01*
X104162470Y-126116880D01*
X104112287Y-126018390D01*
X104061102Y-125947939D01*
X103991971Y-125852786D01*
X103847213Y-125708028D01*
X103847209Y-125708025D01*
X103692202Y-125595408D01*
X103692199Y-125595406D01*
X103681613Y-125587715D01*
X103681612Y-125587714D01*
X103681610Y-125587713D01*
X103675535Y-125584617D01*
X103675531Y-125584615D01*
X103616599Y-125554588D01*
X103499223Y-125494781D01*
X103304534Y-125431522D01*
X103304532Y-125431521D01*
X103304530Y-125431521D01*
X103304529Y-125431520D01*
X103129995Y-125403878D01*
X103113409Y-125401251D01*
X103102354Y-125399500D01*
X103102352Y-125399500D01*
X102897648Y-125399500D01*
X102897647Y-125399500D01*
X102873327Y-125403351D01*
X102873326Y-125403350D01*
X102695468Y-125431521D01*
X102500777Y-125494780D01*
X102500764Y-125494786D01*
X102318397Y-125587708D01*
X102318385Y-125587715D01*
X102152787Y-125708027D01*
X102152784Y-125708029D01*
X102008030Y-125852783D01*
X101887710Y-126018392D01*
X101868576Y-126055945D01*
X101848242Y-126084789D01*
X101839353Y-126094201D01*
X101779012Y-126129424D01*
X101709206Y-126126432D01*
X101655491Y-126090264D01*
X101649421Y-126083259D01*
X101632648Y-126058349D01*
X101624486Y-126042330D01*
X101624486Y-126042331D01*
X101612287Y-126018389D01*
X101595625Y-125995456D01*
X101595619Y-125995448D01*
X101530106Y-125905274D01*
X101491971Y-125852785D01*
X101347213Y-125708027D01*
X101181613Y-125587714D01*
X101181612Y-125587713D01*
X101181610Y-125587712D01*
X101153171Y-125573221D01*
X101124654Y-125558690D01*
X101124653Y-125558690D01*
X100999223Y-125494780D01*
X100804534Y-125431521D01*
X100804532Y-125431520D01*
X100804530Y-125431520D01*
X100804529Y-125431519D01*
X100629995Y-125403877D01*
X100613409Y-125401250D01*
X100602354Y-125399499D01*
X100602352Y-125399499D01*
X100397648Y-125399499D01*
X100397647Y-125399499D01*
X100373327Y-125403350D01*
X100373326Y-125403349D01*
X100195468Y-125431520D01*
X100000777Y-125494779D01*
X100000764Y-125494785D01*
X99818397Y-125587707D01*
X99818385Y-125587714D01*
X99652787Y-125708026D01*
X99652784Y-125708028D01*
X99508026Y-125852786D01*
X99480374Y-125890848D01*
X99455776Y-125916159D01*
X99445439Y-125924130D01*
X99380330Y-125949479D01*
X99311852Y-125935604D01*
X99264649Y-125891782D01*
X99259801Y-125884048D01*
X99247170Y-125857209D01*
X99235648Y-125822436D01*
X99235642Y-125822424D01*
X99235641Y-125822421D01*
X99145411Y-125676137D01*
X99145408Y-125676133D01*
X99145405Y-125676130D01*
X99145403Y-125676127D01*
X99023871Y-125554595D01*
X99023868Y-125554593D01*
X99023866Y-125554591D01*
X99023862Y-125554588D01*
X98926898Y-125494779D01*
X98877585Y-125464362D01*
X98877574Y-125464356D01*
X98877562Y-125464350D01*
X98714413Y-125410289D01*
X98714410Y-125410288D01*
X98714409Y-125410288D01*
X98714405Y-125410287D01*
X98714402Y-125410287D01*
X98613720Y-125400000D01*
X98613713Y-125400000D01*
X98250000Y-125400000D01*
X98250000Y-126387749D01*
X98230315Y-126454788D01*
X98177511Y-126500543D01*
X98108353Y-126510487D01*
X98093908Y-126507524D01*
X98065828Y-126500000D01*
X98065826Y-126500000D01*
X97934174Y-126500000D01*
X97934171Y-126500000D01*
X97906092Y-126507524D01*
X97836242Y-126505861D01*
X97778380Y-126466698D01*
X97750877Y-126402469D01*
X97750000Y-126387749D01*
X97750000Y-125400000D01*
X97386286Y-125400000D01*
X97386278Y-125400000D01*
X97285596Y-125410287D01*
X97285591Y-125410287D01*
X97285590Y-125410288D01*
X97285589Y-125410288D01*
X97285585Y-125410289D01*
X97122436Y-125464350D01*
X97122424Y-125464356D01*
X97122413Y-125464362D01*
X96976143Y-125554584D01*
X96976130Y-125554593D01*
X96976127Y-125554595D01*
X96854595Y-125676127D01*
X96854593Y-125676130D01*
X96854584Y-125676143D01*
X96764362Y-125822413D01*
X96764356Y-125822424D01*
X96764350Y-125822436D01*
X96710289Y-125985585D01*
X96710287Y-125985596D01*
X96700000Y-126086278D01*
X91444110Y-126086278D01*
X91574035Y-125999464D01*
X91574038Y-125999461D01*
X91574059Y-125999439D01*
X91578045Y-125995456D01*
X91578052Y-125995448D01*
X91699461Y-125874038D01*
X91699464Y-125874035D01*
X91798013Y-125726547D01*
X91865894Y-125562666D01*
X91867501Y-125554591D01*
X91873620Y-125523823D01*
X91891980Y-125431525D01*
X91891980Y-125431520D01*
X91900500Y-125388691D01*
X91900500Y-125211309D01*
X91900500Y-125211306D01*
X91900500Y-125211125D01*
X91900074Y-125209169D01*
X91865896Y-125037341D01*
X91865893Y-125037332D01*
X91798016Y-124873459D01*
X91798009Y-124873446D01*
X91699464Y-124725965D01*
X91699461Y-124725961D01*
X91674423Y-124700923D01*
X91653272Y-124672667D01*
X91640666Y-124649579D01*
X91625500Y-124590156D01*
X91625500Y-123343271D01*
X123057500Y-123343271D01*
X123057500Y-126971711D01*
X123067903Y-127103914D01*
X123067904Y-127103918D01*
X123067906Y-127103929D01*
X123122899Y-127322168D01*
X123122901Y-127322176D01*
X123122906Y-127322189D01*
X123215986Y-127527114D01*
X123215992Y-127527124D01*
X123215995Y-127527130D01*
X123215999Y-127527136D01*
X123344159Y-127712125D01*
X123344182Y-127712155D01*
X123344185Y-127712159D01*
X123503003Y-127870977D01*
X123503006Y-127870979D01*
X123503346Y-127871319D01*
X123503350Y-127871322D01*
X123503354Y-127871325D01*
X123630915Y-127959699D01*
X123688374Y-127999507D01*
X123893317Y-128092596D01*
X123893321Y-128092597D01*
X123893323Y-128092597D01*
X123893397Y-128092623D01*
X123893532Y-128092650D01*
X124025777Y-128125973D01*
X124109716Y-128147125D01*
X124111356Y-128147565D01*
X124111568Y-128147591D01*
X124111579Y-128147594D01*
X124111581Y-128147594D01*
X124111588Y-128147596D01*
X124111636Y-128147599D01*
X124113847Y-128147874D01*
X124116406Y-128147975D01*
X124243783Y-128158000D01*
X125372216Y-128157999D01*
X125504412Y-128147596D01*
X125722683Y-128092596D01*
X125927626Y-127999507D01*
X126112654Y-127871319D01*
X126271819Y-127712154D01*
X126400007Y-127527126D01*
X126493096Y-127322183D01*
X126493096Y-127322181D01*
X126493098Y-127322178D01*
X126548094Y-127103920D01*
X126548095Y-127103914D01*
X126548096Y-127103912D01*
X126558500Y-126971717D01*
X126558499Y-125037341D01*
X126558499Y-123343291D01*
X126558498Y-123343283D01*
X126558497Y-123343271D01*
X126558395Y-123341634D01*
X126558275Y-123340450D01*
X126548102Y-123211167D01*
X126548096Y-123211088D01*
X126548095Y-123211083D01*
X126548095Y-123211082D01*
X126493097Y-122992821D01*
X126493096Y-122992818D01*
X126400011Y-122787884D01*
X126400007Y-122787874D01*
X126368297Y-122742103D01*
X126271825Y-122602854D01*
X126271822Y-122602850D01*
X126271819Y-122602846D01*
X126112654Y-122443681D01*
X126112652Y-122443679D01*
X126112647Y-122443675D01*
X126107969Y-122440434D01*
X126103716Y-122436888D01*
X126101100Y-122432983D01*
X126086661Y-122419564D01*
X126079555Y-122410766D01*
X126068665Y-122384560D01*
X126064833Y-122378838D01*
X126064763Y-122375168D01*
X126052745Y-122346245D01*
X126065075Y-122277472D01*
X126112628Y-122226282D01*
X126113846Y-122225557D01*
X126114941Y-122224907D01*
X126178298Y-122207499D01*
X127557999Y-122207499D01*
X127558000Y-122207498D01*
X127558000Y-121081500D01*
X127577685Y-121014461D01*
X127630489Y-120968706D01*
X127682000Y-120957500D01*
X127934000Y-120957500D01*
X128001039Y-120977185D01*
X128046794Y-121029989D01*
X128058000Y-121081500D01*
X128058000Y-122207499D01*
X129430578Y-122207499D01*
X129492281Y-122223941D01*
X129498257Y-122227369D01*
X129508465Y-122230366D01*
X129554223Y-122283168D01*
X129564170Y-122352326D01*
X129554228Y-122386191D01*
X129553128Y-122388600D01*
X129510951Y-122439019D01*
X129504226Y-122443679D01*
X129503667Y-122444066D01*
X129503660Y-122444072D01*
X129503655Y-122444076D01*
X129344581Y-122603150D01*
X129344565Y-122603168D01*
X129344564Y-122603169D01*
X129344559Y-122603174D01*
X129344559Y-122603176D01*
X129248276Y-122742154D01*
X129216427Y-122788125D01*
X129123376Y-122992981D01*
X129068400Y-123211165D01*
X129058001Y-123343295D01*
X129058000Y-123343303D01*
X129058000Y-124907500D01*
X130184000Y-124907500D01*
X130251039Y-124927185D01*
X130296794Y-124979989D01*
X130308000Y-125031500D01*
X130308000Y-125283500D01*
X130288315Y-125350539D01*
X130235511Y-125396294D01*
X130184000Y-125407500D01*
X129058001Y-125407500D01*
X129058001Y-126971702D01*
X129060610Y-127004849D01*
X129068400Y-127103832D01*
X129083499Y-127163755D01*
X129123376Y-127322017D01*
X129216427Y-127526873D01*
X129216428Y-127526874D01*
X129216431Y-127526880D01*
X129344559Y-127711823D01*
X129344564Y-127711829D01*
X129344565Y-127711830D01*
X129344581Y-127711848D01*
X129503650Y-127870917D01*
X129503659Y-127870925D01*
X129503664Y-127870930D01*
X129503676Y-127870940D01*
X129688619Y-127999068D01*
X129688625Y-127999071D01*
X129893480Y-128092122D01*
X130111667Y-128147099D01*
X130243810Y-128157499D01*
X130557999Y-128157499D01*
X130558000Y-128157498D01*
X130558000Y-126769750D01*
X130577685Y-126702711D01*
X130630489Y-126656956D01*
X130699647Y-126647012D01*
X130714093Y-126649975D01*
X130742174Y-126657500D01*
X130873825Y-126657500D01*
X130873826Y-126657500D01*
X130901905Y-126649976D01*
X130971755Y-126651637D01*
X131029618Y-126690799D01*
X131057123Y-126755027D01*
X131058000Y-126769750D01*
X131058000Y-128157499D01*
X131372177Y-128157499D01*
X131372182Y-128157499D01*
X131372197Y-128157498D01*
X131504332Y-128147099D01*
X131722519Y-128092122D01*
X131927374Y-127999071D01*
X131927380Y-127999068D01*
X132112323Y-127870940D01*
X132112335Y-127870930D01*
X132271430Y-127711835D01*
X132271440Y-127711823D01*
X132399568Y-127526880D01*
X132399571Y-127526874D01*
X132492622Y-127322019D01*
X132547599Y-127103832D01*
X132557997Y-126971722D01*
X132558000Y-126971687D01*
X132558000Y-125407500D01*
X131432000Y-125407500D01*
X131364961Y-125387815D01*
X131319206Y-125335011D01*
X131308000Y-125283500D01*
X131308000Y-125031500D01*
X131327685Y-124964461D01*
X131380489Y-124918706D01*
X131432000Y-124907500D01*
X132557999Y-124907500D01*
X132557999Y-123343321D01*
X132557999Y-123343317D01*
X132557998Y-123343302D01*
X132547599Y-123211167D01*
X132492622Y-122992980D01*
X132399571Y-122788125D01*
X132399568Y-122788119D01*
X132271440Y-122603176D01*
X132271430Y-122603164D01*
X132271425Y-122603159D01*
X132271417Y-122603150D01*
X132112348Y-122444081D01*
X132112338Y-122444072D01*
X132112335Y-122444069D01*
X132112323Y-122444059D01*
X131927380Y-122315931D01*
X131927374Y-122315928D01*
X131927375Y-122315928D01*
X131927373Y-122315927D01*
X131722517Y-122222876D01*
X131504332Y-122167900D01*
X131504334Y-122167900D01*
X131372199Y-122157500D01*
X131372196Y-122157500D01*
X131058000Y-122157500D01*
X131058000Y-123545249D01*
X131038315Y-123612288D01*
X130985511Y-123658043D01*
X130916353Y-123667987D01*
X130901908Y-123665024D01*
X130873828Y-123657500D01*
X130873826Y-123657500D01*
X130742174Y-123657500D01*
X130742171Y-123657500D01*
X130714092Y-123665024D01*
X130644242Y-123663361D01*
X130586380Y-123624198D01*
X130558877Y-123559969D01*
X130558000Y-123545249D01*
X130558000Y-122157500D01*
X130435423Y-122157500D01*
X130373708Y-122141051D01*
X130367757Y-122137636D01*
X130357551Y-122134642D01*
X130311785Y-122081848D01*
X130301827Y-122012692D01*
X130311762Y-121978831D01*
X130312867Y-121976410D01*
X130355054Y-121925975D01*
X130362328Y-121920936D01*
X130362335Y-121920930D01*
X130521430Y-121761835D01*
X130521440Y-121761823D01*
X130649568Y-121576880D01*
X130649571Y-121576874D01*
X130742622Y-121372019D01*
X130797599Y-121153832D01*
X130807999Y-121021696D01*
X130808000Y-121021684D01*
X130808000Y-120707500D01*
X129420250Y-120707500D01*
X129353211Y-120687815D01*
X129307456Y-120635011D01*
X129297512Y-120565853D01*
X129300476Y-120551405D01*
X129307999Y-120523328D01*
X129308000Y-120523325D01*
X129308000Y-120391675D01*
X129307999Y-120391671D01*
X129300476Y-120363595D01*
X129302137Y-120293745D01*
X129341299Y-120235882D01*
X129405527Y-120208377D01*
X129420250Y-120207500D01*
X130807999Y-120207500D01*
X130807999Y-119893321D01*
X130807999Y-119893317D01*
X130807998Y-119893302D01*
X130797599Y-119761167D01*
X130742622Y-119542980D01*
X130649571Y-119338125D01*
X130649568Y-119338119D01*
X130521440Y-119153176D01*
X130521430Y-119153164D01*
X130521425Y-119153159D01*
X130521417Y-119153150D01*
X130362348Y-118994081D01*
X130362339Y-118994073D01*
X130362335Y-118994069D01*
X130362323Y-118994059D01*
X130177380Y-118865931D01*
X130177374Y-118865928D01*
X130177375Y-118865928D01*
X130177373Y-118865927D01*
X129972517Y-118772876D01*
X129754332Y-118717900D01*
X129754334Y-118717900D01*
X129622199Y-118707500D01*
X129622196Y-118707500D01*
X128058000Y-118707500D01*
X128058000Y-119833500D01*
X128038315Y-119900539D01*
X127985511Y-119946294D01*
X127934000Y-119957500D01*
X127682000Y-119957500D01*
X127614961Y-119937815D01*
X127569206Y-119885011D01*
X127558000Y-119833500D01*
X127558000Y-118707500D01*
X125993817Y-118707500D01*
X125993814Y-118707500D01*
X125959318Y-118710214D01*
X125861667Y-118717900D01*
X125807985Y-118731426D01*
X125643481Y-118772876D01*
X125438625Y-118865927D01*
X125438619Y-118865930D01*
X125438619Y-118865931D01*
X125307672Y-118956651D01*
X125253669Y-118994064D01*
X125253668Y-118994065D01*
X125253650Y-118994081D01*
X125094581Y-119153150D01*
X125094565Y-119153168D01*
X125094564Y-119153169D01*
X125094559Y-119153174D01*
X125094559Y-119153176D01*
X124989684Y-119304556D01*
X124966427Y-119338125D01*
X124873376Y-119542981D01*
X124818400Y-119761165D01*
X124808653Y-119885011D01*
X124808000Y-119893303D01*
X124808000Y-120207500D01*
X126195750Y-120207500D01*
X126262789Y-120227185D01*
X126308544Y-120279989D01*
X126318488Y-120349147D01*
X126315524Y-120363595D01*
X126308000Y-120391671D01*
X126308000Y-120523328D01*
X126315524Y-120551405D01*
X126313863Y-120621255D01*
X126274701Y-120679118D01*
X126210473Y-120706623D01*
X126195750Y-120707500D01*
X124808001Y-120707500D01*
X124808001Y-121021702D01*
X124812707Y-121081500D01*
X124818400Y-121153832D01*
X124818401Y-121153834D01*
X124873376Y-121372017D01*
X124966427Y-121576873D01*
X124966428Y-121576874D01*
X124966431Y-121576880D01*
X125094559Y-121761823D01*
X125094564Y-121761829D01*
X125094565Y-121761830D01*
X125094581Y-121761848D01*
X125253644Y-121920911D01*
X125253656Y-121920922D01*
X125253664Y-121920930D01*
X125253671Y-121920936D01*
X125253680Y-121920944D01*
X125256433Y-121923091D01*
X125256311Y-121923246D01*
X125256315Y-121923250D01*
X125256259Y-121923312D01*
X125255984Y-121923666D01*
X125295008Y-121969590D01*
X125297947Y-121975770D01*
X125304632Y-121984044D01*
X125312191Y-122053503D01*
X125280997Y-122116023D01*
X125253545Y-122138205D01*
X125251268Y-122139560D01*
X125187856Y-122157000D01*
X124243787Y-122157000D01*
X124111584Y-122167403D01*
X124111580Y-122167404D01*
X124111569Y-122167406D01*
X123893330Y-122222399D01*
X123893309Y-122222406D01*
X123688384Y-122315486D01*
X123688374Y-122315492D01*
X123688368Y-122315495D01*
X123688362Y-122315499D01*
X123503359Y-122443669D01*
X123503349Y-122443677D01*
X123503346Y-122443680D01*
X123503328Y-122443696D01*
X123344196Y-122602828D01*
X123344180Y-122602846D01*
X123344177Y-122602849D01*
X123344169Y-122602859D01*
X123215999Y-122787862D01*
X123215995Y-122787868D01*
X123215992Y-122787874D01*
X123215986Y-122787884D01*
X123122906Y-122992809D01*
X123122899Y-122992830D01*
X123067906Y-123211069D01*
X123067904Y-123211080D01*
X123067904Y-123211083D01*
X123057500Y-123343271D01*
X91625500Y-123343271D01*
X91625500Y-116986278D01*
X96700000Y-116986278D01*
X96700000Y-116986286D01*
X96700000Y-117650000D01*
X97387750Y-117650000D01*
X97454789Y-117669685D01*
X97500544Y-117722489D01*
X97510488Y-117791647D01*
X97507524Y-117806095D01*
X97500000Y-117834171D01*
X97500000Y-117965828D01*
X97507524Y-117993905D01*
X97505863Y-118063755D01*
X97466701Y-118121618D01*
X97402473Y-118149123D01*
X97387750Y-118150000D01*
X96700000Y-118150000D01*
X96700000Y-118813720D01*
X96710287Y-118914402D01*
X96710289Y-118914413D01*
X96764350Y-119077562D01*
X96764356Y-119077574D01*
X96764362Y-119077585D01*
X96791387Y-119121399D01*
X96849674Y-119215896D01*
X96854584Y-119223855D01*
X96854591Y-119223866D01*
X96854595Y-119223871D01*
X96976127Y-119345403D01*
X96976130Y-119345405D01*
X96976133Y-119345408D01*
X96976137Y-119345411D01*
X97122421Y-119435641D01*
X97122432Y-119435646D01*
X97122436Y-119435648D01*
X97221501Y-119468474D01*
X97285590Y-119489711D01*
X97386286Y-119499999D01*
X97386293Y-119499999D01*
X97386295Y-119500000D01*
X97386299Y-119500000D01*
X97750000Y-119500000D01*
X97750000Y-118512250D01*
X97769685Y-118445211D01*
X97822489Y-118399456D01*
X97891647Y-118389512D01*
X97906093Y-118392475D01*
X97934174Y-118400000D01*
X98065825Y-118400000D01*
X98065826Y-118400000D01*
X98093905Y-118392476D01*
X98163755Y-118394137D01*
X98221618Y-118433299D01*
X98249123Y-118497527D01*
X98250000Y-118512250D01*
X98250000Y-119500000D01*
X98613701Y-119500000D01*
X98613705Y-119500000D01*
X98636820Y-119497638D01*
X98714409Y-119489711D01*
X98822548Y-119453877D01*
X98877562Y-119435648D01*
X98877564Y-119435646D01*
X98877567Y-119435646D01*
X98877578Y-119435641D01*
X99023862Y-119345411D01*
X99023866Y-119345408D01*
X99145408Y-119223866D01*
X99145411Y-119223862D01*
X99235641Y-119077578D01*
X99235644Y-119077570D01*
X99246262Y-119045525D01*
X99262016Y-119013950D01*
X99269447Y-119003216D01*
X99323792Y-118959304D01*
X99393251Y-118951743D01*
X99451518Y-118979164D01*
X99455935Y-118982903D01*
X99458483Y-118985061D01*
X99478674Y-119006808D01*
X99498926Y-119034683D01*
X99508016Y-119047195D01*
X99508028Y-119047212D01*
X99508030Y-119047214D01*
X99508032Y-119047216D01*
X99652786Y-119191970D01*
X99807749Y-119304555D01*
X99818390Y-119312286D01*
X99934607Y-119371502D01*
X99995154Y-119402352D01*
X99996043Y-119402823D01*
X99996249Y-119403024D01*
X99999629Y-119404661D01*
X100001637Y-119405658D01*
X100005403Y-119406721D01*
X100094410Y-119435641D01*
X100195465Y-119468476D01*
X100296557Y-119484487D01*
X100397648Y-119500499D01*
X100397649Y-119500499D01*
X100602351Y-119500499D01*
X100602352Y-119500499D01*
X100804534Y-119468476D01*
X100999219Y-119405219D01*
X101181610Y-119312286D01*
X101303311Y-119223866D01*
X101347213Y-119191970D01*
X101347214Y-119191967D01*
X101347216Y-119191966D01*
X101347219Y-119191965D01*
X101347220Y-119191963D01*
X101347273Y-119191925D01*
X101347984Y-119191199D01*
X101491966Y-119047218D01*
X101491970Y-119047213D01*
X101491971Y-119047212D01*
X101612287Y-118881609D01*
X101612288Y-118881608D01*
X101632138Y-118842648D01*
X101632851Y-118841332D01*
X101634540Y-118839629D01*
X101651749Y-118815217D01*
X101660649Y-118805793D01*
X101678416Y-118795422D01*
X101682070Y-118791741D01*
X101686344Y-118790794D01*
X101720986Y-118770573D01*
X101790792Y-118773565D01*
X101844506Y-118809732D01*
X101850577Y-118816738D01*
X101867348Y-118841644D01*
X101887713Y-118881611D01*
X102008028Y-119047213D01*
X102152786Y-119191971D01*
X102307749Y-119304556D01*
X102318390Y-119312287D01*
X102434607Y-119371503D01*
X102495154Y-119402353D01*
X102496043Y-119402824D01*
X102496249Y-119403025D01*
X102499629Y-119404662D01*
X102501637Y-119405659D01*
X102505403Y-119406722D01*
X102594407Y-119435641D01*
X102695465Y-119468477D01*
X102796557Y-119484488D01*
X102897648Y-119500500D01*
X102897649Y-119500500D01*
X103102351Y-119500500D01*
X103102352Y-119500500D01*
X103304534Y-119468477D01*
X103499219Y-119405220D01*
X103681610Y-119312287D01*
X103814285Y-119215894D01*
X103847213Y-119191971D01*
X103847215Y-119191968D01*
X103847219Y-119191966D01*
X103847222Y-119191962D01*
X103847275Y-119191924D01*
X103848032Y-119191152D01*
X103991966Y-119047219D01*
X103991968Y-119047215D01*
X103991971Y-119047213D01*
X104006860Y-119026719D01*
X104057760Y-118956661D01*
X104057761Y-118956659D01*
X104057767Y-118956651D01*
X104112287Y-118881610D01*
X104205220Y-118699219D01*
X104268477Y-118504534D01*
X104300500Y-118302352D01*
X104300500Y-117497648D01*
X104268477Y-117295466D01*
X104266276Y-117288693D01*
X104214794Y-117130247D01*
X104206722Y-117105405D01*
X104205660Y-117101639D01*
X104204655Y-117099615D01*
X104202869Y-117095927D01*
X104201933Y-117094329D01*
X104162470Y-117016880D01*
X104162469Y-117016879D01*
X104150914Y-116994201D01*
X104112287Y-116918390D01*
X104088457Y-116885590D01*
X103991971Y-116752786D01*
X103847213Y-116608028D01*
X103847212Y-116608027D01*
X103847211Y-116608026D01*
X103692202Y-116495408D01*
X103692199Y-116495406D01*
X103681613Y-116487715D01*
X103681612Y-116487714D01*
X103681610Y-116487713D01*
X103675535Y-116484617D01*
X103675531Y-116484615D01*
X103616599Y-116454588D01*
X103499223Y-116394781D01*
X103304534Y-116331522D01*
X103304532Y-116331521D01*
X103304530Y-116331521D01*
X103304529Y-116331520D01*
X103129995Y-116303878D01*
X103113409Y-116301251D01*
X103102354Y-116299500D01*
X103102352Y-116299500D01*
X102897648Y-116299500D01*
X102897647Y-116299500D01*
X102873327Y-116303351D01*
X102873326Y-116303350D01*
X102695468Y-116331521D01*
X102500777Y-116394780D01*
X102500764Y-116394786D01*
X102318397Y-116487708D01*
X102318385Y-116487715D01*
X102152787Y-116608027D01*
X102152784Y-116608029D01*
X102008030Y-116752783D01*
X101887710Y-116918392D01*
X101868576Y-116955945D01*
X101848242Y-116984789D01*
X101839353Y-116994201D01*
X101779012Y-117029424D01*
X101709206Y-117026432D01*
X101655485Y-116990257D01*
X101649415Y-116983251D01*
X101632649Y-116958350D01*
X101613546Y-116920860D01*
X101612287Y-116918389D01*
X101604556Y-116907748D01*
X101491971Y-116752785D01*
X101347213Y-116608027D01*
X101347212Y-116608026D01*
X101347211Y-116608025D01*
X101192202Y-116495407D01*
X101192199Y-116495405D01*
X101181613Y-116487714D01*
X101181612Y-116487713D01*
X101181610Y-116487712D01*
X101117790Y-116455194D01*
X101117790Y-116455193D01*
X101117788Y-116455193D01*
X100999228Y-116394782D01*
X100999221Y-116394779D01*
X100894316Y-116360693D01*
X100804534Y-116331521D01*
X100804532Y-116331520D01*
X100804530Y-116331520D01*
X100804529Y-116331519D01*
X100629995Y-116303877D01*
X100613409Y-116301250D01*
X100602354Y-116299499D01*
X100602352Y-116299499D01*
X100397648Y-116299499D01*
X100397647Y-116299499D01*
X100373327Y-116303350D01*
X100373326Y-116303349D01*
X100195468Y-116331520D01*
X100000777Y-116394779D01*
X100000764Y-116394785D01*
X99818397Y-116487707D01*
X99818385Y-116487714D01*
X99652787Y-116608026D01*
X99652784Y-116608028D01*
X99508026Y-116752786D01*
X99480374Y-116790848D01*
X99455776Y-116816159D01*
X99445439Y-116824130D01*
X99380330Y-116849479D01*
X99311852Y-116835604D01*
X99264649Y-116791782D01*
X99259801Y-116784048D01*
X99247170Y-116757209D01*
X99235648Y-116722436D01*
X99235642Y-116722424D01*
X99235641Y-116722421D01*
X99145411Y-116576137D01*
X99145408Y-116576133D01*
X99145405Y-116576130D01*
X99145403Y-116576127D01*
X99023871Y-116454595D01*
X99023868Y-116454593D01*
X99023866Y-116454591D01*
X99023862Y-116454588D01*
X98926907Y-116394785D01*
X98877585Y-116364362D01*
X98877574Y-116364356D01*
X98877562Y-116364350D01*
X98714413Y-116310289D01*
X98714410Y-116310288D01*
X98714409Y-116310288D01*
X98714405Y-116310287D01*
X98714402Y-116310287D01*
X98613720Y-116300000D01*
X98613713Y-116300000D01*
X98250000Y-116300000D01*
X98250000Y-117287749D01*
X98230315Y-117354788D01*
X98177511Y-117400543D01*
X98108353Y-117410487D01*
X98093908Y-117407524D01*
X98065828Y-117400000D01*
X98065826Y-117400000D01*
X97934174Y-117400000D01*
X97934171Y-117400000D01*
X97906092Y-117407524D01*
X97836242Y-117405861D01*
X97778380Y-117366698D01*
X97750877Y-117302469D01*
X97750000Y-117287749D01*
X97750000Y-116300000D01*
X97386286Y-116300000D01*
X97386278Y-116300000D01*
X97285596Y-116310287D01*
X97285591Y-116310287D01*
X97285590Y-116310288D01*
X97285589Y-116310288D01*
X97285585Y-116310289D01*
X97122436Y-116364350D01*
X97122424Y-116364356D01*
X97122413Y-116364362D01*
X96976143Y-116454584D01*
X96976130Y-116454593D01*
X96976127Y-116454595D01*
X96854595Y-116576127D01*
X96854593Y-116576130D01*
X96854584Y-116576143D01*
X96764362Y-116722413D01*
X96764356Y-116722424D01*
X96764350Y-116722436D01*
X96710289Y-116885585D01*
X96710288Y-116885591D01*
X96700000Y-116986278D01*
X91625500Y-116986278D01*
X91625500Y-114438390D01*
X91625412Y-114437950D01*
X91625387Y-114437824D01*
X91616297Y-114392127D01*
X91605299Y-114336836D01*
X91605298Y-114336833D01*
X91604236Y-114331491D01*
X91601463Y-114317549D01*
X91572560Y-114247771D01*
X91554314Y-114203720D01*
X91554307Y-114203707D01*
X91485858Y-114101267D01*
X91485855Y-114101263D01*
X91395637Y-114011045D01*
X91395621Y-114011030D01*
X91394176Y-114009585D01*
X91394176Y-114009584D01*
X91394144Y-114009554D01*
X90293150Y-112908560D01*
X90285860Y-112901270D01*
X90285858Y-112901267D01*
X90198733Y-112814142D01*
X90147509Y-112779915D01*
X90140840Y-112775458D01*
X90140838Y-112775457D01*
X90096344Y-112745726D01*
X90096344Y-112745727D01*
X90096279Y-112745683D01*
X90094846Y-112744983D01*
X90092216Y-112744001D01*
X90018825Y-112713603D01*
X90018099Y-112713302D01*
X90015793Y-112712347D01*
X90015792Y-112712346D01*
X90015792Y-112712347D01*
X89982452Y-112698537D01*
X89982444Y-112698535D01*
X89922041Y-112686520D01*
X89922034Y-112686519D01*
X89911378Y-112684398D01*
X89911332Y-112684390D01*
X89892669Y-112680678D01*
X89861610Y-112674500D01*
X89861609Y-112674500D01*
X80569310Y-112674500D01*
X80569231Y-112674499D01*
X80567721Y-112674499D01*
X80561607Y-112674499D01*
X80438394Y-112674499D01*
X80418285Y-112678498D01*
X80350987Y-112691884D01*
X80350981Y-112691885D01*
X80337597Y-112694548D01*
X80337592Y-112694548D01*
X80317549Y-112698536D01*
X80317547Y-112698536D01*
X80270397Y-112718067D01*
X80266138Y-112719830D01*
X80266126Y-112719835D01*
X80203718Y-112745685D01*
X80101265Y-112814141D01*
X80101263Y-112814144D01*
X79564835Y-113350573D01*
X79536586Y-113371721D01*
X79513499Y-113384329D01*
X79454067Y-113399500D01*
X79411301Y-113399500D01*
X79237352Y-113434100D01*
X79237345Y-113434101D01*
X79237322Y-113434109D01*
X79073472Y-113501977D01*
X79073454Y-113501985D01*
X79073439Y-113501994D01*
X78925962Y-113600536D01*
X78925961Y-113600537D01*
X78925955Y-113600542D01*
X78800542Y-113725955D01*
X78800537Y-113725961D01*
X78800536Y-113725962D01*
X78701994Y-113873439D01*
X78701985Y-113873454D01*
X78701977Y-113873472D01*
X78634109Y-114037322D01*
X78634101Y-114037345D01*
X78634099Y-114037352D01*
X78599500Y-114211299D01*
X78599500Y-114388699D01*
X78634099Y-114562646D01*
X78634101Y-114562653D01*
X78634109Y-114562676D01*
X78701977Y-114726526D01*
X78701985Y-114726544D01*
X78701994Y-114726559D01*
X78800536Y-114874036D01*
X78800537Y-114874037D01*
X78800542Y-114874043D01*
X78925955Y-114999456D01*
X78925961Y-114999461D01*
X78925965Y-114999464D01*
X79073446Y-115098009D01*
X79073459Y-115098016D01*
X79109579Y-115112977D01*
X79195144Y-115148419D01*
X79195182Y-115148434D01*
X79196363Y-115148923D01*
X79237334Y-115165894D01*
X79237336Y-115165894D01*
X79237341Y-115165896D01*
X79403680Y-115198982D01*
X79406403Y-115199704D01*
X79411306Y-115200500D01*
X79588693Y-115200500D01*
X79592814Y-115200500D01*
X79600667Y-115198117D01*
X79646682Y-115188964D01*
X79646683Y-115188964D01*
X79762653Y-115165897D01*
X79762653Y-115165896D01*
X79762658Y-115165896D01*
X79762661Y-115165894D01*
X79762666Y-115165894D01*
X79765854Y-115164573D01*
X79773835Y-115161273D01*
X79773876Y-115161251D01*
X79926540Y-115098016D01*
X79926540Y-115098015D01*
X79926547Y-115098013D01*
X80074035Y-114999464D01*
X80199464Y-114874035D01*
X80298013Y-114726547D01*
X80365894Y-114562666D01*
X80400500Y-114388691D01*
X80400500Y-114353281D01*
X80405522Y-114318348D01*
X80405757Y-114317549D01*
X80412934Y-114293103D01*
X80444228Y-114240361D01*
X80710167Y-113974423D01*
X80738417Y-113953275D01*
X80761509Y-113940667D01*
X80820934Y-113925500D01*
X81302670Y-113925500D01*
X81337606Y-113930523D01*
X81352604Y-113934927D01*
X81411355Y-113972672D01*
X81412542Y-113974041D01*
X81440018Y-114028902D01*
X81441663Y-114036460D01*
X81444500Y-114062831D01*
X81444500Y-114572808D01*
X81439476Y-114607745D01*
X81432064Y-114632986D01*
X81400769Y-114685730D01*
X81370543Y-114715955D01*
X81370535Y-114715964D01*
X81370532Y-114715969D01*
X81271994Y-114863439D01*
X81271985Y-114863454D01*
X81271977Y-114863472D01*
X81204109Y-115027322D01*
X81204101Y-115027345D01*
X81204099Y-115027352D01*
X81169500Y-115201299D01*
X81169500Y-115378699D01*
X81204099Y-115552646D01*
X81204101Y-115552653D01*
X81204109Y-115552676D01*
X81271977Y-115716526D01*
X81271985Y-115716544D01*
X81271994Y-115716559D01*
X81370536Y-115864036D01*
X81370537Y-115864037D01*
X81370542Y-115864043D01*
X81495955Y-115989456D01*
X81495961Y-115989461D01*
X81495965Y-115989464D01*
X81643446Y-116088009D01*
X81643459Y-116088016D01*
X81679579Y-116102977D01*
X81765144Y-116138419D01*
X81765182Y-116138434D01*
X81766363Y-116138923D01*
X81807334Y-116155894D01*
X81807336Y-116155894D01*
X81807341Y-116155896D01*
X81973680Y-116188982D01*
X81976403Y-116189704D01*
X81981306Y-116190500D01*
X82158693Y-116190500D01*
X82162814Y-116190500D01*
X82170667Y-116188117D01*
X82216682Y-116178964D01*
X82216683Y-116178964D01*
X82332653Y-116155897D01*
X82332653Y-116155896D01*
X82332658Y-116155896D01*
X82332661Y-116155894D01*
X82332666Y-116155894D01*
X82335854Y-116154573D01*
X82343835Y-116151273D01*
X82343876Y-116151251D01*
X82496540Y-116088016D01*
X82496540Y-116088015D01*
X82496547Y-116088013D01*
X82644035Y-115989464D01*
X82769464Y-115864035D01*
X82868013Y-115716547D01*
X82935894Y-115552666D01*
X82947583Y-115493905D01*
X82970499Y-115378695D01*
X82970500Y-115378693D01*
X82970500Y-115201125D01*
X82970074Y-115199169D01*
X82935896Y-115027341D01*
X82935893Y-115027332D01*
X82868016Y-114863459D01*
X82868009Y-114863446D01*
X82769464Y-114715965D01*
X82769461Y-114715961D01*
X82744423Y-114690923D01*
X82723272Y-114662667D01*
X82720547Y-114657677D01*
X82716291Y-114649881D01*
X82710666Y-114639579D01*
X82695500Y-114580156D01*
X82695500Y-114067329D01*
X82700523Y-114032393D01*
X82704927Y-114017395D01*
X82742672Y-113958644D01*
X82744041Y-113957457D01*
X82798920Y-113929977D01*
X82806479Y-113928333D01*
X82832832Y-113925500D01*
X86048127Y-113925500D01*
X86068096Y-113930267D01*
X86072729Y-113929451D01*
X86083399Y-113933921D01*
X86104141Y-113938873D01*
X86113933Y-113943831D01*
X86112729Y-113946207D01*
X86137172Y-113956447D01*
X86176790Y-114013999D01*
X86179004Y-114083833D01*
X86171773Y-114104201D01*
X86171124Y-114105622D01*
X86138746Y-114148497D01*
X86138334Y-114148848D01*
X86123015Y-114159997D01*
X86046343Y-114207287D01*
X85922290Y-114331340D01*
X85830185Y-114480666D01*
X85830183Y-114480671D01*
X85830165Y-114480728D01*
X85830116Y-114480879D01*
X85830115Y-114480881D01*
X85785299Y-114616123D01*
X85776852Y-114629067D01*
X85775365Y-114643630D01*
X85774542Y-114649881D01*
X85774359Y-114653476D01*
X85764500Y-114749973D01*
X85764500Y-114749981D01*
X85764500Y-114749983D01*
X85764500Y-116050001D01*
X85764501Y-116050018D01*
X85764502Y-116050026D01*
X85774989Y-116152696D01*
X85775000Y-116152796D01*
X85775001Y-116152799D01*
X85830185Y-116319331D01*
X85830187Y-116319336D01*
X85833322Y-116324420D01*
X85837293Y-116336103D01*
X85838411Y-116362725D01*
X85843210Y-116388936D01*
X85839854Y-116397095D01*
X85840225Y-116405911D01*
X85826771Y-116428913D01*
X85816639Y-116453556D01*
X85809405Y-116458605D01*
X85804951Y-116466223D01*
X85781197Y-116478300D01*
X85759350Y-116493553D01*
X85747337Y-116495515D01*
X85742669Y-116497889D01*
X85736579Y-116497272D01*
X85719887Y-116500000D01*
X73999999Y-116500000D01*
X69500000Y-120999999D01*
X69500000Y-129875500D01*
X69480315Y-129942539D01*
X69427511Y-129988294D01*
X69376000Y-129999500D01*
X68004851Y-129999500D01*
X68001639Y-129999457D01*
X67998358Y-129999371D01*
X67995151Y-129999245D01*
X67721676Y-129984912D01*
X67717996Y-129984664D01*
X67714302Y-129984360D01*
X67710593Y-129983998D01*
X67702291Y-129983063D01*
X67651515Y-129977341D01*
X67648752Y-129976998D01*
X67645977Y-129976622D01*
X67643228Y-129976218D01*
X67423619Y-129941436D01*
X67423618Y-129941436D01*
X67404930Y-129938476D01*
X67400833Y-129937757D01*
X67396760Y-129936971D01*
X67392661Y-129936108D01*
X67340340Y-129924165D01*
X67338104Y-129923632D01*
X67335889Y-129923083D01*
X67333627Y-129922500D01*
X67094105Y-129858321D01*
X67089652Y-129857038D01*
X67085236Y-129855676D01*
X67080824Y-129854224D01*
X67041247Y-129840374D01*
X67039492Y-129839745D01*
X67037745Y-129839104D01*
X67036020Y-129838457D01*
X66793004Y-129745172D01*
X66788288Y-129743249D01*
X66783612Y-129741230D01*
X66778968Y-129739111D01*
X66761370Y-129730637D01*
X66760105Y-129730019D01*
X66758854Y-129729399D01*
X66757622Y-129728780D01*
X66508928Y-129602064D01*
X66503213Y-129598960D01*
X66497592Y-129595714D01*
X66492067Y-129592328D01*
X66245119Y-129431958D01*
X66239772Y-129428283D01*
X66234518Y-129424466D01*
X66229364Y-129420512D01*
X66000507Y-129235188D01*
X65995587Y-129230986D01*
X65990736Y-129226617D01*
X65986049Y-129222169D01*
X65777829Y-129013949D01*
X65773381Y-129009264D01*
X65769010Y-129004408D01*
X65764810Y-128999491D01*
X65706166Y-128927072D01*
X65706166Y-128927071D01*
X65706165Y-128927071D01*
X65579494Y-128770644D01*
X65575541Y-128765494D01*
X65571718Y-128760232D01*
X65568042Y-128754882D01*
X65425665Y-128535642D01*
X65407650Y-128507901D01*
X65404265Y-128502377D01*
X65401042Y-128496795D01*
X65397942Y-128491087D01*
X65387963Y-128471503D01*
X65271166Y-128242274D01*
X65270559Y-128241065D01*
X65269984Y-128239904D01*
X65269382Y-128238671D01*
X65260883Y-128221022D01*
X65258762Y-128216374D01*
X65256747Y-128211707D01*
X65254825Y-128206992D01*
X65243537Y-128177585D01*
X65243530Y-128177567D01*
X65175177Y-127999502D01*
X65161496Y-127963862D01*
X65160855Y-127962153D01*
X65160282Y-127960592D01*
X65159645Y-127958817D01*
X65145756Y-127919123D01*
X65144319Y-127914754D01*
X65142971Y-127910384D01*
X65141687Y-127905927D01*
X65077470Y-127666265D01*
X65076890Y-127664015D01*
X65076374Y-127661934D01*
X65075838Y-127659685D01*
X65063880Y-127607293D01*
X65063037Y-127603289D01*
X65062236Y-127599140D01*
X65061520Y-127595059D01*
X65051738Y-127533299D01*
X65023773Y-127356727D01*
X65023370Y-127353988D01*
X65022989Y-127351173D01*
X65022666Y-127348578D01*
X65019692Y-127322178D01*
X65016001Y-127289422D01*
X65015643Y-127285753D01*
X65015336Y-127282033D01*
X65015086Y-127278324D01*
X65010614Y-127192993D01*
X65009082Y-127163755D01*
X65000753Y-127004836D01*
X65000628Y-127001675D01*
X65000541Y-126998324D01*
X65000500Y-126995147D01*
X65000500Y-114331486D01*
X67499500Y-114331486D01*
X67499500Y-114668512D01*
X67537231Y-115003391D01*
X67612223Y-115331952D01*
X67612227Y-115331968D01*
X67612234Y-115331989D01*
X67723529Y-115650047D01*
X67723535Y-115650061D01*
X67869751Y-115953681D01*
X67869955Y-115954039D01*
X67870641Y-115955098D01*
X67906552Y-116012250D01*
X68049054Y-116239039D01*
X68148996Y-116364362D01*
X68158098Y-116375776D01*
X68253499Y-116495407D01*
X68256404Y-116499049D01*
X68259175Y-116502523D01*
X68497477Y-116740825D01*
X68760961Y-116950946D01*
X69046314Y-117130246D01*
X69349949Y-117276469D01*
X69588848Y-117360063D01*
X69668034Y-117387772D01*
X69668046Y-117387776D01*
X69996606Y-117462767D01*
X69996611Y-117462767D01*
X69996613Y-117462768D01*
X69996612Y-117462768D01*
X70118264Y-117476474D01*
X70314095Y-117498538D01*
X70321698Y-117500500D01*
X70668507Y-117500500D01*
X70694005Y-117500500D01*
X70699139Y-117497696D01*
X70711608Y-117495642D01*
X70945768Y-117469259D01*
X71003387Y-117462768D01*
X71003388Y-117462767D01*
X71003394Y-117462767D01*
X71331954Y-117387776D01*
X71650051Y-117276469D01*
X71953686Y-117130246D01*
X72239039Y-116950946D01*
X72502523Y-116740825D01*
X72740825Y-116502523D01*
X72950946Y-116239039D01*
X73130246Y-115953686D01*
X73276469Y-115650051D01*
X73387776Y-115331954D01*
X73462767Y-115003394D01*
X73500500Y-114668504D01*
X73500500Y-114331496D01*
X73500499Y-114331491D01*
X73500499Y-114331489D01*
X73500496Y-114331471D01*
X73500401Y-114330503D01*
X73500401Y-114330500D01*
X73500400Y-114330487D01*
X73500105Y-114327510D01*
X73499907Y-114326246D01*
X73498241Y-114311455D01*
X73487837Y-114219100D01*
X73464394Y-114011045D01*
X73462767Y-113996606D01*
X73387776Y-113668046D01*
X73387770Y-113668030D01*
X73329666Y-113501977D01*
X73276469Y-113349949D01*
X73130246Y-113046314D01*
X72950946Y-112760961D01*
X72740825Y-112497477D01*
X72502523Y-112259175D01*
X72239039Y-112049054D01*
X71955098Y-111870641D01*
X71954039Y-111869955D01*
X71953681Y-111869751D01*
X71650061Y-111723535D01*
X71650047Y-111723529D01*
X71331989Y-111612234D01*
X71331968Y-111612227D01*
X71331956Y-111612224D01*
X71331953Y-111612223D01*
X71244630Y-111592292D01*
X71003391Y-111537231D01*
X70668512Y-111499500D01*
X70668508Y-111499500D01*
X70668504Y-111499500D01*
X70331496Y-111499500D01*
X70331491Y-111499500D01*
X70331486Y-111499500D01*
X69996607Y-111537231D01*
X69668046Y-111612223D01*
X69668030Y-111612227D01*
X69668009Y-111612234D01*
X69349951Y-111723529D01*
X69349937Y-111723535D01*
X69046318Y-111869750D01*
X68760959Y-112049054D01*
X68760957Y-112049055D01*
X68497483Y-112259167D01*
X68259167Y-112497483D01*
X68049055Y-112760957D01*
X68049054Y-112760959D01*
X67869750Y-113046318D01*
X67723535Y-113349937D01*
X67723529Y-113349951D01*
X67612234Y-113668009D01*
X67612227Y-113668030D01*
X67612223Y-113668046D01*
X67537231Y-113996607D01*
X67499500Y-114331486D01*
X65000500Y-114331486D01*
X65000500Y-111804851D01*
X65000541Y-111801677D01*
X65000629Y-111798320D01*
X65000754Y-111795151D01*
X65004507Y-111723535D01*
X65014271Y-111537233D01*
X65015085Y-111521688D01*
X65015336Y-111517967D01*
X65015643Y-111514250D01*
X65015998Y-111510608D01*
X65017250Y-111499500D01*
X65022665Y-111451430D01*
X65023002Y-111448722D01*
X65023371Y-111446001D01*
X65023762Y-111443334D01*
X65061525Y-111204909D01*
X65062239Y-111200841D01*
X65063032Y-111196728D01*
X65063889Y-111192664D01*
X65075844Y-111140292D01*
X65076365Y-111138100D01*
X65076879Y-111136023D01*
X65077456Y-111133780D01*
X65141698Y-110894028D01*
X65142976Y-110889597D01*
X65144308Y-110885279D01*
X65145757Y-110880874D01*
X65159672Y-110841109D01*
X65160279Y-110839414D01*
X65160827Y-110837918D01*
X65161473Y-110836193D01*
X65254843Y-110592958D01*
X65256759Y-110588263D01*
X65258759Y-110583632D01*
X65260875Y-110578995D01*
X65269454Y-110561180D01*
X65269959Y-110560145D01*
X65270597Y-110558856D01*
X65271067Y-110557920D01*
X65397957Y-110308881D01*
X65401029Y-110303224D01*
X65404276Y-110297601D01*
X65407646Y-110292104D01*
X65568068Y-110045076D01*
X65571716Y-110039767D01*
X65575541Y-110034503D01*
X65579470Y-110029385D01*
X65764818Y-109800498D01*
X65769020Y-109795577D01*
X65773371Y-109790746D01*
X65777800Y-109786078D01*
X65986078Y-109577800D01*
X65990746Y-109573371D01*
X65995577Y-109569020D01*
X66000498Y-109564818D01*
X66229385Y-109379470D01*
X66234503Y-109375541D01*
X66239767Y-109371716D01*
X66245076Y-109368068D01*
X66492114Y-109207639D01*
X66497601Y-109204276D01*
X66503224Y-109201029D01*
X66508881Y-109197957D01*
X66757920Y-109071067D01*
X66758856Y-109070597D01*
X66760145Y-109069959D01*
X66761136Y-109069475D01*
X66779003Y-109060870D01*
X66783632Y-109058759D01*
X66788263Y-109056759D01*
X66792958Y-109054843D01*
X67036193Y-108961473D01*
X67037918Y-108960827D01*
X67039414Y-108960279D01*
X67041109Y-108959672D01*
X67080874Y-108945757D01*
X67085279Y-108944308D01*
X67089597Y-108942976D01*
X67094028Y-108941698D01*
X67333780Y-108877456D01*
X67335977Y-108876890D01*
X67338100Y-108876365D01*
X67340292Y-108875844D01*
X67366594Y-108869839D01*
X67392697Y-108863881D01*
X67396724Y-108863033D01*
X67400852Y-108862236D01*
X67404849Y-108861535D01*
X67643382Y-108823755D01*
X67646026Y-108823367D01*
X67648762Y-108822997D01*
X67651454Y-108822663D01*
X67710637Y-108815994D01*
X67714243Y-108815642D01*
X67717971Y-108815334D01*
X67721600Y-108815089D01*
X67995167Y-108800752D01*
X67998330Y-108800627D01*
X68001687Y-108800540D01*
X68004861Y-108800500D01*
X74000207Y-108800500D01*
X74000500Y-108800207D01*
X74000500Y-95999793D01*
X74000207Y-95999500D01*
X68004851Y-95999500D01*
X68001639Y-95999457D01*
X67998358Y-95999371D01*
X67995151Y-95999245D01*
X67721676Y-95984912D01*
X67717996Y-95984664D01*
X67714302Y-95984360D01*
X67710593Y-95983998D01*
X67697943Y-95982573D01*
X67651539Y-95977344D01*
X67648783Y-95977002D01*
X67645955Y-95976619D01*
X67643199Y-95976214D01*
X67404947Y-95938479D01*
X67400836Y-95937757D01*
X67396724Y-95936963D01*
X67392642Y-95936103D01*
X67340401Y-95924180D01*
X67338158Y-95923646D01*
X67335915Y-95923090D01*
X67333656Y-95922508D01*
X67094102Y-95858320D01*
X67089649Y-95857037D01*
X67085233Y-95855675D01*
X67080820Y-95854223D01*
X67041247Y-95840374D01*
X67039515Y-95839753D01*
X67037767Y-95839112D01*
X67036020Y-95838457D01*
X66793004Y-95745172D01*
X66788288Y-95743249D01*
X66783612Y-95741230D01*
X66778968Y-95739111D01*
X66761370Y-95730637D01*
X66760105Y-95730019D01*
X66758854Y-95729399D01*
X66757622Y-95728780D01*
X66508928Y-95602064D01*
X66503213Y-95598960D01*
X66497592Y-95595714D01*
X66492067Y-95592328D01*
X66245119Y-95431958D01*
X66239772Y-95428283D01*
X66234518Y-95424466D01*
X66229364Y-95420512D01*
X66000507Y-95235188D01*
X65995587Y-95230986D01*
X65990736Y-95226617D01*
X65986049Y-95222169D01*
X65777829Y-95013949D01*
X65773381Y-95009264D01*
X65769010Y-95004408D01*
X65764810Y-94999490D01*
X65579487Y-94770634D01*
X65575537Y-94765487D01*
X65571721Y-94760235D01*
X65568042Y-94754882D01*
X65471795Y-94606676D01*
X65407650Y-94507901D01*
X65404265Y-94502377D01*
X65401042Y-94496795D01*
X65397942Y-94491087D01*
X65389975Y-94475451D01*
X65271166Y-94242274D01*
X65270559Y-94241065D01*
X65269984Y-94239904D01*
X65269382Y-94238671D01*
X65260883Y-94221022D01*
X65258766Y-94216383D01*
X65256754Y-94211724D01*
X65254828Y-94207000D01*
X65204833Y-94076759D01*
X65161496Y-93963862D01*
X65160855Y-93962153D01*
X65160282Y-93960592D01*
X65159645Y-93958817D01*
X65145756Y-93919123D01*
X65144319Y-93914754D01*
X65142971Y-93910384D01*
X65141687Y-93905927D01*
X65077470Y-93666265D01*
X65076890Y-93664015D01*
X65076374Y-93661934D01*
X65075838Y-93659685D01*
X65063880Y-93607293D01*
X65063037Y-93603289D01*
X65062236Y-93599140D01*
X65061520Y-93595059D01*
X65023773Y-93356727D01*
X65023367Y-93353964D01*
X65022995Y-93351216D01*
X65022654Y-93348466D01*
X65015996Y-93289379D01*
X65015646Y-93285795D01*
X65015332Y-93281983D01*
X65015089Y-93278373D01*
X65000753Y-93004845D01*
X65000628Y-93001675D01*
X65000541Y-92998322D01*
X65000500Y-92995147D01*
X65000500Y-88949983D01*
X75639501Y-88949983D01*
X75639501Y-90250001D01*
X75639502Y-90250018D01*
X75650001Y-90352796D01*
X75650002Y-90352799D01*
X75682501Y-90450872D01*
X75705187Y-90519334D01*
X75797289Y-90668656D01*
X75921345Y-90792712D01*
X76070667Y-90884814D01*
X76117580Y-90900359D01*
X76149160Y-90916114D01*
X76158735Y-90922744D01*
X76162013Y-90925013D01*
X76205922Y-90979349D01*
X76209995Y-90989146D01*
X76219500Y-91036755D01*
X76219500Y-94779551D01*
X76214237Y-94797471D01*
X76244693Y-94950573D01*
X76248340Y-94968907D01*
X76248343Y-94968917D01*
X76262964Y-95004215D01*
X76303461Y-95101986D01*
X76304913Y-95105490D01*
X76304916Y-95105495D01*
X76317669Y-95124580D01*
X76317670Y-95124585D01*
X76317672Y-95124585D01*
X76327918Y-95139919D01*
X76327918Y-95139920D01*
X76384401Y-95224456D01*
X76387047Y-95228415D01*
X76387049Y-95228417D01*
X76387050Y-95228418D01*
X79141578Y-97982947D01*
X79141585Y-97982953D01*
X79206825Y-98026544D01*
X79206827Y-98026545D01*
X79206830Y-98026547D01*
X79263917Y-98064691D01*
X79263919Y-98064693D01*
X79265524Y-98065765D01*
X79270118Y-98067409D01*
X79314658Y-98085858D01*
X79314659Y-98085858D01*
X79314660Y-98085859D01*
X79395472Y-98119332D01*
X79399884Y-98121419D01*
X79546076Y-98150500D01*
X79546079Y-98150500D01*
X79546082Y-98150500D01*
X79546083Y-98150500D01*
X79693917Y-98150500D01*
X90919940Y-98150500D01*
X90954872Y-98155521D01*
X90980116Y-98162934D01*
X91032862Y-98194230D01*
X101221582Y-108382951D01*
X101221585Y-108382953D01*
X101221586Y-108382954D01*
X101251058Y-108402645D01*
X101295270Y-108432186D01*
X101342701Y-108463878D01*
X101345305Y-108465687D01*
X101350112Y-108467406D01*
X101481082Y-108521656D01*
X101481087Y-108521658D01*
X101481091Y-108521658D01*
X101481092Y-108521659D01*
X101481357Y-108521711D01*
X101481358Y-108521712D01*
X101481382Y-108521717D01*
X101626077Y-108550500D01*
X101626079Y-108550500D01*
X101626082Y-108550500D01*
X101626083Y-108550500D01*
X101773917Y-108550500D01*
X107719940Y-108550500D01*
X107754872Y-108555521D01*
X107780116Y-108562934D01*
X107832862Y-108594230D01*
X108600573Y-109361940D01*
X108621723Y-109390192D01*
X108634331Y-109413281D01*
X108649500Y-109472710D01*
X108649500Y-114088827D01*
X108644474Y-114123773D01*
X108641035Y-114135481D01*
X108603255Y-114194256D01*
X108539696Y-114223275D01*
X108473105Y-114214462D01*
X108465756Y-114211304D01*
X108460886Y-114209211D01*
X108460885Y-114209211D01*
X108452561Y-114205634D01*
X108436424Y-114197247D01*
X108304124Y-114115643D01*
X108304123Y-114115642D01*
X108304110Y-114115638D01*
X108137699Y-114060494D01*
X108137694Y-114060493D01*
X108034991Y-114050000D01*
X108034986Y-114050000D01*
X107635000Y-114050000D01*
X107635000Y-114787749D01*
X107615315Y-114854788D01*
X107562511Y-114900543D01*
X107493353Y-114910487D01*
X107478908Y-114907524D01*
X107450828Y-114900000D01*
X107450826Y-114900000D01*
X107319174Y-114900000D01*
X107319171Y-114900000D01*
X107291092Y-114907524D01*
X107221242Y-114905861D01*
X107163380Y-114866698D01*
X107135877Y-114802469D01*
X107135000Y-114787749D01*
X107135000Y-114050000D01*
X106735028Y-114050000D01*
X106735012Y-114050001D01*
X106735002Y-114050001D01*
X106735002Y-114050002D01*
X106632304Y-114060493D01*
X106632302Y-114060494D01*
X106465887Y-114115638D01*
X106465879Y-114115641D01*
X106465877Y-114115642D01*
X106465875Y-114115643D01*
X106392071Y-114161166D01*
X106316652Y-114207685D01*
X106192685Y-114331652D01*
X106170843Y-114367064D01*
X106100730Y-114480735D01*
X106100641Y-114480879D01*
X106100641Y-114480881D01*
X106045494Y-114647299D01*
X106045493Y-114647304D01*
X106035000Y-114750007D01*
X106035000Y-114750013D01*
X106035000Y-115150000D01*
X106772750Y-115150000D01*
X106839789Y-115169685D01*
X106885544Y-115222489D01*
X106895488Y-115291647D01*
X106892524Y-115306095D01*
X106885000Y-115334171D01*
X106885000Y-115465828D01*
X106892524Y-115493905D01*
X106890863Y-115563755D01*
X106851701Y-115621618D01*
X106787473Y-115649123D01*
X106772750Y-115650000D01*
X106035001Y-115650000D01*
X106035001Y-116049995D01*
X106045493Y-116152694D01*
X106045493Y-116152695D01*
X106045494Y-116152697D01*
X106058021Y-116190500D01*
X106097714Y-116310288D01*
X106100641Y-116319119D01*
X106100643Y-116319124D01*
X106192684Y-116468345D01*
X106316654Y-116592315D01*
X106465875Y-116684356D01*
X106465880Y-116684358D01*
X106632299Y-116739504D01*
X106632300Y-116739504D01*
X106632302Y-116739505D01*
X106632309Y-116739506D01*
X106735019Y-116749999D01*
X107134999Y-116749999D01*
X107135000Y-116749998D01*
X107135000Y-116012250D01*
X107154685Y-115945211D01*
X107207489Y-115899456D01*
X107276647Y-115889512D01*
X107291093Y-115892475D01*
X107319174Y-115900000D01*
X107450825Y-115900000D01*
X107450826Y-115900000D01*
X107478905Y-115892476D01*
X107548755Y-115894137D01*
X107606618Y-115933299D01*
X107634123Y-115997527D01*
X107635000Y-116012250D01*
X107635000Y-116749999D01*
X108034960Y-116749999D01*
X108034972Y-116749999D01*
X108034986Y-116749998D01*
X108137697Y-116739505D01*
X108304119Y-116684358D01*
X108304124Y-116684356D01*
X108427875Y-116608026D01*
X108435688Y-116603207D01*
X108454323Y-116593779D01*
X108461054Y-116591059D01*
X108476363Y-116584872D01*
X108545893Y-116578005D01*
X108608099Y-116609819D01*
X108642544Y-116667549D01*
X108645222Y-116677478D01*
X108649500Y-116709769D01*
X108649500Y-116729551D01*
X108644237Y-116747471D01*
X108678238Y-116918395D01*
X108678340Y-116918907D01*
X108678343Y-116918917D01*
X108700259Y-116971827D01*
X108734915Y-117055494D01*
X108755176Y-117085817D01*
X108760863Y-117094329D01*
X108765173Y-117100779D01*
X108817049Y-117178418D01*
X108817052Y-117178421D01*
X108824792Y-117186161D01*
X108824793Y-117186162D01*
X110077324Y-118438691D01*
X110520242Y-118881609D01*
X110571581Y-118932949D01*
X110571589Y-118932955D01*
X110694481Y-119015069D01*
X110694485Y-119015071D01*
X110694498Y-119015080D01*
X110694511Y-119015087D01*
X110831082Y-119071656D01*
X110831087Y-119071658D01*
X110831091Y-119071658D01*
X110831092Y-119071659D01*
X110831357Y-119071711D01*
X110831358Y-119071712D01*
X110831382Y-119071717D01*
X110976077Y-119100500D01*
X110976079Y-119100500D01*
X110976082Y-119100500D01*
X116046900Y-119100500D01*
X116081831Y-119105521D01*
X116113646Y-119114863D01*
X116147597Y-119130737D01*
X116173446Y-119148009D01*
X116173712Y-119148187D01*
X116174345Y-119148511D01*
X116177480Y-119149681D01*
X116337334Y-119215894D01*
X116337335Y-119215894D01*
X116337336Y-119215894D01*
X116337341Y-119215896D01*
X116503680Y-119248982D01*
X116506403Y-119249704D01*
X116511306Y-119250500D01*
X116688693Y-119250500D01*
X116692814Y-119250500D01*
X116700667Y-119248117D01*
X116746682Y-119238964D01*
X116746683Y-119238964D01*
X116862653Y-119215897D01*
X116862653Y-119215896D01*
X116862658Y-119215896D01*
X116862661Y-119215894D01*
X116862666Y-119215894D01*
X116865854Y-119214573D01*
X116873835Y-119211273D01*
X116873876Y-119211251D01*
X117026540Y-119148016D01*
X117026540Y-119148015D01*
X117026547Y-119148013D01*
X117174035Y-119049464D01*
X117299464Y-118924035D01*
X117398013Y-118776547D01*
X117400488Y-118770573D01*
X117430043Y-118699219D01*
X117465894Y-118612666D01*
X117500500Y-118438691D01*
X117500500Y-118261309D01*
X117500500Y-118261306D01*
X117500500Y-118261125D01*
X117500074Y-118259169D01*
X117465896Y-118087341D01*
X117465893Y-118087332D01*
X117398016Y-117923459D01*
X117398009Y-117923446D01*
X117299464Y-117775965D01*
X117299461Y-117775961D01*
X117299456Y-117775955D01*
X117174043Y-117650542D01*
X117174037Y-117650537D01*
X117174036Y-117650536D01*
X117026559Y-117551994D01*
X117026558Y-117551993D01*
X117026553Y-117551990D01*
X117026540Y-117551983D01*
X117026526Y-117551977D01*
X116862676Y-117484109D01*
X116862653Y-117484101D01*
X116862646Y-117484099D01*
X116688698Y-117449500D01*
X116688694Y-117449500D01*
X116688691Y-117449500D01*
X116511309Y-117449500D01*
X116511306Y-117449500D01*
X116511301Y-117449500D01*
X116337352Y-117484100D01*
X116337345Y-117484101D01*
X116337322Y-117484109D01*
X116182765Y-117548128D01*
X116182757Y-117548132D01*
X116173452Y-117551987D01*
X116173447Y-117551989D01*
X116146097Y-117570264D01*
X116143637Y-117571750D01*
X116140130Y-117572673D01*
X116116610Y-117583927D01*
X116084978Y-117593833D01*
X116047920Y-117599500D01*
X116007601Y-117599500D01*
X115972662Y-117594476D01*
X115959344Y-117590565D01*
X115900567Y-117552789D01*
X115871546Y-117489240D01*
X115869979Y-117478344D01*
X115871099Y-117436502D01*
X115899153Y-117295465D01*
X115899154Y-117295465D01*
X115899154Y-117295455D01*
X115900500Y-117288691D01*
X115900500Y-117111309D01*
X115900500Y-117111306D01*
X115900500Y-117111249D01*
X115900408Y-117110850D01*
X115865896Y-116937341D01*
X115865893Y-116937332D01*
X115858265Y-116918917D01*
X115848484Y-116895305D01*
X115839757Y-116861110D01*
X115838123Y-116845910D01*
X115850530Y-116777150D01*
X115894442Y-116728296D01*
X115904079Y-116722112D01*
X115932039Y-116708769D01*
X116004333Y-116684814D01*
X116153655Y-116592712D01*
X116234716Y-116511650D01*
X116262963Y-116490505D01*
X116276687Y-116483011D01*
X116344945Y-116468160D01*
X116346755Y-116468289D01*
X116404952Y-116487655D01*
X116411470Y-116491844D01*
X116432105Y-116508474D01*
X116516343Y-116592712D01*
X116665665Y-116684814D01*
X116832202Y-116739999D01*
X116934990Y-116750500D01*
X118235007Y-116750499D01*
X118244748Y-116749504D01*
X118270347Y-116746889D01*
X118337796Y-116739999D01*
X118504333Y-116684814D01*
X118653655Y-116592712D01*
X118760070Y-116486296D01*
X118788317Y-116465151D01*
X118802041Y-116457657D01*
X118870299Y-116442806D01*
X118872109Y-116442935D01*
X118930306Y-116462301D01*
X118936824Y-116466490D01*
X118957459Y-116483120D01*
X119076654Y-116602315D01*
X119225875Y-116694356D01*
X119225880Y-116694358D01*
X119392299Y-116749504D01*
X119392300Y-116749504D01*
X119392302Y-116749505D01*
X119392309Y-116749506D01*
X119495019Y-116759999D01*
X119894999Y-116759999D01*
X119895000Y-116759998D01*
X119895000Y-116022250D01*
X119914685Y-115955211D01*
X119967489Y-115909456D01*
X120036647Y-115899512D01*
X120051093Y-115902475D01*
X120079174Y-115910000D01*
X120210825Y-115910000D01*
X120210826Y-115910000D01*
X120238905Y-115902476D01*
X120308755Y-115904137D01*
X120366618Y-115943299D01*
X120394123Y-116007527D01*
X120395000Y-116022250D01*
X120395000Y-116759999D01*
X120794960Y-116759999D01*
X120794972Y-116759999D01*
X120794986Y-116759998D01*
X120897697Y-116749505D01*
X121064119Y-116694358D01*
X121064124Y-116694356D01*
X121213342Y-116602317D01*
X121319362Y-116496296D01*
X121347609Y-116475151D01*
X121361333Y-116467657D01*
X121429591Y-116452806D01*
X121431401Y-116452935D01*
X121489601Y-116472303D01*
X121496114Y-116476489D01*
X121516754Y-116493122D01*
X121616344Y-116592712D01*
X121765666Y-116684814D01*
X121932203Y-116739999D01*
X122034991Y-116750500D01*
X123335008Y-116750499D01*
X123344749Y-116749504D01*
X123370348Y-116746889D01*
X123437797Y-116739999D01*
X123604334Y-116684814D01*
X123753656Y-116592712D01*
X123877712Y-116468656D01*
X123877712Y-116468655D01*
X123882820Y-116463548D01*
X123882953Y-116463681D01*
X123888973Y-116457263D01*
X123903032Y-116444616D01*
X123966036Y-116414418D01*
X124035367Y-116423076D01*
X124038605Y-116424483D01*
X124082897Y-116457000D01*
X124083979Y-116458249D01*
X124087593Y-116463172D01*
X124087815Y-116462997D01*
X124092288Y-116468654D01*
X124092289Y-116468656D01*
X124216345Y-116592712D01*
X124365667Y-116684814D01*
X124532204Y-116739999D01*
X124634992Y-116750500D01*
X125935009Y-116750499D01*
X125944750Y-116749504D01*
X125970349Y-116746889D01*
X126037798Y-116739999D01*
X126204335Y-116684814D01*
X126353657Y-116592712D01*
X126477713Y-116468656D01*
X126569815Y-116319334D01*
X126625000Y-116152797D01*
X126635501Y-116050009D01*
X126635500Y-116028359D01*
X126640522Y-115993428D01*
X126643440Y-115983489D01*
X126681213Y-115924714D01*
X126744769Y-115895689D01*
X126813927Y-115905633D01*
X126860705Y-115942828D01*
X126869281Y-115953978D01*
X126875986Y-115963605D01*
X126985830Y-116138419D01*
X127049054Y-116239039D01*
X127148996Y-116364362D01*
X127158098Y-116375776D01*
X127253499Y-116495407D01*
X127256404Y-116499049D01*
X127259175Y-116502523D01*
X127497477Y-116740825D01*
X127760961Y-116950946D01*
X128046314Y-117130246D01*
X128349949Y-117276469D01*
X128588848Y-117360063D01*
X128668034Y-117387772D01*
X128668046Y-117387776D01*
X128996606Y-117462767D01*
X128996611Y-117462767D01*
X128996613Y-117462768D01*
X128996612Y-117462768D01*
X129118264Y-117476474D01*
X129314095Y-117498538D01*
X129321698Y-117500500D01*
X129668507Y-117500500D01*
X129694005Y-117500500D01*
X129699139Y-117497696D01*
X129711608Y-117495642D01*
X129945768Y-117469259D01*
X130003387Y-117462768D01*
X130003388Y-117462767D01*
X130003394Y-117462767D01*
X130331954Y-117387776D01*
X130650051Y-117276469D01*
X130953686Y-117130246D01*
X131239039Y-116950946D01*
X131502523Y-116740825D01*
X131740825Y-116502523D01*
X131950946Y-116239039D01*
X132130246Y-115953686D01*
X132276469Y-115650051D01*
X132387776Y-115331954D01*
X132462767Y-115003394D01*
X132500500Y-114668504D01*
X132500500Y-114331496D01*
X132462767Y-113996606D01*
X132387776Y-113668046D01*
X132387770Y-113668030D01*
X132329666Y-113501977D01*
X132276469Y-113349949D01*
X132130246Y-113046314D01*
X131950946Y-112760961D01*
X131740825Y-112497477D01*
X131502523Y-112259175D01*
X131239039Y-112049054D01*
X130955098Y-111870641D01*
X130954039Y-111869955D01*
X130953681Y-111869751D01*
X130650061Y-111723535D01*
X130650047Y-111723529D01*
X130331989Y-111612234D01*
X130331968Y-111612227D01*
X130331956Y-111612224D01*
X130331953Y-111612223D01*
X130244630Y-111592292D01*
X130003391Y-111537231D01*
X129668512Y-111499500D01*
X129668508Y-111499500D01*
X129668504Y-111499500D01*
X129331496Y-111499500D01*
X129331491Y-111499500D01*
X129331486Y-111499500D01*
X128996607Y-111537231D01*
X128668046Y-111612223D01*
X128668030Y-111612227D01*
X128668009Y-111612234D01*
X128349951Y-111723529D01*
X128349937Y-111723535D01*
X128046318Y-111869750D01*
X127760959Y-112049054D01*
X127760957Y-112049055D01*
X127497483Y-112259167D01*
X127259167Y-112497483D01*
X127049055Y-112760957D01*
X127049054Y-112760959D01*
X126869750Y-113046318D01*
X126723535Y-113349937D01*
X126723529Y-113349951D01*
X126612234Y-113668009D01*
X126612227Y-113668030D01*
X126612223Y-113668046D01*
X126540461Y-113982461D01*
X126537233Y-113996602D01*
X126537232Y-113996610D01*
X126537228Y-113996632D01*
X126526996Y-114087448D01*
X126518094Y-114121599D01*
X126513146Y-114133376D01*
X126512718Y-114134394D01*
X126468600Y-114188573D01*
X126402194Y-114210300D01*
X126402178Y-114210300D01*
X126401629Y-114210317D01*
X126397832Y-114210433D01*
X126345872Y-114200744D01*
X126345725Y-114200682D01*
X126328818Y-114191967D01*
X126228021Y-114129795D01*
X126228019Y-114129794D01*
X126221289Y-114125643D01*
X126204337Y-114115187D01*
X126204332Y-114115185D01*
X126178596Y-114106657D01*
X126172396Y-114104602D01*
X126172395Y-114104602D01*
X126046266Y-114062807D01*
X126043446Y-114061641D01*
X126037793Y-114059999D01*
X125935020Y-114049500D01*
X125935011Y-114049500D01*
X124634999Y-114049500D01*
X124634982Y-114049501D01*
X124630078Y-114050002D01*
X124532199Y-114060000D01*
X124532194Y-114060001D01*
X124532033Y-114060056D01*
X124365668Y-114115185D01*
X124365666Y-114115186D01*
X124365664Y-114115187D01*
X124291954Y-114160652D01*
X124216344Y-114207288D01*
X124092291Y-114331340D01*
X124090401Y-114333411D01*
X124090306Y-114333325D01*
X124090301Y-114333331D01*
X124090226Y-114333256D01*
X124081454Y-114342351D01*
X124066961Y-114355386D01*
X124003953Y-114385581D01*
X123934626Y-114376919D01*
X123931390Y-114375513D01*
X123887078Y-114342972D01*
X123886016Y-114341746D01*
X123882411Y-114336833D01*
X123882190Y-114337009D01*
X123877713Y-114331346D01*
X123877712Y-114331344D01*
X123753656Y-114207288D01*
X123621288Y-114125643D01*
X123614733Y-114121600D01*
X123604335Y-114115186D01*
X123604313Y-114115178D01*
X123578596Y-114106657D01*
X123578595Y-114106657D01*
X123446265Y-114062807D01*
X123443445Y-114061641D01*
X123437792Y-114059999D01*
X123335019Y-114049500D01*
X123335010Y-114049500D01*
X122034998Y-114049500D01*
X122034981Y-114049501D01*
X122030077Y-114050002D01*
X121932198Y-114060000D01*
X121932193Y-114060001D01*
X121932032Y-114060056D01*
X121765666Y-114115185D01*
X121765664Y-114115186D01*
X121616347Y-114207285D01*
X121509935Y-114313697D01*
X121481676Y-114334850D01*
X121467954Y-114342342D01*
X121399697Y-114357192D01*
X121397891Y-114357063D01*
X121339690Y-114337695D01*
X121333175Y-114333508D01*
X121312539Y-114316878D01*
X121213346Y-114217685D01*
X121213345Y-114217684D01*
X121064124Y-114125643D01*
X121064119Y-114125641D01*
X121051924Y-114121600D01*
X120897699Y-114070494D01*
X120897694Y-114070493D01*
X120794991Y-114060000D01*
X120794986Y-114060000D01*
X120395000Y-114060000D01*
X120395000Y-114797749D01*
X120375315Y-114864788D01*
X120322511Y-114910543D01*
X120253353Y-114920487D01*
X120238908Y-114917524D01*
X120210828Y-114910000D01*
X120210826Y-114910000D01*
X120079174Y-114910000D01*
X120079171Y-114910000D01*
X120051092Y-114917524D01*
X119981242Y-114915861D01*
X119923380Y-114876698D01*
X119895877Y-114812469D01*
X119895000Y-114797749D01*
X119895000Y-114060000D01*
X119495028Y-114060000D01*
X119495012Y-114060001D01*
X119495002Y-114060001D01*
X119495002Y-114060002D01*
X119392304Y-114070493D01*
X119392302Y-114070494D01*
X119225887Y-114125638D01*
X119225879Y-114125641D01*
X119225877Y-114125642D01*
X119225875Y-114125643D01*
X119188823Y-114148497D01*
X119076650Y-114217686D01*
X118970638Y-114323699D01*
X118942380Y-114344852D01*
X118928662Y-114352342D01*
X118860404Y-114367193D01*
X118858598Y-114367064D01*
X118800397Y-114347696D01*
X118793882Y-114343509D01*
X118773246Y-114326879D01*
X118653656Y-114207289D01*
X118653655Y-114207288D01*
X118521287Y-114125643D01*
X118514732Y-114121600D01*
X118504334Y-114115186D01*
X118504312Y-114115178D01*
X118478595Y-114106657D01*
X118478594Y-114106657D01*
X118346264Y-114062807D01*
X118343444Y-114061641D01*
X118337791Y-114059999D01*
X118235018Y-114049500D01*
X118235009Y-114049500D01*
X116934997Y-114049500D01*
X116934980Y-114049501D01*
X116930076Y-114050002D01*
X116832197Y-114060000D01*
X116832192Y-114060001D01*
X116832031Y-114060056D01*
X116665666Y-114115185D01*
X116665664Y-114115186D01*
X116665662Y-114115187D01*
X116591952Y-114160652D01*
X116516337Y-114207291D01*
X116435284Y-114288345D01*
X116407026Y-114309498D01*
X116393308Y-114316988D01*
X116325050Y-114331839D01*
X116323244Y-114331710D01*
X116265043Y-114312342D01*
X116258528Y-114308155D01*
X116237892Y-114291525D01*
X116153656Y-114207289D01*
X116153655Y-114207288D01*
X116021287Y-114125643D01*
X116014732Y-114121600D01*
X116004334Y-114115186D01*
X116004312Y-114115178D01*
X115978595Y-114106657D01*
X115978594Y-114106657D01*
X115846264Y-114062807D01*
X115843444Y-114061641D01*
X115837791Y-114059999D01*
X115735018Y-114049500D01*
X115735009Y-114049500D01*
X114434997Y-114049500D01*
X114434980Y-114049501D01*
X114430076Y-114050002D01*
X114332197Y-114060000D01*
X114332192Y-114060001D01*
X114332031Y-114060056D01*
X114165666Y-114115185D01*
X114165664Y-114115186D01*
X114165662Y-114115187D01*
X114091952Y-114160652D01*
X114016342Y-114207288D01*
X113892279Y-114331350D01*
X113890954Y-114332831D01*
X113881490Y-114342316D01*
X113866959Y-114355385D01*
X113803951Y-114385579D01*
X113734621Y-114376915D01*
X113731372Y-114375503D01*
X113687083Y-114342977D01*
X113686012Y-114341740D01*
X113682415Y-114336838D01*
X113682195Y-114337013D01*
X113677713Y-114331345D01*
X113553657Y-114207289D01*
X113553656Y-114207288D01*
X113421288Y-114125643D01*
X113414733Y-114121600D01*
X113404335Y-114115186D01*
X113404313Y-114115178D01*
X113378596Y-114106657D01*
X113378595Y-114106657D01*
X113246265Y-114062807D01*
X113243445Y-114061641D01*
X113237792Y-114059999D01*
X113135019Y-114049500D01*
X113135010Y-114049500D01*
X111834998Y-114049500D01*
X111834981Y-114049501D01*
X111830077Y-114050002D01*
X111732198Y-114060000D01*
X111732193Y-114060001D01*
X111732032Y-114060056D01*
X111565670Y-114115184D01*
X111565652Y-114115192D01*
X111454769Y-114183586D01*
X111422397Y-114197652D01*
X111409013Y-114201314D01*
X111339155Y-114200020D01*
X111281090Y-114161166D01*
X111280659Y-114160650D01*
X111254453Y-114106426D01*
X111253092Y-114099880D01*
X111250500Y-114074656D01*
X111250500Y-108526076D01*
X111221419Y-108379884D01*
X111219332Y-108375472D01*
X111165085Y-108244507D01*
X111105610Y-108155496D01*
X111105610Y-108155495D01*
X111101090Y-108148730D01*
X111082952Y-108121584D01*
X109078416Y-106117048D01*
X109078413Y-106117045D01*
X109029029Y-106084049D01*
X109029028Y-106084048D01*
X109029028Y-106084047D01*
X108996106Y-106062052D01*
X108996101Y-106062048D01*
X108957328Y-106036140D01*
X108955740Y-106035038D01*
X108955486Y-106034911D01*
X108818919Y-105978344D01*
X108818920Y-105978344D01*
X108818917Y-105978343D01*
X108818907Y-105978340D01*
X108818905Y-105978339D01*
X108818900Y-105978338D01*
X108673922Y-105949500D01*
X108673920Y-105949500D01*
X108673918Y-105949500D01*
X102480060Y-105949500D01*
X102445124Y-105944477D01*
X102419882Y-105937065D01*
X102367137Y-105905769D01*
X92278429Y-95817060D01*
X92278428Y-95817059D01*
X92278421Y-95817052D01*
X92278414Y-95817046D01*
X92204730Y-95767813D01*
X92155493Y-95734914D01*
X92018932Y-95678348D01*
X92018921Y-95678345D01*
X92018917Y-95678343D01*
X92018907Y-95678340D01*
X92018904Y-95678339D01*
X92018900Y-95678338D01*
X91873922Y-95649500D01*
X91873920Y-95649500D01*
X91873918Y-95649500D01*
X81550060Y-95649500D01*
X81515124Y-95644477D01*
X81489882Y-95637065D01*
X81437137Y-95605769D01*
X80284426Y-94453058D01*
X80263274Y-94424802D01*
X80250667Y-94401713D01*
X80235500Y-94342288D01*
X80235500Y-91048129D01*
X80240523Y-91013193D01*
X80242207Y-91007460D01*
X80244927Y-90998194D01*
X80282700Y-90939419D01*
X80290717Y-90932472D01*
X80332915Y-90908479D01*
X80404334Y-90884814D01*
X80553656Y-90792712D01*
X80660067Y-90686299D01*
X80688321Y-90665148D01*
X80702041Y-90657656D01*
X80770298Y-90642806D01*
X80772108Y-90642935D01*
X80830308Y-90662303D01*
X80836821Y-90666489D01*
X80857461Y-90683122D01*
X80966654Y-90792315D01*
X81115875Y-90884356D01*
X81115880Y-90884358D01*
X81282299Y-90939504D01*
X81282300Y-90939504D01*
X81282302Y-90939505D01*
X81282309Y-90939506D01*
X81385019Y-90949999D01*
X81784999Y-90949999D01*
X81785000Y-90949998D01*
X81785000Y-90212250D01*
X81804685Y-90145211D01*
X81857489Y-90099456D01*
X81926647Y-90089512D01*
X81941093Y-90092475D01*
X81969174Y-90100000D01*
X82100825Y-90100000D01*
X82100826Y-90100000D01*
X82128905Y-90092476D01*
X82198755Y-90094137D01*
X82256618Y-90133299D01*
X82284123Y-90197527D01*
X82285000Y-90212250D01*
X82285000Y-90949999D01*
X82684960Y-90949999D01*
X82684972Y-90949999D01*
X82684986Y-90949998D01*
X82787697Y-90939505D01*
X82954119Y-90884358D01*
X82954124Y-90884356D01*
X83103342Y-90792317D01*
X83201862Y-90693796D01*
X83230109Y-90672651D01*
X83243833Y-90665157D01*
X83312091Y-90650306D01*
X83313901Y-90650435D01*
X83372101Y-90669803D01*
X83378614Y-90673989D01*
X83399254Y-90690622D01*
X83501344Y-90792712D01*
X83650666Y-90884814D01*
X83817203Y-90939999D01*
X83919991Y-90950500D01*
X85220008Y-90950499D01*
X85322797Y-90939999D01*
X85489334Y-90884814D01*
X85638656Y-90792712D01*
X85727214Y-90704152D01*
X85755468Y-90683001D01*
X85769188Y-90675509D01*
X85837445Y-90660659D01*
X85839255Y-90660788D01*
X85897455Y-90680156D01*
X85903968Y-90684342D01*
X85924608Y-90700975D01*
X86016345Y-90792712D01*
X86165667Y-90884814D01*
X86332204Y-90939999D01*
X86434992Y-90950500D01*
X87735009Y-90950499D01*
X87837798Y-90939999D01*
X88004335Y-90884814D01*
X88153657Y-90792712D01*
X88227214Y-90719153D01*
X88255468Y-90698002D01*
X88269188Y-90690510D01*
X88337445Y-90675660D01*
X88339255Y-90675789D01*
X88397455Y-90695157D01*
X88403968Y-90699343D01*
X88424608Y-90715976D01*
X88501344Y-90792712D01*
X88650666Y-90884814D01*
X88817203Y-90939999D01*
X88919991Y-90950500D01*
X90220008Y-90950499D01*
X90322797Y-90939999D01*
X90489334Y-90884814D01*
X90638656Y-90792712D01*
X90719717Y-90711650D01*
X90747964Y-90690505D01*
X90761688Y-90683011D01*
X90829946Y-90668160D01*
X90831756Y-90668289D01*
X90889953Y-90687655D01*
X90896471Y-90691844D01*
X90917106Y-90708474D01*
X91001344Y-90792712D01*
X91150666Y-90884814D01*
X91317203Y-90939999D01*
X91419991Y-90950500D01*
X92720008Y-90950499D01*
X92822797Y-90939999D01*
X92989334Y-90884814D01*
X93138656Y-90792712D01*
X93262712Y-90668656D01*
X93262712Y-90668655D01*
X93267824Y-90663544D01*
X93267901Y-90663621D01*
X93274559Y-90656524D01*
X93288323Y-90644143D01*
X93351325Y-90613944D01*
X93420654Y-90622598D01*
X93423896Y-90624007D01*
X93468190Y-90656526D01*
X93469256Y-90657756D01*
X93472988Y-90662838D01*
X93473198Y-90662673D01*
X93477681Y-90668343D01*
X93477682Y-90668344D01*
X93601654Y-90792316D01*
X93750875Y-90884357D01*
X93750880Y-90884359D01*
X93917299Y-90939505D01*
X93917300Y-90939505D01*
X93917302Y-90939506D01*
X93917309Y-90939507D01*
X94020019Y-90950000D01*
X94419999Y-90950000D01*
X94420000Y-90949999D01*
X94420000Y-90212250D01*
X94439685Y-90145212D01*
X94492489Y-90099457D01*
X94561647Y-90089513D01*
X94576093Y-90092476D01*
X94604174Y-90100001D01*
X94735825Y-90100001D01*
X94735826Y-90100001D01*
X94763905Y-90092477D01*
X94833755Y-90094138D01*
X94891618Y-90133300D01*
X94919123Y-90197528D01*
X94920000Y-90212250D01*
X94920000Y-90950000D01*
X95319960Y-90950000D01*
X95319972Y-90950000D01*
X95319986Y-90949999D01*
X95422697Y-90939506D01*
X95589119Y-90884359D01*
X95589124Y-90884357D01*
X95738345Y-90792316D01*
X95862314Y-90668347D01*
X95862314Y-90668346D01*
X95867420Y-90663241D01*
X95867534Y-90663355D01*
X95873775Y-90656703D01*
X95887735Y-90644144D01*
X95950739Y-90613944D01*
X96020044Y-90622589D01*
X96023280Y-90623994D01*
X96067604Y-90656527D01*
X96068254Y-90657276D01*
X96068678Y-90657765D01*
X96072622Y-90663138D01*
X96072808Y-90662992D01*
X96077282Y-90668650D01*
X96077287Y-90668655D01*
X96077288Y-90668656D01*
X96201344Y-90792712D01*
X96350666Y-90884814D01*
X96517203Y-90939999D01*
X96619991Y-90950500D01*
X97920008Y-90950499D01*
X98022797Y-90939999D01*
X98189334Y-90884814D01*
X98338656Y-90792712D01*
X98419717Y-90711650D01*
X98447964Y-90690505D01*
X98461688Y-90683011D01*
X98529946Y-90668160D01*
X98531756Y-90668289D01*
X98589953Y-90687655D01*
X98596471Y-90691844D01*
X98617106Y-90708474D01*
X98701344Y-90792712D01*
X98850666Y-90884814D01*
X99017203Y-90939999D01*
X99119991Y-90950500D01*
X100420008Y-90950499D01*
X100522797Y-90939999D01*
X100689334Y-90884814D01*
X100838656Y-90792712D01*
X100962712Y-90668656D01*
X100962715Y-90668650D01*
X100967193Y-90662989D01*
X100967366Y-90663126D01*
X100985208Y-90641745D01*
X100995542Y-90632450D01*
X101058546Y-90602258D01*
X101127866Y-90610918D01*
X101131529Y-90612510D01*
X101185169Y-90657276D01*
X101187626Y-90661098D01*
X101192288Y-90668656D01*
X101192289Y-90668657D01*
X101192291Y-90668660D01*
X101225958Y-90702326D01*
X101250926Y-90738178D01*
X101255355Y-90747804D01*
X101265494Y-90816934D01*
X101241973Y-90873946D01*
X101235231Y-90882952D01*
X101204863Y-90911738D01*
X101201265Y-90914142D01*
X101201260Y-90914146D01*
X100201269Y-91914140D01*
X100201266Y-91914143D01*
X100157702Y-91957705D01*
X100114146Y-92001260D01*
X100114143Y-92001263D01*
X100088261Y-92039999D01*
X100088257Y-92040004D01*
X100088171Y-92040135D01*
X100084460Y-92045689D01*
X100045688Y-92103714D01*
X100012347Y-92184207D01*
X100010240Y-92189294D01*
X100008200Y-92194218D01*
X100008193Y-92194232D01*
X99998538Y-92217541D01*
X99998538Y-92217542D01*
X99998535Y-92217551D01*
X99998530Y-92217573D01*
X99974500Y-92338384D01*
X99974500Y-99861615D01*
X99998532Y-99982434D01*
X99998542Y-99982468D01*
X100045681Y-100096275D01*
X100045686Y-100096285D01*
X100063232Y-100122543D01*
X100063255Y-100122576D01*
X100065209Y-100125500D01*
X100065211Y-100125503D01*
X100114140Y-100198731D01*
X100114141Y-100198732D01*
X100114142Y-100198733D01*
X100201267Y-100285858D01*
X100201268Y-100285858D01*
X100208335Y-100292925D01*
X100208334Y-100292925D01*
X100208337Y-100292927D01*
X101614141Y-101698732D01*
X101614142Y-101698733D01*
X101701267Y-101785858D01*
X101701268Y-101785859D01*
X101803707Y-101854307D01*
X101803713Y-101854310D01*
X101803714Y-101854311D01*
X101917548Y-101901463D01*
X101977971Y-101913481D01*
X102038393Y-101925500D01*
X102038394Y-101925500D01*
X102782809Y-101925500D01*
X102817741Y-101930521D01*
X102842985Y-101937934D01*
X102895730Y-101969229D01*
X102925961Y-101999461D01*
X102925965Y-101999464D01*
X103073446Y-102098009D01*
X103073459Y-102098016D01*
X103109579Y-102112977D01*
X103195144Y-102148419D01*
X103195182Y-102148434D01*
X103196363Y-102148923D01*
X103237334Y-102165894D01*
X103237336Y-102165894D01*
X103237341Y-102165896D01*
X103403680Y-102198982D01*
X103406403Y-102199704D01*
X103411306Y-102200500D01*
X103588693Y-102200500D01*
X103592814Y-102200500D01*
X103600667Y-102198117D01*
X103646682Y-102188964D01*
X103646683Y-102188964D01*
X103762653Y-102165897D01*
X103762653Y-102165896D01*
X103762658Y-102165896D01*
X103762661Y-102165894D01*
X103762666Y-102165894D01*
X103765854Y-102164573D01*
X103773835Y-102161273D01*
X103773876Y-102161251D01*
X103926540Y-102098016D01*
X103926540Y-102098015D01*
X103926547Y-102098013D01*
X104074035Y-101999464D01*
X104199464Y-101874035D01*
X104298013Y-101726547D01*
X104365894Y-101562666D01*
X104380019Y-101491658D01*
X104400499Y-101388695D01*
X104400500Y-101388693D01*
X104400500Y-101211125D01*
X104400074Y-101209169D01*
X104365896Y-101037341D01*
X104365893Y-101037332D01*
X104298016Y-100873459D01*
X104298009Y-100873446D01*
X104208873Y-100740047D01*
X104197849Y-100719642D01*
X104188602Y-100697873D01*
X104180509Y-100628479D01*
X104181896Y-100620374D01*
X104199801Y-100574257D01*
X104211419Y-100556178D01*
X104212590Y-100554390D01*
X104298009Y-100426553D01*
X104298009Y-100426552D01*
X104298013Y-100426547D01*
X104298015Y-100426540D01*
X104298692Y-100425528D01*
X104300327Y-100420959D01*
X104365894Y-100262666D01*
X104400500Y-100088691D01*
X104400500Y-99911309D01*
X104400500Y-99911306D01*
X104400500Y-99911125D01*
X104400074Y-99909169D01*
X104365896Y-99737341D01*
X104365893Y-99737332D01*
X104298016Y-99573459D01*
X104298009Y-99573446D01*
X104199464Y-99425965D01*
X104199461Y-99425961D01*
X104199456Y-99425955D01*
X104074043Y-99300542D01*
X104074037Y-99300537D01*
X104074036Y-99300536D01*
X103926559Y-99201994D01*
X103926558Y-99201993D01*
X103926553Y-99201990D01*
X103926540Y-99201983D01*
X103896519Y-99189548D01*
X103762676Y-99134109D01*
X103762653Y-99134101D01*
X103762646Y-99134099D01*
X103588698Y-99099500D01*
X103588694Y-99099500D01*
X103588691Y-99099500D01*
X103411309Y-99099500D01*
X103411306Y-99099500D01*
X103411301Y-99099500D01*
X103237352Y-99134100D01*
X103237345Y-99134101D01*
X103237322Y-99134109D01*
X103073472Y-99201977D01*
X103073454Y-99201985D01*
X103073439Y-99201994D01*
X102925969Y-99300532D01*
X102925964Y-99300535D01*
X102925956Y-99300542D01*
X102900924Y-99325575D01*
X102872674Y-99346724D01*
X102849590Y-99359330D01*
X102790159Y-99374500D01*
X101928282Y-99374500D01*
X101893346Y-99369477D01*
X101868104Y-99362065D01*
X101815359Y-99330769D01*
X101774426Y-99289836D01*
X101753274Y-99261580D01*
X101740667Y-99238491D01*
X101725500Y-99179066D01*
X101725500Y-92928281D01*
X101730522Y-92893348D01*
X101737934Y-92868103D01*
X101769228Y-92815361D01*
X102010167Y-92574423D01*
X102038417Y-92553275D01*
X102061509Y-92540667D01*
X102120934Y-92525500D01*
X104961607Y-92525500D01*
X105022029Y-92513481D01*
X105082452Y-92501463D01*
X105115792Y-92487652D01*
X105196286Y-92454312D01*
X105251306Y-92417548D01*
X105298733Y-92385858D01*
X105385858Y-92298733D01*
X105385858Y-92298731D01*
X105396066Y-92288524D01*
X105396066Y-92288522D01*
X105396669Y-92287920D01*
X105399839Y-92284748D01*
X105406269Y-92278318D01*
X105406272Y-92278317D01*
X105406275Y-92278312D01*
X106048988Y-91635600D01*
X106670167Y-91014425D01*
X106670283Y-91014541D01*
X106680881Y-91003845D01*
X106696571Y-90990731D01*
X106757017Y-90963355D01*
X106770021Y-90961331D01*
X106791860Y-90960203D01*
X106791860Y-90959999D01*
X107194999Y-90959999D01*
X107195000Y-90959998D01*
X107195000Y-90222250D01*
X107214685Y-90155211D01*
X107267489Y-90109456D01*
X107336647Y-90099512D01*
X107351093Y-90102475D01*
X107379174Y-90110000D01*
X107510825Y-90110000D01*
X107510826Y-90110000D01*
X107538905Y-90102476D01*
X107608755Y-90104137D01*
X107666618Y-90143299D01*
X107694123Y-90207527D01*
X107695000Y-90222250D01*
X107695000Y-90959999D01*
X107952670Y-90959999D01*
X107987606Y-90965022D01*
X108002604Y-90969426D01*
X108061355Y-91007171D01*
X108062542Y-91008540D01*
X108090018Y-91063401D01*
X108091663Y-91070959D01*
X108094500Y-91097330D01*
X108094500Y-96551718D01*
X108089476Y-96586655D01*
X108082064Y-96611896D01*
X108050769Y-96664640D01*
X107789836Y-96925573D01*
X107761585Y-96946722D01*
X107738497Y-96959330D01*
X107679067Y-96974500D01*
X104217191Y-96974500D01*
X104182255Y-96969477D01*
X104157013Y-96962065D01*
X104104268Y-96930769D01*
X104074038Y-96900538D01*
X104074034Y-96900535D01*
X103926553Y-96801990D01*
X103926540Y-96801983D01*
X103926526Y-96801977D01*
X103762676Y-96734109D01*
X103762653Y-96734101D01*
X103762646Y-96734099D01*
X103588698Y-96699500D01*
X103588694Y-96699500D01*
X103588691Y-96699500D01*
X103411309Y-96699500D01*
X103411306Y-96699500D01*
X103411301Y-96699500D01*
X103237352Y-96734100D01*
X103237345Y-96734101D01*
X103237322Y-96734109D01*
X103073472Y-96801977D01*
X103073454Y-96801985D01*
X103073439Y-96801994D01*
X102925962Y-96900536D01*
X102925961Y-96900537D01*
X102925955Y-96900542D01*
X102800542Y-97025955D01*
X102800537Y-97025961D01*
X102800536Y-97025962D01*
X102701994Y-97173439D01*
X102701985Y-97173454D01*
X102701977Y-97173472D01*
X102634109Y-97337322D01*
X102634104Y-97337339D01*
X102634099Y-97337352D01*
X102599500Y-97511299D01*
X102599500Y-97688699D01*
X102634099Y-97862646D01*
X102634101Y-97862653D01*
X102634109Y-97862676D01*
X102701977Y-98026526D01*
X102701985Y-98026544D01*
X102701994Y-98026559D01*
X102800536Y-98174036D01*
X102800537Y-98174037D01*
X102800542Y-98174043D01*
X102925955Y-98299456D01*
X102925961Y-98299461D01*
X102925965Y-98299464D01*
X103073446Y-98398009D01*
X103073459Y-98398016D01*
X103109579Y-98412977D01*
X103195144Y-98448419D01*
X103195182Y-98448434D01*
X103196363Y-98448923D01*
X103237334Y-98465894D01*
X103237336Y-98465894D01*
X103237341Y-98465896D01*
X103403680Y-98498982D01*
X103406403Y-98499704D01*
X103411306Y-98500500D01*
X103588693Y-98500500D01*
X103592814Y-98500500D01*
X103600667Y-98498117D01*
X103646682Y-98488964D01*
X103646683Y-98488964D01*
X103762653Y-98465897D01*
X103762653Y-98465896D01*
X103762658Y-98465896D01*
X103762661Y-98465894D01*
X103762666Y-98465894D01*
X103765854Y-98464573D01*
X103773835Y-98461273D01*
X103773876Y-98461251D01*
X103926540Y-98398016D01*
X103926540Y-98398015D01*
X103926547Y-98398013D01*
X104074035Y-98299464D01*
X104099074Y-98274424D01*
X104127325Y-98253276D01*
X104150412Y-98240669D01*
X104209841Y-98225500D01*
X108061607Y-98225500D01*
X108122029Y-98213481D01*
X108182452Y-98201463D01*
X108215792Y-98187652D01*
X108296286Y-98154312D01*
X108347509Y-98120084D01*
X108348635Y-98119332D01*
X108364583Y-98108675D01*
X108398733Y-98085858D01*
X108485858Y-97998733D01*
X108485859Y-97998731D01*
X108492925Y-97991665D01*
X108492928Y-97991661D01*
X109118729Y-97365860D01*
X109118733Y-97365858D01*
X109205858Y-97278733D01*
X109266022Y-97188691D01*
X109274312Y-97176285D01*
X109301932Y-97109603D01*
X109321463Y-97062452D01*
X109345500Y-96941606D01*
X109345500Y-91092328D01*
X109350523Y-91057392D01*
X109354927Y-91042394D01*
X109392661Y-90983652D01*
X109393248Y-90983143D01*
X109394034Y-90982461D01*
X109448925Y-90954974D01*
X109456483Y-90953329D01*
X109482827Y-90950499D01*
X110482670Y-90950499D01*
X110517606Y-90955522D01*
X110532604Y-90959926D01*
X110591355Y-90997671D01*
X110592542Y-90999040D01*
X110620018Y-91053901D01*
X110621663Y-91061459D01*
X110624500Y-91087830D01*
X110624500Y-102621718D01*
X110619476Y-102656655D01*
X110612064Y-102681896D01*
X110580769Y-102734640D01*
X109989836Y-103325573D01*
X109961585Y-103346722D01*
X109938497Y-103359330D01*
X109879067Y-103374500D01*
X104217191Y-103374500D01*
X104182255Y-103369477D01*
X104157013Y-103362065D01*
X104104268Y-103330769D01*
X104074038Y-103300538D01*
X104074034Y-103300535D01*
X103926553Y-103201990D01*
X103926540Y-103201983D01*
X103926526Y-103201977D01*
X103762676Y-103134109D01*
X103762653Y-103134101D01*
X103762646Y-103134099D01*
X103588698Y-103099500D01*
X103588694Y-103099500D01*
X103588691Y-103099500D01*
X103411309Y-103099500D01*
X103411306Y-103099500D01*
X103411301Y-103099500D01*
X103237352Y-103134100D01*
X103237345Y-103134101D01*
X103237322Y-103134109D01*
X103073472Y-103201977D01*
X103073454Y-103201985D01*
X103073439Y-103201994D01*
X102925962Y-103300536D01*
X102925961Y-103300537D01*
X102925955Y-103300542D01*
X102800542Y-103425955D01*
X102800537Y-103425961D01*
X102800536Y-103425962D01*
X102701994Y-103573439D01*
X102701985Y-103573454D01*
X102701977Y-103573472D01*
X102634109Y-103737322D01*
X102634101Y-103737345D01*
X102634099Y-103737352D01*
X102599500Y-103911299D01*
X102599500Y-104088699D01*
X102634099Y-104262646D01*
X102634101Y-104262653D01*
X102634109Y-104262676D01*
X102701977Y-104426526D01*
X102701985Y-104426544D01*
X102701994Y-104426559D01*
X102800536Y-104574036D01*
X102800537Y-104574037D01*
X102800542Y-104574043D01*
X102925955Y-104699456D01*
X102925961Y-104699461D01*
X102925965Y-104699464D01*
X103073446Y-104798009D01*
X103073459Y-104798016D01*
X103109579Y-104812977D01*
X103195144Y-104848419D01*
X103195182Y-104848434D01*
X103196363Y-104848923D01*
X103237334Y-104865894D01*
X103237336Y-104865894D01*
X103237341Y-104865896D01*
X103403680Y-104898982D01*
X103406403Y-104899704D01*
X103411306Y-104900500D01*
X103588693Y-104900500D01*
X103592814Y-104900500D01*
X103600667Y-104898117D01*
X103646682Y-104888964D01*
X103646683Y-104888964D01*
X103762653Y-104865897D01*
X103762653Y-104865896D01*
X103762658Y-104865896D01*
X103762661Y-104865894D01*
X103762666Y-104865894D01*
X103765854Y-104864573D01*
X103773835Y-104861273D01*
X103773876Y-104861251D01*
X103926540Y-104798016D01*
X103926540Y-104798015D01*
X103926547Y-104798013D01*
X104074035Y-104699464D01*
X104099074Y-104674424D01*
X104127325Y-104653276D01*
X104150412Y-104640669D01*
X104209841Y-104625500D01*
X110261607Y-104625500D01*
X110322029Y-104613481D01*
X110382452Y-104601463D01*
X110415792Y-104587652D01*
X110496286Y-104554312D01*
X110547509Y-104520084D01*
X110598733Y-104485858D01*
X110685858Y-104398733D01*
X110685859Y-104398731D01*
X110692925Y-104391665D01*
X110692928Y-104391661D01*
X111648729Y-103435860D01*
X111648733Y-103435858D01*
X111735858Y-103348733D01*
X111804311Y-103246286D01*
X111851463Y-103132452D01*
X111875500Y-103011606D01*
X111875500Y-99349983D01*
X128134500Y-99349983D01*
X128134500Y-100650001D01*
X128134501Y-100650018D01*
X128145000Y-100752796D01*
X128145001Y-100752799D01*
X128200185Y-100919331D01*
X128200186Y-100919334D01*
X128272967Y-101037332D01*
X128292289Y-101068657D01*
X128292291Y-101068660D01*
X128403696Y-101180065D01*
X128424846Y-101208317D01*
X128432338Y-101222037D01*
X128447192Y-101290301D01*
X128447063Y-101292107D01*
X128427694Y-101350311D01*
X128423511Y-101356820D01*
X128406877Y-101377462D01*
X128292681Y-101491658D01*
X128200641Y-101640879D01*
X128200638Y-101640888D01*
X128145494Y-101807299D01*
X128145493Y-101807304D01*
X128135000Y-101910007D01*
X128135000Y-101910010D01*
X128135000Y-101910013D01*
X128135000Y-102310000D01*
X128872750Y-102310000D01*
X128939789Y-102329685D01*
X128985544Y-102382489D01*
X128995488Y-102451647D01*
X128992524Y-102466095D01*
X128985000Y-102494171D01*
X128985000Y-102625828D01*
X128992524Y-102653905D01*
X128990863Y-102723755D01*
X128951701Y-102781618D01*
X128887473Y-102809123D01*
X128872750Y-102810000D01*
X128135001Y-102810000D01*
X128135001Y-103209995D01*
X128145493Y-103312694D01*
X128145493Y-103312695D01*
X128145494Y-103312697D01*
X128165974Y-103374500D01*
X128186305Y-103435858D01*
X128200641Y-103479119D01*
X128200643Y-103479124D01*
X128292684Y-103628345D01*
X128292685Y-103628346D01*
X128393696Y-103729357D01*
X128414848Y-103757613D01*
X128422340Y-103771334D01*
X128437192Y-103839594D01*
X128437063Y-103841400D01*
X128417694Y-103899604D01*
X128413511Y-103906113D01*
X128396877Y-103926755D01*
X128292286Y-104031346D01*
X128200187Y-104180662D01*
X128200152Y-104180770D01*
X128156050Y-104313857D01*
X128156044Y-104313875D01*
X128145001Y-104347203D01*
X128145001Y-104347204D01*
X128145000Y-104347204D01*
X128144230Y-104354735D01*
X128144229Y-104354741D01*
X128134500Y-104449973D01*
X128134500Y-104449981D01*
X128134500Y-104449983D01*
X128134500Y-105750001D01*
X128134501Y-105750018D01*
X128145000Y-105852796D01*
X128145001Y-105852799D01*
X128186603Y-105978343D01*
X128186602Y-105978343D01*
X128200184Y-106019328D01*
X128200187Y-106019336D01*
X128235069Y-106075888D01*
X128292288Y-106168656D01*
X128416344Y-106292712D01*
X128565666Y-106384814D01*
X128732203Y-106439999D01*
X128834991Y-106450500D01*
X130135008Y-106450499D01*
X130237797Y-106439999D01*
X130404334Y-106384814D01*
X130553656Y-106292712D01*
X130677712Y-106168656D01*
X130769814Y-106019334D01*
X130824999Y-105852797D01*
X130835500Y-105750009D01*
X130835499Y-104449992D01*
X130824999Y-104347203D01*
X130769814Y-104180666D01*
X130677712Y-104031344D01*
X130576302Y-103929934D01*
X130555150Y-103901678D01*
X130547658Y-103887957D01*
X130532806Y-103819697D01*
X130532935Y-103817888D01*
X130552302Y-103759690D01*
X130556492Y-103753171D01*
X130573113Y-103732545D01*
X130677317Y-103628342D01*
X130769356Y-103479124D01*
X130769358Y-103479119D01*
X130824505Y-103312697D01*
X130824506Y-103312690D01*
X130834999Y-103209986D01*
X130835000Y-103209973D01*
X130835000Y-102810000D01*
X130097250Y-102810000D01*
X130030211Y-102790315D01*
X129984456Y-102737511D01*
X129974512Y-102668353D01*
X129977476Y-102653905D01*
X129984999Y-102625828D01*
X129985000Y-102625825D01*
X129985000Y-102494175D01*
X129984999Y-102494171D01*
X129977476Y-102466095D01*
X129979137Y-102396245D01*
X130018299Y-102338382D01*
X130082527Y-102310877D01*
X130097250Y-102310000D01*
X130834999Y-102310000D01*
X130834999Y-101910032D01*
X130834999Y-101910028D01*
X130834998Y-101910013D01*
X130824505Y-101807302D01*
X130769358Y-101640880D01*
X130769356Y-101640875D01*
X130677315Y-101491654D01*
X130566302Y-101380641D01*
X130545150Y-101352385D01*
X130537658Y-101338664D01*
X130522806Y-101270404D01*
X130522935Y-101268595D01*
X130542299Y-101210402D01*
X130546483Y-101203890D01*
X130563112Y-101183254D01*
X130677712Y-101068656D01*
X130769814Y-100919334D01*
X130824999Y-100752797D01*
X130835500Y-100650009D01*
X130835499Y-99349992D01*
X130834292Y-99338181D01*
X130824999Y-99247203D01*
X130824998Y-99247200D01*
X130810016Y-99201987D01*
X130769814Y-99080666D01*
X130677712Y-98931344D01*
X130553656Y-98807288D01*
X130404334Y-98715186D01*
X130246265Y-98662807D01*
X130243445Y-98661641D01*
X130237792Y-98659999D01*
X130135019Y-98649500D01*
X130135010Y-98649500D01*
X128834998Y-98649500D01*
X128834981Y-98649501D01*
X128820959Y-98650933D01*
X128732198Y-98660000D01*
X128732193Y-98660001D01*
X128732032Y-98660056D01*
X128565667Y-98715185D01*
X128565665Y-98715186D01*
X128565663Y-98715187D01*
X128466115Y-98776588D01*
X128416340Y-98807290D01*
X128292290Y-98931340D01*
X128200187Y-99080662D01*
X128200187Y-99080663D01*
X128200186Y-99080666D01*
X128159985Y-99201985D01*
X128155300Y-99216123D01*
X128146852Y-99229069D01*
X128145365Y-99243630D01*
X128144961Y-99246695D01*
X128144953Y-99247655D01*
X128134500Y-99349983D01*
X111875500Y-99349983D01*
X111875500Y-91092328D01*
X111880523Y-91057392D01*
X111884927Y-91042394D01*
X111922661Y-90983652D01*
X111923248Y-90983143D01*
X111924034Y-90982461D01*
X111978925Y-90954974D01*
X111986483Y-90953329D01*
X112012827Y-90950499D01*
X113042670Y-90950499D01*
X113077606Y-90955522D01*
X113092604Y-90959926D01*
X113151355Y-90997671D01*
X113152542Y-90999040D01*
X113180018Y-91053901D01*
X113181663Y-91061459D01*
X113184500Y-91087830D01*
X113184500Y-95848393D01*
X113184500Y-95971607D01*
X113184500Y-95971609D01*
X113184499Y-95971609D01*
X113189448Y-95996484D01*
X113190189Y-96000207D01*
X113190879Y-96003677D01*
X113190880Y-96003686D01*
X113208535Y-96092444D01*
X113208538Y-96092454D01*
X113222343Y-96125782D01*
X113222348Y-96125795D01*
X113225262Y-96132832D01*
X113225343Y-96133030D01*
X113255680Y-96206271D01*
X113255685Y-96206281D01*
X113255687Y-96206285D01*
X113287905Y-96254500D01*
X113287906Y-96254502D01*
X113324143Y-96308735D01*
X113415586Y-96400178D01*
X113415596Y-96400187D01*
X113416629Y-96401220D01*
X113416672Y-96401262D01*
X114050573Y-97035163D01*
X114071723Y-97063415D01*
X114084331Y-97086504D01*
X114099500Y-97145933D01*
X114099500Y-97188699D01*
X114134099Y-97362646D01*
X114134101Y-97362653D01*
X114134109Y-97362676D01*
X114201977Y-97526526D01*
X114201985Y-97526544D01*
X114201994Y-97526559D01*
X114300536Y-97674036D01*
X114300537Y-97674037D01*
X114300542Y-97674043D01*
X114425955Y-97799456D01*
X114425961Y-97799461D01*
X114425965Y-97799464D01*
X114573446Y-97898009D01*
X114573459Y-97898016D01*
X114609579Y-97912977D01*
X114695144Y-97948419D01*
X114695182Y-97948434D01*
X114696363Y-97948923D01*
X114737334Y-97965894D01*
X114737336Y-97965894D01*
X114737341Y-97965896D01*
X114903680Y-97998982D01*
X114906403Y-97999704D01*
X114911306Y-98000500D01*
X115088693Y-98000500D01*
X115092814Y-98000500D01*
X115100667Y-97998117D01*
X115146682Y-97988964D01*
X115146683Y-97988964D01*
X115262658Y-97965896D01*
X115262663Y-97965894D01*
X115262666Y-97965894D01*
X115265346Y-97964784D01*
X115265408Y-97964759D01*
X115273829Y-97961276D01*
X115273876Y-97961251D01*
X115426540Y-97898016D01*
X115426540Y-97898015D01*
X115426547Y-97898013D01*
X115574035Y-97799464D01*
X115699464Y-97674035D01*
X115798013Y-97526547D01*
X115865894Y-97362666D01*
X115870932Y-97337341D01*
X115900499Y-97188695D01*
X115900500Y-97188693D01*
X115900500Y-97011306D01*
X115900499Y-97011304D01*
X115865896Y-96837341D01*
X115865893Y-96837332D01*
X115823138Y-96734109D01*
X115798020Y-96673468D01*
X115798014Y-96673455D01*
X115782009Y-96649502D01*
X115781797Y-96649184D01*
X115738044Y-96583703D01*
X115722818Y-96551877D01*
X115718145Y-96536954D01*
X115716900Y-96467102D01*
X115720504Y-96453965D01*
X115736982Y-96417885D01*
X115749204Y-96399592D01*
X115798013Y-96326547D01*
X115865894Y-96162666D01*
X115871688Y-96133541D01*
X115898209Y-96000207D01*
X115900500Y-95988691D01*
X115900500Y-95949209D01*
X115900767Y-95945148D01*
X115902251Y-95941096D01*
X115905522Y-95918347D01*
X115912934Y-95893102D01*
X115944228Y-95840360D01*
X116728729Y-95055860D01*
X116728733Y-95055858D01*
X116815858Y-94968733D01*
X116850084Y-94917509D01*
X116884312Y-94866286D01*
X116924977Y-94768109D01*
X116931459Y-94752461D01*
X116931459Y-94752459D01*
X116931463Y-94752451D01*
X116955500Y-94631607D01*
X116955500Y-94508393D01*
X116955500Y-91092328D01*
X116960523Y-91057392D01*
X116964927Y-91042394D01*
X117002672Y-90983643D01*
X117004041Y-90982456D01*
X117058920Y-90954976D01*
X117058939Y-90954972D01*
X117061219Y-90954476D01*
X117066479Y-90953332D01*
X117092832Y-90950499D01*
X118102670Y-90950499D01*
X118137606Y-90955522D01*
X118152604Y-90959926D01*
X118211355Y-90997671D01*
X118212542Y-90999040D01*
X118240018Y-91053901D01*
X118241663Y-91061459D01*
X118244500Y-91087830D01*
X118244500Y-95292808D01*
X118239476Y-95327745D01*
X118232064Y-95352986D01*
X118200769Y-95405730D01*
X118170543Y-95435955D01*
X118170535Y-95435964D01*
X118170532Y-95435969D01*
X118071994Y-95583439D01*
X118071985Y-95583454D01*
X118071977Y-95583472D01*
X118004109Y-95747322D01*
X118004101Y-95747345D01*
X118004099Y-95747352D01*
X117969500Y-95921299D01*
X117969500Y-96098699D01*
X118004099Y-96272646D01*
X118004101Y-96272653D01*
X118004109Y-96272676D01*
X118071977Y-96436526D01*
X118071985Y-96436544D01*
X118071994Y-96436559D01*
X118170536Y-96584036D01*
X118170537Y-96584037D01*
X118170542Y-96584043D01*
X118295955Y-96709456D01*
X118295961Y-96709461D01*
X118295965Y-96709464D01*
X118443446Y-96808009D01*
X118443459Y-96808016D01*
X118479579Y-96822977D01*
X118565144Y-96858419D01*
X118565182Y-96858434D01*
X118566363Y-96858923D01*
X118607334Y-96875894D01*
X118607336Y-96875894D01*
X118607341Y-96875896D01*
X118773680Y-96908982D01*
X118776403Y-96909704D01*
X118781306Y-96910500D01*
X118958693Y-96910500D01*
X118962814Y-96910500D01*
X118970667Y-96908117D01*
X119016682Y-96898964D01*
X119016683Y-96898964D01*
X119132653Y-96875897D01*
X119132653Y-96875896D01*
X119132658Y-96875896D01*
X119132661Y-96875894D01*
X119132666Y-96875894D01*
X119135854Y-96874573D01*
X119143835Y-96871273D01*
X119143876Y-96871251D01*
X119296540Y-96808016D01*
X119296540Y-96808015D01*
X119296547Y-96808013D01*
X119444035Y-96709464D01*
X119569464Y-96584035D01*
X119668013Y-96436547D01*
X119670249Y-96431150D01*
X119713576Y-96326547D01*
X119735894Y-96272666D01*
X119739508Y-96254500D01*
X119770499Y-96098695D01*
X119770500Y-96098693D01*
X119770500Y-95921306D01*
X119770499Y-95921304D01*
X119735896Y-95747341D01*
X119735893Y-95747332D01*
X119730749Y-95734914D01*
X119707315Y-95678338D01*
X119668016Y-95583459D01*
X119668009Y-95583446D01*
X119569464Y-95435965D01*
X119569461Y-95435961D01*
X119544423Y-95410923D01*
X119523272Y-95382667D01*
X119520547Y-95377677D01*
X119519238Y-95375278D01*
X119510666Y-95359579D01*
X119495500Y-95300156D01*
X119495500Y-91091828D01*
X119500523Y-91056892D01*
X119504490Y-91043384D01*
X119504927Y-91041893D01*
X119542672Y-90983143D01*
X119544041Y-90981956D01*
X119598920Y-90954476D01*
X119606479Y-90952832D01*
X119632832Y-90949999D01*
X119825000Y-90949999D01*
X119825000Y-90212250D01*
X119844685Y-90145211D01*
X119897489Y-90099456D01*
X119966647Y-90089512D01*
X119981093Y-90092475D01*
X120009174Y-90100000D01*
X120140825Y-90100000D01*
X120140826Y-90100000D01*
X120168905Y-90092476D01*
X120238755Y-90094137D01*
X120296618Y-90133299D01*
X120324123Y-90197527D01*
X120325000Y-90212250D01*
X120325000Y-90949999D01*
X120724960Y-90949999D01*
X120724972Y-90949999D01*
X120724986Y-90949998D01*
X120827697Y-90939505D01*
X120994119Y-90884358D01*
X120994124Y-90884356D01*
X121143342Y-90792317D01*
X121221862Y-90713796D01*
X121250109Y-90692651D01*
X121263833Y-90685157D01*
X121332091Y-90670306D01*
X121333901Y-90670435D01*
X121392101Y-90689803D01*
X121398614Y-90693989D01*
X121419254Y-90710622D01*
X121501344Y-90792712D01*
X121650666Y-90884814D01*
X121817203Y-90939999D01*
X121919991Y-90950500D01*
X123220008Y-90950499D01*
X123322797Y-90939999D01*
X123489334Y-90884814D01*
X123638656Y-90792712D01*
X123719717Y-90711650D01*
X123747964Y-90690505D01*
X123761688Y-90683011D01*
X123829946Y-90668160D01*
X123831756Y-90668289D01*
X123889953Y-90687655D01*
X123896471Y-90691844D01*
X123917106Y-90708474D01*
X124001344Y-90792712D01*
X124150666Y-90884814D01*
X124317203Y-90939999D01*
X124419991Y-90950500D01*
X125720008Y-90950499D01*
X125822797Y-90939999D01*
X125989334Y-90884814D01*
X126138656Y-90792712D01*
X126262712Y-90668656D01*
X126354814Y-90519334D01*
X126409999Y-90352797D01*
X126420500Y-90250009D01*
X126420499Y-88949992D01*
X126409999Y-88847203D01*
X126354814Y-88680666D01*
X126262712Y-88531344D01*
X126138656Y-88407288D01*
X126062092Y-88360063D01*
X125996355Y-88319516D01*
X125996351Y-88319514D01*
X125990075Y-88315643D01*
X125989336Y-88315187D01*
X125989331Y-88315185D01*
X125987862Y-88314698D01*
X125981161Y-88312477D01*
X125981160Y-88312477D01*
X125831265Y-88262807D01*
X125828445Y-88261641D01*
X125822792Y-88259999D01*
X125720019Y-88249500D01*
X125720010Y-88249500D01*
X124419998Y-88249500D01*
X124419981Y-88249501D01*
X124415077Y-88250002D01*
X124317198Y-88260000D01*
X124317193Y-88260001D01*
X124317032Y-88260056D01*
X124150667Y-88315185D01*
X124150665Y-88315186D01*
X124150663Y-88315187D01*
X124143645Y-88319516D01*
X124001338Y-88407291D01*
X123920285Y-88488345D01*
X123892027Y-88509498D01*
X123878309Y-88516988D01*
X123810051Y-88531839D01*
X123808245Y-88531710D01*
X123750044Y-88512342D01*
X123743529Y-88508155D01*
X123722893Y-88491525D01*
X123638657Y-88407289D01*
X123638656Y-88407288D01*
X123562092Y-88360063D01*
X123496355Y-88319516D01*
X123496351Y-88319514D01*
X123490075Y-88315643D01*
X123489336Y-88315187D01*
X123489331Y-88315185D01*
X123487862Y-88314698D01*
X123481161Y-88312477D01*
X123481160Y-88312477D01*
X123331265Y-88262807D01*
X123328445Y-88261641D01*
X123322792Y-88259999D01*
X123220019Y-88249500D01*
X123220010Y-88249500D01*
X121919998Y-88249500D01*
X121919981Y-88249501D01*
X121915077Y-88250002D01*
X121817198Y-88260000D01*
X121817193Y-88260001D01*
X121817032Y-88260056D01*
X121650666Y-88315185D01*
X121650664Y-88315186D01*
X121501347Y-88407285D01*
X121422434Y-88486198D01*
X121394176Y-88507350D01*
X121380456Y-88514841D01*
X121312203Y-88529692D01*
X121310396Y-88529563D01*
X121252190Y-88510195D01*
X121245675Y-88506008D01*
X121225039Y-88489378D01*
X121143346Y-88407685D01*
X121143345Y-88407684D01*
X120994124Y-88315643D01*
X120994119Y-88315641D01*
X120984571Y-88312477D01*
X120827699Y-88260494D01*
X120827694Y-88260493D01*
X120724991Y-88250000D01*
X120724986Y-88250000D01*
X120325000Y-88250000D01*
X120325000Y-88987749D01*
X120305315Y-89054788D01*
X120252511Y-89100543D01*
X120183353Y-89110487D01*
X120168908Y-89107524D01*
X120140828Y-89100000D01*
X120140826Y-89100000D01*
X120009174Y-89100000D01*
X120009171Y-89100000D01*
X119981092Y-89107524D01*
X119911242Y-89105861D01*
X119853380Y-89066698D01*
X119825877Y-89002469D01*
X119825000Y-88987749D01*
X119825000Y-88250000D01*
X119637330Y-88250000D01*
X119602389Y-88244975D01*
X119587390Y-88240570D01*
X119528644Y-88202827D01*
X119527457Y-88201458D01*
X119499977Y-88146583D01*
X119498332Y-88139021D01*
X119495500Y-88112668D01*
X119495500Y-87098280D01*
X119500522Y-87063347D01*
X119502061Y-87058106D01*
X119507934Y-87038102D01*
X119539228Y-86985360D01*
X120218729Y-86305860D01*
X120218733Y-86305858D01*
X120305858Y-86218733D01*
X120374311Y-86116286D01*
X120374312Y-86116285D01*
X120409037Y-86032451D01*
X120421463Y-86002452D01*
X120425014Y-85984594D01*
X120429442Y-85973688D01*
X120437736Y-85963245D01*
X120443819Y-85949919D01*
X120443034Y-85949415D01*
X120449006Y-85940117D01*
X120449421Y-85940383D01*
X120449424Y-85940380D01*
X120449464Y-85940411D01*
X120449766Y-85940605D01*
X120482779Y-85902360D01*
X120602073Y-85815690D01*
X120735690Y-85682073D01*
X120846760Y-85529199D01*
X120932547Y-85360832D01*
X120942082Y-85331486D01*
X126499500Y-85331486D01*
X126499500Y-85668512D01*
X126537231Y-86003391D01*
X126590946Y-86238731D01*
X126610832Y-86325860D01*
X126612223Y-86331952D01*
X126612227Y-86331968D01*
X126612234Y-86331989D01*
X126723529Y-86650047D01*
X126723535Y-86650061D01*
X126869750Y-86953680D01*
X126869752Y-86953683D01*
X126907283Y-87013413D01*
X127049054Y-87239039D01*
X127259175Y-87502523D01*
X127497477Y-87740825D01*
X127760961Y-87950946D01*
X128034254Y-88122668D01*
X128046316Y-88130247D01*
X128143422Y-88177011D01*
X128349949Y-88276469D01*
X128588848Y-88360063D01*
X128668034Y-88387772D01*
X128668046Y-88387776D01*
X128996606Y-88462767D01*
X128996611Y-88462767D01*
X128996613Y-88462768D01*
X128996612Y-88462768D01*
X129118264Y-88476474D01*
X129314095Y-88498538D01*
X129321698Y-88500500D01*
X129668507Y-88500500D01*
X129694005Y-88500500D01*
X129699139Y-88497696D01*
X129711608Y-88495642D01*
X129945768Y-88469259D01*
X130003387Y-88462768D01*
X130003388Y-88462767D01*
X130003394Y-88462767D01*
X130331954Y-88387776D01*
X130650051Y-88276469D01*
X130953686Y-88130246D01*
X131239039Y-87950946D01*
X131502523Y-87740825D01*
X131740825Y-87502523D01*
X131950946Y-87239039D01*
X132130246Y-86953686D01*
X132276469Y-86650051D01*
X132387776Y-86331954D01*
X132462767Y-86003394D01*
X132500500Y-85668504D01*
X132500500Y-85331496D01*
X132462767Y-84996606D01*
X132387776Y-84668046D01*
X132387770Y-84668030D01*
X132360063Y-84588848D01*
X132276469Y-84349949D01*
X132130246Y-84046314D01*
X131950946Y-83760961D01*
X131740825Y-83497477D01*
X131502523Y-83259175D01*
X131239039Y-83049054D01*
X131060086Y-82936610D01*
X130955098Y-82870641D01*
X130954039Y-82869955D01*
X130953681Y-82869751D01*
X130650061Y-82723535D01*
X130650047Y-82723529D01*
X130331989Y-82612234D01*
X130331968Y-82612227D01*
X130331956Y-82612224D01*
X130331953Y-82612223D01*
X130216492Y-82585870D01*
X130003391Y-82537231D01*
X129668512Y-82499500D01*
X129668508Y-82499500D01*
X129668504Y-82499500D01*
X129331496Y-82499500D01*
X129331491Y-82499500D01*
X129331486Y-82499500D01*
X128996607Y-82537231D01*
X128668046Y-82612223D01*
X128668030Y-82612227D01*
X128668009Y-82612234D01*
X128349951Y-82723529D01*
X128349937Y-82723535D01*
X128046318Y-82869750D01*
X127760959Y-83049054D01*
X127760957Y-83049055D01*
X127497483Y-83259167D01*
X127259167Y-83497483D01*
X127049055Y-83760957D01*
X127049054Y-83760959D01*
X126869750Y-84046318D01*
X126723535Y-84349937D01*
X126723529Y-84349951D01*
X126612234Y-84668009D01*
X126612227Y-84668030D01*
X126612223Y-84668046D01*
X126537231Y-84996607D01*
X126499500Y-85331486D01*
X120942082Y-85331486D01*
X120990940Y-85181118D01*
X121020162Y-84996618D01*
X121020169Y-84996619D01*
X121020168Y-84996579D01*
X121020500Y-84994486D01*
X121020500Y-83805513D01*
X120990940Y-83618881D01*
X120932545Y-83439163D01*
X120846759Y-83270800D01*
X120844914Y-83268260D01*
X120735690Y-83117927D01*
X120602073Y-82984310D01*
X120449199Y-82873240D01*
X120449196Y-82873238D01*
X120449194Y-82873237D01*
X120442357Y-82869754D01*
X120442353Y-82869750D01*
X120442353Y-82869752D01*
X120280836Y-82787454D01*
X120101118Y-82729059D01*
X120101112Y-82729058D01*
X119914491Y-82699500D01*
X119914486Y-82699500D01*
X119914481Y-82699500D01*
X119725519Y-82699500D01*
X119725514Y-82699500D01*
X119725509Y-82699500D01*
X119538886Y-82729058D01*
X119538884Y-82729058D01*
X119538881Y-82729059D01*
X119359163Y-82787454D01*
X119274981Y-82830347D01*
X119190799Y-82873240D01*
X119103579Y-82936610D01*
X119103578Y-82936610D01*
X119049794Y-82975686D01*
X119042419Y-82979816D01*
X118899816Y-83122419D01*
X118895685Y-83129796D01*
X118793241Y-83270796D01*
X118793241Y-83270798D01*
X118707452Y-83439165D01*
X118673440Y-83543846D01*
X118635017Y-83600683D01*
X118633978Y-83601550D01*
X118627605Y-83610869D01*
X118563242Y-83638058D01*
X118494398Y-83626134D01*
X118465271Y-83606212D01*
X118462982Y-83604111D01*
X118428912Y-83551088D01*
X118426559Y-83543846D01*
X118392545Y-83439163D01*
X118306759Y-83270800D01*
X118304914Y-83268260D01*
X118195690Y-83117927D01*
X118062073Y-82984310D01*
X117909199Y-82873240D01*
X117909196Y-82873238D01*
X117909194Y-82873237D01*
X117902357Y-82869754D01*
X117902353Y-82869750D01*
X117902353Y-82869752D01*
X117740836Y-82787454D01*
X117561118Y-82729059D01*
X117561112Y-82729058D01*
X117374491Y-82699500D01*
X117374486Y-82699500D01*
X117374481Y-82699500D01*
X117185519Y-82699500D01*
X117185514Y-82699500D01*
X117185507Y-82699500D01*
X117086505Y-82715180D01*
X117051222Y-82715685D01*
X117037458Y-82713907D01*
X116973493Y-82685796D01*
X116934881Y-82627568D01*
X116931031Y-82615115D01*
X116925500Y-82578495D01*
X116925500Y-82438391D01*
X116925409Y-82437653D01*
X116924908Y-82435418D01*
X116902125Y-82320878D01*
X116901710Y-82318451D01*
X116901464Y-82317555D01*
X116901463Y-82317548D01*
X116854311Y-82203714D01*
X116854310Y-82203713D01*
X116854307Y-82203707D01*
X116785859Y-82101268D01*
X116785858Y-82101267D01*
X116698733Y-82014142D01*
X116698732Y-82014141D01*
X115058572Y-80373982D01*
X115037423Y-80345729D01*
X115030770Y-80333546D01*
X115015920Y-80265275D01*
X115040324Y-80199830D01*
X115042327Y-80197153D01*
X115084535Y-80161363D01*
X115086293Y-80160451D01*
X115105028Y-80152615D01*
X115295992Y-80090568D01*
X115506433Y-79983343D01*
X115697510Y-79844517D01*
X115864517Y-79677510D01*
X116003343Y-79486433D01*
X116110568Y-79275992D01*
X116183553Y-79051368D01*
X116208637Y-78892993D01*
X116220500Y-78818097D01*
X116220500Y-78581902D01*
X116183553Y-78348631D01*
X116110566Y-78124003D01*
X116003342Y-77913566D01*
X115864517Y-77722490D01*
X115697510Y-77555483D01*
X115506433Y-77416657D01*
X115506432Y-77416656D01*
X115506430Y-77416655D01*
X115436873Y-77381213D01*
X115408029Y-77360880D01*
X115399807Y-77353115D01*
X115364583Y-77292774D01*
X115367574Y-77222968D01*
X115407808Y-77165878D01*
X115410693Y-77163588D01*
X115448819Y-77142973D01*
X115457794Y-77139999D01*
X115457797Y-77139999D01*
X115624334Y-77084814D01*
X115773656Y-76992712D01*
X115897712Y-76868656D01*
X115989814Y-76719334D01*
X116044999Y-76552797D01*
X116055500Y-76450009D01*
X116055499Y-75149992D01*
X116044999Y-75047203D01*
X115989814Y-74880666D01*
X115897712Y-74731344D01*
X115773656Y-74607288D01*
X115624334Y-74515186D01*
X115466265Y-74462807D01*
X115463445Y-74461641D01*
X115457792Y-74459999D01*
X115355019Y-74449500D01*
X115355010Y-74449500D01*
X114054998Y-74449500D01*
X114054981Y-74449501D01*
X114040959Y-74450933D01*
X113952198Y-74460000D01*
X113952193Y-74460001D01*
X113952032Y-74460056D01*
X113785667Y-74515185D01*
X113785665Y-74515186D01*
X113785663Y-74515187D01*
X113711002Y-74561238D01*
X113636338Y-74607291D01*
X113535285Y-74708345D01*
X113507027Y-74729498D01*
X113493309Y-74736988D01*
X113425051Y-74751839D01*
X113423245Y-74751710D01*
X113365044Y-74732342D01*
X113358529Y-74728155D01*
X113337893Y-74711525D01*
X113233657Y-74607289D01*
X113233656Y-74607288D01*
X113084334Y-74515186D01*
X112926265Y-74462807D01*
X112923445Y-74461641D01*
X112917792Y-74459999D01*
X112815019Y-74449500D01*
X112815010Y-74449500D01*
X111514998Y-74449500D01*
X111514981Y-74449501D01*
X111500959Y-74450933D01*
X111412198Y-74460000D01*
X111412193Y-74460001D01*
X111412032Y-74460056D01*
X111245667Y-74515185D01*
X111245665Y-74515186D01*
X111245663Y-74515187D01*
X111171002Y-74561238D01*
X111096338Y-74607291D01*
X110995285Y-74708345D01*
X110967027Y-74729498D01*
X110953309Y-74736988D01*
X110885051Y-74751839D01*
X110883245Y-74751710D01*
X110825044Y-74732342D01*
X110818529Y-74728155D01*
X110797893Y-74711525D01*
X110693657Y-74607289D01*
X110693656Y-74607288D01*
X110544334Y-74515186D01*
X110386265Y-74462807D01*
X110383445Y-74461641D01*
X110377792Y-74459999D01*
X110275019Y-74449500D01*
X110275010Y-74449500D01*
X108974998Y-74449500D01*
X108974981Y-74449501D01*
X108960959Y-74450933D01*
X108872198Y-74460000D01*
X108872193Y-74460001D01*
X108872032Y-74460056D01*
X108705667Y-74515185D01*
X108705665Y-74515186D01*
X108705663Y-74515187D01*
X108617081Y-74569825D01*
X108556340Y-74607290D01*
X108432290Y-74731340D01*
X108340187Y-74880662D01*
X108340152Y-74880770D01*
X108296050Y-75013857D01*
X108296044Y-75013875D01*
X108285001Y-75047203D01*
X108285001Y-75047204D01*
X108285000Y-75047204D01*
X108284230Y-75054735D01*
X108284229Y-75054741D01*
X108274500Y-75149973D01*
X108274500Y-75149981D01*
X108274500Y-75149983D01*
X108274500Y-76450001D01*
X108274501Y-76450018D01*
X108285000Y-76552796D01*
X108285001Y-76552799D01*
X108315433Y-76644634D01*
X108339730Y-76717959D01*
X108340186Y-76719333D01*
X108340187Y-76719336D01*
X108341633Y-76721680D01*
X108432288Y-76868656D01*
X108556344Y-76992712D01*
X108705666Y-77084814D01*
X108872203Y-77139999D01*
X108872535Y-77140033D01*
X108872811Y-77140129D01*
X108878819Y-77141415D01*
X108878657Y-77142168D01*
X108926810Y-77158967D01*
X108936245Y-77165009D01*
X108935731Y-77165810D01*
X108947682Y-77170683D01*
X108987847Y-77227854D01*
X108990727Y-77297664D01*
X108977401Y-77330346D01*
X108976364Y-77332116D01*
X108925669Y-77379917D01*
X108923127Y-77381213D01*
X108853576Y-77416651D01*
X108853563Y-77416659D01*
X108770046Y-77477338D01*
X108674360Y-77546858D01*
X108666981Y-77550990D01*
X108495487Y-77722483D01*
X108495481Y-77722490D01*
X108480796Y-77742703D01*
X108456196Y-77768015D01*
X108445206Y-77776489D01*
X108380096Y-77801836D01*
X108311635Y-77787967D01*
X108305453Y-77784706D01*
X108262987Y-77747912D01*
X108244522Y-77722496D01*
X108244518Y-77722491D01*
X108077512Y-77555485D01*
X108077506Y-77555480D01*
X107886433Y-77416657D01*
X107886412Y-77416644D01*
X107886056Y-77416465D01*
X107675996Y-77309433D01*
X107451368Y-77236446D01*
X107451362Y-77236445D01*
X107218102Y-77199500D01*
X107218097Y-77199500D01*
X107218092Y-77199500D01*
X106981908Y-77199500D01*
X106981903Y-77199500D01*
X106981898Y-77199500D01*
X106748636Y-77236445D01*
X106748634Y-77236445D01*
X106748631Y-77236446D01*
X106524003Y-77309433D01*
X106479486Y-77332116D01*
X106313566Y-77416656D01*
X106230047Y-77477338D01*
X106230046Y-77477338D01*
X106134360Y-77546858D01*
X106126981Y-77550990D01*
X105955487Y-77722483D01*
X105955481Y-77722490D01*
X105940796Y-77742703D01*
X105916196Y-77768015D01*
X105905206Y-77776489D01*
X105840096Y-77801836D01*
X105771635Y-77787967D01*
X105765453Y-77784706D01*
X105722987Y-77747912D01*
X105704522Y-77722496D01*
X105704518Y-77722491D01*
X105537512Y-77555485D01*
X105537506Y-77555480D01*
X105346433Y-77416657D01*
X105346412Y-77416644D01*
X105346056Y-77416465D01*
X105135996Y-77309433D01*
X104911368Y-77236446D01*
X104911362Y-77236445D01*
X104678102Y-77199500D01*
X104678097Y-77199500D01*
X104678092Y-77199500D01*
X104441908Y-77199500D01*
X104441903Y-77199500D01*
X104441898Y-77199500D01*
X104208636Y-77236445D01*
X104208634Y-77236445D01*
X104208631Y-77236446D01*
X103984003Y-77309433D01*
X103939486Y-77332116D01*
X103773566Y-77416656D01*
X103690047Y-77477338D01*
X103690046Y-77477338D01*
X103594360Y-77546858D01*
X103586981Y-77550990D01*
X103415481Y-77722490D01*
X103382930Y-77767293D01*
X103358334Y-77792602D01*
X103342745Y-77804623D01*
X103285104Y-77829101D01*
X103278902Y-77830016D01*
X103276256Y-77830406D01*
X103248443Y-77831348D01*
X103242660Y-77830892D01*
X103242657Y-77830893D01*
X102629702Y-78443849D01*
X102568379Y-78477334D01*
X102498687Y-78472350D01*
X102442754Y-78430478D01*
X102434634Y-78418169D01*
X102420099Y-78392993D01*
X102327007Y-78299901D01*
X102310863Y-78290580D01*
X102301827Y-78285363D01*
X102253613Y-78234794D01*
X102240392Y-78166187D01*
X102266361Y-78101323D01*
X102276142Y-78090303D01*
X102889105Y-77477340D01*
X102889104Y-77477338D01*
X102806174Y-77417087D01*
X102802380Y-77415154D01*
X102595806Y-77309898D01*
X102526399Y-77287346D01*
X102464215Y-77267141D01*
X102434746Y-77246991D01*
X102138057Y-77200000D01*
X102138052Y-77200000D01*
X101901948Y-77200000D01*
X101901943Y-77200000D01*
X101668755Y-77236933D01*
X101444194Y-77309898D01*
X101233825Y-77417086D01*
X101150894Y-77477339D01*
X101150893Y-77477340D01*
X101763850Y-78090297D01*
X101797335Y-78151620D01*
X101792351Y-78221312D01*
X101750479Y-78277245D01*
X101738171Y-78285364D01*
X101712996Y-78299899D01*
X101712990Y-78299903D01*
X101619903Y-78392990D01*
X101619898Y-78392996D01*
X101605362Y-78418173D01*
X101554793Y-78466387D01*
X101486185Y-78479607D01*
X101421322Y-78453637D01*
X101410296Y-78443850D01*
X101029425Y-78062979D01*
X101008273Y-78034723D01*
X100995666Y-78011634D01*
X100980499Y-77952209D01*
X100980499Y-77900008D01*
X100980499Y-77899998D01*
X100980498Y-77899981D01*
X100969999Y-77797203D01*
X100969998Y-77797200D01*
X100969930Y-77796994D01*
X100964867Y-77781716D01*
X100964866Y-77781714D01*
X100945243Y-77722496D01*
X100914814Y-77630666D01*
X100822712Y-77481344D01*
X100698656Y-77357288D01*
X100594062Y-77292774D01*
X100549336Y-77265187D01*
X100549331Y-77265185D01*
X100391265Y-77212807D01*
X100388445Y-77211641D01*
X100382792Y-77209999D01*
X100280019Y-77199500D01*
X100280010Y-77199500D01*
X98679998Y-77199500D01*
X98679981Y-77199501D01*
X98665959Y-77200933D01*
X98577198Y-77210000D01*
X98577193Y-77210001D01*
X98577032Y-77210056D01*
X98410667Y-77265185D01*
X98410665Y-77265186D01*
X98410663Y-77265187D01*
X98338929Y-77309433D01*
X98261340Y-77357290D01*
X98137290Y-77481340D01*
X98045187Y-77630662D01*
X98045152Y-77630770D01*
X98001050Y-77763857D01*
X98001044Y-77763875D01*
X97990001Y-77797203D01*
X97990001Y-77797204D01*
X97990000Y-77797204D01*
X97989230Y-77804735D01*
X97989229Y-77804741D01*
X97979500Y-77899973D01*
X97979500Y-77899981D01*
X97979500Y-77899983D01*
X97979500Y-79500001D01*
X97979501Y-79500018D01*
X97990000Y-79602796D01*
X97990001Y-79602799D01*
X98014759Y-79677512D01*
X98045186Y-79769334D01*
X98137288Y-79918656D01*
X98261344Y-80042712D01*
X98410666Y-80134814D01*
X98577203Y-80189999D01*
X98600365Y-80192365D01*
X98634606Y-80200911D01*
X98649078Y-80206816D01*
X98703713Y-80250366D01*
X98706675Y-80254584D01*
X98727542Y-80305654D01*
X98727845Y-80307490D01*
X98729500Y-80327681D01*
X98729500Y-81153920D01*
X98729500Y-81153922D01*
X98729499Y-81153922D01*
X98745927Y-81236503D01*
X98747712Y-81248533D01*
X98748902Y-81260607D01*
X98749500Y-81272769D01*
X98749500Y-82642693D01*
X98744477Y-82677630D01*
X98738987Y-82696326D01*
X98706481Y-82750264D01*
X98699825Y-82756740D01*
X98677505Y-82773981D01*
X98562705Y-82843381D01*
X98562700Y-82843385D01*
X98443382Y-82962703D01*
X98356070Y-83107133D01*
X98305860Y-83268264D01*
X98299500Y-83338271D01*
X98299500Y-85461725D01*
X98304696Y-85518907D01*
X98305862Y-85531739D01*
X98305862Y-85531741D01*
X98305863Y-85531743D01*
X98310592Y-85546921D01*
X98310596Y-85546937D01*
X98356068Y-85692862D01*
X98356070Y-85692866D01*
X98406680Y-85776585D01*
X98443378Y-85837290D01*
X98443379Y-85837291D01*
X98443380Y-85837292D01*
X98562707Y-85956619D01*
X98562709Y-85956620D01*
X98562711Y-85956622D01*
X98562718Y-85956626D01*
X98564050Y-85957586D01*
X98566952Y-85959185D01*
X98707135Y-86043930D01*
X98868257Y-86094137D01*
X98938278Y-86100500D01*
X98938281Y-86100500D01*
X100061719Y-86100500D01*
X100061722Y-86100500D01*
X100131743Y-86094137D01*
X100292865Y-86043930D01*
X100437289Y-85956622D01*
X100556622Y-85837289D01*
X100643930Y-85692865D01*
X100694137Y-85531743D01*
X100700500Y-85461722D01*
X100700500Y-85448637D01*
X100711799Y-85410154D01*
X100717442Y-85381279D01*
X100729574Y-85368620D01*
X100731304Y-85366350D01*
X100731562Y-85366546D01*
X100765788Y-85330836D01*
X100833730Y-85314539D01*
X100899698Y-85337561D01*
X100925179Y-85361983D01*
X100927611Y-85365092D01*
X100940427Y-85385196D01*
X101013666Y-85528933D01*
X101013670Y-85528940D01*
X101124676Y-85681729D01*
X101124688Y-85681745D01*
X101124696Y-85681754D01*
X101258244Y-85815302D01*
X101258252Y-85815309D01*
X101258253Y-85815310D01*
X101258258Y-85815314D01*
X101411059Y-85926329D01*
X101579362Y-86012085D01*
X101579367Y-86012086D01*
X101579370Y-86012088D01*
X101642043Y-86032451D01*
X101758997Y-86070451D01*
X101790000Y-86075362D01*
X101790000Y-85012250D01*
X101809685Y-84945211D01*
X101862489Y-84899456D01*
X101931647Y-84889512D01*
X101946093Y-84892475D01*
X101974174Y-84900000D01*
X102105825Y-84900000D01*
X102105826Y-84900000D01*
X102133905Y-84892476D01*
X102203755Y-84894137D01*
X102261618Y-84933299D01*
X102289123Y-84997527D01*
X102290000Y-85012250D01*
X102290000Y-86075360D01*
X102290000Y-86075361D01*
X102321002Y-86070451D01*
X102500637Y-86012085D01*
X102668940Y-85926329D01*
X102821741Y-85815314D01*
X102821746Y-85815310D01*
X102955310Y-85681746D01*
X102955314Y-85681741D01*
X103066329Y-85528940D01*
X103152086Y-85360635D01*
X103186297Y-85255343D01*
X103224706Y-85198518D01*
X103225739Y-85197653D01*
X103232108Y-85188339D01*
X103296464Y-85161135D01*
X103365312Y-85173042D01*
X103394445Y-85192959D01*
X103396731Y-85195057D01*
X103430823Y-85248099D01*
X103437126Y-85267498D01*
X103467455Y-85360840D01*
X103512191Y-85448637D01*
X103553108Y-85528940D01*
X103553240Y-85529199D01*
X103553241Y-85529200D01*
X103553240Y-85529200D01*
X103555088Y-85531743D01*
X103664310Y-85682073D01*
X103664312Y-85682075D01*
X103664317Y-85682080D01*
X103667474Y-85685777D01*
X103667116Y-85686082D01*
X103684686Y-85709553D01*
X103692178Y-85723274D01*
X103707030Y-85791534D01*
X103706901Y-85793340D01*
X103687533Y-85851542D01*
X103684320Y-85856543D01*
X103683352Y-85858049D01*
X103666716Y-85878692D01*
X103243544Y-86301864D01*
X103241270Y-86304139D01*
X103241250Y-86304158D01*
X103154146Y-86391261D01*
X103154143Y-86391264D01*
X103133965Y-86421464D01*
X103133958Y-86421474D01*
X103130053Y-86427317D01*
X103130043Y-86427330D01*
X103130044Y-86427331D01*
X103128974Y-86428932D01*
X103128969Y-86428939D01*
X103085690Y-86493709D01*
X103085687Y-86493715D01*
X103085684Y-86493720D01*
X103052347Y-86574207D01*
X103048205Y-86584207D01*
X103048202Y-86584213D01*
X103038538Y-86607539D01*
X103038535Y-86607551D01*
X103038530Y-86607573D01*
X103014500Y-86728384D01*
X103014500Y-88107670D01*
X103009475Y-88142614D01*
X103005070Y-88157612D01*
X102967327Y-88216355D01*
X102965958Y-88217542D01*
X102911097Y-88245018D01*
X102903539Y-88246663D01*
X102877168Y-88249500D01*
X101734998Y-88249500D01*
X101734981Y-88249501D01*
X101730077Y-88250002D01*
X101632198Y-88260000D01*
X101632193Y-88260001D01*
X101632032Y-88260056D01*
X101465667Y-88315185D01*
X101465665Y-88315186D01*
X101465663Y-88315187D01*
X101383627Y-88365786D01*
X101316343Y-88407288D01*
X101192286Y-88531344D01*
X101187813Y-88537003D01*
X101187640Y-88536866D01*
X101169785Y-88558260D01*
X101159467Y-88567541D01*
X101096460Y-88597739D01*
X101027130Y-88589079D01*
X101025698Y-88588457D01*
X101023874Y-88587664D01*
X100979576Y-88555127D01*
X100978508Y-88553894D01*
X100966743Y-88537879D01*
X100966444Y-88537395D01*
X100966396Y-88537318D01*
X100962712Y-88531344D01*
X100838656Y-88407288D01*
X100762092Y-88360063D01*
X100696355Y-88319516D01*
X100696351Y-88319514D01*
X100690075Y-88315643D01*
X100689336Y-88315187D01*
X100689331Y-88315185D01*
X100687862Y-88314698D01*
X100681161Y-88312477D01*
X100681160Y-88312477D01*
X100531265Y-88262807D01*
X100528445Y-88261641D01*
X100522792Y-88259999D01*
X100420019Y-88249500D01*
X100420010Y-88249500D01*
X99119998Y-88249500D01*
X99119981Y-88249501D01*
X99115077Y-88250002D01*
X99017198Y-88260000D01*
X99017193Y-88260001D01*
X99017032Y-88260056D01*
X98850667Y-88315185D01*
X98850665Y-88315186D01*
X98850663Y-88315187D01*
X98843645Y-88319516D01*
X98701338Y-88407291D01*
X98620285Y-88488345D01*
X98592027Y-88509498D01*
X98578309Y-88516988D01*
X98510051Y-88531839D01*
X98508245Y-88531710D01*
X98450044Y-88512342D01*
X98443529Y-88508155D01*
X98422893Y-88491525D01*
X98338657Y-88407289D01*
X98338656Y-88407288D01*
X98262092Y-88360063D01*
X98196355Y-88319516D01*
X98196351Y-88319514D01*
X98190075Y-88315643D01*
X98189336Y-88315187D01*
X98189331Y-88315185D01*
X98187862Y-88314698D01*
X98181161Y-88312477D01*
X98181160Y-88312477D01*
X98031265Y-88262807D01*
X98028445Y-88261641D01*
X98022792Y-88259999D01*
X97920019Y-88249500D01*
X97920010Y-88249500D01*
X96619998Y-88249500D01*
X96619981Y-88249501D01*
X96615077Y-88250002D01*
X96517198Y-88260000D01*
X96517193Y-88260001D01*
X96517032Y-88260056D01*
X96350667Y-88315185D01*
X96350665Y-88315186D01*
X96350663Y-88315187D01*
X96268627Y-88365786D01*
X96201343Y-88407288D01*
X96072175Y-88536456D01*
X96072096Y-88536377D01*
X96065415Y-88543497D01*
X96051661Y-88555866D01*
X95988651Y-88586058D01*
X95919323Y-88577391D01*
X95917137Y-88576441D01*
X95916054Y-88575970D01*
X95871815Y-88543482D01*
X95870747Y-88542250D01*
X95867002Y-88537150D01*
X95866792Y-88537317D01*
X95862318Y-88531658D01*
X95811504Y-88480844D01*
X95738345Y-88407685D01*
X95589124Y-88315644D01*
X95589119Y-88315642D01*
X95579568Y-88312477D01*
X95422699Y-88260495D01*
X95422694Y-88260494D01*
X95319991Y-88250001D01*
X95319986Y-88250001D01*
X94920000Y-88250001D01*
X94920000Y-88987750D01*
X94900315Y-89054789D01*
X94847511Y-89100544D01*
X94778353Y-89110488D01*
X94763908Y-89107525D01*
X94735828Y-89100001D01*
X94735826Y-89100001D01*
X94604174Y-89100001D01*
X94604171Y-89100001D01*
X94576092Y-89107525D01*
X94506242Y-89105862D01*
X94448380Y-89066699D01*
X94420877Y-89002470D01*
X94420000Y-88987750D01*
X94420000Y-88250001D01*
X94020028Y-88250001D01*
X94020012Y-88250002D01*
X94020002Y-88250002D01*
X94020002Y-88250003D01*
X93917304Y-88260494D01*
X93917302Y-88260495D01*
X93750887Y-88315639D01*
X93750879Y-88315642D01*
X93750877Y-88315643D01*
X93750875Y-88315644D01*
X93744598Y-88319516D01*
X93601655Y-88407684D01*
X93477674Y-88531664D01*
X93477439Y-88531936D01*
X93466702Y-88542867D01*
X93452258Y-88555859D01*
X93389251Y-88586056D01*
X93319920Y-88577395D01*
X93319894Y-88577384D01*
X93316660Y-88575978D01*
X93272416Y-88543498D01*
X93271352Y-88542271D01*
X93267384Y-88536866D01*
X93267196Y-88537015D01*
X93262712Y-88531344D01*
X93138657Y-88407289D01*
X93138656Y-88407288D01*
X93062092Y-88360063D01*
X92996355Y-88319516D01*
X92996351Y-88319514D01*
X92990075Y-88315643D01*
X92989336Y-88315187D01*
X92989331Y-88315185D01*
X92987862Y-88314698D01*
X92981161Y-88312477D01*
X92981160Y-88312477D01*
X92831265Y-88262807D01*
X92828445Y-88261641D01*
X92822792Y-88259999D01*
X92720019Y-88249500D01*
X92720010Y-88249500D01*
X91419998Y-88249500D01*
X91419981Y-88249501D01*
X91415077Y-88250002D01*
X91317198Y-88260000D01*
X91317193Y-88260001D01*
X91317032Y-88260056D01*
X91150667Y-88315185D01*
X91150665Y-88315186D01*
X91150663Y-88315187D01*
X91143645Y-88319516D01*
X91001338Y-88407291D01*
X90920285Y-88488345D01*
X90892027Y-88509498D01*
X90878309Y-88516988D01*
X90810051Y-88531839D01*
X90808245Y-88531710D01*
X90750044Y-88512342D01*
X90743529Y-88508155D01*
X90722893Y-88491525D01*
X90638657Y-88407289D01*
X90638656Y-88407288D01*
X90562092Y-88360063D01*
X90496355Y-88319516D01*
X90496351Y-88319514D01*
X90490075Y-88315643D01*
X90489336Y-88315187D01*
X90489331Y-88315185D01*
X90487862Y-88314698D01*
X90481161Y-88312477D01*
X90481160Y-88312477D01*
X90331265Y-88262807D01*
X90328445Y-88261641D01*
X90322792Y-88259999D01*
X90220019Y-88249500D01*
X90220010Y-88249500D01*
X88919998Y-88249500D01*
X88919981Y-88249501D01*
X88915077Y-88250002D01*
X88817198Y-88260000D01*
X88817193Y-88260001D01*
X88817032Y-88260056D01*
X88650666Y-88315185D01*
X88650664Y-88315186D01*
X88501347Y-88407285D01*
X88427788Y-88480844D01*
X88399530Y-88501996D01*
X88385810Y-88509487D01*
X88317557Y-88524338D01*
X88315750Y-88524209D01*
X88257544Y-88504841D01*
X88251029Y-88500654D01*
X88230393Y-88484024D01*
X88153658Y-88407289D01*
X88153657Y-88407288D01*
X88077093Y-88360063D01*
X88011356Y-88319516D01*
X88011352Y-88319514D01*
X88005076Y-88315643D01*
X88004337Y-88315187D01*
X88004332Y-88315185D01*
X88002863Y-88314698D01*
X87996162Y-88312477D01*
X87996161Y-88312477D01*
X87846266Y-88262807D01*
X87843446Y-88261641D01*
X87837793Y-88259999D01*
X87735020Y-88249500D01*
X87735011Y-88249500D01*
X86434999Y-88249500D01*
X86434982Y-88249501D01*
X86430078Y-88250002D01*
X86332199Y-88260000D01*
X86332194Y-88260001D01*
X86332033Y-88260056D01*
X86165667Y-88315185D01*
X86165665Y-88315186D01*
X86016348Y-88407285D01*
X85927789Y-88495844D01*
X85899530Y-88516997D01*
X85885808Y-88524489D01*
X85817551Y-88539339D01*
X85815745Y-88539210D01*
X85757544Y-88519842D01*
X85751029Y-88515655D01*
X85730393Y-88499025D01*
X85638657Y-88407289D01*
X85638656Y-88407288D01*
X85562092Y-88360063D01*
X85496355Y-88319516D01*
X85496351Y-88319514D01*
X85490075Y-88315643D01*
X85489336Y-88315187D01*
X85489331Y-88315185D01*
X85487862Y-88314698D01*
X85481161Y-88312477D01*
X85481160Y-88312477D01*
X85331265Y-88262807D01*
X85328445Y-88261641D01*
X85322792Y-88259999D01*
X85220019Y-88249500D01*
X85220010Y-88249500D01*
X83919998Y-88249500D01*
X83919981Y-88249501D01*
X83915077Y-88250002D01*
X83817198Y-88260000D01*
X83817193Y-88260001D01*
X83817032Y-88260056D01*
X83650666Y-88315185D01*
X83650664Y-88315186D01*
X83501347Y-88407285D01*
X83402435Y-88506197D01*
X83374176Y-88527350D01*
X83360454Y-88534842D01*
X83292197Y-88549692D01*
X83290391Y-88549563D01*
X83232190Y-88530195D01*
X83225675Y-88526008D01*
X83205039Y-88509378D01*
X83103346Y-88407685D01*
X83103345Y-88407684D01*
X82954124Y-88315643D01*
X82954119Y-88315641D01*
X82944571Y-88312477D01*
X82787699Y-88260494D01*
X82787694Y-88260493D01*
X82684991Y-88250000D01*
X82684986Y-88250000D01*
X82285000Y-88250000D01*
X82285000Y-88987749D01*
X82265315Y-89054788D01*
X82212511Y-89100543D01*
X82143353Y-89110487D01*
X82128908Y-89107524D01*
X82100828Y-89100000D01*
X82100826Y-89100000D01*
X81969174Y-89100000D01*
X81969171Y-89100000D01*
X81941092Y-89107524D01*
X81871242Y-89105861D01*
X81813380Y-89066698D01*
X81785877Y-89002469D01*
X81785000Y-88987749D01*
X81785000Y-88250000D01*
X81385028Y-88250000D01*
X81385012Y-88250001D01*
X81385002Y-88250001D01*
X81385002Y-88250002D01*
X81282304Y-88260493D01*
X81282302Y-88260494D01*
X81115887Y-88315638D01*
X81115879Y-88315641D01*
X81115877Y-88315642D01*
X81115875Y-88315643D01*
X81043859Y-88360063D01*
X80966658Y-88407681D01*
X80860642Y-88513697D01*
X80832383Y-88534850D01*
X80818661Y-88542342D01*
X80750404Y-88557192D01*
X80748598Y-88557063D01*
X80690397Y-88537695D01*
X80683882Y-88533508D01*
X80663246Y-88516878D01*
X80553657Y-88407289D01*
X80553656Y-88407288D01*
X80477092Y-88360063D01*
X80411355Y-88319516D01*
X80411351Y-88319514D01*
X80405075Y-88315643D01*
X80404336Y-88315187D01*
X80404331Y-88315185D01*
X80402862Y-88314698D01*
X80396161Y-88312477D01*
X80396160Y-88312477D01*
X80246265Y-88262807D01*
X80243445Y-88261641D01*
X80237792Y-88259999D01*
X80135019Y-88249500D01*
X80135010Y-88249500D01*
X78834998Y-88249500D01*
X78834981Y-88249501D01*
X78830077Y-88250002D01*
X78732198Y-88260000D01*
X78732193Y-88260001D01*
X78732032Y-88260056D01*
X78565666Y-88315185D01*
X78565664Y-88315186D01*
X78416347Y-88407285D01*
X78337788Y-88485844D01*
X78309530Y-88506996D01*
X78295810Y-88514487D01*
X78227557Y-88529338D01*
X78225750Y-88529209D01*
X78167544Y-88509841D01*
X78161029Y-88505654D01*
X78140393Y-88489024D01*
X78058658Y-88407289D01*
X78058657Y-88407288D01*
X77982093Y-88360063D01*
X77916356Y-88319516D01*
X77916352Y-88319514D01*
X77910076Y-88315643D01*
X77909337Y-88315187D01*
X77909332Y-88315185D01*
X77907863Y-88314698D01*
X77901162Y-88312477D01*
X77901161Y-88312477D01*
X77751266Y-88262807D01*
X77748446Y-88261641D01*
X77742793Y-88259999D01*
X77640020Y-88249500D01*
X77640011Y-88249500D01*
X76339999Y-88249500D01*
X76339982Y-88249501D01*
X76335078Y-88250002D01*
X76237199Y-88260000D01*
X76237194Y-88260001D01*
X76237033Y-88260056D01*
X76070668Y-88315185D01*
X76070666Y-88315186D01*
X76070664Y-88315187D01*
X75971116Y-88376588D01*
X75921341Y-88407290D01*
X75797291Y-88531340D01*
X75705188Y-88680662D01*
X75705153Y-88680770D01*
X75660301Y-88816123D01*
X75651853Y-88829069D01*
X75650366Y-88843630D01*
X75649962Y-88846695D01*
X75649954Y-88847655D01*
X75639501Y-88949983D01*
X65000500Y-88949983D01*
X65000500Y-85331486D01*
X67499500Y-85331486D01*
X67499500Y-85668512D01*
X67537231Y-86003391D01*
X67590946Y-86238731D01*
X67610832Y-86325860D01*
X67612223Y-86331952D01*
X67612227Y-86331968D01*
X67612234Y-86331989D01*
X67723529Y-86650047D01*
X67723535Y-86650061D01*
X67869750Y-86953680D01*
X67869752Y-86953683D01*
X67907283Y-87013413D01*
X68049054Y-87239039D01*
X68259175Y-87502523D01*
X68497477Y-87740825D01*
X68760961Y-87950946D01*
X69034254Y-88122668D01*
X69046316Y-88130247D01*
X69143422Y-88177011D01*
X69349949Y-88276469D01*
X69588848Y-88360063D01*
X69668034Y-88387772D01*
X69668046Y-88387776D01*
X69996606Y-88462767D01*
X69996611Y-88462767D01*
X69996613Y-88462768D01*
X69996612Y-88462768D01*
X70118264Y-88476474D01*
X70314095Y-88498538D01*
X70321698Y-88500500D01*
X70668507Y-88500500D01*
X70694005Y-88500500D01*
X70699139Y-88497696D01*
X70711608Y-88495642D01*
X70945768Y-88469259D01*
X71003387Y-88462768D01*
X71003388Y-88462767D01*
X71003394Y-88462767D01*
X71331954Y-88387776D01*
X71650051Y-88276469D01*
X71953686Y-88130246D01*
X72239039Y-87950946D01*
X72502523Y-87740825D01*
X72740825Y-87502523D01*
X72950946Y-87239039D01*
X73130246Y-86953686D01*
X73276469Y-86650051D01*
X73387776Y-86331954D01*
X73462767Y-86003394D01*
X73500500Y-85668504D01*
X73500500Y-85331496D01*
X73462767Y-84996606D01*
X73387776Y-84668046D01*
X73387770Y-84668030D01*
X73360063Y-84588848D01*
X73276469Y-84349949D01*
X73130246Y-84046314D01*
X72950946Y-83760961D01*
X72740825Y-83497477D01*
X72502523Y-83259175D01*
X72239039Y-83049054D01*
X72060086Y-82936610D01*
X71955098Y-82870641D01*
X71954039Y-82869955D01*
X71953681Y-82869751D01*
X71650061Y-82723535D01*
X71650047Y-82723529D01*
X71331989Y-82612234D01*
X71331968Y-82612227D01*
X71331956Y-82612224D01*
X71331953Y-82612223D01*
X71216492Y-82585870D01*
X71003391Y-82537231D01*
X70668512Y-82499500D01*
X70668508Y-82499500D01*
X70668504Y-82499500D01*
X70331496Y-82499500D01*
X70331491Y-82499500D01*
X70331486Y-82499500D01*
X69996607Y-82537231D01*
X69668046Y-82612223D01*
X69668030Y-82612227D01*
X69668009Y-82612234D01*
X69349951Y-82723529D01*
X69349937Y-82723535D01*
X69046318Y-82869750D01*
X68760959Y-83049054D01*
X68760957Y-83049055D01*
X68497483Y-83259167D01*
X68259167Y-83497483D01*
X68049055Y-83760957D01*
X68049054Y-83760959D01*
X67869750Y-84046318D01*
X67723535Y-84349937D01*
X67723529Y-84349951D01*
X67612234Y-84668009D01*
X67612227Y-84668030D01*
X67612223Y-84668046D01*
X67537231Y-84996607D01*
X67499500Y-85331486D01*
X65000500Y-85331486D01*
X65000500Y-77004851D01*
X65000541Y-77001675D01*
X65000629Y-76998320D01*
X65000754Y-76995149D01*
X65007066Y-76874709D01*
X65007446Y-76867463D01*
X65015087Y-76721648D01*
X65015336Y-76717959D01*
X65015644Y-76714231D01*
X65015998Y-76710603D01*
X65022658Y-76651491D01*
X65022995Y-76648773D01*
X65023378Y-76645951D01*
X65023762Y-76643335D01*
X65061525Y-76404909D01*
X65062239Y-76400841D01*
X65062240Y-76400835D01*
X65063040Y-76396694D01*
X65063889Y-76392664D01*
X65063899Y-76392623D01*
X65075844Y-76340292D01*
X65076365Y-76338100D01*
X65076879Y-76336023D01*
X65077456Y-76333780D01*
X65141698Y-76094028D01*
X65142976Y-76089597D01*
X65144308Y-76085279D01*
X65145757Y-76080874D01*
X65159672Y-76041109D01*
X65160279Y-76039414D01*
X65160827Y-76037918D01*
X65161473Y-76036193D01*
X65254843Y-75792958D01*
X65256759Y-75788263D01*
X65258759Y-75783632D01*
X65260875Y-75778995D01*
X65269454Y-75761180D01*
X65269959Y-75760145D01*
X65270597Y-75758856D01*
X65271067Y-75757920D01*
X65397957Y-75508881D01*
X65401036Y-75503213D01*
X65404282Y-75497592D01*
X65407646Y-75492104D01*
X65568040Y-75245119D01*
X65568068Y-75245076D01*
X65571716Y-75239767D01*
X65575541Y-75234503D01*
X65579470Y-75229385D01*
X65720893Y-75054741D01*
X65764821Y-75000494D01*
X65769020Y-74995577D01*
X65773371Y-74990746D01*
X65777800Y-74986078D01*
X65986078Y-74777800D01*
X65990755Y-74773363D01*
X65995577Y-74769020D01*
X66000498Y-74764818D01*
X66034866Y-74736988D01*
X66229385Y-74579470D01*
X66234503Y-74575541D01*
X66239767Y-74571716D01*
X66245076Y-74568068D01*
X66492114Y-74407639D01*
X66497601Y-74404276D01*
X66503224Y-74401029D01*
X66508881Y-74397957D01*
X66757920Y-74271067D01*
X66758856Y-74270597D01*
X66760145Y-74269959D01*
X66761136Y-74269475D01*
X66779003Y-74260870D01*
X66783632Y-74258759D01*
X66788263Y-74256759D01*
X66792958Y-74254843D01*
X67036193Y-74161473D01*
X67037918Y-74160827D01*
X67039414Y-74160279D01*
X67041109Y-74159672D01*
X67080874Y-74145757D01*
X67085279Y-74144308D01*
X67089597Y-74142976D01*
X67094028Y-74141698D01*
X67333780Y-74077456D01*
X67335977Y-74076890D01*
X67338100Y-74076365D01*
X67340292Y-74075844D01*
X67366594Y-74069839D01*
X67392697Y-74063881D01*
X67396724Y-74063033D01*
X67400852Y-74062236D01*
X67404849Y-74061535D01*
X67643382Y-74023755D01*
X67646026Y-74023367D01*
X67648762Y-74022997D01*
X67651454Y-74022663D01*
X67710637Y-74015994D01*
X67714243Y-74015642D01*
X67717971Y-74015334D01*
X67721600Y-74015089D01*
X67995167Y-74000752D01*
X67998330Y-74000627D01*
X68001687Y-74000540D01*
X68004861Y-74000500D01*
X131995148Y-74000500D01*
X131998335Y-74000541D01*
G37*
%TD.AperFunction*%
%TD*%
D26*
X65000000Y-77000000D02*
X65000000Y-93000000D01*
X65000000Y-77000000D02*
G75*
G02*
X68000000Y-74000000I3000000J0D01*
G01*
X65000000Y-111800000D02*
X65000000Y-127000000D01*
X65000000Y-111800000D02*
G75*
G02*
X68000000Y-108800000I3000000J0D01*
G01*
X68000000Y-74000000D02*
X132000000Y-74000000D01*
X68000000Y-96000000D02*
G75*
G02*
X65000000Y-93000000I0J3000000D01*
G01*
X68000000Y-96000000D02*
X74000000Y-96000000D01*
X68000000Y-130000000D02*
G75*
G02*
X65000000Y-127000000I0J3000000D01*
G01*
X68000000Y-130000000D02*
X72600000Y-130000000D01*
X73300000Y-129300000D02*
G75*
G02*
X72600000Y-130000000I-700000J0D01*
G01*
X73300000Y-129300000D02*
G75*
G02*
X74000000Y-128600000I700000J0D01*
G01*
X74000000Y-96000000D02*
X74000000Y-108800000D01*
X74000000Y-108800000D02*
X68000000Y-108800000D01*
X80000000Y-128600000D02*
X74000000Y-128600000D01*
X80000000Y-128600000D02*
X86000000Y-128600000D01*
X86000000Y-128600000D02*
G75*
G02*
X86700000Y-129300000I0J-700000D01*
G01*
X87400000Y-130000000D02*
G75*
G02*
X86700000Y-129300000I0J700000D01*
G01*
X87400000Y-130000000D02*
X135000000Y-130000000D01*
X132000000Y-74000000D02*
G75*
G02*
X135000000Y-77000000I0J-3000000D01*
G01*
X135000000Y-77000000D02*
X135000000Y-130000000D01*
M02*
