M48
; DRILL file KiCad 10.0.0-10.0.0~ubuntu24.04.1 date 2026-03-26T18:42:48
; FORMAT={-:-/ absolute / metric / decimal}
; #@! TF.CreationDate,2026-03-26T18:42:48+05:30
; #@! TF.GenerationSoftware,Kicad,Pcbnew,10.0.0-10.0.0~ubuntu24.04.1
; #@! TF.FileFunction,MixedPlating,1,2
FMAT,2
METRIC
; #@! TA.AperFunction,Plated,PTH,ViaDrill
T1C0.400
; #@! TA.AperFunction,Plated,PTH,ComponentDrill
T2C1.000
; #@! TA.AperFunction,Plated,PTH,ComponentDrill
T3C3.000
; #@! TA.AperFunction,NonPlated,NPTH,ComponentDrill
T4C1.850
; #@! TA.AperFunction,NonPlated,NPTH,ComponentDrill
T5C2.200
%
G90
G05
T1
X72.6Y-120.4
X76.99Y-122.8
X79.5Y-114.3
X79.5Y-122.8
X80.8Y-122.8
X82.05Y-109.79
X82.07Y-115.29
X83.3Y-122.8
X87.5Y-85.8
X89.0Y-85.8
X89.263Y-83.905
X91.0Y-125.3
X91.0Y-127.8
X93.7Y-84.4
X94.75Y-115.0
X96.6Y-121.8
X96.6Y-124.0
X103.5Y-97.6
X103.5Y-100.0
X103.5Y-101.3
X103.5Y-104.0
X108.2Y-120.3
X110.1Y-119.3
X111.8Y-120.3
X115.0Y-95.9
X115.0Y-97.1
X115.0Y-117.2
X115.4Y-125.3
X116.6Y-118.35
X118.87Y-96.01
T2
X76.99Y-89.6
X79.485Y-89.6
X82.035Y-89.6
X84.57Y-89.6
X87.085Y-89.6
X87.115Y-115.4
X89.57Y-89.6
X92.07Y-89.6
X94.67Y-89.6
X97.27Y-89.6
X98.0Y-117.9
X98.0Y-127.0
X99.48Y-78.7
X99.5Y-84.4
X99.77Y-89.6
X100.5Y-117.9
X100.5Y-127.0
X102.02Y-78.7
X102.04Y-84.4
X102.385Y-89.6
X103.0Y-117.9
X103.0Y-127.0
X104.56Y-78.7
X104.58Y-84.4
X104.87Y-89.6
X107.1Y-78.7
X107.12Y-84.4
X107.385Y-115.4
X107.445Y-89.61
X109.625Y-75.8
X109.64Y-78.7
X109.66Y-84.4
X110.07Y-89.6
X112.165Y-75.8
X112.18Y-78.7
X112.2Y-84.4
X112.485Y-115.4
X112.57Y-89.6
X114.705Y-75.8
X114.72Y-78.7
X114.74Y-84.4
X115.07Y-89.6
X115.085Y-115.4
X117.28Y-84.4
X117.585Y-89.6
X117.585Y-115.4
X119.82Y-84.4
X120.075Y-89.6
X120.145Y-115.41
X122.57Y-89.6
X122.685Y-115.4
X125.07Y-89.6
X125.285Y-115.4
X129.485Y-100.0
X129.485Y-102.56
X129.485Y-105.1
T3
X70.5Y-85.5
X70.5Y-114.5
X129.5Y-85.5
X129.5Y-114.5
T4
X80.13Y-100.075
X80.13Y-104.925
T5
X77.1Y-99.775
X77.1Y-105.225
T2
G00X124.808Y-126.407
M15
G01X124.808Y-123.907
M16
G05
G00X128.808Y-120.457
M15
G01X126.808Y-120.457
M16
G05
G00X130.808Y-126.157
M15
G01X130.808Y-124.157
M16
G05
M30
