%TF.GenerationSoftware,KiCad,Pcbnew,10.0.0-10.0.0~ubuntu24.04.1*%
%TF.CreationDate,2026-03-22T15:53:16+05:30*%
%TF.ProjectId,orbigator,6f726269-6761-4746-9f72-2e6b69636164,v2*%
%TF.SameCoordinates,Original*%
%TF.FileFunction,Copper,L1,Top*%
%TF.FilePolarity,Positive*%
%FSLAX46Y46*%
G04 Gerber Fmt 4.6, Leading zero omitted, Abs format (unit mm)*
G04 Created by KiCad (PCBNEW 10.0.0-10.0.0~ubuntu24.04.1) date 2026-03-22 15:53:16*
%MOMM*%
%LPD*%
G01*
G04 APERTURE LIST*
G04 Aperture macros list*
%AMRoundRect*
0 Rectangle with rounded corners*
0 $1 Rounding radius*
0 $2 $3 $4 $5 $6 $7 $8 $9 X,Y pos of 4 corners*
0 Add a 4 corners polygon primitive as box body*
4,1,4,$2,$3,$4,$5,$6,$7,$8,$9,$2,$3,0*
0 Add four circle primitives for the rounded corners*
1,1,$1+$1,$2,$3*
1,1,$1+$1,$4,$5*
1,1,$1+$1,$6,$7*
1,1,$1+$1,$8,$9*
0 Add four rect primitives between the rounded corners*
20,1,$1+$1,$2,$3,$4,$5,0*
20,1,$1+$1,$4,$5,$6,$7,0*
20,1,$1+$1,$6,$7,$8,$9,0*
20,1,$1+$1,$8,$9,$2,$3,0*%
%AMFreePoly0*
4,1,37,0.800000,0.796148,0.878414,0.796148,1.032228,0.765552,1.177117,0.705537,1.307515,0.618408,1.418408,0.507515,1.505537,0.377117,1.565552,0.232228,1.596148,0.078414,1.596148,-0.078414,1.565552,-0.232228,1.505537,-0.377117,1.418408,-0.507515,1.307515,-0.618408,1.177117,-0.705537,1.032228,-0.765552,0.878414,-0.796148,0.800000,-0.796148,0.800000,-0.800000,-1.400000,-0.800000,
-1.403843,-0.796157,-1.439018,-0.796157,-1.511114,-0.766294,-1.566294,-0.711114,-1.596157,-0.639018,-1.596157,-0.603843,-1.600000,-0.600000,-1.600000,0.600000,-1.596157,0.603843,-1.596157,0.639018,-1.566294,0.711114,-1.511114,0.766294,-1.439018,0.796157,-1.403843,0.796157,-1.400000,0.800000,0.800000,0.800000,0.800000,0.796148,0.800000,0.796148,$1*%
%AMFreePoly1*
4,1,37,1.403843,0.796157,1.439018,0.796157,1.511114,0.766294,1.566294,0.711114,1.596157,0.639018,1.596157,0.603843,1.600000,0.600000,1.600000,-0.600000,1.596157,-0.603843,1.596157,-0.639018,1.566294,-0.711114,1.511114,-0.766294,1.439018,-0.796157,1.403843,-0.796157,1.400000,-0.800000,-0.800000,-0.800000,-0.800000,-0.796148,-0.878414,-0.796148,-1.032228,-0.765552,-1.177117,-0.705537,
-1.307515,-0.618408,-1.418408,-0.507515,-1.505537,-0.377117,-1.565552,-0.232228,-1.596148,-0.078414,-1.596148,0.078414,-1.565552,0.232228,-1.505537,0.377117,-1.418408,0.507515,-1.307515,0.618408,-1.177117,0.705537,-1.032228,0.765552,-0.878414,0.796148,-0.800000,0.796148,-0.800000,0.800000,1.400000,0.800000,1.403843,0.796157,1.403843,0.796157,$1*%
%AMFreePoly2*
4,1,37,1.600000,0.796148,1.678414,0.796148,1.832228,0.765552,1.977117,0.705537,2.107515,0.618408,2.218408,0.507515,2.305537,0.377117,2.365552,0.232228,2.396148,0.078414,2.396148,-0.078414,2.365552,-0.232228,2.305537,-0.377117,2.218408,-0.507515,2.107515,-0.618408,1.977117,-0.705537,1.832228,-0.765552,1.678414,-0.796148,1.600000,-0.796148,1.600000,-0.800000,-0.600000,-0.800000,
-0.603843,-0.796157,-0.639018,-0.796157,-0.711114,-0.766294,-0.766294,-0.711114,-0.796157,-0.639018,-0.796157,-0.603843,-0.800000,-0.600000,-0.800000,0.600000,-0.796157,0.603843,-0.796157,0.639018,-0.766294,0.711114,-0.711114,0.766294,-0.639018,0.796157,-0.603843,0.796157,-0.600000,0.800000,1.600000,0.800000,1.600000,0.796148,1.600000,0.796148,$1*%
G04 Aperture macros list end*
%TA.AperFunction,ComponentPad*%
%ADD10RoundRect,0.250000X-0.600000X-0.600000X0.600000X-0.600000X0.600000X0.600000X-0.600000X0.600000X0*%
%TD*%
%TA.AperFunction,SMDPad,CuDef*%
%ADD11RoundRect,0.250000X-0.650000X1.000000X-0.650000X-1.000000X0.650000X-1.000000X0.650000X1.000000X0*%
%TD*%
%TA.AperFunction,SMDPad,CuDef*%
%ADD12RoundRect,0.150000X-0.150000X0.825000X-0.150000X-0.825000X0.150000X-0.825000X0.150000X0.825000X0*%
%TD*%
%TA.AperFunction,ComponentPad*%
%ADD13RoundRect,0.250000X0.750000X-0.750000X0.750000X0.750000X-0.750000X0.750000X-0.750000X-0.750000X0*%
%TD*%
%TA.AperFunction,ComponentPad*%
%ADD14C,2.000000*%
%TD*%
%TA.AperFunction,SMDPad,CuDef*%
%ADD15RoundRect,0.250000X-0.350000X-0.450000X0.350000X-0.450000X0.350000X0.450000X-0.350000X0.450000X0*%
%TD*%
%TA.AperFunction,ComponentPad*%
%ADD16RoundRect,0.235294X-0.564706X-0.864706X0.564706X-0.864706X0.564706X0.864706X-0.564706X0.864706X0*%
%TD*%
%TA.AperFunction,ComponentPad*%
%ADD17O,1.600000X2.200000*%
%TD*%
%TA.AperFunction,ComponentPad*%
%ADD18RoundRect,0.750000X0.500000X1.750000X-0.500000X1.750000X-0.500000X-1.750000X0.500000X-1.750000X0*%
%TD*%
%TA.AperFunction,ComponentPad*%
%ADD19RoundRect,0.750000X1.750000X0.500000X-1.750000X0.500000X-1.750000X-0.500000X1.750000X-0.500000X0*%
%TD*%
%TA.AperFunction,SMDPad,CuDef*%
%ADD20FreePoly0,90.000000*%
%TD*%
%TA.AperFunction,SMDPad,CuDef*%
%ADD21RoundRect,0.800000X0.000010X-0.800000X0.000010X0.800000X-0.000010X0.800000X-0.000010X-0.800000X0*%
%TD*%
%TA.AperFunction,SMDPad,CuDef*%
%ADD22FreePoly1,90.000000*%
%TD*%
%TA.AperFunction,SMDPad,CuDef*%
%ADD23RoundRect,0.800000X0.800000X0.000010X-0.800000X0.000010X-0.800000X-0.000010X0.800000X-0.000010X0*%
%TD*%
%TA.AperFunction,SMDPad,CuDef*%
%ADD24FreePoly2,0.000000*%
%TD*%
%TA.AperFunction,SMDPad,CuDef*%
%ADD25RoundRect,0.250000X-0.337500X-0.475000X0.337500X-0.475000X0.337500X0.475000X-0.337500X0.475000X0*%
%TD*%
%TA.AperFunction,SMDPad,CuDef*%
%ADD26RoundRect,0.150000X-0.825000X-0.150000X0.825000X-0.150000X0.825000X0.150000X-0.825000X0.150000X0*%
%TD*%
%TA.AperFunction,SMDPad,CuDef*%
%ADD27RoundRect,0.250000X0.337500X0.475000X-0.337500X0.475000X-0.337500X-0.475000X0.337500X-0.475000X0*%
%TD*%
%TA.AperFunction,SMDPad,CuDef*%
%ADD28RoundRect,0.200000X-0.250000X-0.200000X0.250000X-0.200000X0.250000X0.200000X-0.250000X0.200000X0*%
%TD*%
%TA.AperFunction,ComponentPad*%
%ADD29C,5.000000*%
%TD*%
%TA.AperFunction,ComponentPad*%
%ADD30O,1.400000X2.400000*%
%TD*%
%TA.AperFunction,ComponentPad*%
%ADD31RoundRect,0.194444X0.505556X1.005556X-0.505556X1.005556X-0.505556X-1.005556X0.505556X-1.005556X0*%
%TD*%
%TA.AperFunction,ViaPad*%
%ADD32C,0.800000*%
%TD*%
%TA.AperFunction,Conductor*%
%ADD33C,0.250000*%
%TD*%
%TA.AperFunction,Conductor*%
%ADD34C,0.500000*%
%TD*%
%TA.AperFunction,Conductor*%
%ADD35C,1.000000*%
%TD*%
%TA.AperFunction,Profile*%
%ADD36C,0.050000*%
%TD*%
G04 APERTURE END LIST*
D10*
%TO.P,J5,1,Pin_1_1*%
%TO.N,Net-(J5-Pin_1)*%
X112570000Y-89600000D03*
%TD*%
%TO.P,J1,1,Pin_1_1*%
%TO.N,Net-(J1-Pin_1)*%
X125070000Y-89600000D03*
%TD*%
D11*
%TO.P,D1,1,K_1*%
%TO.N,/V_SYS*%
X119000000Y-123200000D03*
%TO.P,D1,2,A_2*%
%TO.N,/5V0*%
X119000000Y-127200000D03*
%TD*%
D10*
%TO.P,J10,1,Pin_1_1*%
%TO.N,Net-(J10-Pin_1)*%
X97270000Y-89600000D03*
%TD*%
%TO.P,J30,1,Pin_1_1*%
%TO.N,/32k2*%
X114705000Y-75800000D03*
%TD*%
%TO.P,J19,1,Pin_1_1*%
%TO.N,Net-(J19-Pin_1)*%
X112485000Y-115400000D03*
%TD*%
%TO.P,J6,1,Pin_1_1*%
%TO.N,Net-(J6-Pin_1)*%
X110070000Y-89600000D03*
%TD*%
%TO.P,J28,1,Pin_1_1*%
%TO.N,/INT2*%
X109625000Y-75800000D03*
%TD*%
%TO.P,J20,1,Pin_1_1*%
%TO.N,Net-(J20-Pin_1)*%
X87115000Y-115400000D03*
%TD*%
D12*
%TO.P,U2,1*%
%TO.N,/DIR*%
X84610001Y-120325001D03*
%TO.P,U2,2*%
%TO.N,/UART_TX*%
X83339999Y-120324999D03*
%TO.P,U2,3*%
%TO.N,/MOT_DAT*%
X82070000Y-120325000D03*
%TO.P,U2,4*%
%TO.N,/GND*%
X80800000Y-120324999D03*
%TO.P,U2,5*%
X79530001Y-120324999D03*
%TO.P,U2,6*%
%TO.N,unconnected-(U2-Pad6)*%
X78259999Y-120325000D03*
%TO.P,U2,7,GND_7*%
%TO.N,/GND*%
X76990000Y-120325000D03*
%TO.P,U2,8*%
%TO.N,unconnected-(U2-Pad8)*%
X76989999Y-125274999D03*
%TO.P,U2,9*%
%TO.N,/GND*%
X78260001Y-125275001D03*
%TO.P,U2,10*%
X79530000Y-125275000D03*
%TO.P,U2,11*%
%TO.N,unconnected-(U2-Pad11)*%
X80800000Y-125275001D03*
%TO.P,U2,12*%
%TO.N,/GND*%
X82069999Y-125275001D03*
%TO.P,U2,13*%
X83340001Y-125275000D03*
%TO.P,U2,14,VCC_14*%
%TO.N,/3V3*%
X84610000Y-125275000D03*
%TD*%
D10*
%TO.P,J34,1,Pin_1_1*%
%TO.N,/GND*%
X82035000Y-89600000D03*
%TD*%
D13*
%TO.P,RTC1,1,Pin_1_1*%
%TO.N,/3V3*%
X99480000Y-78700000D03*
D14*
%TO.P,RTC1,2,Pin_2_2*%
%TO.N,/GND*%
X102020000Y-78700000D03*
%TO.P,RTC1,3,Pin_3_3*%
%TO.N,/SCL*%
X104560000Y-78700000D03*
%TO.P,RTC1,4,Pin_4_4*%
%TO.N,/SDA*%
X107100000Y-78700000D03*
%TO.P,RTC1,5,Pin_5_5*%
%TO.N,/INT2*%
X109640000Y-78700000D03*
%TO.P,RTC1,6,Pin_6_6*%
%TO.N,/RST2*%
X112180000Y-78700000D03*
%TO.P,RTC1,7,Pin_7_7*%
%TO.N,/32k2*%
X114720000Y-78700000D03*
%TD*%
D15*
%TO.P,R5,1,+_1*%
%TO.N,/3V3*%
X78000000Y-83100000D03*
%TO.P,R5,2,-_2*%
%TO.N,/INT*%
X80000000Y-83100000D03*
%TD*%
D10*
%TO.P,J23,1,Pin_1_1*%
%TO.N,/3V3*%
X87085001Y-89600000D03*
%TD*%
%TO.P,J36,1,Pin_1_1*%
%TO.N,/GND*%
X120075000Y-89600000D03*
%TD*%
%TO.P,J25,1,Pin_1_1*%
%TO.N,/V_BUS*%
X76990001Y-89600000D03*
%TD*%
%TO.P,J17,1,Pin_1_1*%
%TO.N,Net-(J17-Pin_1)*%
X117584999Y-115400000D03*
%TD*%
%TO.P,J29,1,Pin_1_1*%
%TO.N,/RST2*%
X112165000Y-75800000D03*
%TD*%
%TO.P,J11,1,Pin_1_1*%
%TO.N,Net-(J11-Pin_1)*%
X92070000Y-89600000D03*
%TD*%
%TO.P,J8,1,Pin_1_1*%
%TO.N,Net-(J8-Pin_1)*%
X89570000Y-89600000D03*
%TD*%
D15*
%TO.P,R3,1,+_1*%
%TO.N,/3V3*%
X87500000Y-120300000D03*
%TO.P,R3,2,-_2*%
%TO.N,/SDA*%
X89500000Y-120300000D03*
%TD*%
D16*
%TO.P,M1,1,Pin_1_1*%
%TO.N,/GND*%
X97500000Y-125800000D03*
D17*
%TO.P,M1,2,Pin_2_2*%
%TO.N,/5V0*%
X100000000Y-125799999D03*
%TO.P,M1,3,Pin_3_3*%
%TO.N,/MOT_DAT*%
X102500000Y-125800000D03*
%TD*%
D10*
%TO.P,J3,1,Pin_1_1*%
%TO.N,Net-(J3-Pin_1)*%
X117584999Y-89600000D03*
%TD*%
%TO.P,J16,1,Pin_1_1*%
%TO.N,Net-(J16-Pin_1)*%
X122685000Y-115400000D03*
%TD*%
D18*
%TO.P,J27,1*%
%TO.N,/5V0*%
X124808000Y-125157500D03*
%TO.P,J27,2*%
%TO.N,/GND*%
X130808000Y-125157500D03*
D19*
%TO.P,J27,3*%
X127808000Y-120457500D03*
%TD*%
D15*
%TO.P,R2,1,+_1*%
%TO.N,/3V3*%
X87500000Y-122800000D03*
%TO.P,R2,2,-_2*%
%TO.N,/SCL*%
X89500000Y-122800000D03*
%TD*%
D10*
%TO.P,J15,1,Pin_1_1*%
%TO.N,Net-(J15-Pin_1)*%
X125285001Y-115400000D03*
%TD*%
D15*
%TO.P,R4,1,+_1*%
%TO.N,/3V3*%
X78000000Y-79600000D03*
%TO.P,R4,2,-_2*%
%TO.N,/32k*%
X80000000Y-79600000D03*
%TD*%
D10*
%TO.P,J13,1,Pin_1_1*%
%TO.N,Net-(J13-Pin_1)*%
X84570000Y-89600000D03*
%TD*%
%TO.P,J32,1,Pin_1_1*%
%TO.N,/GND*%
X129485000Y-102560000D03*
%TD*%
D20*
%TO.P,U1,1,GPIO0_1*%
%TO.N,/UART_TX*%
X76970000Y-112190000D03*
D21*
%TO.P,U1,2,GPIO1_2*%
%TO.N,/MOT_DAT*%
X79510000Y-112190000D03*
D22*
%TO.P,U1,3,GND_3*%
%TO.N,/GND*%
X82050000Y-112190000D03*
D21*
%TO.P,U1,4,GPIO2_4*%
%TO.N,/DIR*%
X84590000Y-112190000D03*
%TO.P,U1,5,GPIO3_5*%
%TO.N,Net-(J20-Pin_1)*%
X87130000Y-112190000D03*
%TO.P,U1,6,GPIO4_6*%
%TO.N,/SDA*%
X89670000Y-112190000D03*
%TO.P,U1,7,GPIO5_7*%
%TO.N,/SCL*%
X92210000Y-112190000D03*
D22*
%TO.P,U1,8,GND_8*%
%TO.N,/GND*%
X94750000Y-112190000D03*
D21*
%TO.P,U1,9,GPIO6_9*%
%TO.N,/ENC_A*%
X97290000Y-112190000D03*
%TO.P,U1,10,GPIO7_10*%
%TO.N,/ENC_B*%
X99830000Y-112190000D03*
%TO.P,U1,11,GPIO8_11*%
%TO.N,/ENC_SW*%
X102370000Y-112190000D03*
%TO.P,U1,12,GPIO9_12*%
%TO.N,/BAK_BTN*%
X104910000Y-112190000D03*
D22*
%TO.P,U1,13,GND_13*%
%TO.N,/GND*%
X107450000Y-112190000D03*
D21*
%TO.P,U1,14,GPIO10_14*%
%TO.N,/CNF_BTN*%
X109990000Y-112190000D03*
%TO.P,U1,15,GPIO11_15*%
%TO.N,Net-(J19-Pin_1)*%
X112530000Y-112190000D03*
%TO.P,U1,16,GPIO12_16*%
%TO.N,Net-(J18-Pin_1)*%
X115070000Y-112190000D03*
%TO.P,U1,17,GPIO13_17*%
%TO.N,Net-(J17-Pin_1)*%
X117610000Y-112190000D03*
D22*
%TO.P,U1,18,GND_18*%
%TO.N,/GND*%
X120150000Y-112190000D03*
D21*
%TO.P,U1,19,GPIO14_19*%
%TO.N,Net-(J16-Pin_1)*%
X122690000Y-112190000D03*
%TO.P,U1,20,GPIO15_20*%
%TO.N,Net-(J15-Pin_1)*%
X125230000Y-112190000D03*
%TO.P,U1,21,GPIO16_21*%
%TO.N,Net-(J1-Pin_1)*%
X125230000Y-92810000D03*
%TO.P,U1,22,GPIO17_22*%
%TO.N,Net-(J2-Pin_1)*%
X122690000Y-92810000D03*
D20*
%TO.P,U1,23,GND_23*%
%TO.N,/GND*%
X120150000Y-92810000D03*
D21*
%TO.P,U1,24,GPIO18_24*%
%TO.N,Net-(J3-Pin_1)*%
X117610000Y-92810000D03*
%TO.P,U1,25,GPIO19_25*%
%TO.N,Net-(J4-Pin_1)*%
X115070000Y-92810000D03*
%TO.P,U1,26,GPIO20_26*%
%TO.N,Net-(J5-Pin_1)*%
X112530000Y-92810000D03*
%TO.P,U1,27,GPIO21_27*%
%TO.N,Net-(J6-Pin_1)*%
X109990000Y-92810000D03*
D20*
%TO.P,U1,28,GND_28*%
%TO.N,/GND*%
X107450000Y-92810000D03*
D21*
%TO.P,U1,29,GPIO22_29*%
%TO.N,Net-(J7-Pin_1)*%
X104910000Y-92810000D03*
%TO.P,U1,30,RUN_30*%
%TO.N,Net-(J14-Pin_1)*%
X102370000Y-92810000D03*
%TO.P,U1,31,GPIO26_ADC0_31*%
%TO.N,Net-(J9-Pin_1)*%
X99830000Y-92810000D03*
%TO.P,U1,32,GPIO27_ADC1_32*%
%TO.N,Net-(J10-Pin_1)*%
X97290000Y-92810000D03*
D20*
%TO.P,U1,33,AGND_33*%
%TO.N,/GND*%
X94750000Y-92810000D03*
D21*
%TO.P,U1,34,GPIO28_ADC2_34*%
%TO.N,Net-(J11-Pin_1)*%
X92210000Y-92810000D03*
%TO.P,U1,35,ADC_VREF_35*%
%TO.N,Net-(J8-Pin_1)*%
X89670000Y-92810000D03*
%TO.P,U1,36,3V3_36*%
%TO.N,/3V3*%
X87130000Y-92810000D03*
%TO.P,U1,37,3V3_EN_37*%
%TO.N,Net-(J13-Pin_1)*%
X84590000Y-92810000D03*
D20*
%TO.P,U1,38,GND_38*%
%TO.N,/GND*%
X82050000Y-92810000D03*
D21*
%TO.P,U1,39,VSYS_39*%
%TO.N,/V_SYS*%
X79510000Y-92810000D03*
%TO.P,U1,40,VBUS_40*%
%TO.N,/V_BUS*%
X76970000Y-92810000D03*
D23*
%TO.P,U1,D1,SWCLK_D1*%
%TO.N,Net-(J22-Pin_1)*%
X125800000Y-105040000D03*
D24*
%TO.P,U1,D2,GND_D2*%
%TO.N,/GND*%
X125000000Y-102500000D03*
D23*
%TO.P,U1,D3,SWDIO_D3*%
%TO.N,Net-(J21-Pin_1)*%
X125800000Y-99960000D03*
%TD*%
D10*
%TO.P,J37,1,Pin_1_1*%
%TO.N,/GND*%
X107445000Y-89610000D03*
%TD*%
D15*
%TO.P,R1,1,+_1*%
%TO.N,/3V3*%
X87500000Y-125300000D03*
%TO.P,R1,2,-_2*%
%TO.N,/MOT_DAT*%
X89500000Y-125300000D03*
%TD*%
D10*
%TO.P,J12,1,Pin_1_1*%
%TO.N,/GND*%
X94670000Y-89600001D03*
%TD*%
%TO.P,J21,1,Pin_1_1*%
%TO.N,Net-(J21-Pin_1)*%
X129485000Y-100000000D03*
%TD*%
%TO.P,J35,1,Pin_1_1*%
%TO.N,/GND*%
X120145000Y-115410000D03*
%TD*%
%TO.P,J22,1,Pin_1_1*%
%TO.N,Net-(J22-Pin_1)*%
X129485000Y-105100000D03*
%TD*%
D25*
%TO.P,C1,1,+_1*%
%TO.N,/3V3*%
X84462500Y-85800000D03*
%TO.P,C1,2,-_2*%
%TO.N,/GND*%
X86537500Y-85800000D03*
%TD*%
D26*
%TO.P,U4,1,32KHZ_1*%
%TO.N,/32k*%
X82525000Y-80095000D03*
%TO.P,U4,2,VCC_2*%
%TO.N,/3V3*%
X82525000Y-81365000D03*
%TO.P,U4,3,~{INT}/SQW_3*%
%TO.N,/INT*%
X82525000Y-82635000D03*
%TO.P,U4,4,~{RST}_4*%
%TO.N,/RST*%
X82525000Y-83905000D03*
%TO.P,U4,5,GND_5*%
%TO.N,/GND*%
X87475000Y-83905000D03*
%TO.P,U4,6,VBAT_6*%
%TO.N,/VBAT*%
X87475000Y-82635000D03*
%TO.P,U4,7,SDA_7*%
%TO.N,/SDA*%
X87475000Y-81365000D03*
%TO.P,U4,8,SCL_8*%
%TO.N,/SCL*%
X87475000Y-80095000D03*
%TD*%
D10*
%TO.P,J14,1,Pin_1_1*%
%TO.N,Net-(J14-Pin_1)*%
X102385000Y-89600000D03*
%TD*%
%TO.P,J18,1,Pin_1_1*%
%TO.N,Net-(J18-Pin_1)*%
X115084999Y-115400000D03*
%TD*%
D16*
%TO.P,M2,1,Pin_1_1*%
%TO.N,/GND*%
X97499997Y-119000000D03*
D17*
%TO.P,M2,2,Pin_2_2*%
%TO.N,/5V0*%
X99999997Y-118999999D03*
%TO.P,M2,3,Pin_3_3*%
%TO.N,/MOT_DAT*%
X102499997Y-119000000D03*
%TD*%
D27*
%TO.P,C2,1,+_1*%
%TO.N,/VBAT*%
X91337500Y-85800000D03*
%TO.P,C2,2,-_2*%
%TO.N,/GND*%
X89262500Y-85800000D03*
%TD*%
D10*
%TO.P,J2,1,Pin_1_1*%
%TO.N,Net-(J2-Pin_1)*%
X122570000Y-89600000D03*
%TD*%
%TO.P,J7,1,Pin_1_1*%
%TO.N,Net-(J7-Pin_1)*%
X104870000Y-89600000D03*
%TD*%
D28*
%TO.P,Q1,1,G_1*%
%TO.N,/V_BUS*%
X118000000Y-118050000D03*
%TO.P,Q1,2,S_2*%
%TO.N,/V_SYS*%
X118000000Y-119950000D03*
%TO.P,Q1,3,D_3*%
%TO.N,/5V0*%
X120000000Y-119000000D03*
%TD*%
D10*
%TO.P,J9,1,Pin_1_1*%
%TO.N,Net-(J9-Pin_1)*%
X99770000Y-89600000D03*
%TD*%
%TO.P,J24,1,Pin_1_1*%
%TO.N,/V_SYS*%
X79485000Y-89600000D03*
%TD*%
%TO.P,J26,1,Pin_1_1*%
%TO.N,/GND*%
X107385000Y-115400000D03*
%TD*%
%TO.P,J4,1,Pin_1_1*%
%TO.N,Net-(J4-Pin_1)*%
X115070000Y-89600000D03*
%TD*%
D29*
%TO.P,DISP1,*%
%TO.N,*%
X129500000Y-85500000D03*
X129500000Y-114500000D03*
X70500000Y-85500000D03*
X70500000Y-114500000D03*
D30*
%TO.P,DISP1,1,CNF_BTN_1*%
%TO.N,/CNF_BTN*%
X119820000Y-84400000D03*
%TO.P,DISP1,2,SDA_2*%
%TO.N,/SDA*%
X117280000Y-84400000D03*
%TO.P,DISP1,3,SCL_3*%
%TO.N,/SCL*%
X114740000Y-84400000D03*
%TO.P,DISP1,4,ENC_SW_4*%
%TO.N,/ENC_SW*%
X112200000Y-84400000D03*
%TO.P,DISP1,5,ENC_A_5*%
%TO.N,/ENC_A*%
X109660000Y-84400000D03*
%TO.P,DISP1,6,ENC_B_6*%
%TO.N,/ENC_B*%
X107120000Y-84400000D03*
%TO.P,DISP1,7,BAK_BTN_7*%
%TO.N,/BAK_BTN*%
X104580000Y-84400000D03*
%TO.P,DISP1,8,GND_8*%
%TO.N,/GND*%
X102040000Y-84400000D03*
D31*
%TO.P,DISP1,9,VCC_9*%
%TO.N,/3V3*%
X99500000Y-84400000D03*
%TD*%
D32*
%TO.N,/V_SYS*%
X115000000Y-117200000D03*
%TO.N,/MOT_DAT*%
X82070000Y-115290000D03*
X91000000Y-125300000D03*
X79500000Y-114300000D03*
%TO.N,/GND*%
X89262500Y-83905000D03*
X80800000Y-122800000D03*
X94750000Y-115000000D03*
X76990000Y-122800000D03*
X83300000Y-122800000D03*
X79500000Y-122800000D03*
X87500000Y-85800000D03*
X88300000Y-85800000D03*
X82050000Y-109790000D03*
%TO.N,/SCL*%
X115000000Y-97100000D03*
%TO.N,/SDA*%
X115000000Y-95900000D03*
%TO.N,/V_BUS*%
X116000000Y-118350000D03*
%TO.N,/ENC_A*%
X107000000Y-97600000D03*
%TO.N,/ENC_B*%
X107000000Y-100000000D03*
%TO.N,/ENC_SW*%
X104490000Y-104000000D03*
%TO.N,/BAK_BTN*%
X105650000Y-101000000D03*
%TO.N,/CNF_BTN*%
X118870000Y-96010000D03*
%TO.N,/VBAT*%
X72600000Y-120400000D03*
%TD*%
%TO.N,Net-(J5-Pin_1)*%
D33*
X112530000Y-89600000D02*
X112530000Y-92810000D01*
%TO.N,Net-(J1-Pin_1)*%
X125230000Y-92810000D02*
X125230000Y-89600000D01*
%TO.N,/V_SYS*%
D34*
X115000000Y-117200000D02*
X115000000Y-119400000D01*
D33*
X79510000Y-92810000D02*
X79510000Y-89600000D01*
D34*
X118000000Y-119950000D02*
X118000000Y-120600000D01*
X119000000Y-121600000D02*
X119000000Y-123200000D01*
X118000000Y-119950000D02*
X115550000Y-119950000D01*
X118000000Y-120600000D02*
X119000000Y-121600000D01*
X115550000Y-119950000D02*
X115000000Y-119400000D01*
%TO.N,/5V0*%
D35*
X99999997Y-125799996D02*
X99999997Y-118999999D01*
X104200000Y-116500000D02*
X106100000Y-118400000D01*
X107800000Y-127200000D02*
X119000000Y-127200000D01*
X122700000Y-125157500D02*
X124808000Y-125157500D01*
X121700000Y-119000000D02*
X122700000Y-120000000D01*
X99999997Y-118999999D02*
X99999997Y-117600003D01*
X106100000Y-125500000D02*
X107800000Y-127200000D01*
X101100000Y-116500000D02*
X104200000Y-116500000D01*
X99999997Y-117600003D02*
X101100000Y-116500000D01*
X122700000Y-125157500D02*
X122700000Y-126300000D01*
X121800000Y-127200000D02*
X119000000Y-127200000D01*
X106100000Y-118400000D02*
X106100000Y-125500000D01*
X122700000Y-126300000D02*
X121800000Y-127200000D01*
X120000000Y-119000000D02*
X121700000Y-119000000D01*
X122700000Y-120000000D02*
X122700000Y-125157500D01*
%TO.N,Net-(J10-Pin_1)*%
D33*
X97290000Y-89600000D02*
X97290000Y-92810000D01*
%TO.N,/32k2*%
X114720000Y-78700000D02*
X114720000Y-75800000D01*
%TO.N,Net-(J19-Pin_1)*%
X112530000Y-115400000D02*
X112530000Y-112190000D01*
%TO.N,Net-(J6-Pin_1)*%
X109990000Y-92810000D02*
X109990000Y-89600000D01*
%TO.N,/INT2*%
X109640000Y-78700000D02*
X109640000Y-75800000D01*
%TO.N,Net-(J20-Pin_1)*%
X87130000Y-112190000D02*
X87130000Y-115370000D01*
%TO.N,/DIR*%
X84610001Y-120325001D02*
X84610001Y-112210001D01*
%TO.N,/UART_TX*%
X80500000Y-114500000D02*
X79700000Y-115300000D01*
X83005000Y-114500000D02*
X80500000Y-114500000D01*
X76970000Y-114370000D02*
X76970000Y-112190000D01*
X83339999Y-114834999D02*
X83005000Y-114500000D01*
X79700000Y-115300000D02*
X77900000Y-115300000D01*
X83339999Y-120324999D02*
X83339999Y-114834999D01*
X77900000Y-115300000D02*
X76970000Y-114370000D01*
%TO.N,/MOT_DAT*%
X79500000Y-114300000D02*
X79500000Y-112200000D01*
X102500000Y-125800000D02*
X102500000Y-127300000D01*
X101400000Y-128400000D02*
X92100000Y-128400000D01*
X82070000Y-115290000D02*
X82070000Y-120325000D01*
X91000000Y-125300000D02*
X89500000Y-125300000D01*
X102500000Y-127300000D02*
X101400000Y-128400000D01*
X92100000Y-128400000D02*
X91000000Y-127300000D01*
X102500000Y-119380001D02*
X102500000Y-125800000D01*
X91000000Y-127300000D02*
X91000000Y-125300000D01*
%TO.N,/GND*%
D34*
X83340001Y-125275000D02*
X82070000Y-125275000D01*
X80800000Y-120324999D02*
X80800000Y-122800000D01*
X89262500Y-83905000D02*
X87475000Y-83905000D01*
X120150000Y-92810000D02*
X120150000Y-89600000D01*
X86537500Y-85800000D02*
X87500000Y-85800000D01*
D35*
X107450000Y-112190000D02*
X107450000Y-115335000D01*
D34*
X80800000Y-122800000D02*
X83300000Y-122800000D01*
X83340001Y-122840001D02*
X83340001Y-125275000D01*
X78260001Y-125275001D02*
X79529999Y-125275001D01*
X79530000Y-125275000D02*
X79530000Y-122830000D01*
D35*
X119200000Y-87300000D02*
X120075000Y-88175000D01*
D34*
X107450000Y-89600000D02*
X107450000Y-92810000D01*
D35*
X107445000Y-88055000D02*
X108200000Y-87300000D01*
X94750000Y-112190000D02*
X94750000Y-115000000D01*
D34*
X87500000Y-85800000D02*
X88300000Y-85800000D01*
X94750000Y-92810000D02*
X94750000Y-89600000D01*
X83300000Y-122800000D02*
X83340001Y-122840001D01*
X79500000Y-122800000D02*
X80800000Y-122800000D01*
D35*
X125000000Y-102500000D02*
X129425000Y-102500000D01*
D34*
X79530000Y-122830000D02*
X79500000Y-122800000D01*
X89262500Y-85800000D02*
X89262500Y-83905000D01*
X79530001Y-120324999D02*
X80800000Y-120324999D01*
X107450000Y-112190000D02*
X107450000Y-115400000D01*
X76990000Y-122800000D02*
X77000000Y-122800000D01*
D35*
X120075000Y-88175000D02*
X120075000Y-89600000D01*
X107445000Y-89610000D02*
X107445000Y-88055000D01*
D34*
X129500000Y-102500000D02*
X125000000Y-102500000D01*
D35*
X120150000Y-112190000D02*
X120150000Y-115405000D01*
D34*
X89262500Y-85800000D02*
X88300000Y-85800000D01*
X77000000Y-122800000D02*
X79500000Y-122800000D01*
D35*
X108200000Y-87300000D02*
X119200000Y-87300000D01*
D34*
X82050000Y-89600000D02*
X82050000Y-92810000D01*
X120150000Y-112190000D02*
X120150000Y-115400000D01*
X76990000Y-120325000D02*
X76990000Y-122800000D01*
D35*
X82050000Y-112190000D02*
X82050000Y-109790000D01*
%TO.N,/3V3*%
D34*
X95300000Y-106400000D02*
X93200000Y-108500000D01*
X87130000Y-87500000D02*
X85000000Y-87500000D01*
X82525000Y-81365000D02*
X78005000Y-81365000D01*
X87130000Y-89600000D02*
X87130000Y-92810000D01*
X87500000Y-125300000D02*
X84635000Y-125300000D01*
X87130000Y-95430000D02*
X87800000Y-96100000D01*
X76300000Y-127400000D02*
X84100000Y-127400000D01*
X84610000Y-126890000D02*
X84610000Y-125275000D01*
X84462500Y-85800000D02*
X84462500Y-81962500D01*
X93000000Y-96100000D02*
X95300000Y-98400000D01*
X75200000Y-110500000D02*
X75200000Y-126300000D01*
X87500000Y-120300000D02*
X87500000Y-125300000D01*
X84462500Y-86962500D02*
X84462500Y-85800000D01*
X83865000Y-81365000D02*
X82525000Y-81365000D01*
X99500000Y-87000000D02*
X99000000Y-87500000D01*
X93200000Y-108500000D02*
X77200000Y-108500000D01*
X87130000Y-87500000D02*
X87130000Y-89600000D01*
X75200000Y-126300000D02*
X76300000Y-127400000D01*
X77200000Y-108500000D02*
X75200000Y-110500000D01*
X87800000Y-96100000D02*
X93000000Y-96100000D01*
X84462500Y-81962500D02*
X83865000Y-81365000D01*
X78000000Y-81370000D02*
X78000000Y-83100000D01*
X99000000Y-87500000D02*
X87130000Y-87500000D01*
X78005000Y-81365000D02*
X78000000Y-81370000D01*
X99500000Y-84400000D02*
X99500000Y-87000000D01*
X87130000Y-92810000D02*
X87130000Y-95430000D01*
X78000000Y-79600000D02*
X78000000Y-81370000D01*
X85000000Y-87500000D02*
X84462500Y-86962500D01*
X84100000Y-127400000D02*
X84610000Y-126890000D01*
X95300000Y-98400000D02*
X95300000Y-106400000D01*
%TO.N,/SCL*%
D33*
X90095000Y-80095000D02*
X90500000Y-80500000D01*
X105600000Y-79740000D02*
X104560000Y-78700000D01*
X102160000Y-96730000D02*
X100600000Y-98290000D01*
X91200000Y-111180000D02*
X92210000Y-112190000D01*
X114630000Y-96730000D02*
X102160000Y-96730000D01*
X105200000Y-81300000D02*
X105600000Y-80900000D01*
X115000000Y-97100000D02*
X114630000Y-96730000D01*
X91900000Y-116400000D02*
X91200000Y-115700000D01*
X96500000Y-81300000D02*
X105200000Y-81300000D01*
X91200000Y-115700000D02*
X91200000Y-113200000D01*
X91900000Y-121300000D02*
X91900000Y-116400000D01*
X100600000Y-98290000D02*
X100600000Y-105500000D01*
X91600000Y-110000000D02*
X91200000Y-110400000D01*
X90400000Y-121900000D02*
X91300000Y-121900000D01*
X91200000Y-110400000D02*
X91200000Y-111180000D01*
X91300000Y-121900000D02*
X91900000Y-121300000D01*
X105600000Y-80900000D02*
X105600000Y-79740000D01*
X87475000Y-80095000D02*
X90095000Y-80095000D01*
X95700000Y-80500000D02*
X96500000Y-81300000D01*
X89500000Y-122800000D02*
X90400000Y-121900000D01*
X90500000Y-80500000D02*
X95700000Y-80500000D01*
X100600000Y-105500000D02*
X96100000Y-110000000D01*
X96100000Y-110000000D02*
X91600000Y-110000000D01*
X91200000Y-113200000D02*
X92210000Y-112190000D01*
%TO.N,/SDA*%
X106100000Y-79700000D02*
X107100000Y-78700000D01*
X95500000Y-81000000D02*
X96300000Y-81800000D01*
X90500000Y-121300000D02*
X91100000Y-121300000D01*
X96300000Y-81800000D02*
X105400000Y-81800000D01*
X91400000Y-116600000D02*
X90700000Y-115900000D01*
X114650000Y-96250000D02*
X101915000Y-96250000D01*
X90700000Y-111160000D02*
X89670000Y-112190000D01*
X87475000Y-81365000D02*
X90035000Y-81365000D01*
X100070000Y-105270000D02*
X95840000Y-109500000D01*
X90400000Y-81000000D02*
X95500000Y-81000000D01*
X115000000Y-95900000D02*
X114650000Y-96250000D01*
X95840000Y-109500000D02*
X91400000Y-109500000D01*
X100070000Y-98095000D02*
X100070000Y-105270000D01*
X90700000Y-113220000D02*
X89670000Y-112190000D01*
X91400000Y-121000000D02*
X91400000Y-116600000D01*
X106100000Y-81100000D02*
X106100000Y-79700000D01*
X105400000Y-81800000D02*
X106100000Y-81100000D01*
X91100000Y-121300000D02*
X91400000Y-121000000D01*
X90700000Y-115900000D02*
X90700000Y-113220000D01*
X90035000Y-81365000D02*
X90400000Y-81000000D01*
X91400000Y-109500000D02*
X90700000Y-110200000D01*
X89500000Y-120300000D02*
X90500000Y-121300000D01*
X101915000Y-96250000D02*
X100070000Y-98095000D01*
X90700000Y-110200000D02*
X90700000Y-111160000D01*
%TO.N,/RST2*%
X112180000Y-78700000D02*
X112180000Y-75800000D01*
%TO.N,/INT*%
X81365000Y-82635000D02*
X80900000Y-83100000D01*
X80900000Y-83100000D02*
X80000000Y-83100000D01*
X82525000Y-82635000D02*
X81365000Y-82635000D01*
%TO.N,/V_BUS*%
D34*
X116700000Y-118350000D02*
X116000000Y-118350000D01*
X117000000Y-118050000D02*
X116700000Y-118350000D01*
D33*
X76970000Y-89600000D02*
X76970000Y-92810000D01*
D34*
X118000000Y-118050000D02*
X117000000Y-118050000D01*
%TO.N,Net-(J17-Pin_1)*%
D33*
X117610000Y-115400000D02*
X117610000Y-112190000D01*
%TO.N,Net-(J11-Pin_1)*%
X92210000Y-89600000D02*
X92210000Y-92810000D01*
%TO.N,Net-(J8-Pin_1)*%
X89670000Y-92810000D02*
X89670000Y-89600000D01*
%TO.N,Net-(J3-Pin_1)*%
X117610000Y-89600000D02*
X117610000Y-92810000D01*
%TO.N,Net-(J16-Pin_1)*%
X122690000Y-115400000D02*
X122690000Y-112190000D01*
%TO.N,Net-(J15-Pin_1)*%
X125230000Y-112190000D02*
X125230000Y-115400000D01*
%TO.N,/32k*%
X81295000Y-80095000D02*
X82525000Y-80095000D01*
X80000000Y-79600000D02*
X80800000Y-79600000D01*
X80800000Y-79600000D02*
X81295000Y-80095000D01*
%TO.N,Net-(J13-Pin_1)*%
X84590000Y-92810000D02*
X84590000Y-89600000D01*
%TO.N,/ENC_A*%
X97290000Y-110455000D02*
X97290000Y-112190000D01*
X102000000Y-105745000D02*
X97290000Y-110455000D01*
X102000000Y-99700000D02*
X102000000Y-105745000D01*
X107000000Y-97600000D02*
X104100000Y-97600000D01*
X104100000Y-97600000D02*
X102000000Y-99700000D01*
%TO.N,/ENC_B*%
X103100000Y-101000000D02*
X103100000Y-107100000D01*
X103100000Y-107100000D02*
X99830000Y-110370000D01*
X107000000Y-100000000D02*
X104100000Y-100000000D01*
X104100000Y-100000000D02*
X103100000Y-101000000D01*
X99830000Y-110370000D02*
X99830000Y-112190000D01*
%TO.N,/ENC_SW*%
X102370000Y-110430000D02*
X102370000Y-112190000D01*
X104490000Y-108310000D02*
X102370000Y-110430000D01*
X104490000Y-104000000D02*
X104490000Y-108310000D01*
%TO.N,/BAK_BTN*%
X105650000Y-109650000D02*
X105650000Y-101000000D01*
X104910000Y-110390000D02*
X105650000Y-109650000D01*
X104910000Y-112190000D02*
X104910000Y-110390000D01*
%TO.N,/CNF_BTN*%
X118870000Y-100560000D02*
X118870000Y-96010000D01*
X109990000Y-109440000D02*
X118870000Y-100560000D01*
X109990000Y-112190000D02*
X109990000Y-109440000D01*
%TO.N,Net-(J18-Pin_1)*%
X115070000Y-112190000D02*
X115070000Y-115400000D01*
%TO.N,Net-(J2-Pin_1)*%
X122690000Y-89600000D02*
X122690000Y-92810000D01*
%TO.N,Net-(J4-Pin_1)*%
X115070000Y-92810000D02*
X115070000Y-89600000D01*
%TO.N,Net-(J7-Pin_1)*%
X104910000Y-92810000D02*
X104910000Y-89600000D01*
%TO.N,Net-(J14-Pin_1)*%
X102370000Y-89600000D02*
X102370000Y-92810000D01*
%TO.N,Net-(J9-Pin_1)*%
X99830000Y-92810000D02*
X99830000Y-89600000D01*
%TO.N,Net-(J22-Pin_1)*%
X125000000Y-105040000D02*
X129500000Y-105040000D01*
%TO.N,Net-(J21-Pin_1)*%
X125000000Y-99960000D02*
X129500000Y-99960000D01*
%TO.N,/VBAT*%
D34*
X94200000Y-106000000D02*
X92700000Y-107500000D01*
X75100000Y-94800000D02*
X77500000Y-97200000D01*
X91337500Y-83137500D02*
X90835000Y-82635000D01*
X73900000Y-119100000D02*
X72600000Y-120400000D01*
X85600000Y-82200000D02*
X85600000Y-79100000D01*
X91337500Y-85800000D02*
X91337500Y-83137500D01*
X87475000Y-82635000D02*
X86035000Y-82635000D01*
X92500000Y-97200000D02*
X94200000Y-98900000D01*
X85600000Y-79100000D02*
X84400000Y-77900000D01*
X84400000Y-77900000D02*
X76100000Y-77900000D01*
X76600000Y-107500000D02*
X73900000Y-110200000D01*
X77500000Y-97200000D02*
X92500000Y-97200000D01*
X92700000Y-107500000D02*
X76600000Y-107500000D01*
X86035000Y-82635000D02*
X85600000Y-82200000D01*
X90835000Y-82635000D02*
X87475000Y-82635000D01*
X73900000Y-110200000D02*
X73900000Y-119100000D01*
X94200000Y-98900000D02*
X94200000Y-106000000D01*
X76100000Y-77900000D02*
X75100000Y-78900000D01*
X75100000Y-78900000D02*
X75100000Y-94800000D01*
%TD*%
D36*
X65000000Y-77500000D02*
X65000000Y-93000000D01*
X65000000Y-77500000D02*
G75*
G02*
X68000000Y-74500000I3000000J0D01*
G01*
X65000000Y-111800000D02*
X65000000Y-127000000D01*
X65000000Y-111800000D02*
G75*
G02*
X68000000Y-108800000I3000000J0D01*
G01*
X68000000Y-74500000D02*
X132000000Y-74500000D01*
X68000000Y-96000000D02*
G75*
G02*
X65000000Y-93000000I0J3000000D01*
G01*
X68000000Y-96000000D02*
X74000000Y-96000000D01*
X68000000Y-130000000D02*
G75*
G02*
X65000000Y-127000000I0J3000000D01*
G01*
X74000000Y-96000000D02*
X74000000Y-108800000D01*
X74000000Y-108800000D02*
X68000000Y-108800000D01*
X132000000Y-74500000D02*
G75*
G02*
X135000000Y-77500000I0J-3000000D01*
G01*
X135000000Y-77500000D02*
X135000000Y-130000000D01*
X135000000Y-130000000D02*
X68000000Y-130000000D01*
M02*
