%TF.GenerationSoftware,KiCad,Pcbnew,10.0.0-10.0.0~ubuntu24.04.1*%
%TF.CreationDate,2026-03-28T21:45:12+05:30*%
%TF.ProjectId,orbigator,6f726269-6761-4746-9f72-2e6b69636164,v2*%
%TF.SameCoordinates,PX3dfd240PY7bfa480*%
%TF.FileFunction,Profile,NP*%
%FSLAX46Y46*%
G04 Gerber Fmt 4.6, Leading zero omitted, Abs format (unit mm)*
G04 Created by KiCad (PCBNEW 10.0.0-10.0.0~ubuntu24.04.1) date 2026-03-28 21:45:12*
%MOMM*%
%LPD*%
G01*
G04 APERTURE LIST*
%TA.AperFunction,Profile*%
%ADD10C,0.050000*%
%TD*%
G04 APERTURE END LIST*
D10*
X0Y53000000D02*
X0Y37000000D01*
X0Y53000000D02*
G75*
G02*
X3000000Y56000000I3000000J0D01*
G01*
X0Y18200000D02*
X0Y3000000D01*
X0Y18200000D02*
G75*
G02*
X3000000Y21200000I3000000J0D01*
G01*
X3000000Y56000000D02*
X67000000Y56000000D01*
X3000000Y34000000D02*
G75*
G02*
X0Y37000000I0J3000000D01*
G01*
X3000000Y34000000D02*
X9000000Y34000000D01*
X3000000Y0D02*
G75*
G02*
X0Y3000000I0J3000000D01*
G01*
X3000000Y0D02*
X7600000Y0D01*
X8300000Y700000D02*
G75*
G02*
X7600000Y0I-700000J0D01*
G01*
X8300000Y700000D02*
G75*
G02*
X9000000Y1400000I700000J0D01*
G01*
X9000000Y34000000D02*
X9000000Y21200000D01*
X9000000Y21200000D02*
X3000000Y21200000D01*
X15000000Y1400000D02*
X9000000Y1400000D01*
X15000000Y1400000D02*
X21000000Y1400000D01*
X21000000Y1400000D02*
G75*
G02*
X21700000Y700000I0J-700000D01*
G01*
X22400000Y0D02*
G75*
G02*
X21700000Y700000I0J700000D01*
G01*
X22400000Y0D02*
X70000000Y0D01*
X67000000Y56000000D02*
G75*
G02*
X70000000Y53000000I0J-3000000D01*
G01*
X70000000Y53000000D02*
X70000000Y0D01*
M02*
