M48
; DRILL file KiCad 10.0.0-10.0.0~ubuntu24.04.1 date 2026-03-28T21:45:17
; FORMAT={-:-/ absolute / metric / decimal}
; #@! TF.CreationDate,2026-03-28T21:45:17+05:30
; #@! TF.GenerationSoftware,Kicad,Pcbnew,10.0.0-10.0.0~ubuntu24.04.1
; #@! TF.FileFunction,MixedPlating,1,2
FMAT,2
METRIC
; #@! TA.AperFunction,Plated,PTH,ViaDrill
T1C0.400
; #@! TA.AperFunction,Plated,PTH,ComponentDrill
T2C1.000
; #@! TA.AperFunction,Plated,PTH,ComponentDrill
T3C3.000
; #@! TA.AperFunction,NonPlated,NPTH,ComponentDrill
T4C1.850
; #@! TA.AperFunction,NonPlated,NPTH,ComponentDrill
T5C2.200
%
G90
G05
T1
X7.6Y9.6
X11.99Y7.2
X14.5Y15.7
X14.5Y7.2
X15.8Y7.2
X17.05Y20.21
X17.07Y14.71
X18.3Y7.2
X22.5Y44.2
X24.0Y44.2
X24.262Y46.095
X26.0Y4.7
X26.0Y2.2
X28.7Y45.6
X29.75Y15.0
X31.6Y8.2
X31.6Y6.0
X38.5Y32.4
X38.5Y30.0
X38.5Y28.7
X38.5Y26.0
X43.2Y9.7
X45.1Y10.7
X46.8Y9.7
X50.0Y34.1
X50.0Y32.9
X50.0Y12.8
X50.4Y4.7
X51.6Y11.65
X53.87Y33.99
T2
X11.99Y40.4
X14.485Y40.4
X17.035Y40.4
X19.57Y40.4
X22.085Y40.4
X22.115Y14.6
X24.57Y40.4
X27.07Y40.4
X29.67Y40.4
X32.27Y40.4
X33.0Y12.1
X33.0Y3.0
X34.48Y51.3
X34.5Y45.6
X34.77Y40.4
X35.5Y12.1
X35.5Y3.0
X37.02Y51.3
X37.04Y45.6
X37.385Y40.4
X38.0Y12.1
X38.0Y3.0
X39.56Y51.3
X39.58Y45.6
X39.87Y40.4
X42.1Y51.3
X42.12Y45.6
X42.385Y14.6
X42.445Y40.39
X44.625Y54.2
X44.64Y51.3
X44.66Y45.6
X45.07Y40.4
X47.165Y54.2
X47.18Y51.3
X47.2Y45.6
X47.485Y14.6
X47.57Y40.4
X49.705Y54.2
X49.72Y51.3
X49.74Y45.6
X50.07Y40.4
X50.085Y14.6
X52.28Y45.6
X52.585Y40.4
X52.585Y14.6
X54.82Y45.6
X55.075Y40.4
X55.145Y14.59
X57.57Y40.4
X57.685Y14.6
X60.07Y40.4
X60.285Y14.6
X64.44Y27.5
X64.44Y24.96
X64.5Y30.04
T3
X5.5Y44.5
X5.5Y15.5
X64.5Y44.5
X64.5Y15.5
T4
X15.13Y29.925
X15.13Y25.075
T5
X12.1Y30.225
X12.1Y24.775
T2
G00X59.808Y3.592
M15
G01X59.808Y6.092
M16
G05
G00X63.808Y9.543
M15
G01X61.808Y9.543
M16
G05
G00X65.808Y3.842
M15
G01X65.808Y5.842
M16
G05
M30
