%TF.GenerationSoftware,KiCad,Pcbnew,10.0.0-10.0.0~ubuntu24.04.1*%
%TF.CreationDate,2026-03-26T18:42:46+05:30*%
%TF.ProjectId,orbigator,6f726269-6761-4746-9f72-2e6b69636164,v2*%
%TF.SameCoordinates,Original*%
%TF.FileFunction,Soldermask,Top*%
%TF.FilePolarity,Negative*%
%FSLAX46Y46*%
G04 Gerber Fmt 4.6, Leading zero omitted, Abs format (unit mm)*
G04 Created by KiCad (PCBNEW 10.0.0-10.0.0~ubuntu24.04.1) date 2026-03-26 18:42:46*
%MOMM*%
%LPD*%
G01*
G04 APERTURE LIST*
G04 Aperture macros list*
%AMRoundRect*
0 Rectangle with rounded corners*
0 $1 Rounding radius*
0 $2 $3 $4 $5 $6 $7 $8 $9 X,Y pos of 4 corners*
0 Add a 4 corners polygon primitive as box body*
4,1,4,$2,$3,$4,$5,$6,$7,$8,$9,$2,$3,0*
0 Add four circle primitives for the rounded corners*
1,1,$1+$1,$2,$3*
1,1,$1+$1,$4,$5*
1,1,$1+$1,$6,$7*
1,1,$1+$1,$8,$9*
0 Add four rect primitives between the rounded corners*
20,1,$1+$1,$2,$3,$4,$5,0*
20,1,$1+$1,$4,$5,$6,$7,0*
20,1,$1+$1,$6,$7,$8,$9,0*
20,1,$1+$1,$8,$9,$2,$3,0*%
%AMFreePoly0*
4,1,37,0.800000,0.796148,0.878414,0.796148,1.032228,0.765552,1.177117,0.705537,1.307515,0.618408,1.418408,0.507515,1.505537,0.377117,1.565552,0.232228,1.596148,0.078414,1.596148,-0.078414,1.565552,-0.232228,1.505537,-0.377117,1.418408,-0.507515,1.307515,-0.618408,1.177117,-0.705537,1.032228,-0.765552,0.878414,-0.796148,0.800000,-0.796148,0.800000,-0.800000,-1.400000,-0.800000,
-1.403843,-0.796157,-1.439018,-0.796157,-1.511114,-0.766294,-1.566294,-0.711114,-1.596157,-0.639018,-1.596157,-0.603843,-1.600000,-0.600000,-1.600000,0.600000,-1.596157,0.603843,-1.596157,0.639018,-1.566294,0.711114,-1.511114,0.766294,-1.439018,0.796157,-1.403843,0.796157,-1.400000,0.800000,0.800000,0.800000,0.800000,0.796148,0.800000,0.796148,$1*%
%AMFreePoly1*
4,1,37,1.403843,0.796157,1.439018,0.796157,1.511114,0.766294,1.566294,0.711114,1.596157,0.639018,1.596157,0.603843,1.600000,0.600000,1.600000,-0.600000,1.596157,-0.603843,1.596157,-0.639018,1.566294,-0.711114,1.511114,-0.766294,1.439018,-0.796157,1.403843,-0.796157,1.400000,-0.800000,-0.800000,-0.800000,-0.800000,-0.796148,-0.878414,-0.796148,-1.032228,-0.765552,-1.177117,-0.705537,
-1.307515,-0.618408,-1.418408,-0.507515,-1.505537,-0.377117,-1.565552,-0.232228,-1.596148,-0.078414,-1.596148,0.078414,-1.565552,0.232228,-1.505537,0.377117,-1.418408,0.507515,-1.307515,0.618408,-1.177117,0.705537,-1.032228,0.765552,-0.878414,0.796148,-0.800000,0.796148,-0.800000,0.800000,1.400000,0.800000,1.403843,0.796157,1.403843,0.796157,$1*%
%AMFreePoly2*
4,1,37,1.600000,0.796148,1.678414,0.796148,1.832228,0.765552,1.977117,0.705537,2.107515,0.618408,2.218408,0.507515,2.305537,0.377117,2.365552,0.232228,2.396148,0.078414,2.396148,-0.078414,2.365552,-0.232228,2.305537,-0.377117,2.218408,-0.507515,2.107515,-0.618408,1.977117,-0.705537,1.832228,-0.765552,1.678414,-0.796148,1.600000,-0.796148,1.600000,-0.800000,-0.600000,-0.800000,
-0.603843,-0.796157,-0.639018,-0.796157,-0.711114,-0.766294,-0.766294,-0.711114,-0.796157,-0.639018,-0.796157,-0.603843,-0.800000,-0.600000,-0.800000,0.600000,-0.796157,0.603843,-0.796157,0.639018,-0.766294,0.711114,-0.711114,0.766294,-0.639018,0.796157,-0.603843,0.796157,-0.600000,0.800000,1.600000,0.800000,1.600000,0.796148,1.600000,0.796148,$1*%
G04 Aperture macros list end*
%ADD10C,5.000000*%
%ADD11O,1.400000X2.400000*%
%ADD12RoundRect,0.194444X0.505556X1.005556X-0.505556X1.005556X-0.505556X-1.005556X0.505556X-1.005556X0*%
%ADD13C,2.200000*%
%ADD14C,1.850000*%
%ADD15FreePoly0,90.000000*%
%ADD16RoundRect,0.800000X0.000010X-0.800000X0.000010X0.800000X-0.000010X0.800000X-0.000010X-0.800000X0*%
%ADD17FreePoly1,90.000000*%
%ADD18RoundRect,0.800000X0.800000X0.000010X-0.800000X0.000010X-0.800000X-0.000010X0.800000X-0.000010X0*%
%ADD19FreePoly2,0.000000*%
%ADD20RoundRect,0.250000X-0.600000X-0.600000X0.600000X-0.600000X0.600000X0.600000X-0.600000X0.600000X0*%
%ADD21RoundRect,0.250000X-0.650000X1.000000X-0.650000X-1.000000X0.650000X-1.000000X0.650000X1.000000X0*%
%ADD22RoundRect,0.250000X0.337500X0.475000X-0.337500X0.475000X-0.337500X-0.475000X0.337500X-0.475000X0*%
%ADD23RoundRect,0.150000X-0.150000X0.825000X-0.150000X-0.825000X0.150000X-0.825000X0.150000X0.825000X0*%
%ADD24RoundRect,0.250000X-0.337500X-0.475000X0.337500X-0.475000X0.337500X0.475000X-0.337500X0.475000X0*%
%ADD25RoundRect,0.250000X0.750000X-0.750000X0.750000X0.750000X-0.750000X0.750000X-0.750000X-0.750000X0*%
%ADD26C,2.000000*%
%ADD27RoundRect,0.250000X-0.350000X-0.450000X0.350000X-0.450000X0.350000X0.450000X-0.350000X0.450000X0*%
%ADD28RoundRect,0.235294X-0.564706X-0.864706X0.564706X-0.864706X0.564706X0.864706X-0.564706X0.864706X0*%
%ADD29O,1.600000X2.200000*%
%ADD30RoundRect,0.750000X0.500000X1.750000X-0.500000X1.750000X-0.500000X-1.750000X0.500000X-1.750000X0*%
%ADD31RoundRect,0.750000X1.750000X0.500000X-1.750000X0.500000X-1.750000X-0.500000X1.750000X-0.500000X0*%
%ADD32RoundRect,0.250000X-0.475000X0.337500X-0.475000X-0.337500X0.475000X-0.337500X0.475000X0.337500X0*%
%ADD33RoundRect,0.250000X0.550000X-1.500000X0.550000X1.500000X-0.550000X1.500000X-0.550000X-1.500000X0*%
%ADD34RoundRect,0.150000X-0.825000X-0.150000X0.825000X-0.150000X0.825000X0.150000X-0.825000X0.150000X0*%
%ADD35RoundRect,0.200000X-0.250000X-0.200000X0.250000X-0.200000X0.250000X0.200000X-0.250000X0.200000X0*%
%TA.AperFunction,Profile*%
%ADD36C,0.050000*%
%TD*%
G04 APERTURE END LIST*
D10*
%TO.C,DISP1*%
X129500000Y-85500000D03*
X129500000Y-114500000D03*
X70500000Y-85500000D03*
X70500000Y-114500000D03*
D11*
X119820000Y-84400000D03*
X117280000Y-84400000D03*
X114740000Y-84400000D03*
X112200000Y-84400000D03*
X109660000Y-84400000D03*
X107120000Y-84400000D03*
X104580000Y-84400000D03*
X102040000Y-84400000D03*
D12*
X99500000Y-84400000D03*
%TD*%
D13*
%TO.C,U1*%
X77100000Y-105225000D03*
D14*
X80130000Y-104925000D03*
X80130000Y-100075000D03*
D13*
X77100000Y-99775000D03*
D15*
X76970000Y-112190000D03*
D16*
X79510000Y-112190000D03*
D17*
X82050000Y-112190000D03*
D16*
X84590000Y-112190000D03*
X87130000Y-112190000D03*
X89670000Y-112190000D03*
X92210000Y-112190000D03*
D17*
X94750000Y-112190000D03*
D16*
X97290000Y-112190000D03*
X99830000Y-112190000D03*
X102370000Y-112190000D03*
X104910000Y-112190000D03*
D17*
X107450000Y-112190000D03*
D16*
X109990000Y-112190000D03*
X112530000Y-112190000D03*
X115070000Y-112190000D03*
X117610000Y-112190000D03*
D17*
X120150000Y-112190000D03*
D16*
X122690000Y-112190000D03*
X125230000Y-112190000D03*
X125230000Y-92810000D03*
X122690000Y-92810000D03*
D15*
X120150000Y-92810000D03*
D16*
X117610000Y-92810000D03*
X115070000Y-92810000D03*
X112530000Y-92810000D03*
X109990000Y-92810000D03*
D15*
X107450000Y-92810000D03*
D16*
X104910000Y-92810000D03*
X102370000Y-92810000D03*
X99830000Y-92810000D03*
X97290000Y-92810000D03*
D15*
X94750000Y-92810000D03*
D16*
X92210000Y-92810000D03*
X89670000Y-92810000D03*
X87130000Y-92810000D03*
X84590000Y-92810000D03*
D15*
X82050000Y-92810000D03*
D16*
X79510000Y-92810000D03*
X76970000Y-92810000D03*
D18*
X125800000Y-105040000D03*
D19*
X125000000Y-102500000D03*
D18*
X125800000Y-99960000D03*
%TD*%
D20*
%TO.C,J5*%
X112570000Y-89600000D03*
%TD*%
%TO.C,J1*%
X125070000Y-89600000D03*
%TD*%
D21*
%TO.C,D1*%
X119000000Y-123200000D03*
X119000000Y-127200000D03*
%TD*%
D20*
%TO.C,J10*%
X97270000Y-89600000D03*
%TD*%
%TO.C,J30*%
X114705000Y-75800000D03*
%TD*%
%TO.C,J19*%
X112485000Y-115400000D03*
%TD*%
%TO.C,J6*%
X110070000Y-89600000D03*
%TD*%
%TO.C,J28*%
X109625000Y-75800000D03*
%TD*%
%TO.C,J20*%
X87115000Y-115400000D03*
%TD*%
D22*
%TO.C,C6*%
X100337500Y-121700000D03*
X98262500Y-121700000D03*
%TD*%
D23*
%TO.C,U2*%
X84610001Y-120325001D03*
X83339999Y-120324999D03*
X82070000Y-120325000D03*
X80800000Y-120324999D03*
X79530001Y-120324999D03*
X78259999Y-120325000D03*
X76990000Y-120325000D03*
X76989999Y-125274999D03*
X78260001Y-125275001D03*
X79530000Y-125275000D03*
X80800000Y-125275001D03*
X82069999Y-125275001D03*
X83340001Y-125275000D03*
X84610000Y-125275000D03*
%TD*%
D20*
%TO.C,J34*%
X82035000Y-89600000D03*
%TD*%
D24*
%TO.C,C9*%
X87462500Y-127800000D03*
X89537500Y-127800000D03*
%TD*%
D25*
%TO.C,RTC1*%
X99480000Y-78700000D03*
D26*
X102020000Y-78700000D03*
X104560000Y-78700000D03*
X107100000Y-78700000D03*
X109640000Y-78700000D03*
X112180000Y-78700000D03*
X114720000Y-78700000D03*
%TD*%
D27*
%TO.C,R5*%
X78000000Y-83100000D03*
X80000000Y-83100000D03*
%TD*%
D20*
%TO.C,J23*%
X87085001Y-89600000D03*
%TD*%
%TO.C,J36*%
X120075000Y-89600000D03*
%TD*%
%TO.C,J25*%
X76990001Y-89600000D03*
%TD*%
%TO.C,J17*%
X117584999Y-115400000D03*
%TD*%
%TO.C,J29*%
X112165000Y-75800000D03*
%TD*%
%TO.C,J11*%
X92070000Y-89600000D03*
%TD*%
%TO.C,J8*%
X89570000Y-89600000D03*
%TD*%
D27*
%TO.C,R3*%
X87500000Y-120300000D03*
X89500000Y-120300000D03*
%TD*%
D28*
%TO.C,M1*%
X98000000Y-127000000D03*
D29*
X100500000Y-126999999D03*
X103000000Y-127000000D03*
%TD*%
D20*
%TO.C,J3*%
X117584999Y-89600000D03*
%TD*%
%TO.C,J16*%
X122685000Y-115400000D03*
%TD*%
D30*
%TO.C,J27*%
X124808000Y-125157500D03*
X130808000Y-125157500D03*
D31*
X127808000Y-120457500D03*
%TD*%
D27*
%TO.C,R2*%
X87500000Y-122800000D03*
X89500000Y-122800000D03*
%TD*%
D20*
%TO.C,J15*%
X125285001Y-115400000D03*
%TD*%
D27*
%TO.C,R4*%
X78000000Y-79600000D03*
X80000000Y-79600000D03*
%TD*%
D32*
%TO.C,C3*%
X115400000Y-121962500D03*
X115400000Y-124037500D03*
%TD*%
D20*
%TO.C,J13*%
X84570000Y-89600000D03*
%TD*%
%TO.C,J32*%
X129485000Y-102560000D03*
%TD*%
%TO.C,J37*%
X107445000Y-89610000D03*
%TD*%
D27*
%TO.C,R1*%
X87500000Y-125300000D03*
X89500000Y-125300000D03*
%TD*%
D22*
%TO.C,C5*%
X97037500Y-84400000D03*
X94962500Y-84400000D03*
%TD*%
D33*
%TO.C,C8*%
X110100000Y-127200000D03*
X110100000Y-121600000D03*
%TD*%
D20*
%TO.C,J12*%
X94670000Y-89600001D03*
%TD*%
%TO.C,J21*%
X129485000Y-100000000D03*
%TD*%
%TO.C,J35*%
X120145000Y-115410000D03*
%TD*%
%TO.C,J22*%
X129485000Y-105100000D03*
%TD*%
D24*
%TO.C,C1*%
X84462500Y-85800000D03*
X86537500Y-85800000D03*
%TD*%
D34*
%TO.C,U4*%
X82525000Y-80095000D03*
X82525000Y-81365000D03*
X82525000Y-82635000D03*
X82525000Y-83905000D03*
X87475000Y-83905000D03*
X87475000Y-82635000D03*
X87475000Y-81365000D03*
X87475000Y-80095000D03*
%TD*%
D20*
%TO.C,J14*%
X102385000Y-89600000D03*
%TD*%
%TO.C,J18*%
X115084999Y-115400000D03*
%TD*%
D28*
%TO.C,M2*%
X98000000Y-117900000D03*
D29*
X100500000Y-117899999D03*
X103000000Y-117900000D03*
%TD*%
D22*
%TO.C,C2*%
X92037500Y-85800000D03*
X89962500Y-85800000D03*
%TD*%
D20*
%TO.C,J2*%
X122570000Y-89600000D03*
%TD*%
%TO.C,J7*%
X104870000Y-89600000D03*
%TD*%
D35*
%TO.C,Q1*%
X118000000Y-118050000D03*
X118000000Y-119950000D03*
X120000000Y-119000000D03*
%TD*%
D22*
%TO.C,C7*%
X100337500Y-123800000D03*
X98262500Y-123800000D03*
%TD*%
D20*
%TO.C,J9*%
X99770000Y-89600000D03*
%TD*%
%TO.C,J24*%
X79485000Y-89600000D03*
%TD*%
%TO.C,J26*%
X107385000Y-115400000D03*
%TD*%
%TO.C,J4*%
X115070000Y-89600000D03*
%TD*%
D36*
X65000000Y-77000000D02*
X65000000Y-93000000D01*
X65000000Y-77000000D02*
G75*
G02*
X68000000Y-74000000I3000000J0D01*
G01*
X65000000Y-111800000D02*
X65000000Y-127000000D01*
X65000000Y-111800000D02*
G75*
G02*
X68000000Y-108800000I3000000J0D01*
G01*
X68000000Y-74000000D02*
X132000000Y-74000000D01*
X68000000Y-96000000D02*
G75*
G02*
X65000000Y-93000000I0J3000000D01*
G01*
X68000000Y-96000000D02*
X74000000Y-96000000D01*
X68000000Y-130000000D02*
G75*
G02*
X65000000Y-127000000I0J3000000D01*
G01*
X68000000Y-130000000D02*
X72600000Y-130000000D01*
X73300000Y-129300000D02*
G75*
G02*
X72600000Y-130000000I-700000J0D01*
G01*
X73300000Y-129300000D02*
G75*
G02*
X74000000Y-128600000I700000J0D01*
G01*
X74000000Y-96000000D02*
X74000000Y-108800000D01*
X74000000Y-108800000D02*
X68000000Y-108800000D01*
X80000000Y-128600000D02*
X74000000Y-128600000D01*
X80000000Y-128600000D02*
X86000000Y-128600000D01*
X86000000Y-128600000D02*
G75*
G02*
X86700000Y-129300000I0J-700000D01*
G01*
X87400000Y-130000000D02*
G75*
G02*
X86700000Y-129300000I0J700000D01*
G01*
X87400000Y-130000000D02*
X135000000Y-130000000D01*
X132000000Y-74000000D02*
G75*
G02*
X135000000Y-77000000I0J-3000000D01*
G01*
X135000000Y-77000000D02*
X135000000Y-130000000D01*
M02*
