%TF.GenerationSoftware,KiCad,Pcbnew,9.0.3-9.0.3-0~ubuntu24.04.1*%
%TF.CreationDate,2026-02-02T13:45:10+05:30*%
%TF.ProjectId,orbigator,6f726269-6761-4746-9f72-2e6b69636164,v2*%
%TF.SameCoordinates,Original*%
%TF.FileFunction,Copper,L1,Top*%
%TF.FilePolarity,Positive*%
%FSLAX46Y46*%
G04 Gerber Fmt 4.6, Leading zero omitted, Abs format (unit mm)*
G04 Created by KiCad (PCBNEW 9.0.3-9.0.3-0~ubuntu24.04.1) date 2026-02-02 13:45:10*
%MOMM*%
%LPD*%
G01*
G04 APERTURE LIST*
G04 Aperture macros list*
%AMRoundRect*
0 Rectangle with rounded corners*
0 $1 Rounding radius*
0 $2 $3 $4 $5 $6 $7 $8 $9 X,Y pos of 4 corners*
0 Add a 4 corners polygon primitive as box body*
4,1,4,$2,$3,$4,$5,$6,$7,$8,$9,$2,$3,0*
0 Add four circle primitives for the rounded corners*
1,1,$1+$1,$2,$3*
1,1,$1+$1,$4,$5*
1,1,$1+$1,$6,$7*
1,1,$1+$1,$8,$9*
0 Add four rect primitives between the rounded corners*
20,1,$1+$1,$2,$3,$4,$5,0*
20,1,$1+$1,$4,$5,$6,$7,0*
20,1,$1+$1,$6,$7,$8,$9,0*
20,1,$1+$1,$8,$9,$2,$3,0*%
%AMFreePoly0*
4,1,37,0.800000,0.796148,0.878414,0.796148,1.032228,0.765552,1.177117,0.705537,1.307515,0.618408,1.418408,0.507515,1.505537,0.377117,1.565552,0.232228,1.596148,0.078414,1.596148,-0.078414,1.565552,-0.232228,1.505537,-0.377117,1.418408,-0.507515,1.307515,-0.618408,1.177117,-0.705537,1.032228,-0.765552,0.878414,-0.796148,0.800000,-0.796148,0.800000,-0.800000,-1.400000,-0.800000,
-1.403843,-0.796157,-1.439018,-0.796157,-1.511114,-0.766294,-1.566294,-0.711114,-1.596157,-0.639018,-1.596157,-0.603843,-1.600000,-0.600000,-1.600000,0.600000,-1.596157,0.603843,-1.596157,0.639018,-1.566294,0.711114,-1.511114,0.766294,-1.439018,0.796157,-1.403843,0.796157,-1.400000,0.800000,0.800000,0.800000,0.800000,0.796148,0.800000,0.796148,$1*%
%AMFreePoly1*
4,1,37,1.403843,0.796157,1.439018,0.796157,1.511114,0.766294,1.566294,0.711114,1.596157,0.639018,1.596157,0.603843,1.600000,0.600000,1.600000,-0.600000,1.596157,-0.603843,1.596157,-0.639018,1.566294,-0.711114,1.511114,-0.766294,1.439018,-0.796157,1.403843,-0.796157,1.400000,-0.800000,-0.800000,-0.800000,-0.800000,-0.796148,-0.878414,-0.796148,-1.032228,-0.765552,-1.177117,-0.705537,
-1.307515,-0.618408,-1.418408,-0.507515,-1.505537,-0.377117,-1.565552,-0.232228,-1.596148,-0.078414,-1.596148,0.078414,-1.565552,0.232228,-1.505537,0.377117,-1.418408,0.507515,-1.307515,0.618408,-1.177117,0.705537,-1.032228,0.765552,-0.878414,0.796148,-0.800000,0.796148,-0.800000,0.800000,1.400000,0.800000,1.403843,0.796157,1.403843,0.796157,$1*%
%AMFreePoly2*
4,1,37,1.600000,0.796148,1.678414,0.796148,1.832228,0.765552,1.977117,0.705537,2.107515,0.618408,2.218408,0.507515,2.305537,0.377117,2.365552,0.232228,2.396148,0.078414,2.396148,-0.078414,2.365552,-0.232228,2.305537,-0.377117,2.218408,-0.507515,2.107515,-0.618408,1.977117,-0.705537,1.832228,-0.765552,1.678414,-0.796148,1.600000,-0.796148,1.600000,-0.800000,-0.600000,-0.800000,
-0.603843,-0.796157,-0.639018,-0.796157,-0.711114,-0.766294,-0.766294,-0.711114,-0.796157,-0.639018,-0.796157,-0.603843,-0.800000,-0.600000,-0.800000,0.600000,-0.796157,0.603843,-0.796157,0.639018,-0.766294,0.711114,-0.711114,0.766294,-0.639018,0.796157,-0.603843,0.796157,-0.600000,0.800000,1.600000,0.800000,1.600000,0.796148,1.600000,0.796148,$1*%
G04 Aperture macros list end*
%TA.AperFunction,ComponentPad*%
%ADD10O,1.600000X2.200000*%
%TD*%
%TA.AperFunction,ComponentPad*%
%ADD11RoundRect,0.235294X-0.564706X-0.864706X0.564706X-0.864706X0.564706X0.864706X-0.564706X0.864706X0*%
%TD*%
%TA.AperFunction,ComponentPad*%
%ADD12RoundRect,0.250000X-0.600000X-0.600000X0.600000X-0.600000X0.600000X0.600000X-0.600000X0.600000X0*%
%TD*%
%TA.AperFunction,ComponentPad*%
%ADD13RoundRect,0.250000X0.550000X-0.550000X0.550000X0.550000X-0.550000X0.550000X-0.550000X-0.550000X0*%
%TD*%
%TA.AperFunction,ComponentPad*%
%ADD14C,1.600000*%
%TD*%
%TA.AperFunction,ComponentPad*%
%ADD15RoundRect,0.250000X0.600000X0.600000X-0.600000X0.600000X-0.600000X-0.600000X0.600000X-0.600000X0*%
%TD*%
%TA.AperFunction,ComponentPad*%
%ADD16RoundRect,0.750000X0.500000X1.750000X-0.500000X1.750000X-0.500000X-1.750000X0.500000X-1.750000X0*%
%TD*%
%TA.AperFunction,ComponentPad*%
%ADD17RoundRect,0.750000X1.750000X0.500000X-1.750000X0.500000X-1.750000X-0.500000X1.750000X-0.500000X0*%
%TD*%
%TA.AperFunction,SMDPad,CuDef*%
%ADD18FreePoly0,90.000000*%
%TD*%
%TA.AperFunction,SMDPad,CuDef*%
%ADD19RoundRect,0.800000X0.000010X-0.800000X0.000010X0.800000X-0.000010X0.800000X-0.000010X-0.800000X0*%
%TD*%
%TA.AperFunction,SMDPad,CuDef*%
%ADD20FreePoly1,90.000000*%
%TD*%
%TA.AperFunction,SMDPad,CuDef*%
%ADD21RoundRect,0.800000X0.800000X0.000010X-0.800000X0.000010X-0.800000X-0.000010X0.800000X-0.000010X0*%
%TD*%
%TA.AperFunction,SMDPad,CuDef*%
%ADD22FreePoly2,0.000000*%
%TD*%
%TA.AperFunction,ComponentPad*%
%ADD23C,5.000000*%
%TD*%
%TA.AperFunction,ComponentPad*%
%ADD24O,1.400000X2.400000*%
%TD*%
%TA.AperFunction,ComponentPad*%
%ADD25RoundRect,0.194444X0.505556X1.005556X-0.505556X1.005556X-0.505556X-1.005556X0.505556X-1.005556X0*%
%TD*%
%TA.AperFunction,ComponentPad*%
%ADD26RoundRect,0.250000X-0.750000X0.750000X-0.750000X-0.750000X0.750000X-0.750000X0.750000X0.750000X0*%
%TD*%
%TA.AperFunction,ComponentPad*%
%ADD27C,2.000000*%
%TD*%
%TA.AperFunction,ViaPad*%
%ADD28C,0.800000*%
%TD*%
%TA.AperFunction,Conductor*%
%ADD29C,0.250000*%
%TD*%
%TA.AperFunction,Conductor*%
%ADD30C,0.500000*%
%TD*%
%TA.AperFunction,Profile*%
%ADD31C,0.050000*%
%TD*%
G04 APERTURE END LIST*
D10*
%TO.P,M2,3,Pin_3*%
%TO.N,/MOT_DAT*%
X113390000Y-119690000D03*
%TO.P,M2,2,Pin_2*%
%TO.N,/5V0*%
X110890000Y-119690000D03*
D11*
%TO.P,M2,1,Pin_1*%
%TO.N,/GND*%
X108390000Y-119690000D03*
%TD*%
D12*
%TO.P,J5,1,Pin_1*%
%TO.N,Net-(J5-Pin_1)*%
X112555000Y-89600000D03*
%TD*%
D13*
%TO.P,U2,1*%
%TO.N,/DIR*%
X75990000Y-127315000D03*
D14*
%TO.P,U2,2*%
%TO.N,/UART_TX*%
X78530000Y-127315000D03*
%TO.P,U2,3*%
%TO.N,/MOT_DAT*%
X81069999Y-127315000D03*
%TO.P,U2,4*%
%TO.N,/GND*%
X83610000Y-127315000D03*
%TO.P,U2,5*%
X86150000Y-127315000D03*
%TO.P,U2,6*%
%TO.N,unconnected-(U2-Pad6)*%
X88690000Y-127315000D03*
%TO.P,U2,7,GND*%
%TO.N,/GND*%
X91230000Y-127315000D03*
%TO.P,U2,8*%
%TO.N,unconnected-(U2-Pad8)*%
X91230000Y-119695000D03*
%TO.P,U2,9*%
%TO.N,/GND*%
X88690000Y-119695000D03*
%TO.P,U2,10*%
X86150000Y-119695000D03*
%TO.P,U2,11*%
%TO.N,unconnected-(U2-Pad11)*%
X83610000Y-119695000D03*
%TO.P,U2,12*%
%TO.N,/GND*%
X81070000Y-119695000D03*
%TO.P,U2,13*%
X78530000Y-119695000D03*
%TO.P,U2,14,VCC*%
%TO.N,/3V3*%
X75990000Y-119695000D03*
%TD*%
D12*
%TO.P,J1,1,Pin_1*%
%TO.N,Net-(J1-Pin_1)*%
X125055000Y-89600000D03*
%TD*%
%TO.P,J10,1,Pin_1*%
%TO.N,Net-(J10-Pin_1)*%
X97255000Y-89600000D03*
%TD*%
%TO.P,J19,1,Pin_1*%
%TO.N,Net-(J19-Pin_1)*%
X112470000Y-115400000D03*
%TD*%
%TO.P,J6,1,Pin_1*%
%TO.N,Net-(J6-Pin_1)*%
X110055000Y-89600000D03*
%TD*%
D15*
%TO.P,J30,1,Pin_1*%
%TO.N,/32k*%
X93100000Y-81800000D03*
%TD*%
D12*
%TO.P,J34,1,Pin_1*%
%TO.N,/GND*%
X82020000Y-89600000D03*
%TD*%
%TO.P,J23,1,Pin_1*%
%TO.N,/3V3*%
X87070001Y-89600000D03*
%TD*%
%TO.P,J36,1,Pin_1*%
%TO.N,/GND*%
X120060000Y-89600000D03*
%TD*%
%TO.P,J25,1,Pin_1*%
%TO.N,/5V0*%
X76975001Y-89600000D03*
%TD*%
%TO.P,J31,1,Pin_1*%
%TO.N,/GND*%
X82020000Y-115340000D03*
%TD*%
%TO.P,J17,1,Pin_1*%
%TO.N,Net-(J17-Pin_1)*%
X117569999Y-115400000D03*
%TD*%
%TO.P,J11,1,Pin_1*%
%TO.N,Net-(J11-Pin_1)*%
X92055000Y-89600000D03*
%TD*%
%TO.P,J8,1,Pin_1*%
%TO.N,Net-(J8-Pin_1)*%
X89555000Y-89600000D03*
%TD*%
D14*
%TO.P,R3,1,+*%
%TO.N,/3V3*%
X102600000Y-123505000D03*
%TO.P,R3,2,-*%
%TO.N,/SDA*%
X94980000Y-123505000D03*
%TD*%
D11*
%TO.P,M1,1,Pin_1*%
%TO.N,/GND*%
X108390000Y-127310000D03*
D10*
%TO.P,M1,2,Pin_2*%
%TO.N,/5V0*%
X110890000Y-127310000D03*
%TO.P,M1,3,Pin_3*%
%TO.N,/MOT_DAT*%
X113390000Y-127310000D03*
%TD*%
D12*
%TO.P,J33,1,Pin_1*%
%TO.N,/GND*%
X94740000Y-115390000D03*
%TD*%
%TO.P,J3,1,Pin_1*%
%TO.N,Net-(J3-Pin_1)*%
X117569999Y-89600000D03*
%TD*%
%TO.P,J16,1,Pin_1*%
%TO.N,Net-(J16-Pin_1)*%
X122670000Y-115400000D03*
%TD*%
D16*
%TO.P,J27,1*%
%TO.N,/5V0*%
X124808000Y-125157500D03*
%TO.P,J27,2*%
%TO.N,/GND*%
X130808000Y-125157500D03*
D17*
%TO.P,J27,3*%
X127808000Y-120457500D03*
%TD*%
D14*
%TO.P,R2,1,+*%
%TO.N,/3V3*%
X102600000Y-119695000D03*
%TO.P,R2,2,-*%
%TO.N,/SCL*%
X94980000Y-119695000D03*
%TD*%
D12*
%TO.P,J15,1,Pin_1*%
%TO.N,Net-(J15-Pin_1)*%
X125270001Y-115400000D03*
%TD*%
%TO.P,J13,1,Pin_1*%
%TO.N,Net-(J13-Pin_1)*%
X84555000Y-89600000D03*
%TD*%
%TO.P,J32,1,Pin_1*%
%TO.N,/GND*%
X129470000Y-102560000D03*
%TD*%
D18*
%TO.P,U1,1,GPIO0*%
%TO.N,/UART_TX*%
X76970000Y-112190000D03*
D19*
%TO.P,U1,2,GPIO1*%
%TO.N,/MOT_DAT*%
X79510000Y-112190000D03*
D20*
%TO.P,U1,3,GND*%
%TO.N,/GND*%
X82050000Y-112190000D03*
D19*
%TO.P,U1,4,GPIO2*%
%TO.N,/DIR*%
X84590000Y-112190000D03*
%TO.P,U1,5,GPIO3*%
%TO.N,Net-(J20-Pin_1)*%
X87130000Y-112190000D03*
%TO.P,U1,6,GPIO4*%
%TO.N,/SDA*%
X89670000Y-112190000D03*
%TO.P,U1,7,GPIO5*%
%TO.N,/SCL*%
X92210000Y-112190000D03*
D20*
%TO.P,U1,8,GND*%
%TO.N,/GND*%
X94750000Y-112190000D03*
D19*
%TO.P,U1,9,GPIO6*%
%TO.N,/ENC_A*%
X97290000Y-112190000D03*
%TO.P,U1,10,GPIO7*%
%TO.N,/ENC_B*%
X99830000Y-112190000D03*
%TO.P,U1,11,GPIO8*%
%TO.N,/ENC_SW*%
X102370000Y-112190000D03*
%TO.P,U1,12,GPIO9*%
%TO.N,/BAK_BTN*%
X104910000Y-112190000D03*
D20*
%TO.P,U1,13,GND*%
%TO.N,/GND*%
X107450000Y-112190000D03*
D19*
%TO.P,U1,14,GPIO10*%
%TO.N,/CNF_BTN*%
X109990000Y-112190000D03*
%TO.P,U1,15,GPIO11*%
%TO.N,Net-(J19-Pin_1)*%
X112530000Y-112190000D03*
%TO.P,U1,16,GPIO12*%
%TO.N,Net-(J18-Pin_1)*%
X115070000Y-112190000D03*
%TO.P,U1,17,GPIO13*%
%TO.N,Net-(J17-Pin_1)*%
X117610000Y-112190000D03*
D20*
%TO.P,U1,18,GND*%
%TO.N,/GND*%
X120150000Y-112190000D03*
D19*
%TO.P,U1,19,GPIO14*%
%TO.N,Net-(J16-Pin_1)*%
X122690000Y-112190000D03*
%TO.P,U1,20,GPIO15*%
%TO.N,Net-(J15-Pin_1)*%
X125230000Y-112190000D03*
%TO.P,U1,21,GPIO16*%
%TO.N,Net-(J1-Pin_1)*%
X125230000Y-92810000D03*
%TO.P,U1,22,GPIO17*%
%TO.N,Net-(J2-Pin_1)*%
X122690000Y-92810000D03*
D18*
%TO.P,U1,23,GND*%
%TO.N,/GND*%
X120150000Y-92810000D03*
D19*
%TO.P,U1,24,GPIO18*%
%TO.N,Net-(J3-Pin_1)*%
X117610000Y-92810000D03*
%TO.P,U1,25,GPIO19*%
%TO.N,Net-(J4-Pin_1)*%
X115070000Y-92810000D03*
%TO.P,U1,26,GPIO20*%
%TO.N,Net-(J5-Pin_1)*%
X112530000Y-92810000D03*
%TO.P,U1,27,GPIO21*%
%TO.N,Net-(J6-Pin_1)*%
X109990000Y-92810000D03*
D18*
%TO.P,U1,28,GND*%
%TO.N,/GND*%
X107450000Y-92810000D03*
D19*
%TO.P,U1,29,GPIO22*%
%TO.N,Net-(J7-Pin_1)*%
X104910000Y-92810000D03*
%TO.P,U1,30,RUN*%
%TO.N,Net-(J14-Pin_1)*%
X102370000Y-92810000D03*
%TO.P,U1,31,GPIO26_ADC0*%
%TO.N,Net-(J9-Pin_1)*%
X99830000Y-92810000D03*
%TO.P,U1,32,GPIO27_ADC1*%
%TO.N,Net-(J10-Pin_1)*%
X97290000Y-92810000D03*
D18*
%TO.P,U1,33,AGND*%
%TO.N,/GND*%
X94750000Y-92810000D03*
D19*
%TO.P,U1,34,GPIO28_ADC2*%
%TO.N,Net-(J11-Pin_1)*%
X92210000Y-92810000D03*
%TO.P,U1,35,ADC_VREF*%
%TO.N,Net-(J8-Pin_1)*%
X89670000Y-92810000D03*
%TO.P,U1,36,3V3*%
%TO.N,/3V3*%
X87130000Y-92810000D03*
%TO.P,U1,37,3V3_EN*%
%TO.N,Net-(J13-Pin_1)*%
X84590000Y-92810000D03*
D18*
%TO.P,U1,38,GND*%
%TO.N,/GND*%
X82050000Y-92810000D03*
D19*
%TO.P,U1,39,VSYS*%
%TO.N,/5V_SYS*%
X79510000Y-92810000D03*
%TO.P,U1,40,VBUS*%
%TO.N,/5V0*%
X76970000Y-92810000D03*
D21*
%TO.P,U1,D1,SWCLK*%
%TO.N,Net-(J22-Pin_1)*%
X125800000Y-105040000D03*
D22*
%TO.P,U1,D2,GND*%
%TO.N,/GND*%
X125000000Y-102500000D03*
D21*
%TO.P,U1,D3,SWDIO*%
%TO.N,Net-(J21-Pin_1)*%
X125800000Y-99960000D03*
%TD*%
D15*
%TO.P,J28,1,Pin_1*%
%TO.N,/INT*%
X88030000Y-81800000D03*
%TD*%
D12*
%TO.P,J37,1,Pin_1*%
%TO.N,/GND*%
X107430000Y-89610000D03*
%TD*%
D14*
%TO.P,R1,1,+*%
%TO.N,/3V3*%
X102600000Y-127315000D03*
%TO.P,R1,2,-*%
%TO.N,/MOT_DAT*%
X94980000Y-127315000D03*
%TD*%
D12*
%TO.P,J20,1,Pin_1*%
%TO.N,Net-(J20-Pin_1)*%
X87070001Y-115400000D03*
%TD*%
D15*
%TO.P,J29,1,Pin_1*%
%TO.N,/RST*%
X90600000Y-81800000D03*
%TD*%
D12*
%TO.P,J12,1,Pin_1*%
%TO.N,/GND*%
X94655000Y-89600001D03*
%TD*%
%TO.P,J21,1,Pin_1*%
%TO.N,Net-(J21-Pin_1)*%
X129470000Y-100000000D03*
%TD*%
%TO.P,J35,1,Pin_1*%
%TO.N,/GND*%
X120130000Y-115410000D03*
%TD*%
%TO.P,J22,1,Pin_1*%
%TO.N,Net-(J22-Pin_1)*%
X129470000Y-105100000D03*
%TD*%
%TO.P,J14,1,Pin_1*%
%TO.N,Net-(J14-Pin_1)*%
X102370000Y-89600000D03*
%TD*%
%TO.P,J18,1,Pin_1*%
%TO.N,Net-(J18-Pin_1)*%
X115069999Y-115400000D03*
%TD*%
%TO.P,J2,1,Pin_1*%
%TO.N,Net-(J2-Pin_1)*%
X122555000Y-89600000D03*
%TD*%
%TO.P,J7,1,Pin_1*%
%TO.N,Net-(J7-Pin_1)*%
X104855000Y-89600000D03*
%TD*%
%TO.P,J9,1,Pin_1*%
%TO.N,Net-(J9-Pin_1)*%
X99755000Y-89600000D03*
%TD*%
%TO.P,J24,1,Pin_1*%
%TO.N,/5V_SYS*%
X79470000Y-89600000D03*
%TD*%
%TO.P,J26,1,Pin_1*%
%TO.N,/GND*%
X107370000Y-115400000D03*
%TD*%
%TO.P,J4,1,Pin_1*%
%TO.N,Net-(J4-Pin_1)*%
X115055000Y-89600000D03*
%TD*%
D23*
%TO.P,DISP1,*%
%TO.N,*%
X129500000Y-114500000D03*
X129500000Y-85500000D03*
X70500000Y-114500000D03*
X70500000Y-85500000D03*
D24*
%TO.P,DISP1,1,CNF_BTN*%
%TO.N,/CNF_BTN*%
X119820000Y-84400000D03*
%TO.P,DISP1,2,SDA*%
%TO.N,/SDA*%
X117280000Y-84400000D03*
%TO.P,DISP1,3,SCL*%
%TO.N,/SCL*%
X114740000Y-84400000D03*
%TO.P,DISP1,4,ENC_SW*%
%TO.N,/ENC_SW*%
X112200000Y-84400000D03*
%TO.P,DISP1,5,ENC_A*%
%TO.N,/ENC_A*%
X109660000Y-84400000D03*
%TO.P,DISP1,6,ENC_B*%
%TO.N,/ENC_B*%
X107120000Y-84400000D03*
%TO.P,DISP1,7,BAK_BTN*%
%TO.N,/BAK_BTN*%
X104580000Y-84400000D03*
%TO.P,DISP1,8,GND*%
%TO.N,/GND*%
X102040000Y-84400000D03*
D25*
%TO.P,DISP1,9,VCC*%
%TO.N,/3V3*%
X99500000Y-84400000D03*
%TD*%
D26*
%TO.P,RTC1,1,Pin_1*%
%TO.N,/3V3*%
X77880000Y-84400000D03*
D27*
%TO.P,RTC1,2,Pin_2*%
%TO.N,/GND*%
X80420000Y-84400000D03*
%TO.P,RTC1,3,Pin_3*%
%TO.N,/SCL*%
X82960000Y-84400000D03*
%TO.P,RTC1,4,Pin_4*%
%TO.N,/SDA*%
X85500000Y-84400000D03*
%TO.P,RTC1,5,Pin_5*%
%TO.N,/INT*%
X88040000Y-84400000D03*
%TO.P,RTC1,6,Pin_6*%
%TO.N,/RST*%
X90580000Y-84400000D03*
%TO.P,RTC1,7,Pin_7*%
%TO.N,/32k*%
X93120000Y-84400000D03*
%TD*%
D28*
%TO.N,/ENC_B*%
X111260000Y-97000000D03*
%TO.N,/ENC_SW*%
X113790000Y-97000000D03*
%TO.N,/ENC_A*%
X108720000Y-97020000D03*
%TO.N,/BAK_BTN*%
X116340000Y-97000000D03*
%TO.N,/CNF_BTN*%
X118880000Y-96990000D03*
%TD*%
D29*
%TO.N,/SDA*%
X117280000Y-84400000D02*
X116240000Y-83360000D01*
X95760000Y-82000000D02*
X95760000Y-85140000D01*
X84460000Y-85800000D02*
X84460000Y-85440000D01*
X116240000Y-83360000D02*
X116240000Y-81820000D01*
X116240000Y-81820000D02*
X114990000Y-80570000D01*
X114990000Y-80570000D02*
X97190000Y-80570000D01*
X97190000Y-80570000D02*
X95760000Y-82000000D01*
X95760000Y-85140000D02*
X94850000Y-86050000D01*
X94850000Y-86050000D02*
X84710000Y-86050000D01*
X84460000Y-85440000D02*
X85500000Y-84400000D01*
X84710000Y-86050000D02*
X84460000Y-85800000D01*
%TO.N,/SCL*%
X114740000Y-84400000D02*
X115770000Y-83370000D01*
X115770000Y-83370000D02*
X115770000Y-81990000D01*
X115770000Y-81990000D02*
X114820000Y-81040000D01*
X96220000Y-85330000D02*
X95050000Y-86500000D01*
X84000000Y-86010000D02*
X84000000Y-85440000D01*
X114820000Y-81040000D02*
X97360000Y-81040000D01*
X97360000Y-81040000D02*
X96220000Y-82180000D01*
X96220000Y-82180000D02*
X96220000Y-85330000D01*
X84000000Y-85440000D02*
X82960000Y-84400000D01*
X95050000Y-86500000D02*
X84490000Y-86500000D01*
X84490000Y-86500000D02*
X84000000Y-86010000D01*
D30*
%TO.N,/3V3*%
X75990000Y-119695000D02*
X75990000Y-121040000D01*
X75990000Y-121040000D02*
X76900000Y-121950000D01*
X76900000Y-121950000D02*
X89310000Y-121950000D01*
X89310000Y-121950000D02*
X92780000Y-125420000D01*
X100535000Y-127315000D02*
X102600000Y-127315000D01*
X92780000Y-125420000D02*
X98640000Y-125420000D01*
X98640000Y-125420000D02*
X100535000Y-127315000D01*
%TO.N,/5V0*%
X110890000Y-119690000D02*
X110890000Y-118120000D01*
X110890000Y-118120000D02*
X111560000Y-117450000D01*
X111560000Y-117450000D02*
X114670000Y-117450000D01*
X114670000Y-117450000D02*
X122377500Y-125157500D01*
X122377500Y-125157500D02*
X124808000Y-125157500D01*
D29*
%TO.N,/SCL*%
X91440000Y-107340000D02*
X91210000Y-107570000D01*
X93460000Y-107340000D02*
X91440000Y-107340000D01*
X82960000Y-84400000D02*
X83970000Y-83390000D01*
X94330000Y-103560000D02*
X94330000Y-106470000D01*
X86670000Y-95900000D02*
X94330000Y-103560000D01*
X75380000Y-94220000D02*
X77060000Y-95900000D01*
X83010000Y-81580000D02*
X76520000Y-81580000D01*
X75380000Y-82720000D02*
X75380000Y-94220000D01*
X94330000Y-106470000D02*
X93460000Y-107340000D01*
X76520000Y-81580000D02*
X75380000Y-82720000D01*
X83970000Y-82540000D02*
X83010000Y-81580000D01*
X77060000Y-95900000D02*
X86670000Y-95900000D01*
X83970000Y-83390000D02*
X83970000Y-82540000D01*
X91210000Y-107570000D02*
X91210000Y-108960000D01*
X91210000Y-108960000D02*
X92210000Y-109960000D01*
X92210000Y-109960000D02*
X92210000Y-112190000D01*
%TO.N,/SDA*%
X74920000Y-94430000D02*
X74920000Y-82530000D01*
X90710000Y-107370000D02*
X91220000Y-106860000D01*
X76890000Y-96400000D02*
X74920000Y-94430000D01*
X76320000Y-81130000D02*
X83210000Y-81130000D01*
X93880000Y-103800000D02*
X86480000Y-96400000D01*
X86480000Y-96400000D02*
X76890000Y-96400000D01*
X93290000Y-106860000D02*
X93880000Y-106270000D01*
X91220000Y-106860000D02*
X93290000Y-106860000D01*
X93880000Y-106270000D02*
X93880000Y-103800000D01*
X90710000Y-109000000D02*
X90710000Y-107370000D01*
X74920000Y-82530000D02*
X76320000Y-81130000D01*
X89670000Y-110040000D02*
X90710000Y-109000000D01*
X89670000Y-112190000D02*
X89670000Y-110040000D01*
X83210000Y-81130000D02*
X84490000Y-82410000D01*
X84490000Y-82410000D02*
X84490000Y-83390000D01*
X84490000Y-83390000D02*
X85500000Y-84400000D01*
%TO.N,/MOT_DAT*%
X81069999Y-127315000D02*
X81069999Y-126269999D01*
X81069999Y-126269999D02*
X80100000Y-125300000D01*
X80100000Y-125300000D02*
X80100000Y-124100000D01*
X78400000Y-114800000D02*
X79510000Y-113690000D01*
X80100000Y-124100000D02*
X79290000Y-123290000D01*
X74370000Y-121700000D02*
X74370000Y-118720000D01*
X79290000Y-123290000D02*
X75960000Y-123290000D01*
X75960000Y-123290000D02*
X74370000Y-121700000D01*
X74370000Y-118720000D02*
X75990000Y-117100000D01*
X78400000Y-116300000D02*
X78400000Y-114800000D01*
X75990000Y-117100000D02*
X77600000Y-117100000D01*
X77600000Y-117100000D02*
X78400000Y-116300000D01*
X79510000Y-113690000D02*
X79510000Y-112190000D01*
%TO.N,/UART_TX*%
X78530000Y-127315000D02*
X78530000Y-126220000D01*
X78530000Y-126220000D02*
X79500000Y-125250000D01*
X79500000Y-125250000D02*
X79500000Y-124200000D01*
X77900000Y-116100000D02*
X77900000Y-114800000D01*
X79500000Y-124200000D02*
X79040000Y-123740000D01*
X73880000Y-121910000D02*
X73880000Y-118540000D01*
X79040000Y-123740000D02*
X75710000Y-123740000D01*
X76970000Y-113870000D02*
X76970000Y-112190000D01*
X75710000Y-123740000D02*
X73880000Y-121910000D01*
X73880000Y-118540000D02*
X75820000Y-116600000D01*
X75820000Y-116600000D02*
X77400000Y-116600000D01*
X77400000Y-116600000D02*
X77900000Y-116100000D01*
X77900000Y-114800000D02*
X76970000Y-113870000D01*
%TO.N,/DIR*%
X84590000Y-112190000D02*
X84590000Y-110340000D01*
X84590000Y-110340000D02*
X84030000Y-109780000D01*
X84030000Y-109780000D02*
X75880000Y-109780000D01*
X75880000Y-109780000D02*
X75260000Y-110400000D01*
X75260000Y-110400000D02*
X75260000Y-115500000D01*
X75260000Y-115500000D02*
X72790000Y-117970000D01*
X72790000Y-117970000D02*
X72790000Y-122370000D01*
X72790000Y-122370000D02*
X75990000Y-125570000D01*
X75990000Y-125570000D02*
X75990000Y-127315000D01*
%TO.N,/MOT_DAT*%
X94980000Y-129500000D02*
X112480000Y-129500000D01*
X112480000Y-129500000D02*
X113390000Y-128590000D01*
X113390000Y-128590000D02*
X113390000Y-127310000D01*
D30*
X113390000Y-127310000D02*
X113390000Y-119690000D01*
D29*
%TO.N,/ENC_B*%
X99830000Y-112190000D02*
X99830000Y-108430000D01*
X99830000Y-108430000D02*
X111260000Y-97000000D01*
D30*
%TO.N,/3V3*%
X98600000Y-87490000D02*
X87070000Y-87490000D01*
X87070000Y-87490000D02*
X78820000Y-87490000D01*
X87070001Y-89600000D02*
X87070001Y-87490001D01*
X77880000Y-86550000D02*
X77880000Y-84400000D01*
X99500000Y-84400000D02*
X99500000Y-86590000D01*
X78820000Y-87490000D02*
X77880000Y-86550000D01*
X87130000Y-92810000D02*
X87130000Y-89600000D01*
X87070001Y-87490001D02*
X87070000Y-87490000D01*
X99500000Y-86590000D02*
X98600000Y-87490000D01*
X102600000Y-119695000D02*
X102600000Y-123505000D01*
X102600000Y-123505000D02*
X102600000Y-127315000D01*
D29*
%TO.N,/ENC_SW*%
X102370000Y-112190000D02*
X102370000Y-108420000D01*
X102370000Y-108420000D02*
X113790000Y-97000000D01*
%TO.N,/ENC_A*%
X97290000Y-112190000D02*
X97290000Y-108450000D01*
X97290000Y-108450000D02*
X108720000Y-97020000D01*
%TO.N,/BAK_BTN*%
X116340000Y-97000000D02*
X104910000Y-108430000D01*
X104910000Y-108430000D02*
X104910000Y-112190000D01*
D30*
%TO.N,/GND*%
X82020000Y-92780000D02*
X82050000Y-92810000D01*
X120150000Y-112190000D02*
X120150000Y-115400000D01*
X107450000Y-112190000D02*
X107450001Y-115400000D01*
X125000000Y-102500000D02*
X129470000Y-102500000D01*
X107360000Y-115390000D02*
X107370000Y-115400000D01*
X107440000Y-92800000D02*
X107450000Y-92810000D01*
X107440000Y-89600000D02*
X107440000Y-92800000D01*
X94750000Y-112190000D02*
X94750000Y-115400000D01*
X82050000Y-112190000D02*
X82050000Y-115400000D01*
X94750000Y-92810000D02*
X94749999Y-89600000D01*
X120150000Y-92810000D02*
X120150000Y-89600000D01*
X82020000Y-89600000D02*
X82020000Y-92780000D01*
D29*
%TO.N,/CNF_BTN*%
X109990000Y-105880000D02*
X118880000Y-96990000D01*
X109990000Y-112190000D02*
X109990000Y-105880000D01*
%TO.N,/SDA*%
X94600000Y-121820000D02*
X93720000Y-121820000D01*
X90700000Y-115900000D02*
X90700000Y-115000000D01*
X94980000Y-123505000D02*
X94980000Y-122200000D01*
X89670000Y-113970000D02*
X89670000Y-112190000D01*
X92900000Y-118100000D02*
X90700000Y-115900000D01*
X92900000Y-121000000D02*
X92900000Y-118100000D01*
X93720000Y-121820000D02*
X92900000Y-121000000D01*
X90700000Y-115000000D02*
X89670000Y-113970000D01*
X94980000Y-122200000D02*
X94600000Y-121820000D01*
%TO.N,/SCL*%
X93400000Y-120810000D02*
X93400000Y-117900000D01*
X94980000Y-119695000D02*
X94980000Y-120950000D01*
X94570000Y-121360000D02*
X93950000Y-121360000D01*
X91200000Y-114950000D02*
X92210000Y-113940000D01*
X93400000Y-117900000D02*
X91200000Y-115700000D01*
X92210000Y-113940000D02*
X92210000Y-112190000D01*
X94980000Y-120950000D02*
X94570000Y-121360000D01*
X93950000Y-121360000D02*
X93400000Y-120810000D01*
X91200000Y-115700000D02*
X91200000Y-114950000D01*
D30*
%TO.N,Net-(J1-Pin_1)*%
X125230000Y-92810000D02*
X125230000Y-89600000D01*
%TO.N,Net-(J2-Pin_1)*%
X122690000Y-92810000D02*
X122690000Y-89600000D01*
%TO.N,Net-(J3-Pin_1)*%
X117610000Y-92810000D02*
X117609999Y-89600000D01*
%TO.N,Net-(J4-Pin_1)*%
X115070000Y-92810000D02*
X115070000Y-89600000D01*
%TO.N,Net-(J5-Pin_1)*%
X112530000Y-92810000D02*
X112530000Y-89600000D01*
%TO.N,Net-(J6-Pin_1)*%
X109990000Y-92810000D02*
X109990000Y-89600000D01*
%TO.N,Net-(J7-Pin_1)*%
X104910000Y-92810000D02*
X104910000Y-89600000D01*
%TO.N,Net-(J8-Pin_1)*%
X89670000Y-92810000D02*
X89670000Y-89600000D01*
%TO.N,Net-(J9-Pin_1)*%
X99830000Y-92810000D02*
X99830000Y-89600000D01*
%TO.N,Net-(J10-Pin_1)*%
X97290000Y-92810000D02*
X97290000Y-89600000D01*
%TO.N,Net-(J11-Pin_1)*%
X92210000Y-92810000D02*
X92210000Y-89600000D01*
%TO.N,Net-(J13-Pin_1)*%
X84590000Y-92810000D02*
X84590001Y-89600000D01*
%TO.N,Net-(J14-Pin_1)*%
X102370000Y-92810000D02*
X102370000Y-89600000D01*
%TO.N,Net-(J15-Pin_1)*%
X125230000Y-112190000D02*
X125230000Y-115400000D01*
%TO.N,Net-(J16-Pin_1)*%
X122690000Y-112190000D02*
X122690000Y-115400000D01*
%TO.N,Net-(J17-Pin_1)*%
X117610000Y-112190000D02*
X117609999Y-115400000D01*
%TO.N,Net-(J18-Pin_1)*%
X115070000Y-112190000D02*
X115070000Y-115400000D01*
%TO.N,Net-(J19-Pin_1)*%
X112530000Y-112190000D02*
X112530000Y-115400000D01*
%TO.N,Net-(J20-Pin_1)*%
X87130000Y-112190000D02*
X87130000Y-115370000D01*
%TO.N,Net-(J21-Pin_1)*%
X125000000Y-99960000D02*
X129470000Y-99960000D01*
%TO.N,Net-(J22-Pin_1)*%
X125000000Y-105040000D02*
X129470000Y-105040000D01*
%TO.N,/5V_SYS*%
X79510000Y-92810000D02*
X79510000Y-89600000D01*
%TO.N,/5V0*%
X76970000Y-92810000D02*
X76970000Y-89600000D01*
D29*
%TO.N,/MOT_DAT*%
X82100000Y-129500000D02*
X94980000Y-129500000D01*
X94980000Y-127315000D02*
X94980000Y-129500000D01*
X81069999Y-128469999D02*
X82100000Y-129500000D01*
X81069999Y-127315000D02*
X81069999Y-128469999D01*
D30*
%TO.N,/32k*%
X93120000Y-84400000D02*
X93120000Y-81860000D01*
%TO.N,/INT*%
X88040000Y-84400000D02*
X88040000Y-81860000D01*
%TO.N,/RST*%
X90580000Y-84400000D02*
X90580000Y-81860000D01*
%TO.N,/5V0*%
X110890000Y-119695000D02*
X110890000Y-127315000D01*
%TD*%
D31*
X74000000Y-96000000D02*
X74000000Y-108800000D01*
X65000000Y-111800000D02*
G75*
G02*
X68000000Y-108800000I3000000J0D01*
G01*
X68000000Y-130000000D02*
G75*
G02*
X65000000Y-127000000I0J3000000D01*
G01*
X65000000Y-111800000D02*
X65000000Y-127000000D01*
X65000000Y-82500000D02*
X65000000Y-93000000D01*
X132000000Y-79500000D02*
G75*
G02*
X135000000Y-82500000I0J-3000000D01*
G01*
X68000000Y-96000000D02*
X74000000Y-96000000D01*
X68000000Y-96000000D02*
G75*
G02*
X65000000Y-93000000I0J3000000D01*
G01*
X132000000Y-79500000D02*
X68000000Y-79500000D01*
X135000000Y-82500000D02*
X135000000Y-130000000D01*
X135000000Y-130000000D02*
X68000000Y-130000000D01*
X74000000Y-108800000D02*
X68000000Y-108800000D01*
X65000000Y-82500000D02*
G75*
G02*
X68000000Y-79500000I3000000J0D01*
G01*
M02*
