%TF.GenerationSoftware,KiCad,Pcbnew,10.0.0-10.0.0~ubuntu24.04.1*%
%TF.CreationDate,2026-03-28T21:45:12+05:30*%
%TF.ProjectId,orbigator,6f726269-6761-4746-9f72-2e6b69636164,v2*%
%TF.SameCoordinates,PX3dfd240PY7bfa480*%
%TF.FileFunction,Soldermask,Bot*%
%TF.FilePolarity,Negative*%
%FSLAX46Y46*%
G04 Gerber Fmt 4.6, Leading zero omitted, Abs format (unit mm)*
G04 Created by KiCad (PCBNEW 10.0.0-10.0.0~ubuntu24.04.1) date 2026-03-28 21:45:12*
%MOMM*%
%LPD*%
G01*
G04 APERTURE LIST*
G04 Aperture macros list*
%AMRoundRect*
0 Rectangle with rounded corners*
0 $1 Rounding radius*
0 $2 $3 $4 $5 $6 $7 $8 $9 X,Y pos of 4 corners*
0 Add a 4 corners polygon primitive as box body*
4,1,4,$2,$3,$4,$5,$6,$7,$8,$9,$2,$3,0*
0 Add four circle primitives for the rounded corners*
1,1,$1+$1,$2,$3*
1,1,$1+$1,$4,$5*
1,1,$1+$1,$6,$7*
1,1,$1+$1,$8,$9*
0 Add four rect primitives between the rounded corners*
20,1,$1+$1,$2,$3,$4,$5,0*
20,1,$1+$1,$4,$5,$6,$7,0*
20,1,$1+$1,$6,$7,$8,$9,0*
20,1,$1+$1,$8,$9,$2,$3,0*%
G04 Aperture macros list end*
%ADD10RoundRect,0.250000X-0.600000X-0.600000X0.600000X-0.600000X0.600000X0.600000X-0.600000X0.600000X0*%
%ADD11RoundRect,0.250000X0.750000X-0.750000X0.750000X0.750000X-0.750000X0.750000X-0.750000X-0.750000X0*%
%ADD12C,2.000000*%
%ADD13RoundRect,0.235294X-0.564706X-0.864706X0.564706X-0.864706X0.564706X0.864706X-0.564706X0.864706X0*%
%ADD14O,1.600000X2.200000*%
%ADD15RoundRect,0.750000X0.500000X1.750000X-0.500000X1.750000X-0.500000X-1.750000X0.500000X-1.750000X0*%
%ADD16RoundRect,0.750000X1.750000X0.500000X-1.750000X0.500000X-1.750000X-0.500000X1.750000X-0.500000X0*%
%ADD17RoundRect,0.250000X0.600000X-0.600000X0.600000X0.600000X-0.600000X0.600000X-0.600000X-0.600000X0*%
%ADD18C,2.200000*%
%ADD19C,1.850000*%
%ADD20RoundRect,0.102000X1.750000X1.800000X-1.750000X1.800000X-1.750000X-1.800000X1.750000X-1.800000X0*%
%ADD21C,8.204000*%
%ADD22C,5.000000*%
%ADD23O,1.400000X2.400000*%
%ADD24RoundRect,0.194444X0.505556X1.005556X-0.505556X1.005556X-0.505556X-1.005556X0.505556X-1.005556X0*%
%TA.AperFunction,Profile*%
%ADD25C,0.050000*%
%TD*%
G04 APERTURE END LIST*
D10*
%TO.C,J5*%
X47570000Y40400000D03*
%TD*%
%TO.C,J1*%
X60070000Y40400000D03*
%TD*%
%TO.C,J10*%
X32270000Y40400000D03*
%TD*%
%TO.C,J30*%
X49705000Y54200000D03*
%TD*%
%TO.C,J19*%
X47485000Y14600000D03*
%TD*%
%TO.C,J6*%
X45070000Y40400000D03*
%TD*%
%TO.C,J28*%
X44625000Y54200000D03*
%TD*%
%TO.C,J20*%
X22115000Y14600000D03*
%TD*%
%TO.C,J34*%
X17035000Y40400000D03*
%TD*%
D11*
%TO.C,RTC1*%
X34480000Y51300000D03*
D12*
X37020000Y51300000D03*
X39560000Y51300000D03*
X42100000Y51300000D03*
X44640000Y51300000D03*
X47180000Y51300000D03*
X49720000Y51300000D03*
%TD*%
D10*
%TO.C,J23*%
X22085001Y40400000D03*
%TD*%
%TO.C,J36*%
X55075000Y40400000D03*
%TD*%
%TO.C,J25*%
X11990001Y40400000D03*
%TD*%
%TO.C,J17*%
X52584999Y14600000D03*
%TD*%
%TO.C,J29*%
X47165000Y54200000D03*
%TD*%
%TO.C,J11*%
X27070000Y40400000D03*
%TD*%
%TO.C,J8*%
X24570000Y40400000D03*
%TD*%
D13*
%TO.C,M1*%
X33000000Y3000000D03*
D14*
X35500000Y3000001D03*
X38000000Y3000000D03*
%TD*%
D10*
%TO.C,J3*%
X52584999Y40400000D03*
%TD*%
%TO.C,J16*%
X57685000Y14600000D03*
%TD*%
D15*
%TO.C,J27*%
X59808000Y4842500D03*
X65808000Y4842500D03*
D16*
X62808000Y9542500D03*
%TD*%
D10*
%TO.C,J15*%
X60285001Y14600000D03*
%TD*%
%TO.C,J13*%
X19570000Y40400000D03*
%TD*%
D17*
%TO.C,J32*%
X64440000Y27500000D03*
%TD*%
D18*
%TO.C,U1*%
X12100000Y24775000D03*
D19*
X15130000Y25075000D03*
X15130000Y29925000D03*
D18*
X12100000Y30225000D03*
%TD*%
D10*
%TO.C,J37*%
X42445000Y40390000D03*
%TD*%
%TO.C,J12*%
X29670000Y40399999D03*
%TD*%
D17*
%TO.C,J21*%
X64500000Y30040000D03*
%TD*%
D10*
%TO.C,J35*%
X55145000Y14590000D03*
%TD*%
D17*
%TO.C,J22*%
X64440000Y24960000D03*
%TD*%
D10*
%TO.C,J14*%
X37385000Y40400000D03*
%TD*%
%TO.C,J18*%
X50084999Y14600000D03*
%TD*%
D13*
%TO.C,M2*%
X33000000Y12100000D03*
D14*
X35500000Y12100001D03*
X38000000Y12100000D03*
%TD*%
D10*
%TO.C,J2*%
X57570000Y40400000D03*
%TD*%
%TO.C,J7*%
X39870000Y40400000D03*
%TD*%
%TO.C,J9*%
X34770000Y40400000D03*
%TD*%
%TO.C,J24*%
X14485000Y40400000D03*
%TD*%
%TO.C,J26*%
X42385000Y14600000D03*
%TD*%
%TO.C,J4*%
X50070000Y40400000D03*
%TD*%
D20*
%TO.C,BT1*%
X22750000Y6000000D03*
X7250000Y6000000D03*
D21*
X15000000Y6000000D03*
%TD*%
D22*
%TO.C,DISP1*%
X64500000Y15500000D03*
X64500000Y44500000D03*
X5500000Y15500000D03*
X5500000Y44500000D03*
D23*
X54820000Y45600000D03*
X52280000Y45600000D03*
X49740000Y45600000D03*
X47200000Y45600000D03*
X44660000Y45600000D03*
X42120000Y45600000D03*
X39580000Y45600000D03*
X37040000Y45600000D03*
D24*
X34500000Y45600000D03*
%TD*%
D25*
X0Y53000000D02*
X0Y37000000D01*
X0Y53000000D02*
G75*
G02*
X3000000Y56000000I3000000J0D01*
G01*
X0Y18200000D02*
X0Y3000000D01*
X0Y18200000D02*
G75*
G02*
X3000000Y21200000I3000000J0D01*
G01*
X3000000Y56000000D02*
X67000000Y56000000D01*
X3000000Y34000000D02*
G75*
G02*
X0Y37000000I0J3000000D01*
G01*
X3000000Y34000000D02*
X9000000Y34000000D01*
X3000000Y0D02*
G75*
G02*
X0Y3000000I0J3000000D01*
G01*
X3000000Y0D02*
X7600000Y0D01*
X8300000Y700000D02*
G75*
G02*
X7600000Y0I-700000J0D01*
G01*
X8300000Y700000D02*
G75*
G02*
X9000000Y1400000I700000J0D01*
G01*
X9000000Y34000000D02*
X9000000Y21200000D01*
X9000000Y21200000D02*
X3000000Y21200000D01*
X15000000Y1400000D02*
X9000000Y1400000D01*
X15000000Y1400000D02*
X21000000Y1400000D01*
X21000000Y1400000D02*
G75*
G02*
X21700000Y700000I0J-700000D01*
G01*
X22400000Y0D02*
G75*
G02*
X21700000Y700000I0J700000D01*
G01*
X22400000Y0D02*
X70000000Y0D01*
X67000000Y56000000D02*
G75*
G02*
X70000000Y53000000I0J-3000000D01*
G01*
X70000000Y53000000D02*
X70000000Y0D01*
M02*
