<?xml version="1.0" standalone="no"?>
<!DOCTYPE svg PUBLIC "-//W3C//DTD SVG 1.1//EN" "http://www.w3.org/Graphics/SVG/1.1/DTD/svg11.dtd">
<svg width="112mm" height="112mm" viewBox="-56 -56 112 112" xmlns="http://www.w3.org/2000/svg" version="1.1">
<title>OpenSCAD Model</title>
<path d="
M 3.48956,55.4652 L 6.96536,55.1366 L 10.4137,54.5905 L 13.8209,53.8288 L 17.1736,52.8548 L 20.4585,51.6722
 L 23.6626,50.2856 L 26.7734,48.7006 L 29.7785,46.9234 L 32.6661,44.961 L 35.4247,42.8211 L 38.0436,40.5123
 L 40.5123,38.0436 L 42.8211,35.4247 L 44.961,32.6661 L 46.9234,29.7785 L 48.7006,26.7734 L 50.2856,23.6626
 L 51.6722,20.4585 L 52.8548,17.1736 L 53.8288,13.8209 L 54.5905,10.4137 L 55.1366,6.96536 L 55.4652,3.48956
 L 55.5748,-0 L 55.4652,-3.48956 L 55.1366,-6.96536 L 54.5905,-10.4137 L 53.8288,-13.8209 L 52.8548,-17.1736
 L 51.6722,-20.4585 L 50.2856,-23.6626 L 48.7006,-26.7734 L 46.9234,-29.7785 L 44.961,-32.6661 L 42.8211,-35.4247
 L 40.5123,-38.0436 L 38.0436,-40.5123 L 35.4247,-42.8211 L 32.6661,-44.961 L 29.7785,-46.9234 L 26.7734,-48.7006
 L 23.6626,-50.2856 L 20.4585,-51.6722 L 17.1736,-52.8548 L 13.8209,-53.8288 L 10.4137,-54.5905 L 6.96536,-55.1366
 L 3.48956,-55.4652 L 0,-55.5748 L -3.48956,-55.4652 L -6.96536,-55.1366 L -10.4137,-54.5905 L -13.8209,-53.8288
 L -17.1736,-52.8548 L -20.4585,-51.6722 L -23.6626,-50.2856 L -26.7734,-48.7006 L -29.7785,-46.9234 L -32.6661,-44.961
 L -35.4247,-42.8211 L -38.0436,-40.5123 L -40.5123,-38.0436 L -42.8211,-35.4247 L -44.961,-32.6661 L -46.9234,-29.7785
 L -48.7006,-26.7734 L -50.2856,-23.6626 L -51.6722,-20.4585 L -52.8548,-17.1736 L -53.8288,-13.8209 L -54.5905,-10.4137
 L -55.1366,-6.96536 L -55.4652,-3.48956 L -55.5748,-0 L -55.4652,3.48956 L -55.1366,6.96536 L -54.5905,10.4137
 L -53.8288,13.8209 L -52.8548,17.1736 L -51.6722,20.4585 L -50.2856,23.6626 L -48.7006,26.7734 L -46.9234,29.7785
 L -44.961,32.6661 L -42.8211,35.4247 L -40.5123,38.0436 L -38.0436,40.5123 L -35.4247,42.8211 L -32.6661,44.961
 L -29.7785,46.9234 L -26.7734,48.7006 L -23.6626,50.2856 L -20.4585,51.6722 L -17.1736,52.8548 L -13.8209,53.8288
 L -10.4137,54.5905 L -6.96536,55.1366 L -3.48956,55.4652 L 0,55.5748 z
" stroke="black" fill="lightgray" stroke-width="0.5"/>
</svg>
