M48
; DRILL file {KiCad 9.0.3-9.0.3-0~ubuntu24.04.1} date 2026-01-17T20:15:50+0530
; FORMAT={-:-/ absolute / inch / decimal}
; #@! TF.CreationDate,2026-01-17T20:15:50+05:30
; #@! TF.GenerationSoftware,Kicad,Pcbnew,9.0.3-9.0.3-0~ubuntu24.04.1
; #@! TF.FileFunction,MixedPlating,1,2
FMAT,2
INCH
; #@! TA.AperFunction,Plated,PTH,ViaDrill
T1C0.0157
; #@! TA.AperFunction,Plated,PTH,ComponentDrill
T2C0.0315
; #@! TA.AperFunction,Plated,PTH,ComponentDrill
T3C0.0394
; #@! TA.AperFunction,Plated,PTH,ComponentDrill
T4C0.1181
; #@! TA.AperFunction,NonPlated,NPTH,ComponentDrill
T5C0.0728
; #@! TA.AperFunction,NonPlated,NPTH,ComponentDrill
T6C0.0866
%
G90
G05
T1
X3.5303Y-4.2913
X3.6303Y-4.2913
X4.0276Y-3.7791
X4.1378Y-3.7791
X4.5799Y-3.7791
T2
X2.9917Y-4.7124
X2.9917Y-5.0124
X3.0917Y-4.7124
X3.0917Y-5.0124
X3.1917Y-5.0124
X3.1917Y-4.7124
X3.2917Y-4.7124
X3.2917Y-5.0124
X3.3917Y-4.7124
X3.3917Y-5.0124
X3.4917Y-4.7124
X3.4917Y-5.0124
X3.5917Y-4.7124
X3.5917Y-5.0124
X3.7394Y-4.7124
X3.7394Y-4.8624
X3.7394Y-5.0124
X4.0394Y-4.7124
X4.0394Y-4.8624
X4.0394Y-5.0124
T3
X3.0305Y-3.5276
X3.0661Y-3.3228
X3.1287Y-3.5276
X3.1661Y-3.3228
X3.2291Y-3.5276
X3.2291Y-4.5409
X3.2661Y-3.3228
X3.3289Y-3.5276
X3.3661Y-3.3228
X3.428Y-3.5276
X3.428Y-4.5433
X3.4657Y-3.2205
X3.4661Y-3.3228
X3.5258Y-3.5276
X3.5661Y-3.3228
X3.5669Y-3.2205
X3.6242Y-3.5276
X3.6654Y-3.2205
X3.6661Y-3.3228
X3.7266Y-3.5276
X3.7299Y-4.5429
X3.8289Y-3.5276
X3.9173Y-3.3228
X3.9274Y-3.5276
X4.0173Y-3.3228
X4.0303Y-3.5276
X4.1173Y-3.3228
X4.1281Y-3.5276
X4.2173Y-3.3228
X4.2272Y-4.5433
X4.2295Y-3.528
X4.2673Y-4.7124
X4.2673Y-5.0124
X4.3173Y-3.3228
X4.3329Y-3.5276
X4.3657Y-4.7124
X4.3657Y-5.0124
X4.4173Y-3.3228
X4.428Y-4.5433
X4.4313Y-3.5276
X4.4642Y-4.7124
X4.4642Y-5.0124
X4.5173Y-3.3228
X4.5297Y-3.5276
X4.5303Y-4.5433
X4.6173Y-3.3228
X4.6287Y-3.5276
X4.6287Y-4.5433
X4.7173Y-3.3228
X4.7268Y-3.5276
X4.7295Y-4.5437
X4.825Y-3.5276
X4.8295Y-4.5433
X4.9234Y-3.5276
X4.9319Y-4.5433
X5.0972Y-3.937
X5.0972Y-4.0378
X5.0972Y-4.1378
T4
X2.7756Y-3.3661
X2.7756Y-4.5079
X5.0984Y-3.3661
X5.0984Y-4.5079
T5
X3.1547Y-3.94
X3.1547Y-4.1309
T6
X3.0354Y-3.9281
X3.0354Y-4.1427
T3
G00X4.9137Y-4.9767
M15
G01X4.9137Y-4.8782
M16
G05
G00X5.0712Y-4.7424
M15
G01X4.9924Y-4.7424
M16
G05
G00X5.1499Y-4.9668
M15
G01X5.1499Y-4.8881
M16
G05
M30
