%TF.GenerationSoftware,KiCad,Pcbnew,9.0.3-9.0.3-0~ubuntu24.04.1*%
%TF.CreationDate,2026-01-17T20:15:46+05:30*%
%TF.ProjectId,orbigator,6f726269-6761-4746-9f72-2e6b69636164,rev?*%
%TF.SameCoordinates,Original*%
%TF.FileFunction,Soldermask,Top*%
%TF.FilePolarity,Negative*%
%FSLAX46Y46*%
G04 Gerber Fmt 4.6, Leading zero omitted, Abs format (unit mm)*
G04 Created by KiCad (PCBNEW 9.0.3-9.0.3-0~ubuntu24.04.1) date 2026-01-17 20:15:46*
%MOMM*%
%LPD*%
G01*
G04 APERTURE LIST*
G04 Aperture macros list*
%AMRoundRect*
0 Rectangle with rounded corners*
0 $1 Rounding radius*
0 $2 $3 $4 $5 $6 $7 $8 $9 X,Y pos of 4 corners*
0 Add a 4 corners polygon primitive as box body*
4,1,4,$2,$3,$4,$5,$6,$7,$8,$9,$2,$3,0*
0 Add four circle primitives for the rounded corners*
1,1,$1+$1,$2,$3*
1,1,$1+$1,$4,$5*
1,1,$1+$1,$6,$7*
1,1,$1+$1,$8,$9*
0 Add four rect primitives between the rounded corners*
20,1,$1+$1,$2,$3,$4,$5,0*
20,1,$1+$1,$4,$5,$6,$7,0*
20,1,$1+$1,$6,$7,$8,$9,0*
20,1,$1+$1,$8,$9,$2,$3,0*%
%AMFreePoly0*
4,1,37,0.800000,0.796148,0.878414,0.796148,1.032228,0.765552,1.177117,0.705537,1.307515,0.618408,1.418408,0.507515,1.505537,0.377117,1.565552,0.232228,1.596148,0.078414,1.596148,-0.078414,1.565552,-0.232228,1.505537,-0.377117,1.418408,-0.507515,1.307515,-0.618408,1.177117,-0.705537,1.032228,-0.765552,0.878414,-0.796148,0.800000,-0.796148,0.800000,-0.800000,-1.400000,-0.800000,
-1.403843,-0.796157,-1.439018,-0.796157,-1.511114,-0.766294,-1.566294,-0.711114,-1.596157,-0.639018,-1.596157,-0.603843,-1.600000,-0.600000,-1.600000,0.600000,-1.596157,0.603843,-1.596157,0.639018,-1.566294,0.711114,-1.511114,0.766294,-1.439018,0.796157,-1.403843,0.796157,-1.400000,0.800000,0.800000,0.800000,0.800000,0.796148,0.800000,0.796148,$1*%
%AMFreePoly1*
4,1,37,1.403843,0.796157,1.439018,0.796157,1.511114,0.766294,1.566294,0.711114,1.596157,0.639018,1.596157,0.603843,1.600000,0.600000,1.600000,-0.600000,1.596157,-0.603843,1.596157,-0.639018,1.566294,-0.711114,1.511114,-0.766294,1.439018,-0.796157,1.403843,-0.796157,1.400000,-0.800000,-0.800000,-0.800000,-0.800000,-0.796148,-0.878414,-0.796148,-1.032228,-0.765552,-1.177117,-0.705537,
-1.307515,-0.618408,-1.418408,-0.507515,-1.505537,-0.377117,-1.565552,-0.232228,-1.596148,-0.078414,-1.596148,0.078414,-1.565552,0.232228,-1.505537,0.377117,-1.418408,0.507515,-1.307515,0.618408,-1.177117,0.705537,-1.032228,0.765552,-0.878414,0.796148,-0.800000,0.796148,-0.800000,0.800000,1.400000,0.800000,1.403843,0.796157,1.403843,0.796157,$1*%
%AMFreePoly2*
4,1,37,1.600000,0.796148,1.678414,0.796148,1.832228,0.765552,1.977117,0.705537,2.107515,0.618408,2.218408,0.507515,2.305537,0.377117,2.365552,0.232228,2.396148,0.078414,2.396148,-0.078414,2.365552,-0.232228,2.305537,-0.377117,2.218408,-0.507515,2.107515,-0.618408,1.977117,-0.705537,1.832228,-0.765552,1.678414,-0.796148,1.600000,-0.796148,1.600000,-0.800000,-0.600000,-0.800000,
-0.603843,-0.796157,-0.639018,-0.796157,-0.711114,-0.766294,-0.766294,-0.711114,-0.796157,-0.639018,-0.796157,-0.603843,-0.800000,-0.600000,-0.800000,0.600000,-0.796157,0.603843,-0.796157,0.639018,-0.766294,0.711114,-0.711114,0.766294,-0.639018,0.796157,-0.603843,0.796157,-0.600000,0.800000,1.600000,0.800000,1.600000,0.796148,1.600000,0.796148,$1*%
G04 Aperture macros list end*
%ADD10RoundRect,0.250000X-0.750000X0.750000X-0.750000X-0.750000X0.750000X-0.750000X0.750000X0.750000X0*%
%ADD11C,2.000000*%
%ADD12RoundRect,0.250000X-0.600000X-0.600000X0.600000X-0.600000X0.600000X0.600000X-0.600000X0.600000X0*%
%ADD13RoundRect,0.250000X0.550000X-0.550000X0.550000X0.550000X-0.550000X0.550000X-0.550000X-0.550000X0*%
%ADD14C,1.600000*%
%ADD15RoundRect,0.250000X0.600000X0.600000X-0.600000X0.600000X-0.600000X-0.600000X0.600000X-0.600000X0*%
%ADD16RoundRect,0.235294X0.564706X0.864706X-0.564706X0.864706X-0.564706X-0.864706X0.564706X-0.864706X0*%
%ADD17O,1.600000X2.200000*%
%ADD18RoundRect,0.750000X0.500000X1.750000X-0.500000X1.750000X-0.500000X-1.750000X0.500000X-1.750000X0*%
%ADD19RoundRect,0.750000X1.750000X0.500000X-1.750000X0.500000X-1.750000X-0.500000X1.750000X-0.500000X0*%
%ADD20C,2.200000*%
%ADD21C,1.850000*%
%ADD22FreePoly0,90.000000*%
%ADD23RoundRect,0.800000X0.000010X-0.800000X0.000010X0.800000X-0.000010X0.800000X-0.000010X-0.800000X0*%
%ADD24FreePoly1,90.000000*%
%ADD25RoundRect,0.800000X0.800000X0.000010X-0.800000X0.000010X-0.800000X-0.000010X0.800000X-0.000010X0*%
%ADD26FreePoly2,0.000000*%
%ADD27C,5.000000*%
%ADD28RoundRect,0.250000X0.650000X0.650000X-0.650000X0.650000X-0.650000X-0.650000X0.650000X-0.650000X0*%
%ADD29C,1.800000*%
%TA.AperFunction,Profile*%
%ADD30C,0.050000*%
%TD*%
G04 APERTURE END LIST*
D10*
%TO.C,RTC1*%
X77880000Y-84400000D03*
D11*
X80420000Y-84400000D03*
X82960000Y-84400000D03*
X85500000Y-84400000D03*
X88040000Y-84400000D03*
X90580000Y-84400000D03*
X93120000Y-84400000D03*
%TD*%
D12*
%TO.C,J5*%
X112555000Y-89600000D03*
%TD*%
D13*
%TO.C,U2*%
X75990000Y-127315000D03*
D14*
X78530000Y-127315000D03*
X81069999Y-127315000D03*
X83610000Y-127315000D03*
X86150000Y-127315000D03*
X88690000Y-127315000D03*
X91230000Y-127315000D03*
X91230000Y-119695000D03*
X88690000Y-119695000D03*
X86150000Y-119695000D03*
X83610000Y-119695000D03*
X81070000Y-119695000D03*
X78530000Y-119695000D03*
X75990000Y-119695000D03*
%TD*%
D12*
%TO.C,J1*%
X125055000Y-89600000D03*
%TD*%
%TO.C,J10*%
X97255000Y-89600000D03*
%TD*%
%TO.C,J19*%
X112470000Y-115400000D03*
%TD*%
%TO.C,J6*%
X110055000Y-89600000D03*
%TD*%
D15*
%TO.C,J30*%
X93100000Y-81800000D03*
%TD*%
D12*
%TO.C,J34*%
X82020000Y-89600000D03*
%TD*%
%TO.C,J23*%
X87070001Y-89600000D03*
%TD*%
%TO.C,J36*%
X120060000Y-89600000D03*
%TD*%
%TO.C,J25*%
X76975001Y-89600000D03*
%TD*%
%TO.C,J31*%
X82020000Y-115340000D03*
%TD*%
%TO.C,J17*%
X117569999Y-115400000D03*
%TD*%
%TO.C,J11*%
X92055000Y-89600000D03*
%TD*%
%TO.C,J8*%
X89555000Y-89600000D03*
%TD*%
D14*
%TO.C,R3*%
X102600000Y-123505000D03*
X94980000Y-123505000D03*
%TD*%
D16*
%TO.C,M1*%
X113390000Y-127315000D03*
D17*
X110890000Y-127315000D03*
X108390000Y-127315000D03*
%TD*%
D12*
%TO.C,J33*%
X94740000Y-115390000D03*
%TD*%
%TO.C,J3*%
X117569999Y-89600000D03*
%TD*%
%TO.C,J16*%
X122670000Y-115400000D03*
%TD*%
D18*
%TO.C,J27*%
X124808000Y-125157500D03*
X130808000Y-125157500D03*
D19*
X127808000Y-120457500D03*
%TD*%
D14*
%TO.C,R2*%
X102600000Y-119695000D03*
X94980000Y-119695000D03*
%TD*%
D12*
%TO.C,J15*%
X125270001Y-115400000D03*
%TD*%
%TO.C,J13*%
X84555000Y-89600000D03*
%TD*%
%TO.C,J32*%
X129470000Y-102560000D03*
%TD*%
D20*
%TO.C,U1*%
X77100000Y-105225000D03*
D21*
X80130000Y-104925000D03*
X80130000Y-100075000D03*
D20*
X77100000Y-99775000D03*
D22*
X76970000Y-112190000D03*
D23*
X79510000Y-112190000D03*
D24*
X82050000Y-112190000D03*
D23*
X84590000Y-112190000D03*
X87130000Y-112190000D03*
X89670000Y-112190000D03*
X92210000Y-112190000D03*
D24*
X94750000Y-112190000D03*
D23*
X97290000Y-112190000D03*
X99830000Y-112190000D03*
X102370000Y-112190000D03*
X104910000Y-112190000D03*
D24*
X107450000Y-112190000D03*
D23*
X109990000Y-112190000D03*
X112530000Y-112190000D03*
X115070000Y-112190000D03*
X117610000Y-112190000D03*
D24*
X120150000Y-112190000D03*
D23*
X122690000Y-112190000D03*
X125230000Y-112190000D03*
X125230000Y-92810000D03*
X122690000Y-92810000D03*
D22*
X120150000Y-92810000D03*
D23*
X117610000Y-92810000D03*
X115070000Y-92810000D03*
X112530000Y-92810000D03*
X109990000Y-92810000D03*
D22*
X107450000Y-92810000D03*
D23*
X104910000Y-92810000D03*
X102370000Y-92810000D03*
X99830000Y-92810000D03*
X97290000Y-92810000D03*
D22*
X94750000Y-92810000D03*
D23*
X92210000Y-92810000D03*
X89670000Y-92810000D03*
X87130000Y-92810000D03*
X84590000Y-92810000D03*
D22*
X82050000Y-92810000D03*
D23*
X79510000Y-92810000D03*
X76970000Y-92810000D03*
D25*
X125800000Y-105040000D03*
D26*
X125000000Y-102500000D03*
D25*
X125800000Y-99960000D03*
%TD*%
D15*
%TO.C,J28*%
X88030000Y-81800000D03*
%TD*%
D12*
%TO.C,J37*%
X107430000Y-89610000D03*
%TD*%
D14*
%TO.C,R1*%
X102600000Y-127315000D03*
X94980000Y-127315000D03*
%TD*%
D12*
%TO.C,J20*%
X87070001Y-115400000D03*
%TD*%
D15*
%TO.C,J29*%
X90600000Y-81800000D03*
%TD*%
D12*
%TO.C,J12*%
X94655000Y-89600001D03*
%TD*%
%TO.C,J21*%
X129470000Y-100000000D03*
%TD*%
%TO.C,J35*%
X120130000Y-115410000D03*
%TD*%
%TO.C,J22*%
X129470000Y-105100000D03*
%TD*%
%TO.C,J14*%
X102370000Y-89600000D03*
%TD*%
%TO.C,J18*%
X115069999Y-115400000D03*
%TD*%
D16*
%TO.C,M2*%
X113390000Y-119695000D03*
D17*
X110890000Y-119695000D03*
X108390000Y-119695000D03*
%TD*%
D12*
%TO.C,J2*%
X122555000Y-89600000D03*
%TD*%
%TO.C,J7*%
X104855000Y-89600000D03*
%TD*%
%TO.C,J9*%
X99755000Y-89600000D03*
%TD*%
%TO.C,J24*%
X79470000Y-89600000D03*
%TD*%
%TO.C,J26*%
X107370000Y-115400000D03*
%TD*%
%TO.C,J4*%
X115055000Y-89600000D03*
%TD*%
D27*
%TO.C,DISP1*%
X129500000Y-114500000D03*
X129500000Y-85500000D03*
X70500000Y-114500000D03*
X70500000Y-85500000D03*
D28*
X99500000Y-84400000D03*
D29*
X102040000Y-84400000D03*
X104580000Y-84400000D03*
X107120000Y-84400000D03*
X109660000Y-84400000D03*
X112200000Y-84400000D03*
X114740000Y-84400000D03*
X117280000Y-84400000D03*
X119820000Y-84400000D03*
%TD*%
D30*
X74000000Y-96000000D02*
X74000000Y-108800000D01*
X65000000Y-111800000D02*
G75*
G02*
X68000000Y-108800000I3000000J0D01*
G01*
X68000000Y-130000000D02*
G75*
G02*
X65000000Y-127000000I0J3000000D01*
G01*
X65000000Y-111800000D02*
X65000000Y-127000000D01*
X65000000Y-82500000D02*
X65000000Y-93000000D01*
X132000000Y-79500000D02*
G75*
G02*
X135000000Y-82500000I0J-3000000D01*
G01*
X68000000Y-96000000D02*
X74000000Y-96000000D01*
X68000000Y-96000000D02*
G75*
G02*
X65000000Y-93000000I0J3000000D01*
G01*
X132000000Y-79500000D02*
X68000000Y-79500000D01*
X135000000Y-82500000D02*
X135000000Y-130000000D01*
X135000000Y-130000000D02*
X68000000Y-130000000D01*
X74000000Y-108800000D02*
X68000000Y-108800000D01*
X65000000Y-82500000D02*
G75*
G02*
X68000000Y-79500000I3000000J0D01*
G01*
M02*
